%FSLAX23Y23*%
%MOMM*%
%SFA1B1*%

%IPPOS*%
%ADD30C,0.250000*%
%ADD31C,0.127000*%
%ADD32C,0.152000*%
%ADD33C,0.100000*%
%ADD34C,0.200000*%
%ADD35C,0.253999*%
%LNdigitalpsu-1*%
%LPD*%
G36*
X39400Y11357D02*
X39421Y11355D01*
X39441Y11353*
X39467Y11350*
X39492Y11346*
X39550Y11332*
X39610Y11311*
X39638Y11297*
X39668Y11281*
X39694Y11262*
X39719Y11241*
X39721Y11239*
X39724Y11237*
X39731Y11230*
X39740Y11221*
X39749Y11209*
X39758Y11195*
X39784Y11160*
X39807Y11117*
X39825Y11068*
X39842Y11010*
X39844Y10978*
X39846Y10945*
Y10943*
Y10941*
Y10927*
X39844Y10906*
X39839Y10878*
X39832Y10848*
X39821Y10816*
X39807Y10781*
X39786Y10746*
X39784Y10742*
X39775Y10732*
X39763Y10716*
X39745Y10698*
X39721Y10675*
X39694Y10654*
X39661Y10633*
X39624Y10614*
X39626*
X39631Y10612*
X39638Y10610*
X39647Y10605*
X39670Y10591*
X39701Y10573*
X39733Y10552*
X39768Y10524*
X39800Y10492*
X39828Y10455*
X39830Y10450*
X39839Y10436*
X39851Y10415*
X39863Y10388*
X39876Y10353*
X39886Y10311*
X39895Y10267*
X39897Y10219*
Y10216*
Y10209*
Y10198*
X39895Y10182*
X39893Y10163*
X39890Y10140*
X39886Y10117*
X39879Y10091*
X39863Y10034*
X39851Y10004*
X39837Y9973*
X39821Y9943*
X39800Y9913*
X39779Y9886*
X39754Y9858*
X39751Y9855*
X39747Y9851*
X39740Y9844*
X39728Y9837*
X39714Y9825*
X39696Y9814*
X39677Y9802*
X39654Y9788*
X39629Y9774*
X39599Y9763*
X39569Y9751*
X39536Y9740*
X39499Y9733*
X39460Y9726*
X39421Y9721*
X39377Y9719*
X39356*
X39340Y9721*
X39321Y9724*
X39300Y9726*
X39277Y9728*
X39249Y9733*
X39191Y9747*
X39131Y9768*
X39101Y9779*
X39071Y9795*
X39041Y9811*
X39013Y9832*
X39011Y9835*
X39006Y9839*
X38997Y9846*
X38986Y9858*
X38974Y9872*
X38960Y9888*
X38944Y9909*
X38928Y9929*
X38911Y9955*
X38895Y9983*
X38881Y10013*
X38870Y10048*
X38858Y10082*
X38849Y10122*
X38844Y10161*
X38842Y10205*
Y10207*
Y10212*
Y10219*
Y10228*
X38844Y10253*
X38849Y10284*
X38858Y10321*
X38868Y10362*
X38884Y10404*
X38905Y10445*
Y10448*
X38907Y10450*
X38916Y10464*
X38932Y10483*
X38955Y10508*
X38983Y10536*
X39018Y10564*
X39060Y10589*
X39108Y10614*
X39106*
X39104Y10617*
X39090Y10624*
X39069Y10635*
X39043Y10649*
X39013Y10670*
X38986Y10693*
X38958Y10721*
X38935Y10751*
X38932Y10756*
X38925Y10767*
X38918Y10783*
X38909Y10809*
X38898Y10837*
X38891Y10871*
X38884Y10906*
X38881Y10945*
Y10948*
Y10952*
Y10962*
X38884Y10975*
X38886Y10989*
X38888Y11008*
X38898Y11049*
X38911Y11096*
X38935Y11147*
X38949Y11170*
X38965Y11195*
X38986Y11218*
X39006Y11241*
X39009Y11244*
X39013Y11246*
X39020Y11253*
X39029Y11260*
X39043Y11269*
X39057Y11279*
X39076Y11290*
X39099Y11302*
X39122Y11311*
X39148Y11322*
X39178Y11332*
X39210Y11341*
X39245Y11348*
X39282Y11355*
X39321Y11357*
X39363Y11360*
X39386*
X39400Y11357*
G37*
G36*
X26914Y10934D02*
X26930D01*
X26946Y10929*
X26969Y10927*
X26992Y10920*
X27018Y10913*
X27046Y10901*
X27073Y10890*
X27103Y10874*
X27134Y10855*
X27164Y10834*
X27194Y10806*
X27221Y10779*
X27249Y10744*
Y10911*
X27536*
Y9867*
Y9865*
Y9858*
Y9848*
Y9835*
Y9816*
X27534Y9798*
X27532Y9754*
X27527Y9703*
X27522Y9652*
X27513Y9603*
X27508Y9582*
X27501Y9562*
X27499Y9557*
X27495Y9545*
X27488Y9527*
X27476Y9504*
X27462Y9478*
X27446Y9450*
X27427Y9425*
X27404Y9402*
X27402Y9400*
X27393Y9393*
X27379Y9381*
X27363Y9370*
X27339Y9356*
X27312Y9339*
X27279Y9326*
X27242Y9312*
X27238Y9309*
X27224Y9307*
X27203Y9300*
X27173Y9295*
X27134Y9289*
X27090Y9282*
X27039Y9279*
X26983Y9277*
X26955*
X26935Y9279*
X26911*
X26884Y9282*
X26854Y9286*
X26821Y9291*
X26752Y9302*
X26682Y9321*
X26650Y9332*
X26618Y9346*
X26590Y9360*
X26564Y9379*
X26562Y9381*
X26560Y9383*
X26546Y9397*
X26525Y9418*
X26504Y9448*
X26481Y9485*
X26460Y9529*
X26446Y9580*
X26444Y9608*
X26442Y9636*
Y9638*
Y9647*
Y9659*
X26444Y9673*
X26796Y9631*
Y9629*
X26798Y9622*
X26800Y9610*
X26803Y9599*
X26814Y9571*
X26823Y9557*
X26835Y9548*
X26837Y9545*
X26844Y9543*
X26854Y9536*
X26870Y9531*
X26888Y9525*
X26911Y9518*
X26939Y9515*
X26972Y9513*
X26992*
X27013Y9515*
X27039Y9518*
X27069Y9522*
X27099Y9529*
X27127Y9538*
X27152Y9550*
X27154Y9552*
X27159Y9555*
X27166Y9559*
X27175Y9569*
X27184Y9580*
X27194Y9594*
X27203Y9610*
X27212Y9629*
Y9631*
X27215Y9636*
X27217Y9645*
X27221Y9661*
X27224Y9680*
X27226Y9703*
X27228Y9733*
Y9768*
Y9936*
X27226Y9934*
X27221Y9929*
X27215Y9920*
X27203Y9906*
X27191Y9892*
X27175Y9876*
X27154Y9860*
X27134Y9844*
X27110Y9825*
X27083Y9809*
X27025Y9779*
X26992Y9768*
X26958Y9758*
X26921Y9751*
X26881Y9749*
X26872*
X26858Y9751*
X26842*
X26823Y9756*
X26800Y9761*
X26775Y9765*
X26747Y9774*
X26719Y9784*
X26689Y9798*
X26657Y9814*
X26627Y9832*
X26597Y9855*
X26567Y9881*
X26539Y9911*
X26511Y9946*
Y9948*
X26506Y9953*
X26502Y9962*
X26495Y9973*
X26486Y9990*
X26476Y10008*
X26467Y10029*
X26458Y10054*
X26449Y10080*
X26439Y10110*
X26430Y10142*
X26421Y10177*
X26409Y10251*
X26407Y10293*
X26405Y10334*
Y10337*
Y10348*
Y10362*
X26407Y10383*
X26409Y10406*
X26412Y10434*
X26416Y10466*
X26423Y10499*
X26439Y10573*
X26451Y10610*
X26462Y10647*
X26479Y10682*
X26497Y10719*
X26518Y10751*
X26543Y10781*
X26546Y10783*
X26550Y10788*
X26557Y10795*
X26569Y10806*
X26583Y10818*
X26599Y10830*
X26618Y10843*
X26641Y10860*
X26664Y10874*
X26692Y10887*
X26749Y10913*
X26784Y10922*
X26819Y10929*
X26856Y10934*
X26893Y10936*
X26902*
X26914Y10934*
G37*
G36*
X38703Y15529D02*
X38739Y15526D01*
X38781Y15522*
X38823Y15516*
X38871Y15509*
X38975Y15487*
X39027Y15471*
X39079Y15454*
X39131Y15432*
X39179Y15406*
X39224Y15377*
X39267Y15344*
X39270Y15341*
X39276Y15335*
X39286Y15325*
X39299Y15312*
X39315Y15292*
X39335Y15270*
X39354Y15244*
X39377Y15215*
X39396Y15179*
X39416Y15144*
X39435Y15101*
X39451Y15056*
X39467Y15011*
X39480Y14959*
X39490Y14907*
X39493Y14849*
X39040Y14833*
Y14836*
Y14839*
X39033Y14862*
X39027Y14891*
X39014Y14927*
X38998Y14969*
X38975Y15008*
X38946Y15046*
X38914Y15079*
X38910Y15082*
X38897Y15092*
X38875Y15105*
X38842Y15118*
X38803Y15131*
X38755Y15144*
X38697Y15153*
X38629Y15156*
X38596*
X38561Y15153*
X38518Y15147*
X38470Y15137*
X38418Y15121*
X38369Y15101*
X38324Y15072*
X38321Y15069*
X38314Y15063*
X38301Y15053*
X38289Y15037*
X38276Y15017*
X38263Y14991*
X38256Y14965*
X38253Y14933*
Y14930*
Y14920*
X38256Y14904*
X38263Y14888*
X38269Y14865*
X38279Y14842*
X38295Y14820*
X38318Y14797*
X38321Y14794*
X38337Y14784*
X38347Y14778*
X38363Y14771*
X38379Y14761*
X38402Y14752*
X38428Y14742*
X38457Y14729*
X38493Y14716*
X38528Y14703*
X38573Y14690*
X38622Y14677*
X38674Y14664*
X38732Y14648*
X38735*
X38748Y14645*
X38765Y14642*
X38787Y14635*
X38813Y14629*
X38846Y14619*
X38881Y14609*
X38917Y14599*
X38994Y14574*
X39075Y14548*
X39153Y14518*
X39186Y14502*
X39218Y14486*
X39221*
X39224Y14483*
X39244Y14470*
X39273Y14450*
X39309Y14425*
X39347Y14392*
X39390Y14353*
X39432Y14308*
X39467Y14256*
X39471Y14250*
X39480Y14230*
X39496Y14201*
X39513Y14159*
X39529Y14107*
X39545Y14046*
X39555Y13978*
X39558Y13900*
Y13897*
Y13890*
Y13881*
Y13868*
X39555Y13851*
X39552Y13829*
X39545Y13783*
X39532Y13725*
X39513Y13664*
X39484Y13602*
X39448Y13537*
Y13534*
X39441Y13531*
X39428Y13511*
X39403Y13479*
X39370Y13443*
X39328Y13401*
X39273Y13362*
X39215Y13323*
X39143Y13288*
X39140*
X39134Y13285*
X39124Y13281*
X39108Y13275*
X39088Y13268*
X39066Y13262*
X39040Y13255*
X39011Y13249*
X38975Y13239*
X38939Y13233*
X38855Y13220*
X38761Y13210*
X38658Y13207*
X38616*
X38586Y13210*
X38551Y13213*
X38512Y13217*
X38467Y13223*
X38418Y13233*
X38311Y13255*
X38256Y13272*
X38204Y13288*
X38149Y13311*
X38097Y13336*
X38049Y13366*
X38004Y13401*
X38000Y13404*
X37994Y13411*
X37981Y13421*
X37968Y13437*
X37948Y13459*
X37929Y13485*
X37906Y13515*
X37884Y13547*
X37861Y13586*
X37838Y13628*
X37816Y13676*
X37793Y13728*
X37777Y13783*
X37757Y13845*
X37744Y13910*
X37735Y13978*
X38175Y14020*
Y14017*
X38178Y14010*
Y13997*
X38182Y13984*
X38195Y13945*
X38211Y13897*
X38230Y13842*
X38259Y13787*
X38292Y13738*
X38334Y13693*
X38340Y13689*
X38357Y13676*
X38382Y13660*
X38421Y13641*
X38470Y13621*
X38525Y13605*
X38590Y13592*
X38664Y13589*
X38700*
X38739Y13596*
X38787Y13602*
X38839Y13612*
X38894Y13628*
X38946Y13651*
X38991Y13680*
X38998Y13683*
X39011Y13696*
X39027Y13715*
X39050Y13741*
X39069Y13774*
X39088Y13813*
X39101Y13851*
X39105Y13897*
Y13900*
Y13910*
X39101Y13926*
X39098Y13945*
X39092Y13965*
X39085Y13987*
X39072Y14010*
X39056Y14033*
X39053Y14036*
X39046Y14042*
X39037Y14052*
X39020Y14065*
X38998Y14081*
X38969Y14097*
X38936Y14114*
X38894Y14130*
X38891*
X38878Y14136*
X38855Y14143*
X38839Y14149*
X38820Y14153*
X38797Y14159*
X38771Y14169*
X38742Y14175*
X38710Y14185*
X38671Y14195*
X38629Y14204*
X38583Y14217*
X38531Y14230*
X38528*
X38515Y14233*
X38496Y14240*
X38473Y14246*
X38444Y14256*
X38408Y14266*
X38373Y14279*
X38331Y14292*
X38246Y14324*
X38165Y14363*
X38123Y14382*
X38088Y14405*
X38052Y14428*
X38023Y14450*
X38020Y14454*
X38013Y14460*
X38004Y14470*
X37991Y14483*
X37974Y14502*
X37958Y14525*
X37939Y14548*
X37923Y14577*
X37884Y14645*
X37851Y14723*
X37838Y14765*
X37829Y14807*
X37822Y14855*
X37819Y14904*
Y14907*
Y14910*
Y14920*
Y14933*
X37825Y14965*
X37832Y15008*
X37842Y15056*
X37858Y15111*
X37880Y15169*
X37913Y15224*
Y15228*
X37916Y15231*
X37932Y15250*
X37952Y15276*
X37984Y15309*
X38023Y15344*
X38072Y15383*
X38127Y15419*
X38191Y15451*
X38195*
X38201Y15454*
X38211Y15458*
X38224Y15464*
X38243Y15471*
X38263Y15477*
X38289Y15484*
X38318Y15493*
X38382Y15506*
X38457Y15519*
X38541Y15529*
X38635Y15532*
X38674*
X38703Y15529*
G37*
G36*
X23845Y10934D02*
X23866Y10931D01*
X23892Y10927*
X23919Y10922*
X23950Y10915*
X23982Y10906*
X24014Y10894*
X24049Y10881*
X24084Y10862*
X24116Y10843*
X24149Y10820*
X24181Y10793*
X24209Y10763*
X24211Y10760*
X24216Y10756*
X24223Y10744*
X24232Y10730*
X24243Y10712*
X24255Y10691*
X24269Y10663*
X24283Y10633*
X24297Y10598*
X24311Y10559*
X24322Y10517*
X24334Y10469*
X24343Y10418*
X24350Y10362*
X24354Y10304*
Y10240*
X23586*
Y10237*
Y10233*
Y10226*
X23589Y10216*
X23591Y10193*
X23596Y10161*
X23605Y10128*
X23619Y10091*
X23635Y10057*
X23658Y10027*
X23660Y10024*
X23672Y10015*
X23686Y10004*
X23707Y9990*
X23732Y9976*
X23764Y9964*
X23799Y9955*
X23836Y9953*
X23848*
X23862Y9955*
X23878Y9957*
X23896Y9962*
X23917Y9969*
X23938Y9978*
X23957Y9992*
X23959Y9994*
X23966Y9999*
X23975Y10008*
X23984Y10022*
X23998Y10041*
X24010Y10061*
X24021Y10089*
X24033Y10119*
X24338Y10068*
Y10066*
X24336Y10061*
X24331Y10052*
X24327Y10041*
X24320Y10027*
X24313Y10010*
X24292Y9973*
X24267Y9932*
X24234Y9888*
X24195Y9848*
X24151Y9811*
X24149*
X24146Y9807*
X24137Y9805*
X24128Y9798*
X24116Y9791*
X24100Y9784*
X24084Y9777*
X24063Y9768*
X24017Y9751*
X23963Y9737*
X23901Y9728*
X23834Y9724*
X23820*
X23806Y9726*
X23785*
X23760Y9730*
X23730Y9735*
X23697Y9740*
X23665Y9749*
X23628Y9758*
X23591Y9772*
X23554Y9788*
X23517Y9807*
X23480Y9830*
X23445Y9855*
X23415Y9886*
X23385Y9920*
X23383Y9923*
X23380Y9927*
X23376Y9936*
X23366Y9948*
X23360Y9964*
X23350Y9983*
X23339Y10004*
X23329Y10029*
X23318Y10057*
X23309Y10087*
X23297Y10119*
X23290Y10156*
X23283Y10193*
X23276Y10233*
X23274Y10277*
X23272Y10321*
Y10323*
Y10332*
Y10348*
X23274Y10369*
X23276Y10392*
X23279Y10420*
X23283Y10450*
X23290Y10485*
X23309Y10557*
X23320Y10594*
X23334Y10633*
X23353Y10670*
X23373Y10705*
X23397Y10739*
X23422Y10772*
X23424Y10774*
X23429Y10779*
X23438Y10788*
X23450Y10797*
X23464Y10809*
X23482Y10823*
X23503Y10839*
X23526Y10855*
X23552Y10869*
X23582Y10885*
X23612Y10899*
X23646Y10911*
X23681Y10920*
X23720Y10929*
X23760Y10934*
X23801Y10936*
X23827*
X23845Y10934*
G37*
G36*
X38490Y10911D02*
X38701D01*
Y10665*
X38490*
Y10196*
Y10193*
Y10189*
Y10182*
Y10172*
Y10149*
Y10122*
X38493Y10094*
Y10066*
Y10045*
X38495Y10036*
Y10031*
X38497Y10027*
X38502Y10017*
X38509Y10006*
X38523Y9992*
X38527Y9990*
X38537Y9985*
X38553Y9980*
X38574Y9978*
X38583*
X38592Y9980*
X38606Y9983*
X38625Y9985*
X38645Y9990*
X38671Y9997*
X38699Y10006*
X38726Y9768*
X38724*
X38722Y9765*
X38708Y9761*
X38685Y9754*
X38655Y9747*
X38620Y9737*
X38578Y9730*
X38532Y9726*
X38483Y9724*
X38470*
X38453Y9726*
X38433Y9728*
X38409Y9730*
X38384Y9735*
X38358Y9742*
X38333Y9751*
X38331Y9754*
X38321Y9756*
X38310Y9763*
X38296Y9770*
X38264Y9793*
X38247Y9807*
X38234Y9823*
X38231Y9825*
X38229Y9832*
X38224Y9842*
X38217Y9855*
X38210Y9872*
X38203Y9892*
X38196Y9916*
X38192Y9941*
Y9943*
X38190Y9953*
Y9967*
X38187Y9990*
X38185Y10020*
Y10057*
X38183Y10078*
Y10103*
Y10128*
Y10159*
Y10665*
X38041*
Y10911*
X38183*
Y11142*
X38490Y11322*
Y10911*
G37*
G36*
X32738Y10774D02*
X32740Y10776D01*
X32745Y10781*
X32752Y10788*
X32763Y10800*
X32777Y10811*
X32793Y10825*
X32812Y10841*
X32833Y10855*
X32881Y10885*
X32939Y10911*
X32969Y10922*
X33004Y10929*
X33039Y10934*
X33073Y10936*
X33094*
X33108Y10934*
X33127Y10931*
X33147Y10927*
X33171Y10922*
X33198Y10918*
X33254Y10899*
X33282Y10885*
X33312Y10871*
X33342Y10853*
X33370Y10832*
X33397Y10809*
X33425Y10781*
X33427Y10779*
X33432Y10774*
X33439Y10765*
X33448Y10753*
X33458Y10737*
X33469Y10719*
X33483Y10695*
X33497Y10670*
X33508Y10640*
X33522Y10607*
X33534Y10570*
X33545Y10531*
X33552Y10489*
X33559Y10443*
X33564Y10395*
X33566Y10341*
Y10339*
Y10327*
Y10314*
X33564Y10293*
X33562Y10267*
X33559Y10240*
X33555Y10207*
X33548Y10172*
X33532Y10098*
X33520Y10061*
X33506Y10022*
X33490Y9985*
X33469Y9948*
X33448Y9916*
X33423Y9883*
X33421Y9881*
X33416Y9876*
X33409Y9869*
X33397Y9858*
X33383Y9846*
X33367Y9832*
X33349Y9818*
X33328Y9805*
X33303Y9788*
X33277Y9774*
X33217Y9749*
X33184Y9737*
X33152Y9730*
X33115Y9726*
X33078Y9724*
X33062*
X33041Y9726*
X33016Y9730*
X32985Y9735*
X32953Y9744*
X32918Y9756*
X32881Y9772*
X32877Y9774*
X32865Y9781*
X32847Y9793*
X32824Y9809*
X32798Y9830*
X32770Y9853*
X32743Y9883*
X32715Y9918*
Y9749*
X32430*
Y11350*
X32738*
Y10774*
G37*
G36*
X29693Y10934D02*
X29714Y10931D01*
X29739Y10927*
X29767Y10922*
X29797Y10915*
X29829Y10906*
X29862Y10894*
X29896Y10881*
X29931Y10862*
X29963Y10843*
X29996Y10820*
X30028Y10793*
X30056Y10763*
X30058Y10760*
X30063Y10756*
X30070Y10744*
X30079Y10730*
X30091Y10712*
X30102Y10691*
X30116Y10663*
X30130Y10633*
X30144Y10598*
X30158Y10559*
X30169Y10517*
X30181Y10469*
X30190Y10418*
X30197Y10362*
X30202Y10304*
Y10240*
X29434*
Y10237*
Y10233*
Y10226*
X29436Y10216*
X29438Y10193*
X29443Y10161*
X29452Y10128*
X29466Y10091*
X29482Y10057*
X29505Y10027*
X29508Y10024*
X29519Y10015*
X29533Y10004*
X29554Y9990*
X29579Y9976*
X29612Y9964*
X29646Y9955*
X29683Y9953*
X29695*
X29709Y9955*
X29725Y9957*
X29744Y9962*
X29764Y9969*
X29785Y9978*
X29804Y9992*
X29806Y9994*
X29813Y9999*
X29822Y10008*
X29832Y10022*
X29845Y10041*
X29857Y10061*
X29869Y10089*
X29880Y10119*
X30186Y10068*
Y10066*
X30183Y10061*
X30179Y10052*
X30174Y10041*
X30167Y10027*
X30160Y10010*
X30139Y9973*
X30114Y9932*
X30082Y9888*
X30042Y9848*
X29998Y9811*
X29996*
X29994Y9807*
X29984Y9805*
X29975Y9798*
X29963Y9791*
X29947Y9784*
X29931Y9777*
X29910Y9768*
X29864Y9751*
X29811Y9737*
X29748Y9728*
X29681Y9724*
X29667*
X29653Y9726*
X29633*
X29607Y9730*
X29577Y9735*
X29545Y9740*
X29512Y9749*
X29475Y9758*
X29438Y9772*
X29401Y9788*
X29364Y9807*
X29327Y9830*
X29292Y9855*
X29262Y9886*
X29232Y9920*
X29230Y9923*
X29228Y9927*
X29223Y9936*
X29214Y9948*
X29207Y9964*
X29198Y9983*
X29186Y10004*
X29177Y10029*
X29165Y10057*
X29156Y10087*
X29144Y10119*
X29137Y10156*
X29130Y10193*
X29124Y10233*
X29121Y10277*
X29119Y10321*
Y10323*
Y10332*
Y10348*
X29121Y10369*
X29124Y10392*
X29126Y10420*
X29130Y10450*
X29137Y10485*
X29156Y10557*
X29167Y10594*
X29181Y10633*
X29200Y10670*
X29221Y10705*
X29244Y10739*
X29269Y10772*
X29272Y10774*
X29276Y10779*
X29286Y10788*
X29297Y10797*
X29311Y10809*
X29329Y10823*
X29350Y10839*
X29373Y10855*
X29399Y10869*
X29429Y10885*
X29459Y10899*
X29494Y10911*
X29528Y10920*
X29568Y10929*
X29607Y10934*
X29649Y10936*
X29674*
X29693Y10934*
G37*
G36*
X16419Y14907D02*
X16451Y14904D01*
X16487Y14901*
X16526Y14897*
X16607Y14884*
X16688Y14865*
X16765Y14836*
X16801Y14820*
X16833Y14800*
X16837*
X16840Y14794*
X16859Y14781*
X16888Y14755*
X16921Y14719*
X16960Y14677*
X16995Y14622*
X17031Y14557*
X17057Y14483*
X16652Y14408*
Y14412*
X16646Y14425*
X16639Y14441*
X16629Y14460*
X16616Y14486*
X16597Y14509*
X16578Y14531*
X16552Y14551*
X16548Y14554*
X16539Y14561*
X16523Y14567*
X16500Y14577*
X16471Y14586*
X16435Y14596*
X16393Y14599*
X16344Y14603*
X16315*
X16286Y14599*
X16251Y14596*
X16208Y14590*
X16170Y14583*
X16134Y14570*
X16102Y14554*
X16098*
X16095Y14548*
X16079Y14531*
X16059Y14502*
X16056Y14486*
X16053Y14467*
Y14463*
Y14460*
X16059Y14441*
X16072Y14415*
X16082Y14402*
X16095Y14389*
X16098Y14386*
X16111Y14382*
X16118Y14376*
X16131Y14373*
X16147Y14366*
X16166Y14357*
X16192Y14350*
X16218Y14340*
X16251Y14331*
X16289Y14321*
X16331Y14308*
X16380Y14295*
X16435Y14282*
X16497Y14266*
X16500*
X16513Y14263*
X16529Y14259*
X16552Y14253*
X16581Y14243*
X16613Y14237*
X16684Y14214*
X16765Y14185*
X16843Y14153*
X16882Y14133*
X16918Y14117*
X16947Y14094*
X16976Y14075*
X16982Y14068*
X16999Y14055*
X17018Y14029*
X17044Y13994*
X17070Y13949*
X17089Y13893*
X17105Y13829*
X17112Y13757*
Y13754*
Y13748*
Y13735*
X17109Y13719*
X17105Y13702*
X17102Y13680*
X17089Y13625*
X17067Y13566*
X17050Y13534*
X17034Y13502*
X17012Y13469*
X16986Y13437*
X16957Y13404*
X16924Y13372*
X16921Y13369*
X16914Y13366*
X16905Y13359*
X16888Y13346*
X16869Y13336*
X16846Y13323*
X16817Y13307*
X16785Y13294*
X16749Y13278*
X16707Y13265*
X16662Y13249*
X16613Y13239*
X16558Y13230*
X16500Y13220*
X16438Y13217*
X16374Y13213*
X16341*
X16319Y13217*
X16289*
X16257Y13220*
X16221Y13223*
X16183Y13230*
X16098Y13246*
X16011Y13268*
X15923Y13301*
X15885Y13323*
X15846Y13346*
X15842Y13349*
X15836Y13353*
X15826Y13359*
X15817Y13372*
X15781Y13401*
X15742Y13443*
X15700Y13495*
X15661Y13557*
X15625Y13631*
X15596Y13712*
X16027Y13777*
Y13770*
X16034Y13757*
X16040Y13735*
X16050Y13706*
X16066Y13673*
X16085Y13644*
X16108Y13612*
X16137Y13586*
X16140Y13583*
X16153Y13576*
X16173Y13566*
X16199Y13557*
X16231Y13544*
X16273Y13534*
X16319Y13528*
X16374Y13524*
X16399*
X16432Y13528*
X16467Y13531*
X16506Y13537*
X16548Y13550*
X16587Y13563*
X16623Y13583*
X16626Y13586*
X16633Y13592*
X16642Y13602*
X16652Y13615*
X16662Y13631*
X16672Y13651*
X16678Y13673*
X16681Y13699*
Y13702*
Y13709*
X16678Y13728*
X16668Y13754*
X16649Y13780*
X16642Y13787*
X16633Y13790*
X16620Y13800*
X16600Y13806*
X16574Y13816*
X16545Y13825*
X16506Y13835*
X16500*
X16484Y13842*
X16458Y13848*
X16422Y13855*
X16380Y13864*
X16335Y13877*
X16283Y13890*
X16228Y13906*
X16114Y13939*
X16059Y13955*
X16008Y13974*
X15959Y13991*
X15914Y14010*
X15875Y14029*
X15846Y14046*
X15842Y14049*
X15836Y14052*
X15830Y14059*
X15817Y14072*
X15784Y14101*
X15752Y14143*
X15716Y14195*
X15684Y14256*
X15671Y14292*
X15664Y14331*
X15658Y14370*
X15655Y14412*
Y14415*
Y14421*
Y14431*
X15658Y14447*
X15661Y14463*
X15664Y14486*
X15674Y14535*
X15693Y14590*
X15726Y14648*
X15742Y14680*
X15765Y14710*
X15791Y14739*
X15820Y14765*
X15823Y14768*
X15826Y14771*
X15836Y14778*
X15852Y14787*
X15868Y14797*
X15891Y14810*
X15917Y14823*
X15946Y14839*
X15982Y14852*
X16021Y14865*
X16063Y14878*
X16108Y14888*
X16160Y14897*
X16215Y14904*
X16273Y14910*
X16393*
X16419Y14907*
G37*
G36*
X43865Y13848D02*
X43020D01*
Y14279*
X43865*
Y13848*
G37*
G36*
X50407Y13249D02*
X49918D01*
X49115Y15490*
X49604*
X50174Y13832*
X50721Y15490*
X51204*
X50407Y13249*
G37*
G36*
X18433Y14907D02*
X18456Y14904D01*
X18485Y14897*
X18517Y14891*
X18550Y14881*
X18589Y14871*
X18624Y14855*
X18666Y14839*
X18705Y14816*
X18747Y14791*
X18786Y14761*
X18825Y14726*
X18864Y14687*
X18867Y14684*
X18874Y14677*
X18883Y14664*
X18896Y14645*
X18909Y14625*
X18926Y14596*
X18945Y14564*
X18964Y14528*
X18981Y14486*
X19000Y14441*
X19016Y14389*
X19032Y14334*
X19042Y14272*
X19052Y14211*
X19058Y14140*
X19062Y14068*
Y14065*
Y14052*
Y14029*
X19058Y14000*
X19055Y13968*
X19052Y13929*
X19045Y13884*
X19036Y13838*
X19013Y13735*
X18997Y13683*
X18977Y13631*
X18955Y13579*
X18926Y13531*
X18896Y13482*
X18861Y13437*
X18858Y13434*
X18851Y13427*
X18841Y13417*
X18825Y13401*
X18806Y13385*
X18783Y13366*
X18757Y13346*
X18728Y13327*
X18692Y13304*
X18657Y13285*
X18576Y13249*
X18530Y13233*
X18482Y13223*
X18433Y13217*
X18381Y13213*
X18359*
X18333Y13217*
X18300Y13220*
X18262Y13226*
X18220Y13236*
X18177Y13249*
X18135Y13265*
X18132Y13268*
X18116Y13275*
X18096Y13291*
X18067Y13311*
X18032Y13333*
X17996Y13366*
X17954Y13404*
X17909Y13450*
Y12627*
X17478*
Y14875*
X17879*
Y14635*
X17883Y14642*
X17892Y14655*
X17912Y14677*
X17935Y14706*
X17964Y14739*
X18003Y14771*
X18041Y14803*
X18090Y14833*
X18096Y14836*
X18113Y14846*
X18142Y14859*
X18177Y14871*
X18220Y14884*
X18271Y14897*
X18326Y14907*
X18385Y14910*
X18411*
X18433Y14907*
G37*
G36*
X33667Y15529D02*
X33703Y15526D01*
X33742Y15519*
X33787Y15513*
X33836Y15503*
X33887Y15490*
X33942Y15474*
X33997Y15454*
X34056Y15429*
X34111Y15403*
X34163Y15370*
X34218Y15331*
X34266Y15289*
X34270*
X34273Y15283*
X34282Y15273*
X34292Y15263*
X34305Y15247*
X34318Y15228*
X34354Y15182*
X34389Y15124*
X34428Y15053*
X34464Y14972*
X34496Y14878*
X34049Y14771*
Y14774*
X34046Y14778*
Y14787*
X34040Y14800*
X34030Y14829*
X34014Y14868*
X33991Y14914*
X33962Y14959*
X33923Y15004*
X33881Y15043*
X33874Y15046*
X33858Y15059*
X33832Y15076*
X33797Y15095*
X33751Y15114*
X33700Y15131*
X33641Y15144*
X33576Y15147*
X33554*
X33534Y15144*
X33515Y15140*
X33489Y15137*
X33434Y15124*
X33369Y15101*
X33301Y15069*
X33266Y15050*
X33233Y15027*
X33201Y14998*
X33172Y14965*
Y14962*
X33165Y14956*
X33159Y14946*
X33149Y14930*
X33136Y14910*
X33123Y14888*
X33110Y14859*
X33097Y14826*
X33081Y14787*
X33068Y14745*
X33055Y14697*
X33042Y14645*
X33032Y14586*
X33026Y14525*
X33023Y14457*
X33019Y14382*
Y14379*
Y14363*
Y14340*
X33023Y14314*
Y14279*
X33029Y14237*
X33032Y14195*
X33039Y14146*
X33058Y14046*
X33084Y13945*
X33100Y13897*
X33123Y13851*
X33146Y13809*
X33172Y13774*
X33175Y13770*
X33178Y13767*
X33188Y13757*
X33201Y13744*
X33233Y13719*
X33279Y13686*
X33334Y13651*
X33402Y13625*
X33479Y13602*
X33521Y13599*
X33567Y13596*
X33583*
X33596Y13599*
X33632Y13602*
X33674Y13608*
X33719Y13625*
X33771Y13644*
X33823Y13670*
X33874Y13709*
X33881Y13715*
X33897Y13732*
X33920Y13757*
X33946Y13796*
X33978Y13848*
X34007Y13910*
X34036Y13984*
X34062Y14072*
X34503Y13936*
Y13932*
X34499Y13919*
X34493Y13900*
X34483Y13874*
X34470Y13845*
X34457Y13809*
X34441Y13770*
X34422Y13728*
X34376Y13641*
X34318Y13550*
X34247Y13463*
X34208Y13424*
X34166Y13388*
X34163Y13385*
X34156Y13382*
X34143Y13372*
X34124Y13359*
X34101Y13346*
X34072Y13333*
X34040Y13317*
X34004Y13301*
X33962Y13281*
X33917Y13265*
X33868Y13252*
X33816Y13239*
X33761Y13226*
X33700Y13217*
X33638Y13213*
X33570Y13210*
X33551*
X33528Y13213*
X33496Y13217*
X33460Y13220*
X33415Y13226*
X33366Y13236*
X33311Y13249*
X33256Y13265*
X33198Y13285*
X33136Y13311*
X33075Y13340*
X33013Y13372*
X32951Y13414*
X32893Y13459*
X32838Y13515*
X32835Y13518*
X32825Y13528*
X32812Y13547*
X32793Y13570*
X32773Y13602*
X32747Y13638*
X32722Y13683*
X32696Y13735*
X32670Y13790*
X32644Y13851*
X32618Y13923*
X32598Y13997*
X32579Y14075*
X32566Y14162*
X32556Y14253*
X32553Y14350*
Y14353*
Y14357*
Y14376*
X32556Y14405*
Y14444*
X32563Y14489*
X32569Y14544*
X32576Y14603*
X32589Y14671*
X32605Y14739*
X32624Y14810*
X32647Y14881*
X32676Y14956*
X32709Y15027*
X32747Y15095*
X32790Y15160*
X32841Y15221*
X32845Y15224*
X32854Y15234*
X32870Y15250*
X32893Y15270*
X32922Y15292*
X32958Y15318*
X32997Y15348*
X33045Y15377*
X33097Y15406*
X33152Y15435*
X33217Y15461*
X33282Y15484*
X33356Y15503*
X33431Y15519*
X33515Y15529*
X33599Y15532*
X33638*
X33667Y15529*
G37*
G36*
X25079Y14907D02*
X25114Y14901D01*
X25160Y14891*
X25208Y14875*
X25257Y14855*
X25309Y14826*
X25173Y14454*
X25169Y14457*
X25153Y14463*
X25134Y14476*
X25108Y14489*
X25075Y14502*
X25043Y14515*
X25007Y14522*
X24972Y14525*
X24959*
X24939Y14522*
X24920Y14518*
X24897Y14512*
X24871Y14502*
X24845Y14489*
X24820Y14473*
X24816Y14470*
X24810Y14463*
X24797Y14450*
X24784Y14431*
X24768Y14408*
X24752Y14376*
X24735Y14337*
X24722Y14292*
Y14285*
X24719Y14276*
X24716Y14266*
Y14250*
X24713Y14230*
X24709Y14204*
X24706Y14175*
X24703Y14143*
X24700Y14101*
X24697Y14059*
Y14007*
X24693Y13952*
X24690Y13890*
Y13822*
Y13748*
Y13249*
X24259*
Y14875*
X24658*
Y14645*
X24661Y14648*
X24674Y14667*
X24693Y14697*
X24719Y14732*
X24745Y14768*
X24777Y14803*
X24807Y14836*
X24839Y14859*
X24842Y14862*
X24852Y14868*
X24871Y14875*
X24894Y14884*
X24920Y14894*
X24952Y14904*
X24985Y14907*
X25024Y14910*
X25050*
X25079Y14907*
G37*
G36*
X23861D02*
X23897Y14901D01*
X23942Y14891*
X23991Y14875*
X24039Y14855*
X24091Y14826*
X23955Y14454*
X23952Y14457*
X23935Y14463*
X23916Y14476*
X23890Y14489*
X23858Y14502*
X23825Y14515*
X23790Y14522*
X23754Y14525*
X23741*
X23722Y14522*
X23702Y14518*
X23680Y14512*
X23654Y14502*
X23628Y14489*
X23602Y14473*
X23599Y14470*
X23592Y14463*
X23579Y14450*
X23566Y14431*
X23550Y14408*
X23534Y14376*
X23518Y14337*
X23505Y14292*
Y14285*
X23502Y14276*
X23498Y14266*
Y14250*
X23495Y14230*
X23492Y14204*
X23489Y14175*
X23485Y14143*
X23482Y14101*
X23479Y14059*
Y14007*
X23476Y13952*
X23472Y13890*
Y13822*
Y13748*
Y13249*
X23042*
Y14875*
X23440*
Y14645*
X23443Y14648*
X23456Y14667*
X23476Y14697*
X23502Y14732*
X23527Y14768*
X23560Y14803*
X23589Y14836*
X23621Y14859*
X23625Y14862*
X23634Y14868*
X23654Y14875*
X23676Y14884*
X23702Y14894*
X23735Y14904*
X23767Y14907*
X23806Y14910*
X23832*
X23861Y14907*
G37*
G36*
X22406Y11348D02*
X22450Y11346D01*
X22499Y11343*
X22550Y11336*
X22598Y11329*
X22642Y11318*
X22644*
X22649Y11316*
X22656Y11313*
X22665Y11311*
X22693Y11299*
X22725Y11283*
X22763Y11262*
X22804Y11237*
X22843Y11207*
X22883Y11170*
X22885*
X22887Y11165*
X22899Y11151*
X22918Y11128*
X22938Y11098*
X22964Y11061*
X22989Y11017*
X23015Y10966*
X23036Y10911*
Y10908*
X23038Y10904*
X23040Y10894*
X23045Y10883*
X23047Y10869*
X23052Y10850*
X23056Y10830*
X23063Y10806*
X23068Y10781*
X23073Y10751*
X23077Y10721*
X23080Y10686*
X23086Y10614*
X23089Y10533*
Y10531*
Y10524*
Y10515*
Y10501*
X23086Y10483*
Y10464*
X23084Y10441*
X23082Y10415*
X23077Y10362*
X23068Y10307*
X23054Y10249*
X23038Y10193*
Y10191*
X23036Y10186*
X23031Y10177*
X23026Y10163*
X23022Y10149*
X23012Y10133*
X22994Y10091*
X22971Y10048*
X22941Y9999*
X22906Y9953*
X22867Y9909*
X22862Y9904*
X22850Y9895*
X22832Y9881*
X22806Y9862*
X22774Y9842*
X22737Y9821*
X22691Y9800*
X22640Y9781*
X22638*
X22635Y9779*
X22628*
X22621Y9777*
X22596Y9772*
X22564Y9765*
X22524Y9758*
X22476Y9754*
X22418Y9751*
X22355Y9749*
X21749*
Y11350*
X22388*
X22406Y11348*
G37*
G36*
X30886Y7857D02*
X30905Y7855D01*
X30928Y7850*
X30951Y7846*
X30979Y7839*
X31009Y7829*
X31037Y7818*
X31067Y7806*
X31097Y7790*
X31127Y7769*
X31157Y7748*
X31185Y7723*
X31210Y7693*
X31213Y7691*
X31217Y7684*
X31224Y7672*
X31236Y7656*
X31247Y7633*
X31261Y7605*
X31275Y7575*
X31289Y7536*
X31303Y7494*
X31319Y7445*
X31331Y7392*
X31342Y7332*
X31354Y7267*
X31361Y7198*
X31365Y7121*
X31368Y7038*
Y7036*
Y7033*
Y7026*
Y7017*
Y6994*
X31365Y6964*
X31363Y6927*
X31358Y6883*
X31354Y6837*
X31349Y6786*
X31340Y6733*
X31328Y6677*
X31317Y6624*
X31301Y6571*
X31284Y6517*
X31261Y6469*
X31238Y6423*
X31210Y6383*
X31208Y6381*
X31203Y6376*
X31196Y6367*
X31187Y6358*
X31173Y6346*
X31157Y6332*
X31136Y6316*
X31116Y6302*
X31090Y6286*
X31065Y6270*
X31035Y6256*
X31002Y6244*
X30967Y6235*
X30928Y6226*
X30889Y6221*
X30847Y6219*
X30838*
X30824Y6221*
X30808*
X30789Y6224*
X30766Y6228*
X30741Y6233*
X30713Y6242*
X30683Y6251*
X30653Y6263*
X30620Y6277*
X30590Y6295*
X30558Y6314*
X30528Y6339*
X30498Y6365*
X30470Y6397*
X30468Y6399*
X30463Y6406*
X30456Y6418*
X30449Y6432*
X30438Y6453*
X30426Y6478*
X30412Y6510*
X30400Y6545*
X30387Y6587*
X30373Y6633*
X30361Y6686*
X30352Y6744*
X30343Y6809*
X30336Y6881*
X30331Y6957*
X30329Y7040*
Y7043*
Y7045*
Y7052*
Y7061*
Y7084*
X30331Y7114*
X30333Y7151*
X30338Y7195*
X30343Y7242*
X30347Y7293*
X30357Y7346*
X30366Y7399*
X30380Y7455*
X30394Y7508*
X30412Y7559*
X30433Y7607*
X30456Y7654*
X30484Y7693*
X30486Y7695*
X30491Y7700*
X30498Y7709*
X30509Y7718*
X30521Y7732*
X30537Y7746*
X30558Y7760*
X30579Y7776*
X30604Y7792*
X30630Y7806*
X30660Y7820*
X30692Y7834*
X30727Y7843*
X30766Y7853*
X30805Y7857*
X30847Y7859*
X30870*
X30886Y7857*
G37*
G36*
X26157Y11066D02*
X25849D01*
Y11350*
X26157*
Y11066*
G37*
G36*
X31518Y9749D02*
X31234D01*
Y9918*
X31232Y9913*
X31222Y9902*
X31206Y9883*
X31185Y9862*
X31162Y9839*
X31132Y9814*
X31100Y9791*
X31065Y9770*
X31060Y9768*
X31049Y9763*
X31028Y9756*
X31005Y9747*
X30975Y9737*
X30940Y9730*
X30905Y9726*
X30868Y9724*
X30850*
X30836Y9726*
X30817Y9728*
X30799Y9733*
X30776Y9737*
X30750Y9744*
X30725Y9751*
X30697Y9763*
X30669Y9774*
X30639Y9791*
X30611Y9809*
X30581Y9830*
X30554Y9855*
X30526Y9883*
X30523Y9886*
X30519Y9890*
X30512Y9899*
X30505Y9913*
X30493Y9929*
X30482Y9950*
X30468Y9973*
X30456Y10001*
X30442Y10031*
X30429Y10064*
X30417Y10101*
X30408Y10140*
X30399Y10184*
X30392Y10230*
X30387Y10279*
X30385Y10332*
Y10334*
Y10346*
Y10360*
X30387Y10381*
X30389Y10406*
X30392Y10434*
X30396Y10466*
X30401Y10499*
X30417Y10573*
X30429Y10610*
X30442Y10647*
X30459Y10684*
X30477Y10719*
X30498Y10751*
X30521Y10781*
X30523Y10783*
X30528Y10788*
X30535Y10795*
X30547Y10806*
X30560Y10818*
X30577Y10830*
X30595Y10843*
X30618Y10860*
X30641Y10874*
X30669Y10887*
X30727Y10913*
X30762Y10922*
X30797Y10929*
X30834Y10934*
X30873Y10936*
X30891*
X30905Y10934*
X30921Y10931*
X30942Y10927*
X30963Y10922*
X30989Y10915*
X31014Y10908*
X31042Y10897*
X31070Y10883*
X31097Y10869*
X31127Y10848*
X31155Y10827*
X31183Y10802*
X31211Y10774*
Y11350*
X31518*
Y9749*
G37*
G36*
X29651Y7857D02*
X29672Y7855D01*
X29695Y7853*
X29720Y7848*
X29748Y7843*
X29808Y7827*
X29868Y7804*
X29901Y7790*
X29928Y7774*
X29959Y7753*
X29984Y7730*
X29986Y7728*
X29991Y7725*
X29996Y7716*
X30005Y7707*
X30016Y7695*
X30028Y7679*
X30040Y7663*
X30053Y7642*
X30077Y7596*
X30100Y7542*
X30109Y7512*
X30114Y7480*
X30118Y7445*
X30121Y7411*
Y7406*
Y7392*
X30118Y7371*
X30116Y7346*
X30111Y7313*
X30104Y7279*
X30095Y7242*
X30081Y7205*
X30079Y7200*
X30074Y7188*
X30065Y7168*
X30051Y7142*
X30035Y7112*
X30014Y7077*
X29989Y7040*
X29959Y7001*
X29956Y6999*
X29947Y6987*
X29933Y6971*
X29912Y6948*
X29884Y6920*
X29850Y6883*
X29808Y6844*
X29757Y6795*
X29755Y6793*
X29750Y6790*
X29743Y6784*
X29734Y6774*
X29709Y6751*
X29679Y6723*
X29648Y6693*
X29618Y6663*
X29591Y6638*
X29581Y6626*
X29572Y6617*
X29570Y6615*
X29565Y6610*
X29558Y6601*
X29549Y6589*
X29528Y6564*
X29510Y6534*
X30121*
Y6249*
X29045*
Y6251*
Y6256*
X29047Y6265*
X29049Y6277*
X29051Y6291*
X29054Y6307*
X29063Y6349*
X29077Y6395*
X29095Y6446*
X29119Y6501*
X29149Y6554*
Y6557*
X29153Y6561*
X29158Y6571*
X29167Y6580*
X29176Y6596*
X29190Y6612*
X29207Y6633*
X29225Y6656*
X29246Y6684*
X29271Y6712*
X29299Y6744*
X29331Y6779*
X29366Y6814*
X29405Y6853*
X29447Y6895*
X29493Y6939*
X29496Y6941*
X29503Y6948*
X29512Y6957*
X29526Y6971*
X29544Y6985*
X29563Y7003*
X29604Y7045*
X29646Y7089*
X29688Y7133*
X29706Y7151*
X29725Y7172*
X29739Y7188*
X29748Y7202*
X29750Y7207*
X29757Y7219*
X29769Y7237*
X29780Y7263*
X29792Y7290*
X29803Y7323*
X29810Y7355*
X29813Y7390*
Y7392*
Y7394*
Y7406*
X29810Y7427*
X29806Y7450*
X29799Y7475*
X29790Y7501*
X29776Y7526*
X29757Y7549*
X29755Y7552*
X29748Y7559*
X29734Y7568*
X29718Y7577*
X29695Y7586*
X29669Y7596*
X29639Y7603*
X29604Y7605*
X29588*
X29570Y7603*
X29549Y7598*
X29524Y7591*
X29498Y7580*
X29473Y7566*
X29449Y7547*
X29447Y7545*
X29440Y7536*
X29431Y7522*
X29422Y7501*
X29410Y7475*
X29401Y7441*
X29392Y7401*
X29387Y7355*
X29082Y7385*
Y7387*
X29084Y7397*
Y7408*
X29088Y7427*
X29091Y7448*
X29098Y7471*
X29105Y7496*
X29112Y7526*
X29135Y7584*
X29163Y7644*
X29181Y7674*
X29202Y7702*
X29225Y7725*
X29250Y7748*
X29253Y7751*
X29257Y7753*
X29264Y7758*
X29276Y7767*
X29290Y7774*
X29308Y7783*
X29327Y7795*
X29350Y7804*
X29375Y7816*
X29403Y7825*
X29463Y7843*
X29535Y7855*
X29572Y7857*
X29611Y7859*
X29635*
X29651Y7857*
G37*
G36*
X35320Y6677D02*
X34716D01*
Y6985*
X35320*
Y6677*
G37*
G36*
X28350D02*
X27746D01*
Y6985*
X28350*
Y6677*
G37*
G36*
X32358Y6249D02*
X32050D01*
Y7408*
X32048Y7406*
X32043Y7401*
X32034Y7394*
X32020Y7383*
X32004Y7369*
X31986Y7355*
X31962Y7339*
X31937Y7320*
X31909Y7302*
X31879Y7283*
X31847Y7263*
X31812Y7244*
X31738Y7209*
X31655Y7177*
Y7455*
X31657*
X31659Y7457*
X31666Y7459*
X31675Y7462*
X31699Y7473*
X31731Y7487*
X31770Y7505*
X31814Y7531*
X31863Y7563*
X31914Y7600*
X31916Y7603*
X31921Y7605*
X31928Y7612*
X31937Y7621*
X31962Y7644*
X31990Y7674*
X32023Y7711*
X32055Y7758*
X32085Y7806*
X32108Y7859*
X32358*
Y6249*
G37*
G36*
X41142Y11107D02*
X41140Y11105D01*
X41135Y11100*
X41128Y11093*
X41119Y11084*
X41107Y11070*
X41094Y11054*
X41077Y11036*
X41059Y11012*
X41040Y10987*
X41019Y10959*
X40996Y10929*
X40973Y10897*
X40950Y10860*
X40927Y10823*
X40901Y10781*
X40876Y10737*
X40874Y10735*
X40869Y10725*
X40862Y10714*
X40853Y10695*
X40844Y10675*
X40830Y10647*
X40816Y10617*
X40800Y10584*
X40783Y10547*
X40767Y10508*
X40749Y10466*
X40733Y10422*
X40700Y10327*
X40670Y10228*
Y10226*
X40668Y10216*
X40663Y10203*
X40659Y10182*
X40654Y10159*
X40649Y10133*
X40642Y10101*
X40635Y10068*
X40628Y10031*
X40624Y9994*
X40612Y9913*
X40605Y9830*
X40603Y9749*
X40307*
Y9754*
Y9763*
X40309Y9781*
Y9807*
X40311Y9837*
X40316Y9872*
X40321Y9913*
X40328Y9957*
X40335Y10006*
X40344Y10059*
X40355Y10115*
X40367Y10175*
X40383Y10235*
X40399Y10297*
X40420Y10360*
X40443Y10425*
X40446Y10429*
X40450Y10441*
X40457Y10459*
X40466Y10483*
X40480Y10513*
X40497Y10550*
X40515Y10589*
X40536Y10633*
X40559Y10679*
X40584Y10728*
X40612Y10781*
X40645Y10832*
X40712Y10941*
X40788Y11045*
X40092*
Y11329*
X41142*
Y11107*
G37*
G36*
X37426Y10934D02*
X37444D01*
X37491Y10929*
X37539Y10924*
X37590Y10915*
X37639Y10901*
X37660Y10894*
X37680Y10885*
X37683*
X37685Y10883*
X37697Y10876*
X37715Y10867*
X37736Y10853*
X37761Y10834*
X37785Y10813*
X37805Y10788*
X37824Y10763*
X37826Y10758*
X37831Y10749*
X37838Y10728*
X37840Y10716*
X37845Y10700*
X37849Y10684*
X37852Y10663*
X37856Y10640*
X37859Y10614*
X37861Y10587*
X37863Y10557*
X37866Y10524*
Y10487*
X37861Y10128*
Y10126*
Y10122*
Y10115*
Y10103*
Y10075*
X37863Y10043*
Y10006*
X37868Y9969*
X37870Y9932*
X37875Y9902*
Y9899*
X37877Y9890*
X37882Y9874*
X37886Y9855*
X37896Y9832*
X37905Y9807*
X37916Y9779*
X37930Y9749*
X37627*
Y9751*
X37625Y9754*
X37623Y9763*
X37618Y9772*
X37613Y9784*
X37609Y9800*
X37604Y9818*
X37597Y9839*
Y9842*
X37595Y9844*
X37593Y9853*
X37588Y9865*
X37586Y9874*
X37581Y9872*
X37572Y9862*
X37556Y9848*
X37535Y9832*
X37509Y9814*
X37481Y9793*
X37449Y9777*
X37417Y9761*
X37412Y9758*
X37400Y9756*
X37382Y9749*
X37359Y9742*
X37331Y9735*
X37299Y9730*
X37262Y9726*
X37225Y9724*
X37208*
X37195Y9726*
X37181*
X37162Y9728*
X37123Y9735*
X37077Y9747*
X37030Y9763*
X36984Y9786*
X36942Y9818*
Y9821*
X36938Y9823*
X36926Y9837*
X36910Y9858*
X36891Y9886*
X36873Y9920*
X36857Y9962*
X36845Y10010*
X36843Y10036*
X36841Y10064*
Y10068*
Y10080*
X36843Y10098*
X36847Y10122*
X36852Y10149*
X36859Y10177*
X36871Y10207*
X36887Y10237*
X36889Y10242*
X36896Y10251*
X36905Y10265*
X36922Y10281*
X36938Y10300*
X36961Y10321*
X36986Y10339*
X37016Y10355*
X37021Y10358*
X37033Y10362*
X37051Y10369*
X37079Y10381*
X37114Y10392*
X37155Y10404*
X37206Y10415*
X37262Y10427*
X37264*
X37271Y10429*
X37282Y10432*
X37296Y10434*
X37315Y10436*
X37336Y10441*
X37382Y10452*
X37431Y10464*
X37481Y10476*
X37525Y10489*
X37546Y10496*
X37562Y10503*
Y10533*
Y10538*
Y10547*
X37560Y10564*
X37558Y10584*
X37551Y10605*
X37544Y10626*
X37532Y10645*
X37516Y10661*
X37514Y10663*
X37507Y10668*
X37495Y10672*
X37479Y10682*
X37456Y10688*
X37428Y10693*
X37394Y10698*
X37352Y10700*
X37338*
X37324Y10698*
X37306Y10695*
X37285Y10691*
X37262Y10686*
X37241Y10677*
X37222Y10665*
X37220Y10663*
X37215Y10658*
X37206Y10651*
X37197Y10640*
X37183Y10624*
X37171Y10603*
X37160Y10580*
X37148Y10552*
X36873Y10603*
Y10605*
X36875Y10610*
X36878Y10619*
X36882Y10631*
X36887Y10645*
X36894Y10661*
X36910Y10698*
X36933Y10737*
X36961Y10779*
X36993Y10818*
X37033Y10853*
X37035*
X37037Y10857*
X37044Y10860*
X37053Y10867*
X37067Y10871*
X37081Y10878*
X37100Y10887*
X37118Y10894*
X37141Y10901*
X37167Y10911*
X37195Y10918*
X37227Y10922*
X37259Y10929*
X37296Y10931*
X37333Y10936*
X37410*
X37426Y10934*
G37*
G36*
X26157Y9749D02*
X25849D01*
Y10911*
X26157*
Y9749*
G37*
G36*
X34448Y9791D02*
X34374Y9592D01*
X34372Y9587*
X34367Y9575*
X34358Y9557*
X34348Y9534*
X34337Y9508*
X34323Y9483*
X34309Y9460*
X34295Y9437*
X34293Y9434*
X34288Y9427*
X34281Y9418*
X34272Y9404*
X34247Y9376*
X34212Y9349*
X34210Y9346*
X34203Y9344*
X34193Y9337*
X34179Y9330*
X34163Y9323*
X34145Y9314*
X34122Y9305*
X34096Y9298*
X34094*
X34085Y9295*
X34071Y9291*
X34050Y9289*
X34027Y9284*
X34001Y9279*
X33971Y9277*
X33925*
X33906Y9279*
X33886*
X33858Y9282*
X33830Y9286*
X33768Y9298*
X33740Y9538*
X33742*
X33751Y9536*
X33765Y9534*
X33784Y9531*
X33802Y9527*
X33825Y9525*
X33869Y9522*
X33888*
X33906Y9527*
X33930Y9531*
X33955Y9538*
X33980Y9550*
X34006Y9566*
X34027Y9587*
X34029Y9589*
X34036Y9599*
X34045Y9612*
X34057Y9631*
X34068Y9654*
X34082Y9682*
X34094Y9712*
X34105Y9747*
X33666Y10911*
X33992*
X34267Y10085*
X34540Y10911*
X34857*
X34448Y9791*
G37*
G36*
X28540Y10934D02*
X28566Y10931D01*
X28594Y10927*
X28624Y10920*
X28656Y10911*
X28689Y10899*
X28693Y10897*
X28702Y10892*
X28719Y10885*
X28737Y10874*
X28758Y10860*
X28779Y10843*
X28800Y10825*
X28818Y10804*
X28820Y10802*
X28825Y10795*
X28832Y10783*
X28841Y10767*
X28853Y10749*
X28862Y10725*
X28871Y10702*
X28878Y10675*
Y10672*
X28881Y10661*
X28885Y10645*
X28888Y10621*
X28892Y10594*
X28894Y10557*
X28897Y10517*
Y10469*
Y9749*
X28589*
Y10339*
Y10341*
Y10348*
Y10358*
Y10369*
Y10385*
Y10402*
X28587Y10441*
X28584Y10480*
X28580Y10522*
X28575Y10557*
X28573Y10570*
X28568Y10582*
Y10584*
X28564Y10591*
X28559Y10601*
X28552Y10614*
X28531Y10642*
X28520Y10656*
X28503Y10668*
X28501Y10670*
X28496Y10672*
X28487Y10677*
X28473Y10684*
X28457Y10691*
X28441Y10695*
X28420Y10698*
X28397Y10700*
X28383*
X28369Y10698*
X28351Y10695*
X28328Y10688*
X28304Y10682*
X28279Y10670*
X28253Y10656*
X28251Y10654*
X28244Y10649*
X28233Y10638*
X28219Y10626*
X28205Y10607*
X28191Y10589*
X28177Y10564*
X28168Y10538*
Y10536*
X28163Y10524*
X28161Y10506*
X28156Y10478*
X28154Y10462*
X28152Y10441*
X28149Y10420*
Y10395*
X28147Y10369*
X28145Y10339*
Y10307*
Y10272*
Y9749*
X27837*
Y10911*
X28122*
Y10739*
X28124Y10742*
X28129Y10749*
X28138Y10758*
X28149Y10769*
X28163Y10786*
X28182Y10802*
X28203Y10820*
X28226Y10839*
X28251Y10855*
X28281Y10874*
X28311Y10890*
X28346Y10906*
X28383Y10918*
X28420Y10927*
X28462Y10934*
X28503Y10936*
X28520*
X28540Y10934*
G37*
G36*
X25086D02*
X25109Y10931D01*
X25134Y10929*
X25162Y10927*
X25220Y10918*
X25278Y10904*
X25333Y10883*
X25359Y10871*
X25382Y10857*
X25384*
X25387Y10853*
X25400Y10843*
X25421Y10825*
X25444Y10800*
X25472Y10769*
X25498Y10730*
X25523Y10684*
X25542Y10631*
X25252Y10577*
Y10580*
X25248Y10589*
X25243Y10601*
X25236Y10614*
X25227Y10633*
X25213Y10649*
X25199Y10665*
X25181Y10679*
X25178Y10682*
X25171Y10686*
X25160Y10691*
X25144Y10698*
X25123Y10705*
X25097Y10712*
X25067Y10714*
X25032Y10716*
X25012*
X24991Y10714*
X24965Y10712*
X24935Y10707*
X24908Y10702*
X24882Y10693*
X24859Y10682*
X24857*
X24854Y10677*
X24843Y10665*
X24829Y10645*
X24827Y10633*
X24824Y10619*
Y10617*
Y10614*
X24829Y10601*
X24838Y10582*
X24845Y10573*
X24854Y10564*
X24857Y10561*
X24866Y10559*
X24871Y10554*
X24880Y10552*
X24891Y10547*
X24905Y10540*
X24924Y10536*
X24942Y10529*
X24965Y10522*
X24993Y10515*
X25023Y10506*
X25058Y10496*
X25097Y10487*
X25141Y10476*
X25144*
X25153Y10473*
X25164Y10471*
X25181Y10466*
X25201Y10459*
X25225Y10455*
X25275Y10439*
X25333Y10418*
X25389Y10395*
X25417Y10381*
X25442Y10369*
X25463Y10353*
X25484Y10339*
X25488Y10334*
X25500Y10325*
X25514Y10307*
X25532Y10281*
X25551Y10249*
X25565Y10209*
X25576Y10163*
X25581Y10112*
Y10110*
Y10105*
Y10096*
X25579Y10085*
X25576Y10073*
X25574Y10057*
X25565Y10017*
X25548Y9976*
X25537Y9953*
X25525Y9929*
X25509Y9906*
X25491Y9883*
X25470Y9860*
X25447Y9837*
X25444Y9835*
X25440Y9832*
X25433Y9828*
X25421Y9818*
X25407Y9811*
X25391Y9802*
X25370Y9791*
X25347Y9781*
X25322Y9770*
X25292Y9761*
X25259Y9749*
X25225Y9742*
X25185Y9735*
X25144Y9728*
X25100Y9726*
X25053Y9724*
X25030*
X25014Y9726*
X24993*
X24970Y9728*
X24945Y9730*
X24917Y9735*
X24857Y9747*
X24794Y9763*
X24732Y9786*
X24704Y9802*
X24676Y9818*
X24674Y9821*
X24669Y9823*
X24662Y9828*
X24655Y9837*
X24630Y9858*
X24602Y9888*
X24572Y9925*
X24544Y9969*
X24519Y10022*
X24498Y10080*
X24806Y10126*
Y10122*
X24810Y10112*
X24815Y10096*
X24822Y10075*
X24833Y10052*
X24847Y10031*
X24864Y10008*
X24884Y9990*
X24887Y9987*
X24896Y9983*
X24910Y9976*
X24928Y9969*
X24951Y9960*
X24982Y9953*
X25014Y9948*
X25053Y9946*
X25072*
X25095Y9948*
X25120Y9950*
X25148Y9955*
X25178Y9964*
X25206Y9973*
X25231Y9987*
X25234Y9990*
X25238Y9994*
X25245Y10001*
X25252Y10010*
X25259Y10022*
X25266Y10036*
X25271Y10052*
X25273Y10071*
Y10073*
Y10078*
X25271Y10091*
X25264Y10110*
X25250Y10128*
X25245Y10133*
X25238Y10135*
X25229Y10142*
X25215Y10147*
X25197Y10154*
X25176Y10161*
X25148Y10168*
X25144*
X25132Y10172*
X25113Y10177*
X25088Y10182*
X25058Y10189*
X25026Y10198*
X24989Y10207*
X24949Y10219*
X24868Y10242*
X24829Y10253*
X24792Y10267*
X24757Y10279*
X24725Y10293*
X24697Y10307*
X24676Y10318*
X24674Y10321*
X24669Y10323*
X24665Y10327*
X24655Y10337*
X24632Y10358*
X24609Y10388*
X24584Y10425*
X24560Y10469*
X24551Y10494*
X24547Y10522*
X24542Y10550*
X24540Y10580*
Y10582*
Y10587*
Y10594*
X24542Y10605*
X24544Y10617*
X24547Y10633*
X24553Y10668*
X24567Y10707*
X24591Y10749*
X24602Y10772*
X24618Y10793*
X24637Y10813*
X24658Y10832*
X24660Y10834*
X24662Y10837*
X24669Y10841*
X24681Y10848*
X24692Y10855*
X24709Y10864*
X24727Y10874*
X24748Y10885*
X24773Y10894*
X24801Y10904*
X24831Y10913*
X24864Y10920*
X24901Y10927*
X24940Y10931*
X24982Y10936*
X25067*
X25086Y10934*
G37*
G36*
X36204D02*
X36223D01*
X36244Y10931*
X36267Y10929*
X36292Y10924*
X36345Y10913*
X36401Y10897*
X36456Y10874*
X36507Y10843*
X36510*
X36512Y10839*
X36519Y10834*
X36528Y10827*
X36549Y10806*
X36577Y10776*
X36607Y10737*
X36637Y10691*
X36665Y10635*
X36688Y10570*
X36385Y10515*
Y10520*
X36382Y10529*
X36378Y10545*
X36371Y10566*
X36359Y10587*
X36348Y10610*
X36331Y10631*
X36313Y10649*
X36311Y10651*
X36304Y10656*
X36292Y10663*
X36276Y10672*
X36255Y10682*
X36232Y10688*
X36204Y10693*
X36174Y10695*
X36169*
X36156Y10693*
X36135Y10691*
X36107Y10686*
X36079Y10675*
X36049Y10661*
X36019Y10642*
X35991Y10614*
X35989Y10610*
X35982Y10598*
X35970Y10580*
X35959Y10552*
X35945Y10515*
X35940Y10494*
X35936Y10471*
X35931Y10443*
X35927Y10415*
X35924Y10383*
Y10351*
Y10348*
Y10341*
Y10330*
X35927Y10316*
Y10300*
X35929Y10281*
X35933Y10235*
X35940Y10186*
X35954Y10138*
X35970Y10094*
X35982Y10075*
X35994Y10057*
X35996Y10052*
X36007Y10043*
X36021Y10031*
X36042Y10015*
X36070Y9999*
X36100Y9987*
X36137Y9978*
X36179Y9973*
X36193*
X36209Y9976*
X36230Y9980*
X36253Y9985*
X36276Y9994*
X36299Y10006*
X36322Y10022*
X36325Y10024*
X36331Y10031*
X36341Y10043*
X36355Y10061*
X36368Y10085*
X36380Y10115*
X36394Y10152*
X36403Y10193*
X36704Y10142*
Y10140*
X36702Y10133*
X36699Y10122*
X36695Y10108*
X36688Y10091*
X36681Y10071*
X36662Y10024*
X36639Y9973*
X36607Y9923*
X36567Y9872*
X36544Y9848*
X36521Y9828*
X36519*
X36514Y9823*
X36507Y9818*
X36498Y9811*
X36484Y9805*
X36468Y9795*
X36449Y9786*
X36426Y9777*
X36403Y9765*
X36375Y9756*
X36348Y9747*
X36315Y9740*
X36281Y9733*
X36244Y9728*
X36207Y9726*
X36165Y9724*
X36139*
X36123Y9726*
X36102Y9728*
X36077Y9733*
X36049Y9737*
X36019Y9744*
X35987Y9751*
X35954Y9763*
X35920Y9774*
X35887Y9791*
X35852Y9809*
X35820Y9830*
X35790Y9855*
X35760Y9883*
X35758Y9886*
X35753Y9890*
X35746Y9899*
X35737Y9913*
X35725Y9929*
X35711Y9948*
X35700Y9971*
X35686Y9999*
X35670Y10029*
X35658Y10061*
X35644Y10098*
X35633Y10138*
X35623Y10182*
X35616Y10226*
X35612Y10277*
X35610Y10327*
Y10330*
Y10339*
Y10355*
X35612Y10374*
X35614Y10399*
X35616Y10427*
X35621Y10457*
X35628Y10492*
X35647Y10564*
X35658Y10601*
X35672Y10638*
X35690Y10675*
X35711Y10709*
X35734Y10742*
X35760Y10774*
X35762Y10776*
X35767Y10781*
X35776Y10788*
X35788Y10800*
X35804Y10811*
X35822Y10825*
X35843Y10841*
X35869Y10855*
X35896Y10871*
X35927Y10885*
X35961Y10899*
X35998Y10911*
X36035Y10922*
X36079Y10929*
X36123Y10934*
X36169Y10936*
X36190*
X36204Y10934*
G37*
G36*
X16779Y19888D02*
X15302D01*
Y18987*
X14999*
Y20251*
X16779*
Y19888*
G37*
G36*
X3867Y66491D02*
X4541D01*
Y66032*
X3867*
Y65369*
X3419*
Y66032*
X2749*
Y66491*
X3419*
Y67154*
X3867*
Y66491*
G37*
G36*
X16292Y67805D02*
Y67421D01*
X14499Y66701*
Y67092*
X14906Y67248*
Y67968*
X14499Y68116*
Y68499*
X16292Y67805*
G37*
G36*
X16792Y21557D02*
Y21173D01*
X14999Y20453*
Y20844*
X15406Y21000*
Y21720*
X14999Y21868*
Y22251*
X16792Y21557*
G37*
G36*
X15947Y26306D02*
X15973D01*
X16002Y26303*
X16033Y26298*
X16069Y26293*
X16144Y26280*
X16230Y26259*
X16315Y26231*
X16357Y26213*
X16398Y26192*
X16401Y26189*
X16408Y26187*
X16419Y26179*
X16434Y26171*
X16452Y26158*
X16473Y26143*
X16496Y26125*
X16522Y26106*
X16548Y26083*
X16577Y26057*
X16605Y26029*
X16634Y25998*
X16660Y25964*
X16688Y25930*
X16735Y25850*
Y25847*
X16740Y25842*
X16743Y25832*
X16750Y25819*
X16756Y25801*
X16763Y25783*
X16771Y25757*
X16781Y25731*
X16789Y25702*
X16797Y25669*
X16805Y25632*
X16813Y25596*
X16823Y25513*
X16826Y25420*
Y25417*
Y25404*
Y25389*
X16823Y25365*
X16820Y25337*
X16818Y25303*
X16815Y25267*
X16807Y25228*
X16792Y25145*
X16766Y25060*
X16750Y25016*
X16732Y24974*
X16712Y24935*
X16686Y24899*
X16683Y24896*
X16680Y24891*
X16670Y24881*
X16660Y24868*
X16647Y24852*
X16629Y24837*
X16608Y24819*
X16585Y24798*
X16559Y24777*
X16530Y24757*
X16499Y24736*
X16463Y24718*
X16427Y24697*
X16388Y24681*
X16344Y24666*
X16300Y24656*
X16232Y25016*
X16235*
X16237Y25018*
X16253Y25023*
X16276Y25034*
X16307Y25049*
X16341Y25067*
X16375Y25093*
X16408Y25124*
X16439Y25161*
X16442Y25166*
X16452Y25179*
X16465Y25202*
X16478Y25231*
X16494Y25270*
X16504Y25314*
X16515Y25363*
X16517Y25420*
Y25422*
Y25430*
Y25443*
X16515Y25459*
X16512Y25479*
X16509Y25503*
X16504Y25529*
X16499Y25557*
X16481Y25617*
X16468Y25648*
X16452Y25679*
X16434Y25710*
X16416Y25741*
X16390Y25770*
X16364Y25798*
X16362Y25801*
X16357Y25803*
X16349Y25811*
X16336Y25819*
X16320Y25829*
X16302Y25842*
X16279Y25855*
X16253Y25865*
X16222Y25878*
X16188Y25891*
X16152Y25904*
X16113Y25915*
X16069Y25922*
X16020Y25930*
X15971Y25933*
X15916Y25935*
X15885*
X15864Y25933*
X15836Y25930*
X15807Y25928*
X15771Y25922*
X15735Y25917*
X15657Y25902*
X15577Y25876*
X15538Y25860*
X15502Y25842*
X15465Y25819*
X15434Y25795*
X15432Y25793*
X15426Y25788*
X15419Y25780*
X15408Y25770*
X15398Y25754*
X15382Y25738*
X15369Y25718*
X15354Y25694*
X15338Y25669*
X15325Y25643*
X15300Y25578*
X15289Y25542*
X15281Y25505*
X15276Y25464*
X15274Y25422*
Y25420*
Y25417*
Y25402*
X15276Y25381*
X15279Y25350*
X15284Y25316*
X15292Y25277*
X15302Y25236*
X15318Y25194*
Y25192*
X15320Y25189*
X15325Y25176*
X15336Y25153*
X15349Y25127*
X15364Y25096*
X15382Y25062*
X15403Y25029*
X15426Y24998*
X15657*
Y25412*
X15960*
Y24632*
X15240*
X15235Y24637*
X15230Y24645*
X15222Y24653*
X15211Y24666*
X15201Y24679*
X15175Y24715*
X15147Y24764*
X15113Y24821*
X15079Y24886*
X15048Y24964*
Y24966*
X15046Y24974*
X15040Y24985*
X15035Y25000*
X15030Y25021*
X15022Y25044*
X15015Y25070*
X15007Y25099*
X14991Y25163*
X14978Y25238*
X14968Y25316*
X14965Y25399*
Y25402*
Y25412*
Y25428*
X14968Y25446*
Y25472*
X14971Y25500*
X14976Y25531*
X14981Y25568*
X14994Y25643*
X15015Y25726*
X15043Y25811*
X15061Y25850*
X15082Y25891*
X15084Y25894*
X15087Y25899*
X15095Y25912*
X15105Y25925*
X15116Y25943*
X15131Y25961*
X15149Y25985*
X15170Y26008*
X15217Y26060*
X15276Y26112*
X15344Y26161*
X15421Y26205*
X15424*
X15432Y26210*
X15445Y26215*
X15460Y26220*
X15481Y26228*
X15504Y26239*
X15533Y26246*
X15564Y26257*
X15597Y26267*
X15636Y26275*
X15717Y26293*
X15805Y26303*
X15901Y26308*
X15929*
X15947Y26306*
G37*
G36*
X16792Y23946D02*
X14999D01*
Y24308*
X16792*
Y23946*
G37*
G36*
Y22303D02*
X16489D01*
Y22832*
X14999*
Y23194*
X16489*
Y23725*
X16792*
Y22303*
G37*
G36*
X15447Y59473D02*
X15473D01*
X15502Y59470*
X15533Y59465*
X15569Y59460*
X15644Y59447*
X15730Y59426*
X15815Y59398*
X15857Y59379*
X15898Y59359*
X15901Y59356*
X15908Y59353*
X15919Y59346*
X15934Y59338*
X15952Y59325*
X15973Y59309*
X15996Y59291*
X16022Y59273*
X16048Y59250*
X16077Y59224*
X16105Y59195*
X16134Y59164*
X16160Y59131*
X16188Y59097*
X16235Y59017*
Y59014*
X16240Y59009*
X16243Y58999*
X16250Y58986*
X16256Y58967*
X16263Y58949*
X16271Y58923*
X16281Y58897*
X16289Y58869*
X16297Y58835*
X16305Y58799*
X16313Y58763*
X16323Y58680*
X16326Y58587*
Y58584*
Y58571*
Y58556*
X16323Y58532*
X16320Y58504*
X16318Y58470*
X16315Y58434*
X16307Y58395*
X16292Y58312*
X16266Y58226*
X16250Y58182*
X16232Y58141*
X16212Y58102*
X16186Y58066*
X16183Y58063*
X16180Y58058*
X16170Y58048*
X16160Y58035*
X16147Y58019*
X16129Y58004*
X16108Y57986*
X16085Y57965*
X16059Y57944*
X16030Y57923*
X15999Y57903*
X15963Y57884*
X15927Y57864*
X15888Y57848*
X15844Y57833*
X15800Y57822*
X15732Y58182*
X15735*
X15737Y58185*
X15753Y58190*
X15776Y58201*
X15807Y58216*
X15841Y58234*
X15875Y58260*
X15908Y58291*
X15939Y58328*
X15942Y58333*
X15952Y58346*
X15965Y58369*
X15978Y58397*
X15994Y58436*
X16004Y58480*
X16015Y58530*
X16017Y58587*
Y58589*
Y58597*
Y58610*
X16015Y58625*
X16012Y58646*
X16009Y58670*
X16004Y58695*
X15999Y58724*
X15981Y58784*
X15968Y58815*
X15952Y58846*
X15934Y58877*
X15916Y58908*
X15890Y58936*
X15864Y58965*
X15862Y58967*
X15857Y58970*
X15849Y58978*
X15836Y58986*
X15820Y58996*
X15802Y59009*
X15779Y59022*
X15753Y59032*
X15722Y59045*
X15688Y59058*
X15652Y59071*
X15613Y59081*
X15569Y59089*
X15520Y59097*
X15471Y59100*
X15416Y59102*
X15385*
X15364Y59100*
X15336Y59097*
X15307Y59094*
X15271Y59089*
X15235Y59084*
X15157Y59068*
X15077Y59043*
X15038Y59027*
X15002Y59009*
X14965Y58986*
X14934Y58962*
X14932Y58960*
X14926Y58954*
X14919Y58947*
X14908Y58936*
X14898Y58921*
X14882Y58905*
X14869Y58885*
X14854Y58861*
X14838Y58835*
X14825Y58809*
X14800Y58745*
X14789Y58708*
X14781Y58672*
X14776Y58631*
X14774Y58589*
Y58587*
Y58584*
Y58568*
X14776Y58548*
X14779Y58517*
X14784Y58483*
X14792Y58444*
X14802Y58403*
X14818Y58361*
Y58359*
X14820Y58356*
X14825Y58343*
X14836Y58320*
X14849Y58294*
X14864Y58263*
X14882Y58229*
X14903Y58195*
X14926Y58164*
X15157*
Y58579*
X15460*
Y57799*
X14740*
X14735Y57804*
X14730Y57812*
X14722Y57820*
X14711Y57833*
X14701Y57846*
X14675Y57882*
X14647Y57931*
X14613Y57988*
X14579Y58053*
X14548Y58131*
Y58133*
X14546Y58141*
X14540Y58151*
X14535Y58167*
X14530Y58188*
X14522Y58211*
X14515Y58237*
X14507Y58265*
X14491Y58330*
X14478Y58405*
X14468Y58483*
X14465Y58566*
Y58568*
Y58579*
Y58594*
X14468Y58613*
Y58638*
X14471Y58667*
X14476Y58698*
X14481Y58734*
X14494Y58809*
X14515Y58892*
X14543Y58978*
X14561Y59017*
X14582Y59058*
X14584Y59061*
X14587Y59066*
X14595Y59079*
X14605Y59092*
X14616Y59110*
X14631Y59128*
X14649Y59151*
X14670Y59175*
X14717Y59227*
X14776Y59278*
X14844Y59328*
X14921Y59372*
X14924*
X14932Y59377*
X14945Y59382*
X14960Y59387*
X14981Y59395*
X15004Y59405*
X15033Y59413*
X15064Y59423*
X15097Y59434*
X15136Y59442*
X15217Y59460*
X15305Y59470*
X15401Y59475*
X15429*
X15447Y59473*
G37*
G36*
X90499Y54749D02*
X88274D01*
Y55202*
X90120*
Y56329*
X90499*
Y54749*
G37*
G36*
X72452Y6128D02*
X73579D01*
Y5749*
X71999*
Y7974*
X72452*
Y6128*
G37*
G36*
X15429Y61431D02*
X15452D01*
X15478Y61429*
X15509Y61426*
X15543Y61424*
X15616Y61413*
X15693Y61400*
X15771Y61379*
X15844Y61354*
X15846*
X15849Y61351*
X15857Y61346*
X15867Y61343*
X15893Y61328*
X15927Y61310*
X15965Y61286*
X16004Y61258*
X16048Y61224*
X16090Y61188*
X16092Y61185*
X16095Y61183*
X16108Y61170*
X16129Y61146*
X16152Y61118*
X16178Y61084*
X16206Y61045*
X16232Y61001*
X16253Y60955*
Y60952*
X16256Y60947*
X16261Y60936*
X16263Y60923*
X16271Y60908*
X16276Y60890*
X16281Y60867*
X16289Y60843*
X16302Y60786*
X16315Y60721*
X16323Y60646*
X16326Y60569*
Y60563*
Y60550*
X16323Y60530*
Y60504*
X16318Y60470*
X16313Y60431*
X16305Y60387*
X16294Y60341*
X16281Y60291*
X16266Y60240*
X16245Y60188*
X16222Y60133*
X16193Y60081*
X16160Y60030*
X16121Y59980*
X16077Y59934*
X16074Y59931*
X16066Y59923*
X16051Y59910*
X16033Y59898*
X16007Y59879*
X15976Y59859*
X15939Y59838*
X15898Y59815*
X15854Y59791*
X15802Y59771*
X15745Y59750*
X15686Y59732*
X15618Y59716*
X15548Y59706*
X15473Y59698*
X15393Y59695*
X15375*
X15351Y59698*
X15320*
X15284Y59703*
X15243Y59708*
X15193Y59716*
X15144Y59724*
X15090Y59737*
X15033Y59752*
X14976Y59773*
X14919Y59797*
X14864Y59822*
X14810Y59856*
X14758Y59892*
X14709Y59934*
X14706Y59936*
X14698Y59944*
X14686Y59957*
X14670Y59978*
X14652Y60001*
X14631Y60030*
X14610Y60063*
X14587Y60100*
X14564Y60144*
X14543Y60190*
X14522Y60242*
X14504Y60299*
X14489Y60359*
X14476Y60423*
X14468Y60491*
X14465Y60563*
Y60569*
Y60582*
X14468Y60602*
X14471Y60628*
X14473Y60662*
X14478Y60701*
X14486Y60745*
X14496Y60791*
X14509Y60843*
X14525Y60892*
X14546Y60947*
X14569Y60999*
X14595Y61053*
X14629Y61102*
X14665Y61151*
X14709Y61198*
X14711Y61201*
X14719Y61208*
X14735Y61219*
X14753Y61234*
X14779Y61253*
X14810Y61273*
X14844Y61294*
X14885Y61315*
X14929Y61338*
X14981Y61359*
X15035Y61379*
X15095Y61398*
X15160Y61413*
X15230Y61424*
X15305Y61431*
X15382Y61434*
X15408*
X15429Y61431*
G37*
G36*
X16292Y66157D02*
X15085Y65416D01*
X16292*
Y65082*
X14499*
Y65444*
X15680Y66172*
X14499*
Y66507*
X16292*
Y66157*
G37*
G36*
Y64188D02*
Y63804D01*
X14499Y63084*
Y63475*
X14906Y63631*
Y64351*
X14499Y64499*
Y64882*
X16292Y64188*
G37*
G36*
X16279Y62519D02*
X14802D01*
Y61618*
X14499*
Y62882*
X16279*
Y62519*
G37*
G36*
X16792Y26591D02*
X14999D01*
Y26954*
X16792*
Y26591*
G37*
G36*
X47156Y13249D02*
X46725D01*
Y13680*
X47156*
Y13249*
G37*
G36*
X36627Y15487D02*
X36711D01*
X36802Y15480*
X36893Y15474*
X36932Y15471*
X36970Y15467*
X37003Y15461*
X37029Y15454*
X37032*
X37038Y15451*
X37048Y15448*
X37061Y15445*
X37097Y15429*
X37142Y15409*
X37191Y15380*
X37246Y15341*
X37298Y15292*
X37349Y15234*
Y15231*
X37356Y15228*
X37362Y15218*
X37369Y15205*
X37382Y15186*
X37391Y15166*
X37404Y15144*
X37417Y15118*
X37440Y15053*
X37463Y14982*
X37476Y14894*
X37482Y14800*
Y14797*
Y14791*
Y14781*
Y14765*
X37479Y14748*
Y14726*
X37472Y14680*
X37463Y14625*
X37450Y14564*
X37430Y14506*
X37404Y14450*
X37401Y14444*
X37391Y14428*
X37375Y14402*
X37353Y14370*
X37327Y14337*
X37291Y14298*
X37255Y14263*
X37213Y14230*
X37207Y14227*
X37194Y14217*
X37171Y14204*
X37142Y14188*
X37106Y14169*
X37068Y14153*
X37025Y14136*
X36980Y14123*
X36974*
X36964Y14120*
X36951*
X36935Y14117*
X36912Y14114*
X36889Y14110*
X36860*
X36831Y14107*
X36796Y14104*
X36757Y14101*
X36715Y14097*
X36669*
X36621Y14094*
X36219*
Y13249*
X35766*
Y15490*
X36592*
X36627Y15487*
G37*
G36*
X32391Y13249D02*
X31902D01*
X31708Y13757*
X30808*
X30623Y13249*
X30144*
X31012Y15490*
X31491*
X32391Y13249*
G37*
G36*
X45650Y15500D02*
X45679Y15497D01*
X45708Y15493*
X45744Y15487*
X45779Y15477*
X45860Y15454*
X45902Y15438*
X45948Y15416*
X45990Y15393*
X46029Y15367*
X46071Y15335*
X46106Y15299*
X46109Y15296*
X46113Y15292*
X46122Y15283*
X46132Y15270*
X46158Y15237*
X46187Y15192*
X46216Y15137*
X46239Y15072*
X46258Y15001*
X46262Y14965*
X46265Y14927*
Y14923*
Y14914*
X46262Y14897*
X46258Y14878*
X46255Y14852*
X46249Y14823*
X46239Y14791*
X46226Y14755*
X46207Y14719*
X46187Y14680*
X46161Y14642*
X46129Y14603*
X46090Y14564*
X46048Y14525*
X45999Y14489*
X45941Y14454*
X45944*
X45951Y14450*
X45961*
X45973Y14444*
X46009Y14434*
X46051Y14415*
X46100Y14389*
X46152Y14357*
X46203Y14314*
X46249Y14266*
X46255Y14259*
X46268Y14240*
X46284Y14211*
X46307Y14169*
X46330Y14120*
X46346Y14059*
X46359Y13994*
X46365Y13919*
Y13916*
Y13906*
Y13890*
X46362Y13871*
X46359Y13845*
X46352Y13816*
X46346Y13780*
X46339Y13744*
X46314Y13667*
X46294Y13625*
X46275Y13579*
X46249Y13537*
X46220Y13495*
X46187Y13453*
X46148Y13414*
X46145Y13411*
X46139Y13404*
X46126Y13395*
X46109Y13382*
X46087Y13366*
X46064Y13349*
X46032Y13330*
X45999Y13311*
X45964Y13291*
X45922Y13272*
X45876Y13255*
X45831Y13239*
X45779Y13226*
X45727Y13217*
X45669Y13210*
X45611Y13207*
X45582*
X45559Y13210*
X45533Y13213*
X45504Y13217*
X45471Y13223*
X45433Y13230*
X45355Y13249*
X45271Y13281*
X45225Y13301*
X45187Y13323*
X45144Y13353*
X45106Y13382*
X45102Y13385*
X45096Y13391*
X45086Y13401*
X45073Y13414*
X45057Y13430*
X45041Y13453*
X45021Y13476*
X45002Y13505*
X44982Y13537*
X44960Y13570*
X44924Y13647*
X44895Y13738*
X44882Y13787*
X44876Y13838*
X45290Y13890*
Y13887*
Y13884*
X45293Y13864*
X45300Y13835*
X45310Y13800*
X45326Y13761*
X45342Y13719*
X45368Y13680*
X45397Y13644*
X45400Y13641*
X45413Y13631*
X45433Y13618*
X45455Y13605*
X45488Y13589*
X45523Y13576*
X45562Y13566*
X45608Y13563*
X45614*
X45630Y13566*
X45653Y13570*
X45685Y13576*
X45721Y13589*
X45756Y13605*
X45795Y13631*
X45831Y13664*
X45834Y13667*
X45847Y13683*
X45860Y13706*
X45880Y13735*
X45896Y13774*
X45912Y13822*
X45922Y13877*
X45925Y13939*
Y13942*
Y13945*
Y13965*
X45922Y13994*
X45915Y14033*
X45902Y14075*
X45886Y14117*
X45863Y14159*
X45834Y14198*
X45831Y14201*
X45818Y14214*
X45799Y14230*
X45776Y14246*
X45744Y14266*
X45708Y14279*
X45669Y14292*
X45624Y14295*
X45591*
X45569Y14292*
X45540Y14289*
X45504Y14282*
X45468Y14272*
X45426Y14263*
X45471Y14609*
X45501*
X45533Y14612*
X45572Y14616*
X45614Y14625*
X45659Y14638*
X45701Y14658*
X45740Y14684*
X45744Y14687*
X45756Y14700*
X45769Y14716*
X45789Y14742*
X45805Y14771*
X45821Y14807*
X45831Y14849*
X45834Y14897*
Y14904*
Y14917*
X45831Y14936*
X45825Y14962*
X45818Y14991*
X45805Y15020*
X45789Y15053*
X45766Y15079*
X45763Y15082*
X45753Y15088*
X45740Y15101*
X45718Y15114*
X45692Y15124*
X45663Y15137*
X45624Y15144*
X45585Y15147*
X45565*
X45546Y15144*
X45520Y15137*
X45491Y15127*
X45459Y15114*
X45426Y15095*
X45397Y15069*
X45394Y15066*
X45384Y15056*
X45371Y15037*
X45355Y15011*
X45339Y14982*
X45326Y14943*
X45313Y14897*
X45303Y14846*
X44908Y14910*
Y14914*
X44911Y14920*
Y14930*
X44914Y14946*
X44924Y14982*
X44937Y15030*
X44957Y15082*
X44976Y15137*
X45002Y15189*
X45031Y15237*
X45034Y15244*
X45047Y15257*
X45067Y15280*
X45093Y15309*
X45125Y15338*
X45164Y15370*
X45212Y15403*
X45264Y15432*
X45267*
X45271Y15435*
X45290Y15441*
X45323Y15454*
X45361Y15467*
X45410Y15480*
X45468Y15493*
X45530Y15500*
X45598Y15503*
X45627*
X45650Y15500*
G37*
G36*
X26387Y13307D02*
X26283Y13029D01*
X26280Y13022*
X26274Y13006*
X26261Y12980*
X26248Y12948*
X26232Y12912*
X26212Y12877*
X26193Y12844*
X26173Y12812*
X26170Y12809*
X26164Y12799*
X26154Y12786*
X26141Y12766*
X26105Y12728*
X26057Y12689*
X26053Y12685*
X26044Y12682*
X26031Y12673*
X26011Y12663*
X25989Y12653*
X25963Y12640*
X25930Y12627*
X25895Y12617*
X25892*
X25879Y12614*
X25859Y12608*
X25830Y12605*
X25798Y12598*
X25762Y12592*
X25720Y12588*
X25655*
X25629Y12592*
X25600*
X25561Y12595*
X25522Y12601*
X25435Y12617*
X25396Y12954*
X25399*
X25412Y12951*
X25432Y12948*
X25458Y12945*
X25483Y12938*
X25516Y12935*
X25577Y12932*
X25603*
X25629Y12938*
X25662Y12945*
X25697Y12954*
X25733Y12970*
X25768Y12993*
X25798Y13022*
X25801Y13026*
X25811Y13039*
X25824Y13058*
X25840Y13084*
X25856Y13116*
X25875Y13155*
X25892Y13197*
X25908Y13246*
X25292Y14875*
X25749*
X26134Y13719*
X26517Y14875*
X26960*
X26387Y13307*
G37*
G36*
X41725Y14308D02*
Y14305D01*
Y14292*
Y14269*
Y14243*
Y14211*
X41721Y14172*
Y14130*
Y14088*
X41715Y13994*
X41708Y13897*
X41705Y13855*
X41699Y13813*
X41692Y13774*
X41686Y13738*
Y13735*
X41682Y13732*
Y13722*
X41679Y13712*
X41670Y13680*
X41657Y13641*
X41637Y13596*
X41614Y13550*
X41585Y13502*
X41550Y13456*
X41546Y13450*
X41533Y13437*
X41511Y13417*
X41482Y13391*
X41443Y13362*
X41397Y13333*
X41346Y13301*
X41287Y13275*
X41284*
X41281Y13272*
X41271Y13268*
X41258Y13265*
X41242Y13259*
X41223Y13252*
X41197Y13246*
X41171Y13243*
X41109Y13230*
X41035Y13217*
X40951Y13210*
X40857Y13207*
X40805*
X40776Y13210*
X40747*
X40711Y13213*
X40675Y13217*
X40598Y13223*
X40517Y13236*
X40436Y13255*
X40400Y13265*
X40368Y13278*
X40364*
X40361Y13281*
X40342Y13291*
X40309Y13307*
X40274Y13330*
X40232Y13359*
X40186Y13391*
X40144Y13430*
X40105Y13472*
X40102Y13479*
X40089Y13492*
X40073Y13518*
X40053Y13550*
X40034Y13586*
X40011Y13628*
X39995Y13673*
X39979Y13722*
Y13725*
X39976Y13732*
Y13741*
X39973Y13757*
X39969Y13777*
X39966Y13803*
X39963Y13832*
X39960Y13864*
X39953Y13903*
X39950Y13945*
X39947Y13991*
X39943Y14042*
X39940Y14097*
Y14159*
X39937Y14224*
Y14292*
Y15490*
X40390*
Y14272*
Y14269*
Y14259*
Y14246*
Y14227*
Y14201*
Y14175*
X40394Y14117*
Y14052*
X40397Y13991*
X40400Y13961*
Y13936*
X40403Y13916*
X40406Y13897*
Y13890*
X40413Y13874*
X40423Y13848*
X40436Y13816*
X40452Y13780*
X40478Y13744*
X40507Y13706*
X40542Y13673*
X40549Y13670*
X40562Y13660*
X40588Y13647*
X40620Y13634*
X40666Y13618*
X40717Y13605*
X40776Y13596*
X40844Y13592*
X40876*
X40908Y13596*
X40951Y13602*
X40999Y13612*
X41044Y13625*
X41093Y13644*
X41132Y13670*
X41135Y13673*
X41148Y13683*
X41164Y13699*
X41184Y13722*
X41203Y13751*
X41223Y13783*
X41239Y13819*
X41249Y13861*
Y13868*
X41252Y13884*
X41255Y13913*
X41261Y13952*
Y13978*
X41265Y14007*
Y14039*
X41268Y14072*
Y14110*
X41271Y14153*
Y14198*
Y14246*
Y15490*
X41725*
Y14308*
G37*
G36*
X48263Y15500D02*
X48292Y15497D01*
X48321Y15493*
X48357Y15487*
X48393Y15477*
X48474Y15454*
X48516Y15438*
X48561Y15416*
X48603Y15393*
X48642Y15367*
X48684Y15335*
X48720Y15299*
X48723Y15296*
X48726Y15292*
X48736Y15283*
X48746Y15270*
X48772Y15237*
X48801Y15192*
X48830Y15137*
X48852Y15072*
X48872Y15001*
X48875Y14965*
X48878Y14927*
Y14923*
Y14914*
X48875Y14897*
X48872Y14878*
X48869Y14852*
X48862Y14823*
X48852Y14791*
X48840Y14755*
X48820Y14719*
X48801Y14680*
X48775Y14642*
X48742Y14603*
X48704Y14564*
X48661Y14525*
X48613Y14489*
X48555Y14454*
X48558*
X48564Y14450*
X48574*
X48587Y14444*
X48623Y14434*
X48665Y14415*
X48713Y14389*
X48765Y14357*
X48817Y14314*
X48862Y14266*
X48869Y14259*
X48882Y14240*
X48898Y14211*
X48921Y14169*
X48943Y14120*
X48959Y14059*
X48972Y13994*
X48979Y13919*
Y13916*
Y13906*
Y13890*
X48976Y13871*
X48972Y13845*
X48966Y13816*
X48959Y13780*
X48953Y13744*
X48927Y13667*
X48908Y13625*
X48888Y13579*
X48862Y13537*
X48833Y13495*
X48801Y13453*
X48762Y13414*
X48759Y13411*
X48752Y13404*
X48739Y13395*
X48723Y13382*
X48700Y13366*
X48678Y13349*
X48645Y13330*
X48613Y13311*
X48577Y13291*
X48535Y13272*
X48490Y13255*
X48444Y13239*
X48393Y13226*
X48341Y13217*
X48283Y13210*
X48224Y13207*
X48195*
X48172Y13210*
X48146Y13213*
X48117Y13217*
X48085Y13223*
X48046Y13230*
X47968Y13249*
X47884Y13281*
X47839Y13301*
X47800Y13323*
X47758Y13353*
X47719Y13382*
X47716Y13385*
X47709Y13391*
X47700Y13401*
X47687Y13414*
X47670Y13430*
X47654Y13453*
X47635Y13476*
X47615Y13505*
X47596Y13537*
X47573Y13570*
X47538Y13647*
X47509Y13738*
X47496Y13787*
X47489Y13838*
X47904Y13890*
Y13887*
Y13884*
X47907Y13864*
X47913Y13835*
X47923Y13800*
X47939Y13761*
X47955Y13719*
X47981Y13680*
X48010Y13644*
X48014Y13641*
X48027Y13631*
X48046Y13618*
X48069Y13605*
X48101Y13589*
X48137Y13576*
X48176Y13566*
X48221Y13563*
X48227*
X48244Y13566*
X48266Y13570*
X48299Y13576*
X48334Y13589*
X48370Y13605*
X48409Y13631*
X48444Y13664*
X48448Y13667*
X48461Y13683*
X48474Y13706*
X48493Y13735*
X48509Y13774*
X48525Y13822*
X48535Y13877*
X48538Y13939*
Y13942*
Y13945*
Y13965*
X48535Y13994*
X48529Y14033*
X48516Y14075*
X48499Y14117*
X48477Y14159*
X48448Y14198*
X48444Y14201*
X48431Y14214*
X48412Y14230*
X48389Y14246*
X48357Y14266*
X48321Y14279*
X48283Y14292*
X48237Y14295*
X48205*
X48182Y14292*
X48153Y14289*
X48117Y14282*
X48082Y14272*
X48040Y14263*
X48085Y14609*
X48114*
X48146Y14612*
X48185Y14616*
X48227Y14625*
X48273Y14638*
X48315Y14658*
X48354Y14684*
X48357Y14687*
X48370Y14700*
X48383Y14716*
X48402Y14742*
X48419Y14771*
X48435Y14807*
X48444Y14849*
X48448Y14897*
Y14904*
Y14917*
X48444Y14936*
X48438Y14962*
X48431Y14991*
X48419Y15020*
X48402Y15053*
X48380Y15079*
X48376Y15082*
X48367Y15088*
X48354Y15101*
X48331Y15114*
X48305Y15124*
X48276Y15137*
X48237Y15144*
X48198Y15147*
X48179*
X48159Y15144*
X48134Y15137*
X48104Y15127*
X48072Y15114*
X48040Y15095*
X48010Y15069*
X48007Y15066*
X47998Y15056*
X47985Y15037*
X47968Y15011*
X47952Y14982*
X47939Y14943*
X47926Y14897*
X47917Y14846*
X47521Y14910*
Y14914*
X47525Y14920*
Y14930*
X47528Y14946*
X47538Y14982*
X47551Y15030*
X47570Y15082*
X47589Y15137*
X47615Y15189*
X47645Y15237*
X47648Y15244*
X47661Y15257*
X47680Y15280*
X47706Y15309*
X47738Y15338*
X47777Y15370*
X47826Y15403*
X47878Y15432*
X47881*
X47884Y15435*
X47904Y15441*
X47936Y15454*
X47975Y15467*
X48023Y15480*
X48082Y15493*
X48143Y15500*
X48211Y15503*
X48240*
X48263Y15500*
G37*
G36*
X19816Y14684D02*
X19819Y14687D01*
X19826Y14693*
X19836Y14703*
X19852Y14719*
X19871Y14735*
X19894Y14755*
X19920Y14778*
X19949Y14797*
X20017Y14839*
X20098Y14875*
X20140Y14891*
X20189Y14901*
X20237Y14907*
X20286Y14910*
X20315*
X20334Y14907*
X20360Y14904*
X20389Y14897*
X20422Y14891*
X20461Y14884*
X20538Y14859*
X20577Y14839*
X20619Y14820*
X20661Y14794*
X20700Y14765*
X20739Y14732*
X20778Y14693*
X20781Y14690*
X20788Y14684*
X20797Y14671*
X20810Y14655*
X20823Y14632*
X20839Y14606*
X20859Y14574*
X20878Y14538*
X20895Y14496*
X20914Y14450*
X20930Y14399*
X20946Y14344*
X20956Y14285*
X20966Y14221*
X20972Y14153*
X20975Y14078*
Y14075*
Y14059*
Y14039*
X20972Y14010*
X20969Y13974*
X20966Y13936*
X20959Y13890*
X20950Y13842*
X20927Y13738*
X20911Y13686*
X20891Y13631*
X20869Y13579*
X20839Y13528*
X20810Y13482*
X20775Y13437*
X20771Y13434*
X20765Y13427*
X20755Y13417*
X20739Y13401*
X20720Y13385*
X20697Y13366*
X20671Y13346*
X20642Y13327*
X20606Y13304*
X20571Y13285*
X20486Y13249*
X20441Y13233*
X20396Y13223*
X20344Y13217*
X20292Y13213*
X20269*
X20240Y13217*
X20205Y13223*
X20163Y13230*
X20117Y13243*
X20069Y13259*
X20017Y13281*
X20010Y13285*
X19994Y13294*
X19968Y13311*
X19936Y13333*
X19900Y13362*
X19861Y13395*
X19823Y13437*
X19784Y13485*
Y13249*
X19385*
Y15490*
X19816*
Y14684*
G37*
G36*
X3867Y26241D02*
X4541D01*
Y25782*
X3867*
Y25119*
X3419*
Y25782*
X2749*
Y26241*
X3419*
Y26904*
X3867*
Y26241*
G37*
G36*
X16792Y28091D02*
Y28088D01*
Y28081*
Y28070*
Y28055*
Y28034*
X16789Y28013*
X16787Y27964*
X16784Y27910*
X16776Y27853*
X16769Y27798*
X16756Y27749*
Y27746*
X16753Y27741*
X16750Y27733*
X16748Y27723*
X16735Y27692*
X16717Y27656*
X16693Y27614*
X16665Y27568*
X16631Y27524*
X16590Y27480*
Y27477*
X16585Y27474*
X16569Y27461*
X16543Y27441*
X16509Y27417*
X16468Y27389*
X16419Y27360*
X16362Y27332*
X16300Y27309*
X16297*
X16292Y27306*
X16281Y27303*
X16268Y27298*
X16253Y27296*
X16232Y27290*
X16209Y27285*
X16183Y27277*
X16155Y27272*
X16121Y27267*
X16087Y27262*
X16048Y27259*
X15968Y27252*
X15877Y27249*
X15841*
X15820Y27252*
X15800*
X15774Y27254*
X15745Y27257*
X15686Y27262*
X15623Y27272*
X15559Y27288*
X15496Y27306*
X15494*
X15489Y27309*
X15478Y27314*
X15463Y27319*
X15447Y27324*
X15429Y27334*
X15382Y27355*
X15333Y27381*
X15279Y27415*
X15227Y27454*
X15178Y27498*
X15173Y27503*
X15162Y27516*
X15147Y27537*
X15126Y27565*
X15103Y27601*
X15079Y27643*
X15056Y27695*
X15035Y27752*
Y27754*
X15033Y27757*
Y27764*
X15030Y27772*
X15025Y27801*
X15017Y27837*
X15009Y27881*
X15004Y27935*
X15002Y28000*
X14999Y28070*
Y28749*
X16792*
Y28091*
G37*
G36*
X21996Y14907D02*
X22025Y14904D01*
X22060Y14897*
X22099Y14891*
X22141Y14881*
X22187Y14868*
X22232Y14852*
X22281Y14833*
X22329Y14807*
X22375Y14781*
X22420Y14748*
X22465Y14710*
X22504Y14667*
X22507Y14664*
X22514Y14658*
X22523Y14642*
X22536Y14622*
X22553Y14596*
X22569Y14567*
X22588Y14528*
X22608Y14486*
X22627Y14438*
X22647Y14382*
X22663Y14324*
X22679Y14256*
X22692Y14185*
X22702Y14107*
X22708Y14026*
Y13936*
X21633*
Y13932*
Y13926*
Y13916*
X21636Y13903*
X21639Y13871*
X21646Y13825*
X21659Y13780*
X21678Y13728*
X21701Y13680*
X21733Y13638*
X21737Y13634*
X21753Y13621*
X21772Y13605*
X21801Y13586*
X21837Y13566*
X21882Y13550*
X21931Y13537*
X21983Y13534*
X21999*
X22018Y13537*
X22041Y13540*
X22067Y13547*
X22096Y13557*
X22125Y13570*
X22151Y13589*
X22154Y13592*
X22164Y13599*
X22177Y13612*
X22190Y13631*
X22209Y13657*
X22226Y13686*
X22242Y13725*
X22258Y13767*
X22685Y13696*
Y13693*
X22682Y13686*
X22676Y13673*
X22669Y13657*
X22660Y13638*
X22650Y13615*
X22621Y13563*
X22585Y13505*
X22540Y13443*
X22485Y13388*
X22423Y13336*
X22420*
X22417Y13330*
X22404Y13327*
X22391Y13317*
X22375Y13307*
X22352Y13298*
X22329Y13288*
X22300Y13275*
X22235Y13252*
X22161Y13233*
X22073Y13220*
X21979Y13213*
X21960*
X21941Y13217*
X21911*
X21876Y13223*
X21834Y13230*
X21788Y13236*
X21743Y13249*
X21691Y13262*
X21639Y13281*
X21588Y13304*
X21536Y13330*
X21484Y13362*
X21435Y13398*
X21393Y13440*
X21351Y13489*
X21348Y13492*
X21345Y13498*
X21338Y13511*
X21325Y13528*
X21316Y13550*
X21303Y13576*
X21286Y13605*
X21273Y13641*
X21257Y13680*
X21244Y13722*
X21228Y13767*
X21218Y13819*
X21209Y13871*
X21199Y13926*
X21196Y13987*
X21192Y14049*
Y14052*
Y14065*
Y14088*
X21196Y14117*
X21199Y14149*
X21202Y14188*
X21209Y14230*
X21218Y14279*
X21244Y14379*
X21260Y14431*
X21280Y14486*
X21306Y14538*
X21335Y14586*
X21367Y14635*
X21403Y14680*
X21406Y14684*
X21413Y14690*
X21426Y14703*
X21442Y14716*
X21461Y14732*
X21487Y14752*
X21516Y14774*
X21549Y14797*
X21584Y14816*
X21626Y14839*
X21669Y14859*
X21717Y14875*
X21766Y14888*
X21821Y14901*
X21876Y14907*
X21934Y14910*
X21970*
X21996Y14907*
G37*
G36*
X29033Y15487D02*
X29094Y15484D01*
X29162Y15480*
X29234Y15471*
X29302Y15461*
X29363Y15445*
X29366*
X29373Y15441*
X29383Y15438*
X29396Y15435*
X29434Y15419*
X29480Y15396*
X29532Y15367*
X29590Y15331*
X29645Y15289*
X29700Y15237*
X29703*
X29706Y15231*
X29723Y15212*
X29749Y15179*
X29778Y15137*
X29813Y15085*
X29849Y15024*
X29885Y14952*
X29914Y14875*
Y14871*
X29917Y14865*
X29920Y14852*
X29927Y14836*
X29930Y14816*
X29936Y14791*
X29943Y14761*
X29953Y14729*
X29959Y14693*
X29966Y14651*
X29972Y14609*
X29975Y14561*
X29985Y14460*
X29988Y14347*
Y14344*
Y14334*
Y14321*
Y14302*
X29985Y14276*
Y14250*
X29982Y14217*
X29979Y14182*
X29972Y14107*
X29959Y14029*
X29940Y13949*
X29917Y13871*
Y13868*
X29914Y13861*
X29907Y13848*
X29901Y13829*
X29894Y13809*
X29881Y13787*
X29855Y13728*
X29823Y13667*
X29781Y13599*
X29732Y13534*
X29677Y13472*
X29671Y13466*
X29655Y13453*
X29629Y13434*
X29593Y13408*
X29548Y13379*
X29496Y13349*
X29431Y13320*
X29360Y13294*
X29357*
X29353Y13291*
X29344*
X29334Y13288*
X29298Y13281*
X29253Y13272*
X29198Y13262*
X29130Y13255*
X29049Y13252*
X28962Y13249*
X28113*
Y15490*
X29007*
X29033Y15487*
G37*
G36*
X14709Y14907D02*
X14735D01*
X14800Y14901*
X14868Y14894*
X14939Y14881*
X15007Y14862*
X15036Y14852*
X15065Y14839*
X15068*
X15072Y14836*
X15088Y14826*
X15114Y14813*
X15143Y14794*
X15179Y14768*
X15211Y14739*
X15240Y14703*
X15266Y14667*
X15269Y14661*
X15276Y14648*
X15285Y14619*
X15289Y14603*
X15295Y14580*
X15302Y14557*
X15305Y14528*
X15311Y14496*
X15315Y14460*
X15318Y14421*
X15321Y14379*
X15324Y14334*
Y14282*
X15318Y13780*
Y13777*
Y13770*
Y13761*
Y13744*
Y13706*
X15321Y13660*
Y13608*
X15328Y13557*
X15331Y13505*
X15337Y13463*
Y13459*
X15341Y13447*
X15347Y13424*
X15353Y13398*
X15366Y13366*
X15379Y13330*
X15396Y13291*
X15415Y13249*
X14991*
Y13252*
X14987Y13255*
X14984Y13268*
X14978Y13281*
X14971Y13298*
X14965Y13320*
X14958Y13346*
X14949Y13375*
Y13379*
X14945Y13382*
X14942Y13395*
X14936Y13411*
X14932Y13424*
X14926Y13421*
X14913Y13408*
X14890Y13388*
X14861Y13366*
X14826Y13340*
X14787Y13311*
X14741Y13288*
X14696Y13265*
X14690Y13262*
X14673Y13259*
X14647Y13249*
X14615Y13239*
X14576Y13230*
X14531Y13223*
X14479Y13217*
X14427Y13213*
X14405*
X14385Y13217*
X14366*
X14340Y13220*
X14285Y13230*
X14220Y13246*
X14155Y13268*
X14090Y13301*
X14032Y13346*
Y13349*
X14026Y13353*
X14009Y13372*
X13987Y13401*
X13961Y13440*
X13935Y13489*
X13912Y13547*
X13896Y13615*
X13893Y13651*
X13890Y13689*
Y13696*
Y13712*
X13893Y13738*
X13899Y13770*
X13906Y13809*
X13916Y13848*
X13932Y13890*
X13954Y13932*
X13958Y13939*
X13967Y13952*
X13980Y13971*
X14003Y13994*
X14026Y14020*
X14058Y14049*
X14094Y14075*
X14136Y14097*
X14142Y14101*
X14158Y14107*
X14184Y14117*
X14223Y14133*
X14272Y14149*
X14330Y14165*
X14401Y14182*
X14479Y14198*
X14482*
X14492Y14201*
X14508Y14204*
X14528Y14208*
X14554Y14211*
X14583Y14217*
X14647Y14233*
X14715Y14250*
X14787Y14266*
X14848Y14285*
X14877Y14295*
X14900Y14305*
Y14347*
Y14353*
Y14366*
X14897Y14389*
X14894Y14418*
X14884Y14447*
X14874Y14476*
X14858Y14502*
X14835Y14525*
X14832Y14528*
X14822Y14535*
X14806Y14541*
X14783Y14554*
X14751Y14564*
X14712Y14570*
X14664Y14577*
X14605Y14580*
X14586*
X14566Y14577*
X14541Y14574*
X14511Y14567*
X14479Y14561*
X14450Y14548*
X14424Y14531*
X14421Y14528*
X14414Y14522*
X14401Y14512*
X14388Y14496*
X14369Y14473*
X14353Y14444*
X14337Y14412*
X14320Y14373*
X13935Y14444*
Y14447*
X13938Y14454*
X13941Y14467*
X13948Y14483*
X13954Y14502*
X13964Y14525*
X13987Y14577*
X14019Y14632*
X14058Y14690*
X14103Y14745*
X14158Y14794*
X14162*
X14165Y14800*
X14175Y14803*
X14188Y14813*
X14207Y14820*
X14226Y14829*
X14252Y14842*
X14278Y14852*
X14311Y14862*
X14346Y14875*
X14385Y14884*
X14430Y14891*
X14476Y14901*
X14528Y14904*
X14579Y14910*
X14686*
X14709Y14907*
G37*
G36*
X12789Y15487D02*
X12824D01*
X12860Y15484*
X12902*
X12986Y15474*
X13074Y15464*
X13155Y15448*
X13190Y15438*
X13223Y15429*
X13226*
X13229Y15425*
X13248Y15416*
X13278Y15399*
X13316Y15380*
X13359Y15348*
X13401Y15312*
X13443Y15267*
X13482Y15212*
Y15208*
X13485Y15205*
X13491Y15195*
X13498Y15186*
X13514Y15153*
X13533Y15111*
X13550Y15059*
X13566Y15001*
X13579Y14933*
X13582Y14862*
Y14859*
Y14852*
Y14836*
X13579Y14820*
Y14797*
X13576Y14774*
X13563Y14716*
X13546Y14648*
X13520Y14580*
X13482Y14509*
X13459Y14476*
X13433Y14444*
X13430Y14441*
X13427Y14438*
X13417Y14428*
X13404Y14418*
X13391Y14405*
X13371Y14389*
X13349Y14373*
X13323Y14357*
X13294Y14337*
X13258Y14321*
X13223Y14305*
X13184Y14289*
X13138Y14272*
X13093Y14259*
X13044Y14246*
X12989Y14237*
X12993*
X12996Y14233*
X13015Y14221*
X13041Y14204*
X13074Y14182*
X13112Y14153*
X13151Y14123*
X13193Y14088*
X13229Y14049*
X13232Y14046*
X13248Y14029*
X13268Y14004*
X13297Y13965*
X13336Y13916*
X13355Y13884*
X13378Y13851*
X13404Y13816*
X13430Y13777*
X13459Y13732*
X13488Y13686*
X13763Y13249*
X13219*
X12895Y13735*
X12892Y13738*
X12889Y13748*
X12879Y13761*
X12866Y13777*
X12853Y13796*
X12837Y13822*
X12802Y13874*
X12759Y13932*
X12721Y13984*
X12685Y14033*
X12669Y14049*
X12656Y14065*
X12653Y14068*
X12646Y14075*
X12633Y14088*
X12617Y14104*
X12594Y14117*
X12572Y14133*
X12546Y14146*
X12520Y14159*
X12517*
X12507Y14162*
X12491Y14169*
X12465Y14172*
X12432Y14178*
X12393Y14182*
X12348Y14185*
X12202*
Y13249*
X11749*
Y15490*
X12759*
X12789Y15487*
G37*
G36*
X79847Y43406D02*
X79578D01*
Y43642*
X79847*
Y43406*
G37*
G36*
X33160Y32988D02*
X33181Y32946D01*
X33202Y32882*
Y32648*
Y32626*
X33181Y32605*
X33075Y32499*
X32926Y32371*
X32819Y32349*
X32713Y32328*
X32691*
X32670Y32349*
X32606Y32413*
X32542Y32520*
Y32690*
Y32711*
X32585Y32754*
X32670Y32861*
X32734Y32924*
X32840Y33010*
X33117*
X33160Y32988*
G37*
G36*
X81499Y43406D02*
X80105D01*
Y43642*
X81499*
Y43406*
G37*
G36*
X37547Y32435D02*
X37674Y32413D01*
X37781Y32328*
X37802Y32286*
X37823Y32222*
Y32200*
Y32179*
Y32115*
Y32030*
X37802Y31838*
X37760Y31625*
X37696Y31391*
X37611Y31199*
X37568Y31114*
X37504Y31050*
X37419Y31029*
X37334Y31008*
X37291*
X37248Y31050*
X37206Y31093*
X37121Y31157*
X37057Y31263*
X36950Y31412*
X36844Y31604*
X36801*
X36695Y31647*
X36610Y31689*
X36524Y31753*
X36439Y31838*
X36354Y31966*
Y32094*
Y32115*
X36375Y32136*
X36461Y32243*
X36588Y32349*
X36780Y32456*
X36844*
X36972Y32435*
X37121Y32413*
X37270Y32392*
X37504Y32456*
X37525*
X37547Y32435*
G37*
G36*
X81133Y43123D02*
X81163Y43117D01*
X81196Y43109*
X81232Y43095*
X81274Y43078*
X81313Y43056*
X81319Y43053*
X81330Y43042*
X81349Y43028*
X81371Y43006*
X81396Y42976*
X81424Y42942*
X81449Y42903*
X81474Y42856*
Y42853*
X81477Y42851*
X81482Y42834*
X81491Y42806*
X81502Y42770*
X81513Y42726*
X81521Y42676*
X81527Y42623*
X81530Y42562*
Y42559*
Y42551*
Y42537*
X81527Y42517*
Y42495*
X81524Y42467*
X81521Y42440*
X81516Y42409*
X81502Y42343*
X81482Y42273*
X81455Y42206*
X81438Y42176*
X81418Y42148*
X81416Y42145*
X81413Y42143*
X81396Y42126*
X81371Y42101*
X81332Y42073*
X81285Y42043*
X81230Y42012*
X81160Y41987*
X81083Y41968*
X81046Y42201*
X81052*
X81069Y42206*
X81096Y42212*
X81127Y42223*
X81160Y42237*
X81196Y42254*
X81232Y42279*
X81263Y42309*
X81266Y42315*
X81274Y42326*
X81285Y42348*
X81299Y42376*
X81313Y42412*
X81324Y42454*
X81332Y42504*
X81335Y42562*
Y42565*
Y42570*
Y42578*
Y42590*
X81332Y42617*
X81327Y42653*
X81319Y42692*
X81307Y42734*
X81294Y42770*
X81271Y42803*
X81269Y42806*
X81260Y42817*
X81246Y42828*
X81227Y42845*
X81205Y42859*
X81177Y42873*
X81149Y42881*
X81116Y42884*
X81102*
X81088Y42881*
X81069Y42876*
X81049Y42867*
X81030Y42853*
X81008Y42837*
X80991Y42812*
X80988Y42809*
X80985Y42801*
X80977Y42787*
X80969Y42765*
X80958Y42731*
X80949Y42712*
X80944Y42690*
X80935Y42665*
X80927Y42637*
X80919Y42606*
X80910Y42570*
Y42567*
X80908Y42559*
X80905Y42545*
X80899Y42529*
X80894Y42506*
X80885Y42481*
X80872Y42429*
X80852Y42368*
X80835Y42309*
X80816Y42254*
X80805Y42229*
X80797Y42209*
X80794Y42204*
X80788Y42193*
X80777Y42176*
X80763Y42154*
X80744Y42129*
X80722Y42104*
X80697Y42079*
X80666Y42057*
X80663Y42054*
X80652Y42048*
X80633Y42040*
X80611Y42032*
X80583Y42023*
X80550Y42015*
X80516Y42009*
X80477Y42007*
X80461*
X80444Y42009*
X80419Y42012*
X80394Y42018*
X80364Y42023*
X80336Y42034*
X80305Y42048*
X80302Y42051*
X80291Y42057*
X80277Y42065*
X80258Y42079*
X80239Y42095*
X80214Y42115*
X80191Y42137*
X80172Y42165*
X80169Y42168*
X80166Y42176*
X80158Y42187*
X80150Y42204*
X80139Y42226*
X80128Y42251*
X80116Y42281*
X80105Y42315*
X80103Y42320*
X80100Y42331*
X80094Y42351*
X80089Y42376*
X80083Y42406*
X80080Y42440*
X80075Y42479*
Y42517*
Y42520*
Y42526*
Y42534*
Y42545*
X80078Y42576*
X80080Y42617*
X80086Y42662*
X80097Y42709*
X80108Y42759*
X80125Y42806*
Y42809*
X80128Y42812*
X80133Y42826*
X80144Y42848*
X80158Y42876*
X80178Y42906*
X80200Y42937*
X80225Y42964*
X80252Y42989*
X80255Y42992*
X80266Y42998*
X80286Y43009*
X80308Y43023*
X80341Y43037*
X80377Y43050*
X80419Y43062*
X80466Y43073*
X80497Y42842*
X80491*
X80480Y42839*
X80461Y42834*
X80436Y42826*
X80411Y42812*
X80383Y42795*
X80355Y42776*
X80330Y42748*
X80327Y42745*
X80322Y42734*
X80311Y42717*
X80300Y42692*
X80289Y42665*
X80277Y42628*
X80272Y42584*
X80269Y42537*
Y42534*
Y42529*
Y42520*
Y42509*
X80272Y42481*
X80275Y42445*
X80283Y42409*
X80291Y42370*
X80305Y42334*
X80325Y42304*
X80327Y42301*
X80333Y42293*
X80344Y42281*
X80361Y42270*
X80377Y42256*
X80400Y42245*
X80425Y42237*
X80450Y42234*
X80458*
X80466Y42237*
X80477*
X80505Y42245*
X80533Y42262*
X80536Y42265*
X80538Y42268*
X80547Y42273*
X80555Y42284*
X80563Y42295*
X80575Y42312*
X80583Y42331*
X80594Y42354*
Y42356*
X80597Y42362*
X80600Y42373*
X80608Y42392*
X80616Y42420*
X80624Y42456*
X80633Y42479*
X80638Y42504*
X80647Y42531*
X80655Y42562*
Y42565*
X80658Y42573*
X80661Y42587*
X80666Y42603*
X80672Y42623*
X80677Y42648*
X80694Y42701*
X80711Y42759*
X80730Y42817*
X80749Y42870*
X80758Y42892*
X80766Y42912*
X80769Y42917*
X80774Y42928*
X80783Y42945*
X80797Y42970*
X80813Y42995*
X80835Y43020*
X80860Y43045*
X80888Y43067*
X80891Y43070*
X80902Y43075*
X80919Y43087*
X80944Y43098*
X80974Y43106*
X81008Y43117*
X81046Y43123*
X81091Y43125*
X81110*
X81133Y43123*
G37*
G36*
X37334Y33159D02*
X37376Y33116D01*
X37440Y33010*
Y32818*
Y32797*
X37419Y32775*
X37312Y32669*
X37163Y32562*
X37036Y32541*
X36908Y32520*
X36780Y32690*
Y32754*
Y32775*
Y32818*
X36844Y32967*
X36886Y33052*
X36950Y33116*
X37057Y33159*
X37206Y33180*
X37291*
X37334Y33159*
G37*
G36*
X33863Y33116D02*
X33905Y33073D01*
X33926Y33010*
Y32882*
Y32861*
Y32839*
X33905Y32711*
X33820Y32562*
X33777Y32499*
X33692Y32456*
X33415*
X33351Y32477*
X33309Y32562*
X33288Y32605*
X33266Y32690*
Y32711*
X33288Y32754*
X33351Y32903*
X33458Y33052*
X33501Y33116*
X33564Y33137*
X33820*
X33863Y33116*
G37*
G36*
X81133Y45063D02*
X81163Y45058D01*
X81196Y45049*
X81232Y45035*
X81274Y45019*
X81313Y44997*
X81319Y44994*
X81330Y44983*
X81349Y44969*
X81371Y44947*
X81396Y44916*
X81424Y44883*
X81449Y44844*
X81474Y44797*
Y44794*
X81477Y44791*
X81482Y44774*
X81491Y44747*
X81502Y44711*
X81513Y44666*
X81521Y44616*
X81527Y44563*
X81530Y44502*
Y44500*
Y44491*
Y44477*
X81527Y44458*
Y44436*
X81524Y44408*
X81521Y44380*
X81516Y44350*
X81502Y44283*
X81482Y44214*
X81455Y44147*
X81438Y44117*
X81418Y44089*
X81416Y44086*
X81413Y44083*
X81396Y44067*
X81371Y44042*
X81332Y44014*
X81285Y43983*
X81230Y43953*
X81160Y43928*
X81083Y43908*
X81046Y44142*
X81052*
X81069Y44147*
X81096Y44153*
X81127Y44164*
X81160Y44178*
X81196Y44194*
X81232Y44219*
X81263Y44250*
X81266Y44255*
X81274Y44266*
X81285Y44289*
X81299Y44316*
X81313Y44353*
X81324Y44394*
X81332Y44444*
X81335Y44502*
Y44505*
Y44511*
Y44519*
Y44530*
X81332Y44558*
X81327Y44594*
X81319Y44633*
X81307Y44675*
X81294Y44711*
X81271Y44744*
X81269Y44747*
X81260Y44758*
X81246Y44769*
X81227Y44786*
X81205Y44799*
X81177Y44813*
X81149Y44822*
X81116Y44824*
X81102*
X81088Y44822*
X81069Y44816*
X81049Y44808*
X81030Y44794*
X81008Y44777*
X80991Y44752*
X80988Y44749*
X80985Y44741*
X80977Y44727*
X80969Y44705*
X80958Y44672*
X80949Y44652*
X80944Y44630*
X80935Y44605*
X80927Y44577*
X80919Y44547*
X80910Y44511*
Y44508*
X80908Y44500*
X80905Y44486*
X80899Y44469*
X80894Y44447*
X80885Y44422*
X80872Y44369*
X80852Y44308*
X80835Y44250*
X80816Y44194*
X80805Y44169*
X80797Y44150*
X80794Y44144*
X80788Y44133*
X80777Y44117*
X80763Y44094*
X80744Y44069*
X80722Y44044*
X80697Y44019*
X80666Y43997*
X80663Y43994*
X80652Y43989*
X80633Y43980*
X80611Y43972*
X80583Y43964*
X80550Y43956*
X80516Y43950*
X80477Y43947*
X80461*
X80444Y43950*
X80419Y43953*
X80394Y43958*
X80364Y43964*
X80336Y43975*
X80305Y43989*
X80302Y43992*
X80291Y43997*
X80277Y44005*
X80258Y44019*
X80239Y44036*
X80214Y44055*
X80191Y44078*
X80172Y44105*
X80169Y44108*
X80166Y44117*
X80158Y44128*
X80150Y44144*
X80139Y44166*
X80128Y44191*
X80116Y44222*
X80105Y44255*
X80103Y44261*
X80100Y44272*
X80094Y44291*
X80089Y44316*
X80083Y44347*
X80080Y44380*
X80075Y44419*
Y44458*
Y44461*
Y44466*
Y44475*
Y44486*
X80078Y44516*
X80080Y44558*
X80086Y44602*
X80097Y44650*
X80108Y44700*
X80125Y44747*
Y44749*
X80128Y44752*
X80133Y44766*
X80144Y44788*
X80158Y44816*
X80178Y44847*
X80200Y44877*
X80225Y44905*
X80252Y44930*
X80255Y44933*
X80266Y44938*
X80286Y44949*
X80308Y44963*
X80341Y44977*
X80377Y44991*
X80419Y45002*
X80466Y45013*
X80497Y44783*
X80491*
X80480Y44780*
X80461Y44774*
X80436Y44766*
X80411Y44752*
X80383Y44736*
X80355Y44716*
X80330Y44688*
X80327Y44686*
X80322Y44675*
X80311Y44658*
X80300Y44633*
X80289Y44605*
X80277Y44569*
X80272Y44525*
X80269Y44477*
Y44475*
Y44469*
Y44461*
Y44450*
X80272Y44422*
X80275Y44386*
X80283Y44350*
X80291Y44311*
X80305Y44275*
X80325Y44244*
X80327Y44241*
X80333Y44233*
X80344Y44222*
X80361Y44211*
X80377Y44197*
X80400Y44186*
X80425Y44178*
X80450Y44175*
X80458*
X80466Y44178*
X80477*
X80505Y44186*
X80533Y44203*
X80536Y44205*
X80538Y44208*
X80547Y44214*
X80555Y44225*
X80563Y44236*
X80575Y44253*
X80583Y44272*
X80594Y44294*
Y44297*
X80597Y44303*
X80600Y44314*
X80608Y44333*
X80616Y44361*
X80624Y44397*
X80633Y44419*
X80638Y44444*
X80647Y44472*
X80655Y44502*
Y44505*
X80658Y44514*
X80661Y44527*
X80666Y44544*
X80672Y44563*
X80677Y44588*
X80694Y44641*
X80711Y44700*
X80730Y44758*
X80749Y44811*
X80758Y44833*
X80766Y44852*
X80769Y44858*
X80774Y44869*
X80783Y44886*
X80797Y44911*
X80813Y44936*
X80835Y44960*
X80860Y44985*
X80888Y45008*
X80891Y45010*
X80902Y45016*
X80919Y45027*
X80944Y45038*
X80974Y45047*
X81008Y45058*
X81046Y45063*
X81091Y45066*
X81110*
X81133Y45063*
G37*
G36*
X33692Y32094D02*
Y31370D01*
Y31349*
Y31306*
X33650Y31178*
X33564Y31029*
X33501Y30944*
X33394Y30880*
X33202*
X33181Y30901*
X33117Y30987*
X33032Y31072*
X32904Y31199*
X32776Y31306*
X32649Y31412*
X32521Y31476*
X32414Y31498*
X32244Y31732*
Y31902*
Y31924*
X32265Y31966*
X32308Y32030*
X32414Y32094*
X32564Y32158*
X32670Y32200*
X32798Y32222*
X32947Y32243*
X33138Y32264*
X33330Y32286*
X33564*
X33692Y32094*
G37*
G36*
X34523Y28985D02*
X34608Y28942D01*
X34672Y28878*
X34714Y28857*
Y28814*
Y28751*
Y28729*
X34693Y28665*
X34672Y28601*
X34650Y28516*
X34587Y28410*
X34523Y28346*
X34416Y28282*
X34288Y28261*
X34246Y28282*
X34182Y28325*
X34097Y28388*
X34075Y28410*
X34054Y28452*
Y28516*
Y28538*
X34075Y28601*
X34097Y28665*
X34118Y28772*
X34182Y28857*
X34246Y28921*
X34352Y28985*
X34480Y29006*
X34501*
X34523Y28985*
G37*
G36*
X33820Y28900D02*
X33905Y28836D01*
X33969Y28729*
X33990Y28644*
X33969Y28601*
X33926Y28495*
X33820Y28367*
X33692Y28261*
X33415*
X33351Y28303*
X33309Y28367*
X33288Y28431*
X33266Y28516*
Y28538*
X33309Y28580*
X33394Y28729*
X33564Y28878*
X33671Y28921*
X33799Y28942*
X33820Y28900*
G37*
G36*
X34288Y31881D02*
X34374Y31860D01*
X34438Y31796*
X34480Y31774*
Y31732*
Y31668*
Y31647*
X34459Y31583*
X34438Y31519*
X34395Y31434*
X34352Y31327*
X34267Y31263*
X34182Y31199*
X34054Y31178*
X34012Y31199*
X33926Y31242*
X33841Y31306*
X33820Y31327*
X33799Y31370*
Y31434*
Y31455*
X33820Y31498*
X33841Y31583*
X33863Y31668*
X33926Y31753*
X34012Y31838*
X34118Y31881*
X34246Y31902*
X34267*
X34288Y31881*
G37*
G36*
X38590Y32669D02*
X38654Y32584D01*
X38675Y32541*
Y32456*
Y32435*
X38654Y32392*
X38569Y32243*
X38420Y32094*
X38313Y32051*
X38185Y32030*
X38100*
X38036Y32073*
X37973Y32158*
X37951Y32222*
X37930Y32328*
Y32349*
X37951Y32392*
X38036Y32520*
X38185Y32626*
X38292Y32669*
X38420Y32690*
X38505*
X38590Y32669*
G37*
G36*
X34352Y32626D02*
X34395Y32584D01*
X34416Y32520*
Y32286*
Y32264*
X34374Y32222*
X34288Y32115*
X34225Y32051*
X34118Y31966*
X33905*
X33863Y32009*
X33820Y32051*
X33799Y32094*
X33777Y32179*
X33756Y32286*
Y32307*
X33777Y32328*
X33820Y32413*
X33905Y32541*
X34054Y32648*
X34310*
X34352Y32626*
G37*
G36*
X38441Y31945D02*
X38526Y31860D01*
X38590Y31753*
X38611Y31668*
X38590Y31625*
X38548Y31519*
X38441Y31412*
X38292Y31306*
X38036*
X37973Y31327*
X37930Y31412*
X37909Y31455*
X37887Y31540*
Y31561*
X37930Y31604*
X38015Y31753*
X38185Y31902*
X38292Y31945*
X38420Y31966*
X38441Y31945*
G37*
G36*
X42125Y38695D02*
X42168Y38632D01*
X42232Y38525*
Y38504*
Y38440*
X42210Y38376*
X42168Y38291*
X42125Y38184*
X42040Y38120*
X41912Y38057*
X41763Y38035*
X41742*
X41699Y38057*
X41657Y38120*
X41571Y38227*
Y38291*
Y38312*
Y38355*
X41635Y38504*
X41678Y38589*
X41742Y38653*
X41848Y38695*
X41997Y38717*
X42083*
X42125Y38695*
G37*
G36*
Y37950D02*
X42168Y37908D01*
X42232Y37801*
Y37737*
Y37716*
X42210Y37652*
Y37588*
X42168Y37503*
X42125Y37396*
X42040Y37333*
X41955Y37269*
X41827Y37247*
X41784Y37269*
X41699Y37311*
X41614Y37375*
X41593Y37396*
X41571Y37439*
Y37482*
Y37503*
Y37567*
X41593Y37631*
X41635Y37737*
X41699Y37822*
X41784Y37886*
X41891Y37950*
X42061Y37971*
X42083*
X42125Y37950*
G37*
G36*
X41465Y38163D02*
Y37247D01*
Y37226*
X41422Y37183*
X41380Y37141*
X41337Y37077*
X41252Y37034*
X41146Y36949*
X40975*
X40954Y36971*
X40911Y37034*
X40805Y37141*
X40698Y37247*
X40549Y37375*
X40379Y37503*
X40187Y37631*
X39996Y37737*
Y37801*
Y37822*
X40017Y37886*
X40059Y37971*
X40123Y38078*
X40251Y38163*
X40443Y38248*
X40549Y38291*
X40698Y38312*
X40847Y38333*
X41337*
X41465Y38163*
G37*
G36*
X40826Y39079D02*
X40933Y38994D01*
X40975Y38930*
X41039Y38823*
Y38802*
X40996Y38759*
X40890Y38610*
X40720Y38461*
X40613Y38419*
X40485Y38397*
X40464Y38440*
X40400Y38525*
X40315Y38632*
X40294Y38717*
Y38759*
X40358Y38845*
X40400Y38908*
X40464Y38972*
X40571Y39036*
X40720Y39121*
X40741*
X40826Y39079*
G37*
G36*
X81499Y38625D02*
X80588D01*
X80558Y38622*
X80519Y38617*
X80477Y38606*
X80436Y38592*
X80394Y38572*
X80361Y38547*
X80358Y38545*
X80347Y38534*
X80333Y38517*
X80319Y38492*
X80302Y38461*
X80291Y38425*
X80280Y38381*
X80277Y38331*
Y38325*
Y38314*
X80280Y38295*
X80283Y38267*
X80291Y38239*
X80300Y38206*
X80314Y38173*
X80333Y38137*
X80336Y38134*
X80344Y38123*
X80355Y38106*
X80372Y38087*
X80394Y38064*
X80419Y38042*
X80450Y38023*
X80483Y38006*
X80488Y38003*
X80500Y38001*
X80522Y37995*
X80550Y37987*
X80586Y37978*
X80630Y37973*
X80680Y37970*
X80738Y37967*
X81499*
Y37731*
X79578*
Y37967*
X80266*
X80264Y37970*
X80258Y37976*
X80250Y37984*
X80236Y37998*
X80222Y38012*
X80205Y38031*
X80189Y38056*
X80169Y38081*
X80153Y38109*
X80136Y38139*
X80105Y38212*
X80091Y38250*
X80083Y38292*
X80078Y38336*
X80075Y38381*
Y38384*
Y38386*
Y38395*
Y38406*
X80078Y38436*
X80083Y38472*
X80089Y38514*
X80100Y38559*
X80116Y38603*
X80136Y38647*
X80139Y38653*
X80147Y38667*
X80161Y38686*
X80180Y38711*
X80205Y38736*
X80233Y38764*
X80266Y38789*
X80305Y38811*
X80311Y38814*
X80325Y38819*
X80350Y38828*
X80386Y38836*
X80430Y38844*
X80483Y38853*
X80547Y38858*
X80619Y38861*
X81499*
Y38625*
G37*
G36*
X80905Y37445D02*
X80922Y37440D01*
X80944Y37431*
X80969Y37423*
X80999Y37412*
X81033Y37398*
X81069Y37381*
X81146Y37343*
X81224Y37293*
X81263Y37262*
X81302Y37231*
X81335Y37198*
X81369Y37159*
X81371Y37157*
X81377Y37151*
X81382Y37137*
X81394Y37123*
X81407Y37101*
X81421Y37079*
X81435Y37048*
X81449Y37018*
X81466Y36982*
X81480Y36943*
X81493Y36901*
X81507Y36857*
X81518Y36810*
X81524Y36760*
X81530Y36707*
X81532Y36651*
Y36648*
Y36637*
Y36621*
X81530Y36599*
Y36574*
X81527Y36543*
X81521Y36510*
X81516Y36471*
X81502Y36390*
X81480Y36307*
X81449Y36224*
X81430Y36185*
X81407Y36146*
X81405Y36143*
X81402Y36138*
X81394Y36127*
X81382Y36115*
X81371Y36099*
X81355Y36079*
X81335Y36057*
X81313Y36035*
X81288Y36013*
X81263Y35988*
X81199Y35938*
X81124Y35891*
X81041Y35849*
X81038*
X81030Y35843*
X81016Y35841*
X80999Y35832*
X80977Y35827*
X80949Y35818*
X80919Y35807*
X80885Y35799*
X80849Y35791*
X80808Y35780*
X80722Y35766*
X80624Y35755*
X80525Y35749*
X80494*
X80475Y35752*
X80447*
X80419Y35755*
X80383Y35757*
X80347Y35763*
X80266Y35777*
X80178Y35796*
X80089Y35824*
X80003Y35863*
X80000Y35866*
X79992Y35868*
X79980Y35874*
X79967Y35885*
X79947Y35896*
X79925Y35910*
X79875Y35946*
X79819Y35993*
X79764Y36049*
X79708Y36113*
X79661Y36188*
X79658Y36190*
X79656Y36199*
X79650Y36210*
X79642Y36224*
X79633Y36246*
X79625Y36268*
X79614Y36296*
X79603Y36326*
X79592Y36360*
X79581Y36396*
X79564Y36474*
X79550Y36562*
X79545Y36654*
Y36657*
Y36668*
Y36682*
X79547Y36701*
X79550Y36726*
X79553Y36757*
X79556Y36787*
X79564Y36823*
X79581Y36898*
X79606Y36982*
X79622Y37023*
X79642Y37062*
X79667Y37101*
X79692Y37140*
X79694Y37143*
X79697Y37148*
X79706Y37159*
X79719Y37173*
X79733Y37187*
X79753Y37207*
X79775Y37226*
X79797Y37248*
X79825Y37270*
X79858Y37293*
X79892Y37318*
X79928Y37340*
X79969Y37359*
X80011Y37381*
X80055Y37398*
X80105Y37415*
X80164Y37165*
X80161*
X80155Y37162*
X80144Y37157*
X80130Y37151*
X80114Y37145*
X80091Y37137*
X80047Y37115*
X79997Y37087*
X79947Y37054*
X79900Y37012*
X79858Y36968*
X79853Y36962*
X79842Y36946*
X79828Y36918*
X79808Y36882*
X79792Y36834*
X79775Y36782*
X79764Y36718*
X79761Y36648*
Y36646*
Y36637*
Y36626*
X79764Y36612*
Y36593*
X79767Y36571*
X79775Y36518*
X79786Y36460*
X79806Y36399*
X79833Y36335*
X79869Y36276*
Y36274*
X79875Y36271*
X79889Y36251*
X79911Y36227*
X79944Y36196*
X79986Y36160*
X80033Y36127*
X80091Y36096*
X80155Y36068*
X80158*
X80164Y36065*
X80172Y36063*
X80186Y36060*
X80202Y36054*
X80222Y36049*
X80269Y36041*
X80325Y36029*
X80386Y36018*
X80452Y36013*
X80525Y36010*
X80566*
X80586Y36013*
X80611*
X80638Y36016*
X80669Y36018*
X80736Y36027*
X80808Y36041*
X80880Y36057*
X80952Y36079*
X80955*
X80960Y36082*
X80969Y36088*
X80983Y36093*
X81016Y36110*
X81055Y36135*
X81099Y36165*
X81146Y36204*
X81188Y36249*
X81227Y36301*
Y36304*
X81230Y36310*
X81235Y36318*
X81241Y36329*
X81246Y36343*
X81255Y36360*
X81271Y36399*
X81288Y36449*
X81302Y36504*
X81313Y36565*
X81316Y36629*
Y36632*
Y36637*
Y36648*
X81313Y36665*
Y36685*
X81310Y36704*
X81299Y36754*
X81285Y36812*
X81263Y36871*
X81232Y36932*
X81216Y36962*
X81194Y36990*
X81191Y36993*
X81188Y36996*
X81180Y37004*
X81171Y37015*
X81158Y37026*
X81141Y37040*
X81124Y37057*
X81102Y37070*
X81077Y37087*
X81049Y37107*
X81021Y37123*
X80988Y37140*
X80952Y37154*
X80913Y37168*
X80872Y37182*
X80827Y37193*
X80891Y37448*
X80894*
X80905Y37445*
G37*
G36*
X41635Y39164D02*
X41699Y39121D01*
X41763Y39015*
Y38994*
Y38951*
X41721Y38823*
X41635Y38674*
X41571Y38589*
X41465Y38525*
X41188*
X41146Y38546*
X41103Y38589*
X41082Y38653*
Y38887*
Y38908*
X41124Y38951*
X41167Y38994*
X41209Y39057*
X41295Y39121*
X41401Y39185*
X41593*
X41635Y39164*
G37*
G36*
X37738Y37354D02*
X37823Y37290D01*
X37887Y37205*
X37930Y37141*
Y37077*
Y37034*
X37887Y36949*
X37823Y36885*
X37760Y36821*
X37653Y36736*
X37504Y36651*
X37461Y36672*
X37398Y36715*
X37312Y36758*
X37291Y36800*
X37270Y36821*
Y36885*
Y36907*
Y36949*
X37312Y37077*
X37398Y37226*
X37461Y37311*
X37568Y37375*
X37717*
X37738Y37354*
G37*
G36*
X38356Y36076D02*
X38398Y36034D01*
X38420Y35970*
Y35735*
Y35714*
X38398Y35693*
X38313Y35586*
X38143Y35480*
X38058Y35459*
X37930Y35437*
X37909*
X37887Y35459*
X37823Y35501*
X37760Y35608*
Y35799*
Y35821*
X37802Y35863*
X37887Y35970*
X37951Y36034*
X38058Y36097*
X38313*
X38356Y36076*
G37*
G36*
X37440Y36502D02*
X37525Y36459D01*
X37589Y36417*
X37632Y36374*
Y36332*
Y35437*
Y35416*
X37589Y35373*
X37504Y35267*
X37440Y35224*
X37334Y35139*
X37078*
X37057Y35160*
X37014Y35224*
X36929Y35331*
X36844Y35437*
X36716Y35544*
X36610Y35650*
X36482Y35714*
X36354Y35735*
X36184Y35970*
Y35991*
X36205Y36055*
X36248Y36140*
X36333Y36246*
X36482Y36353*
X36588Y36396*
X36695Y36438*
X36844Y36481*
X36993Y36502*
X37185Y36523*
X37419*
X37440Y36502*
G37*
G36*
X38079Y33201D02*
X38143Y33116D01*
X38185Y33031*
X38228Y32946*
X38207Y32903*
X38164Y32797*
X38079Y32690*
X37930Y32584*
X37674*
X37611Y32605*
X37547Y32690*
X37525Y32733*
X37504Y32818*
Y32839*
X37525Y32861*
X37589Y32967*
X37717Y33116*
X37887Y33244*
X38015*
X38079Y33201*
G37*
G36*
X81133Y41779D02*
X81163Y41773D01*
X81196Y41765*
X81232Y41751*
X81274Y41735*
X81313Y41712*
X81319Y41710*
X81330Y41698*
X81349Y41685*
X81371Y41662*
X81396Y41632*
X81424Y41598*
X81449Y41560*
X81474Y41512*
Y41510*
X81477Y41507*
X81482Y41490*
X81491Y41462*
X81502Y41426*
X81513Y41382*
X81521Y41332*
X81527Y41279*
X81530Y41218*
Y41215*
Y41207*
Y41193*
X81527Y41174*
Y41152*
X81524Y41124*
X81521Y41096*
X81516Y41065*
X81502Y40999*
X81482Y40929*
X81455Y40863*
X81438Y40832*
X81418Y40805*
X81416Y40802*
X81413Y40799*
X81396Y40782*
X81371Y40757*
X81332Y40730*
X81285Y40699*
X81230Y40668*
X81160Y40643*
X81083Y40624*
X81046Y40857*
X81052*
X81069Y40863*
X81096Y40868*
X81127Y40879*
X81160Y40893*
X81196Y40910*
X81232Y40935*
X81263Y40966*
X81266Y40971*
X81274Y40982*
X81285Y41004*
X81299Y41032*
X81313Y41068*
X81324Y41110*
X81332Y41160*
X81335Y41218*
Y41221*
Y41226*
Y41235*
Y41246*
X81332Y41274*
X81327Y41310*
X81319Y41349*
X81307Y41390*
X81294Y41426*
X81271Y41460*
X81269Y41462*
X81260Y41474*
X81246Y41485*
X81227Y41501*
X81205Y41515*
X81177Y41529*
X81149Y41537*
X81116Y41540*
X81102*
X81088Y41537*
X81069Y41532*
X81049Y41524*
X81030Y41510*
X81008Y41493*
X80991Y41468*
X80988Y41465*
X80985Y41457*
X80977Y41443*
X80969Y41421*
X80958Y41388*
X80949Y41368*
X80944Y41346*
X80935Y41321*
X80927Y41293*
X80919Y41263*
X80910Y41226*
Y41224*
X80908Y41215*
X80905Y41201*
X80899Y41185*
X80894Y41163*
X80885Y41138*
X80872Y41085*
X80852Y41024*
X80835Y40966*
X80816Y40910*
X80805Y40885*
X80797Y40866*
X80794Y40860*
X80788Y40849*
X80777Y40832*
X80763Y40810*
X80744Y40785*
X80722Y40760*
X80697Y40735*
X80666Y40713*
X80663Y40710*
X80652Y40705*
X80633Y40696*
X80611Y40688*
X80583Y40680*
X80550Y40671*
X80516Y40666*
X80477Y40663*
X80461*
X80444Y40666*
X80419Y40668*
X80394Y40674*
X80364Y40680*
X80336Y40691*
X80305Y40705*
X80302Y40707*
X80291Y40713*
X80277Y40721*
X80258Y40735*
X80239Y40752*
X80214Y40771*
X80191Y40793*
X80172Y40821*
X80169Y40824*
X80166Y40832*
X80158Y40843*
X80150Y40860*
X80139Y40882*
X80128Y40907*
X80116Y40938*
X80105Y40971*
X80103Y40977*
X80100Y40988*
X80094Y41007*
X80089Y41032*
X80083Y41063*
X80080Y41096*
X80075Y41135*
Y41174*
Y41177*
Y41182*
Y41190*
Y41201*
X80078Y41232*
X80080Y41274*
X80086Y41318*
X80097Y41365*
X80108Y41415*
X80125Y41462*
Y41465*
X80128Y41468*
X80133Y41482*
X80144Y41504*
X80158Y41532*
X80178Y41562*
X80200Y41593*
X80225Y41621*
X80252Y41646*
X80255Y41648*
X80266Y41654*
X80286Y41665*
X80308Y41679*
X80341Y41693*
X80377Y41707*
X80419Y41718*
X80466Y41729*
X80497Y41499*
X80491*
X80480Y41496*
X80461Y41490*
X80436Y41482*
X80411Y41468*
X80383Y41451*
X80355Y41432*
X80330Y41404*
X80327Y41401*
X80322Y41390*
X80311Y41374*
X80300Y41349*
X80289Y41321*
X80277Y41285*
X80272Y41240*
X80269Y41193*
Y41190*
Y41185*
Y41177*
Y41165*
X80272Y41138*
X80275Y41102*
X80283Y41065*
X80291Y41027*
X80305Y40991*
X80325Y40960*
X80327Y40957*
X80333Y40949*
X80344Y40938*
X80361Y40927*
X80377Y40913*
X80400Y40902*
X80425Y40893*
X80450Y40891*
X80458*
X80466Y40893*
X80477*
X80505Y40902*
X80533Y40918*
X80536Y40921*
X80538Y40924*
X80547Y40929*
X80555Y40941*
X80563Y40952*
X80575Y40968*
X80583Y40988*
X80594Y41010*
Y41013*
X80597Y41018*
X80600Y41029*
X80608Y41049*
X80616Y41077*
X80624Y41113*
X80633Y41135*
X80638Y41160*
X80647Y41188*
X80655Y41218*
Y41221*
X80658Y41229*
X80661Y41243*
X80666Y41260*
X80672Y41279*
X80677Y41304*
X80694Y41357*
X80711Y41415*
X80730Y41474*
X80749Y41526*
X80758Y41549*
X80766Y41568*
X80769Y41574*
X80774Y41585*
X80783Y41601*
X80797Y41626*
X80813Y41651*
X80835Y41676*
X80860Y41701*
X80888Y41723*
X80891Y41726*
X80902Y41732*
X80919Y41743*
X80944Y41754*
X80974Y41762*
X81008Y41773*
X81046Y41779*
X81091Y41782*
X81110*
X81133Y41779*
G37*
G36*
X37099Y37226D02*
X37121Y37183D01*
X37142Y37120*
Y37013*
Y36992*
Y36949*
X37099Y36800*
X37036Y36715*
X36972Y36651*
X36865Y36609*
X36716Y36587*
X36631*
X36610Y36609*
X36546Y36672*
X36482Y36779*
Y36800*
Y36843*
X36503Y36928*
X36546Y37013*
X36610Y37098*
X36695Y37183*
X36801Y37226*
X36972Y37247*
X37057*
X37099Y37226*
G37*
G36*
X38292Y36864D02*
X38356Y36821D01*
X38420Y36715*
Y36694*
Y36651*
X38398Y36587*
X38377Y36502*
X38313Y36417*
X38249Y36310*
X38143Y36225*
X37994Y36161*
X37951Y36183*
X37887Y36225*
X37802Y36268*
X37781Y36310*
X37760Y36332*
Y36587*
Y36609*
X37802Y36651*
X37887Y36758*
X37951Y36821*
X38058Y36885*
X38249*
X38292Y36864*
G37*
G36*
X81499Y40180D02*
X81496Y40177D01*
X81485Y40174*
X81471Y40169*
X81449Y40160*
X81424Y40152*
X81394Y40147*
X81360Y40141*
X81324Y40135*
Y40133*
X81330Y40130*
X81344Y40113*
X81363Y40088*
X81388Y40055*
X81413Y40013*
X81441Y39972*
X81466Y39927*
X81485Y39880*
X81488Y39874*
X81491Y39858*
X81499Y39833*
X81507Y39802*
X81516Y39763*
X81521Y39719*
X81527Y39669*
X81530Y39619*
Y39616*
Y39608*
Y39597*
X81527Y39580*
Y39561*
X81524Y39539*
X81516Y39489*
X81502Y39433*
X81482Y39372*
X81455Y39316*
X81418Y39266*
X81413Y39261*
X81399Y39247*
X81374Y39228*
X81341Y39205*
X81299Y39183*
X81252Y39164*
X81194Y39150*
X81166Y39147*
X81133Y39144*
X81116*
X81096Y39147*
X81071Y39150*
X81041Y39155*
X81010Y39164*
X80977Y39175*
X80947Y39189*
X80944Y39192*
X80933Y39197*
X80916Y39208*
X80897Y39222*
X80874Y39239*
X80852Y39261*
X80830Y39283*
X80811Y39311*
X80808Y39314*
X80802Y39325*
X80791Y39339*
X80780Y39361*
X80769Y39386*
X80755Y39416*
X80744Y39447*
X80733Y39483*
Y39486*
X80730Y39497*
X80724Y39514*
X80722Y39536*
X80716Y39564*
X80711Y39600*
X80702Y39641*
X80697Y39691*
Y39694*
X80694Y39705*
Y39719*
X80691Y39738*
X80688Y39761*
X80683Y39788*
X80680Y39819*
X80674Y39852*
X80661Y39919*
X80647Y39991*
X80630Y40055*
X80622Y40085*
X80613Y40113*
X80605*
X80588Y40116*
X80530*
X80502Y40113*
X80472Y40108*
X80438Y40099*
X80405Y40085*
X80375Y40069*
X80350Y40047*
X80347Y40044*
X80336Y40030*
X80325Y40008*
X80308Y39980*
X80294Y39941*
X80280Y39897*
X80272Y39841*
X80269Y39777*
Y39775*
Y39769*
Y39761*
Y39750*
X80272Y39722*
X80277Y39683*
X80283Y39644*
X80294Y39602*
X80308Y39564*
X80327Y39530*
X80330Y39527*
X80339Y39516*
X80352Y39502*
X80375Y39486*
X80402Y39469*
X80438Y39450*
X80483Y39433*
X80533Y39416*
X80502Y39186*
X80500*
X80497Y39189*
X80488*
X80477Y39192*
X80452Y39200*
X80416Y39211*
X80380Y39225*
X80341Y39241*
X80302Y39264*
X80266Y39289*
X80264Y39291*
X80252Y39303*
X80236Y39319*
X80214Y39341*
X80191Y39372*
X80169Y39408*
X80144Y39450*
X80125Y39497*
Y39500*
X80122Y39502*
X80119Y39511*
X80116Y39522*
X80108Y39550*
X80100Y39589*
X80091Y39633*
X80083Y39688*
X80078Y39747*
X80075Y39813*
Y39816*
Y39822*
Y39830*
Y39844*
X80078Y39874*
X80080Y39916*
X80086Y39963*
X80094Y40011*
X80105Y40058*
X80119Y40102*
X80122Y40108*
X80128Y40122*
X80136Y40141*
X80147Y40166*
X80164Y40194*
X80180Y40221*
X80202Y40246*
X80225Y40269*
X80227Y40271*
X80236Y40277*
X80250Y40285*
X80266Y40296*
X80291Y40310*
X80316Y40321*
X80347Y40333*
X80383Y40341*
X80386*
X80394Y40344*
X80411Y40346*
X80433Y40349*
X80463*
X80500Y40352*
X80547Y40355*
X81024*
X81091Y40358*
X81160*
X81230Y40360*
X81260Y40363*
X81288*
X81313Y40366*
X81332Y40369*
X81335*
X81346Y40371*
X81363Y40374*
X81385Y40383*
X81410Y40388*
X81438Y40399*
X81468Y40413*
X81499Y40427*
Y40180*
G37*
G36*
X13507Y25269D02*
X12872Y25904D01*
X13507Y26539*
Y25269*
G37*
G36*
X31456Y23831D02*
X31499Y23767D01*
X31563Y23661*
Y23597*
Y23576*
Y23533*
X31520Y23384*
X31456Y23299*
X31392Y23235*
X31286Y23192*
X31137Y23171*
X31052*
X31030Y23192*
X30966Y23256*
X30902Y23363*
Y23384*
Y23427*
X30945Y23554*
X31030Y23704*
X31094Y23789*
X31201Y23853*
X31414*
X31456Y23831*
G37*
G36*
X27048Y23704D02*
X27133Y23640D01*
X27218Y23512*
X27261Y23448*
Y23363*
Y23341*
Y23299*
X27240Y23235*
X27218Y23150*
X27154Y23065*
X27091Y22979*
X26984Y22894*
X26835Y22809*
X26814*
X26792Y22830*
X26686Y22894*
X26580Y22979*
X26537Y23022*
X26516Y23065*
Y23235*
Y23256*
Y23320*
X26537Y23384*
X26580Y23491*
X26643Y23576*
X26729Y23640*
X26835Y23704*
X27005Y23725*
X27027*
X27048Y23704*
G37*
G36*
X31392Y24449D02*
Y24321D01*
Y24300*
Y24278*
X31371Y24151*
X31286Y24002*
X31222Y23938*
X31137Y23895*
X30924*
X30902Y23916*
X30839Y23980*
X30775Y24087*
Y24151*
Y24172*
Y24215*
X30796Y24300*
X30839Y24385*
X30902Y24470*
X30988Y24555*
X31094Y24598*
X31264Y24619*
X31392Y24449*
G37*
G36*
X30775Y24981D02*
X30817Y24939D01*
X30839Y24875*
Y24555*
X30817Y24513*
X30753Y24449*
X30647Y24342*
X30477Y24257*
X30434Y24278*
X30349Y24321*
X30264Y24385*
X30242Y24406*
X30221Y24449*
Y24555*
Y24577*
Y24619*
X30285Y24790*
X30328Y24853*
X30391Y24939*
X30498Y24981*
X30647Y25003*
X30732*
X30775Y24981*
G37*
G36*
X67444Y6491D02*
X66174D01*
X66809Y7126*
X67444Y6491*
G37*
G36*
X30157Y24513D02*
Y24491D01*
Y24449*
X30136Y24385*
X30093Y24321*
X30051Y24257*
X29965Y24172*
X29838Y24129*
X29689Y24087*
X29667*
X29625Y24108*
X29582Y24151*
X29497Y24257*
Y24321*
Y24342*
Y24406*
X29518Y24470*
X29561Y24577*
X29625Y24662*
X29710Y24726*
X29816Y24790*
X29987Y24811*
X30157Y24513*
G37*
G36*
X30583Y24108D02*
X30604Y24066D01*
X30647Y23959*
X30690Y23831*
X30753Y23640*
X30796Y23384*
X30839Y23065*
Y23043*
X30817Y23001*
X30732Y22873*
X30583Y22745*
X30477Y22703*
X30349Y22681*
X30328Y22703*
X30285Y22745*
X30200Y22830*
X30093Y22937*
X29965Y23022*
X29795Y23129*
X29603Y23214*
X29369Y23299*
X29305Y23405*
Y23469*
Y23491*
X29327Y23554*
X29369Y23640*
X29454Y23746*
X29603Y23874*
X29710Y23938*
X29838Y23980*
X29965Y24023*
X30136Y24087*
X30328Y24129*
X30540Y24151*
X30583Y24108*
G37*
G36*
X91757Y68424D02*
X91122Y69059D01*
X91757Y69694*
Y68424*
G37*
G36*
X27112Y22596D02*
X27154Y22554D01*
X27218Y22468*
X27304Y22319*
X27346Y22234*
X27389Y22106*
X27453Y21957*
X27495Y21808*
X27559Y21617*
X27623Y21404*
Y21382*
X27602Y21340*
X27538Y21212*
X27431Y21084*
X27367Y21020*
X27304Y20999*
X27197*
X26409Y21361*
X25962*
X25919Y21382*
X25855Y21468*
X25813Y21510*
X25749Y21595*
Y21723*
Y21744*
X25770Y21808*
X25813Y21893*
X25898Y22021*
X26047Y22149*
X26154Y22234*
X26260Y22298*
X26409Y22383*
X26558Y22468*
X26750Y22532*
X26963Y22617*
X27069*
X27112Y22596*
G37*
G36*
X33434Y7857D02*
X33450D01*
X33469Y7855*
X33510Y7846*
X33557Y7834*
X33608Y7816*
X33659Y7790*
X33682Y7774*
X33705Y7755*
X33707*
X33709Y7751*
X33716Y7744*
X33723Y7737*
X33735Y7725*
X33744Y7714*
X33770Y7681*
X33795Y7637*
X33820Y7586*
X33844Y7529*
X33860Y7459*
X33564Y7427*
Y7431*
X33561Y7441*
X33557Y7457*
X33552Y7478*
X33545Y7499*
X33534Y7522*
X33522Y7542*
X33506Y7561*
X33503Y7563*
X33497Y7568*
X33487Y7575*
X33473Y7584*
X33457Y7591*
X33436Y7598*
X33411Y7603*
X33385Y7605*
X33381*
X33369Y7603*
X33351Y7600*
X33328Y7593*
X33302Y7584*
X33274Y7568*
X33247Y7547*
X33221Y7517*
X33219Y7512*
X33214Y7508*
X33210Y7499*
X33205Y7489*
X33198Y7475*
X33193Y7459*
X33186Y7438*
X33177Y7415*
X33170Y7390*
X33163Y7360*
X33156Y7327*
X33149Y7290*
X33145Y7249*
X33140Y7202*
X33136Y7154*
X33138Y7156*
X33140Y7161*
X33147Y7165*
X33156Y7175*
X33168Y7186*
X33182Y7198*
X33214Y7223*
X33256Y7246*
X33304Y7269*
X33332Y7279*
X33360Y7283*
X33390Y7288*
X33423Y7290*
X33441*
X33455Y7288*
X33471Y7286*
X33490Y7283*
X33513Y7279*
X33536Y7272*
X33587Y7253*
X33615Y7242*
X33642Y7228*
X33670Y7212*
X33698Y7191*
X33726Y7168*
X33751Y7142*
X33753Y7140*
X33758Y7135*
X33765Y7128*
X33772Y7117*
X33783Y7101*
X33795Y7084*
X33807Y7064*
X33820Y7040*
X33834Y7015*
X33846Y6985*
X33858Y6955*
X33869Y6920*
X33876Y6885*
X33883Y6846*
X33888Y6807*
X33890Y6763*
Y6760*
Y6751*
Y6740*
X33888Y6721*
X33885Y6700*
X33883Y6677*
X33878Y6649*
X33871Y6622*
X33855Y6557*
X33844Y6524*
X33827Y6492*
X33811Y6460*
X33793Y6427*
X33770Y6395*
X33744Y6367*
X33742Y6365*
X33737Y6360*
X33730Y6353*
X33719Y6344*
X33705Y6332*
X33686Y6321*
X33668Y6307*
X33645Y6293*
X33619Y6279*
X33591Y6265*
X33561Y6254*
X33527Y6242*
X33492Y6233*
X33455Y6226*
X33416Y6221*
X33374Y6219*
X33362*
X33351Y6221*
X33335*
X33314Y6226*
X33288Y6228*
X33263Y6235*
X33233Y6242*
X33203Y6251*
X33170Y6265*
X33136Y6279*
X33103Y6298*
X33068Y6318*
X33036Y6344*
X33004Y6374*
X32974Y6406*
X32971Y6409*
X32967Y6416*
X32960Y6427*
X32950Y6443*
X32937Y6464*
X32925Y6490*
X32911Y6520*
X32897Y6554*
X32881Y6596*
X32867Y6640*
X32856Y6691*
X32844Y6749*
X32832Y6809*
X32825Y6876*
X32821Y6948*
X32819Y7026*
Y7029*
Y7031*
Y7038*
Y7045*
Y7068*
X32821Y7098*
X32823Y7135*
X32828Y7177*
X32832Y7223*
X32839Y7272*
X32846Y7323*
X32858Y7376*
X32872Y7429*
X32888Y7482*
X32906Y7531*
X32927Y7580*
X32953Y7623*
X32981Y7663*
X32983Y7665*
X32987Y7672*
X32997Y7681*
X33011Y7693*
X33027Y7709*
X33045Y7725*
X33068Y7744*
X33094Y7762*
X33124Y7779*
X33154Y7797*
X33191Y7813*
X33228Y7829*
X33267Y7841*
X33311Y7850*
X33355Y7857*
X33404Y7859*
X33423*
X33434Y7857*
G37*
G36*
X13507Y65019D02*
X12872Y65654D01*
X13507Y66289*
Y65019*
G37*
G36*
X27793Y23384D02*
X27879Y23320D01*
X27942Y23214*
X27985Y23150*
Y23065*
Y23043*
X27964Y22979*
X27942Y22894*
X27900Y22788*
X27836Y22681*
X27772Y22596*
X27666Y22532*
X27559Y22511*
X27538*
X27517Y22532*
X27410Y22596*
X27304Y22724*
X27282Y22830*
X27261Y22937*
Y22958*
X27282Y23001*
X27304Y23086*
X27346Y23171*
X27410Y23256*
X27495Y23341*
X27602Y23384*
X27751Y23405*
X27772*
X27793Y23384*
G37*
G36*
X26196Y23278D02*
X26324Y23214D01*
X26430Y23086*
X26452Y22979*
X26473Y22873*
Y22852*
Y22830*
X26430Y22724*
X26388Y22639*
X26324Y22554*
X26239Y22468*
X26111Y22383*
X25962*
X25919Y22404*
X25855Y22490*
X25813Y22532*
X25749Y22617*
Y22937*
Y22958*
X25770Y22979*
X25855Y23086*
X25983Y23192*
X26154Y23299*
X26175*
X26196Y23278*
G37*
G36*
X28177Y22532D02*
X28241Y22447D01*
X28304Y22404*
X28347Y22319*
Y22213*
Y22192*
Y22149*
X28304Y22021*
X28219Y21872*
X28155Y21787*
X28049Y21723*
X27793*
X27751Y21744*
X27687Y21808*
X27623Y21915*
Y22021*
Y22042*
X27644Y22106*
X27666Y22192*
X27708Y22298*
X27751Y22383*
X27793Y22468*
X27857Y22532*
X27921Y22554*
X28134*
X28177Y22532*
G37*
G36*
X81235Y47834D02*
X81238Y47828D01*
X81246Y47817*
X81257Y47803*
X81269Y47787*
X81282Y47767*
X81299Y47742*
X81316Y47717*
X81352Y47659*
X81391Y47592*
X81427Y47523*
X81457Y47448*
Y47445*
X81460Y47440*
X81463Y47429*
X81468Y47415*
X81474Y47395*
X81482Y47373*
X81488Y47348*
X81493Y47323*
X81507Y47262*
X81521Y47193*
X81530Y47118*
X81532Y47040*
Y47037*
Y47026*
Y47012*
X81530Y46993*
Y46968*
X81527Y46937*
X81521Y46904*
X81518Y46868*
X81502Y46787*
X81482Y46701*
X81452Y46612*
X81435Y46568*
X81413Y46524*
X81410Y46521*
X81407Y46512*
X81399Y46501*
X81391Y46485*
X81377Y46465*
X81363Y46446*
X81324Y46393*
X81274Y46338*
X81213Y46279*
X81144Y46224*
X81063Y46174*
X81060*
X81052Y46168*
X81041Y46163*
X81021Y46154*
X81002Y46146*
X80974Y46138*
X80947Y46127*
X80913Y46115*
X80877Y46104*
X80835Y46093*
X80794Y46085*
X80749Y46077*
X80652Y46063*
X80550Y46057*
X80522*
X80502Y46060*
X80477*
X80447Y46063*
X80416Y46068*
X80380Y46071*
X80341Y46079*
X80300Y46085*
X80211Y46107*
X80119Y46135*
X80028Y46174*
X80025Y46176*
X80017Y46179*
X80005Y46185*
X79989Y46196*
X79967Y46207*
X79944Y46221*
X79892Y46260*
X79830Y46307*
X79772Y46365*
X79714Y46432*
X79689Y46471*
X79664Y46510*
X79661Y46512*
X79658Y46521*
X79653Y46532*
X79644Y46548*
X79636Y46571*
X79625Y46596*
X79614Y46623*
X79603Y46657*
X79592Y46693*
X79583Y46732*
X79572Y46773*
X79564Y46818*
X79550Y46915*
X79545Y46965*
Y47018*
Y47020*
Y47026*
Y47037*
Y47054*
X79547Y47070*
Y47093*
X79553Y47145*
X79561Y47204*
X79575Y47265*
X79592Y47331*
X79614Y47395*
Y47398*
X79617Y47404*
X79619Y47412*
X79625Y47423*
X79642Y47454*
X79661Y47492*
X79689Y47534*
X79722Y47578*
X79758Y47620*
X79803Y47659*
X79808Y47665*
X79825Y47676*
X79850Y47692*
X79886Y47715*
X79930Y47737*
X79986Y47762*
X80047Y47787*
X80116Y47806*
X80178Y47576*
X80175*
X80172Y47573*
X80164Y47570*
X80153Y47567*
X80128Y47559*
X80094Y47548*
X80055Y47531*
X80019Y47512*
X79980Y47492*
X79947Y47467*
X79944Y47465*
X79933Y47456*
X79919Y47440*
X79900Y47420*
X79878Y47395*
X79855Y47362*
X79833Y47326*
X79814Y47284*
X79811Y47279*
X79806Y47265*
X79797Y47240*
X79786Y47206*
X79778Y47168*
X79769Y47123*
X79764Y47073*
X79761Y47020*
Y47018*
Y47012*
Y47004*
Y46990*
X79764Y46976*
Y46959*
X79767Y46918*
X79775Y46871*
X79783Y46818*
X79797Y46768*
X79817Y46718*
X79819Y46712*
X79825Y46696*
X79839Y46673*
X79853Y46646*
X79875Y46612*
X79897Y46576*
X79925Y46543*
X79955Y46512*
X79958Y46510*
X79969Y46499*
X79989Y46485*
X80011Y46468*
X80039Y46449*
X80072Y46429*
X80108Y46410*
X80147Y46390*
X80150*
X80155Y46387*
X80164Y46385*
X80178Y46379*
X80194Y46374*
X80214Y46368*
X80236Y46360*
X80261Y46354*
X80319Y46340*
X80386Y46329*
X80455Y46321*
X80533Y46318*
X80558*
X80575Y46321*
X80597*
X80624Y46324*
X80652Y46326*
X80683Y46329*
X80752Y46340*
X80824Y46354*
X80897Y46376*
X80966Y46404*
X80969*
X80974Y46410*
X80983Y46412*
X80994Y46421*
X81024Y46440*
X81063Y46471*
X81105Y46507*
X81146Y46551*
X81185Y46604*
X81221Y46662*
Y46665*
X81224Y46671*
X81230Y46679*
X81235Y46693*
X81241Y46707*
X81246Y46726*
X81263Y46771*
X81277Y46826*
X81291Y46887*
X81302Y46954*
X81305Y47023*
Y47026*
Y47032*
Y47040*
Y47051*
X81302Y47068*
Y47084*
X81296Y47126*
X81291Y47176*
X81280Y47229*
X81263Y47287*
X81244Y47345*
Y47348*
X81241Y47354*
X81238Y47359*
X81232Y47370*
X81219Y47401*
X81202Y47434*
X81183Y47473*
X81160Y47515*
X81135Y47553*
X81108Y47587*
X80747*
Y47020*
X80519*
Y47837*
X81232*
X81235Y47834*
G37*
G36*
X81499Y49458D02*
X79992Y48453D01*
X81499*
Y48209*
X79578*
Y48470*
X81088Y49477*
X79578*
Y49722*
X81499*
Y49458*
G37*
G36*
X34246Y28133D02*
X34310Y28048D01*
X34352Y27984*
X34416Y27899*
Y27877*
Y27856*
Y27728*
X34395Y27537*
X34352Y27324*
X34288Y27111*
X34182Y26919*
X34054Y26791*
X33969Y26770*
X33863Y26749*
X33799*
X33777Y26770*
X33735Y26855*
X33650Y26962*
X33543Y27089*
X33394Y27217*
X33245Y27366*
X33075Y27494*
X32904Y27601*
Y27664*
Y27686*
Y27728*
X32947Y27856*
X32989Y27920*
X33053Y28005*
X33138Y28090*
X33266Y28154*
X34203*
X34246Y28133*
G37*
G36*
X31137Y27175D02*
Y26940D01*
Y26919*
X31115Y26898*
X31030Y26791*
X30860Y26685*
X30775Y26664*
X30647Y26642*
X30626Y26685*
X30562Y26749*
X30498Y26855*
X30477Y26940*
Y26962*
X30519Y27004*
X30604Y27153*
X30775Y27302*
X30881Y27345*
X31009Y27366*
X31137Y27175*
G37*
G36*
X30093Y27707D02*
X30200Y27643D01*
X30285Y27579*
X30328Y27537*
X30349Y27494*
Y27047*
X30413Y26706*
Y26685*
X30391Y26642*
X30306Y26493*
X30157Y26323*
X30051Y26280*
X29923Y26259*
X29305Y26813*
X29263*
X29178Y26855*
X29028Y26940*
X28965Y27004*
X28901Y27111*
Y27132*
X28922Y27196*
X28965Y27281*
X29028Y27388*
X29156Y27494*
X29327Y27579*
X29582Y27664*
X29753Y27707*
X29923Y27728*
X30072*
X30093Y27707*
G37*
G36*
X34949D02*
X35034Y27664D01*
X35098Y27622*
X35140Y27579*
Y27537*
Y27494*
Y27473*
Y27430*
X35098Y27281*
X35034Y27217*
X34970Y27132*
X34863Y27047*
X34714Y27004*
X34672Y27026*
X34608Y27068*
X34523Y27111*
X34501Y27153*
X34480Y27175*
Y27430*
Y27451*
X34501Y27473*
X34608Y27579*
X34736Y27686*
X34821Y27707*
X34906Y27728*
X34927*
X34949Y27707*
G37*
G36*
X35098Y28431D02*
X35140Y28346D01*
X35183Y28282*
X35204Y28197*
X35183Y28154*
X35119Y28048*
X35012Y27920*
X34842Y27792*
X34629*
X34587Y27835*
X34523Y27920*
X34501Y27984*
X34480Y28090*
Y28112*
X34501Y28154*
X34587Y28282*
X34736Y28388*
X34842Y28431*
X34970Y28452*
X35055*
X35098Y28431*
G37*
G36*
X30391Y28559D02*
X30477Y28516D01*
X30562Y28474*
X30604Y28431*
Y28388*
Y28154*
Y28133*
X30583Y28112*
X30477Y28005*
X30328Y27899*
X30221Y27877*
X30115Y27856*
X30093*
X30051Y27877*
X30008Y27920*
X29923Y28026*
Y28197*
Y28218*
X29944Y28261*
X30051Y28388*
X30178Y28516*
X30264Y28559*
X30349Y28580*
X30370*
X30391Y28559*
G37*
G36*
X80586Y51734D02*
X80608D01*
X80661Y51732*
X80722Y51723*
X80786Y51715*
X80852Y51701*
X80919Y51685*
X80922*
X80927Y51682*
X80935Y51679*
X80947Y51676*
X80977Y51665*
X81016Y51648*
X81060Y51632*
X81105Y51610*
X81152Y51582*
X81196Y51554*
X81202Y51551*
X81216Y51540*
X81235Y51523*
X81260Y51501*
X81288Y51476*
X81316Y51446*
X81346Y51415*
X81371Y51379*
X81374Y51374*
X81382Y51362*
X81394Y51343*
X81407Y51315*
X81424Y51282*
X81438Y51243*
X81455Y51199*
X81468Y51149*
Y51146*
Y51143*
X81471Y51135*
X81474Y51126*
X81477Y51099*
X81482Y51060*
X81488Y51015*
X81493Y50963*
X81496Y50904*
X81499Y50841*
Y50149*
X79578*
Y50810*
Y50813*
Y50821*
Y50832*
Y50846*
Y50866*
Y50888*
X79581Y50938*
X79583Y50993*
X79589Y51049*
X79597Y51104*
X79606Y51151*
Y51154*
X79608Y51160*
Y51168*
X79614Y51179*
X79622Y51210*
X79636Y51249*
X79656Y51293*
X79681Y51340*
X79708Y51387*
X79744Y51432*
X79747Y51435*
X79750Y51437*
X79758Y51446*
X79767Y51457*
X79794Y51485*
X79833Y51518*
X79880Y51554*
X79936Y51593*
X80000Y51629*
X80072Y51660*
X80075*
X80080Y51662*
X80091Y51668*
X80108Y51671*
X80128Y51679*
X80150Y51685*
X80175Y51690*
X80205Y51698*
X80236Y51707*
X80272Y51712*
X80350Y51726*
X80436Y51734*
X80530Y51737*
X80566*
X80586Y51734*
G37*
G36*
X31009Y28069D02*
X31052Y28026D01*
X31073Y27963*
Y27856*
Y27835*
Y27792*
X31030Y27643*
X30966Y27558*
X30902Y27494*
X30796Y27451*
X30647Y27430*
X30583*
X30540Y27451*
X30477Y27537*
X30455Y27579*
X30413Y27664*
Y27686*
Y27728*
X30434Y27792*
X30477Y27856*
X30540Y27920*
X30626Y28005*
X30732Y28048*
X30902Y28090*
X30966*
X31009Y28069*
G37*
G36*
X29753Y28367D02*
X29795Y28303D01*
X29859Y28197*
Y28176*
Y28133*
X29838Y28048*
X29795Y27963*
X29731Y27877*
X29646Y27792*
X29540Y27750*
X29369Y27728*
X29348*
X29327Y27750*
X29263Y27792*
X29199Y27899*
Y27963*
Y27984*
Y28026*
X29263Y28176*
X29305Y28261*
X29369Y28325*
X29476Y28367*
X29625Y28388*
X29710*
X29753Y28367*
G37*
%LNdigitalpsu-2*%
%LPC*%
G36*
X15209Y64242D02*
Y63747D01*
X15875Y63999*
X15209Y64242*
G37*
G36*
X15395Y61061D02*
X15367D01*
X15346Y61058*
X15320Y61056*
X15289Y61053*
X15258Y61048*
X15222Y61043*
X15147Y61027*
X15072Y61001*
X15033Y60986*
X14996Y60968*
X14963Y60944*
X14932Y60921*
X14929Y60918*
X14924Y60913*
X14916Y60905*
X14908Y60895*
X14895Y60882*
X14882Y60864*
X14867Y60846*
X14854Y60822*
X14823Y60773*
X14800Y60711*
X14789Y60677*
X14781Y60641*
X14776Y60602*
X14774Y60563*
Y60561*
Y60553*
Y60543*
X14776Y60527*
X14779Y60509*
X14781Y60488*
X14794Y60439*
X14812Y60382*
X14825Y60354*
X14838Y60322*
X14857Y60294*
X14877Y60263*
X14901Y60234*
X14929Y60208*
X14932Y60206*
X14937Y60203*
X14945Y60195*
X14958Y60188*
X14976Y60175*
X14996Y60164*
X15020Y60151*
X15048Y60138*
X15079Y60126*
X15113Y60113*
X15152Y60100*
X15196Y60089*
X15240Y60081*
X15289Y60074*
X15344Y60071*
X15401Y60069*
X15429*
X15452Y60071*
X15478Y60074*
X15507Y60076*
X15541Y60079*
X15574Y60087*
X15649Y60102*
X15727Y60126*
X15766Y60141*
X15800Y60159*
X15833Y60183*
X15864Y60206*
X15867Y60208*
X15872Y60211*
X15877Y60219*
X15888Y60229*
X15901Y60245*
X15914Y60260*
X15927Y60278*
X15942Y60302*
X15955Y60325*
X15968Y60354*
X15994Y60413*
X16004Y60447*
X16009Y60483*
X16015Y60522*
X16017Y60563*
Y60566*
Y60574*
Y60584*
X16015Y60600*
X16012Y60620*
X16009Y60641*
X15999Y60693*
X15978Y60750*
X15968Y60781*
X15952Y60812*
X15934Y60841*
X15914Y60872*
X15890Y60900*
X15862Y60926*
X15859Y60929*
X15854Y60931*
X15846Y60939*
X15833Y60947*
X15815Y60957*
X15797Y60968*
X15774Y60980*
X15745Y60993*
X15714Y61006*
X15680Y61019*
X15642Y61030*
X15600Y61040*
X15553Y61048*
X15504Y61056*
X15452Y61058*
X15395Y61061*
G37*
G36*
X80525Y51476D02*
X80497D01*
X80475Y51474*
X80450*
X80422Y51471*
X80389Y51468*
X80355Y51465*
X80280Y51451*
X80202Y51435*
X80130Y51410*
X80094Y51393*
X80064Y51376*
X80061*
X80055Y51371*
X80047Y51365*
X80036Y51360*
X80008Y51337*
X79975Y51310*
X79939Y51274*
X79903Y51232*
X79872Y51185*
X79847Y51135*
X79844Y51129*
X79842Y51115*
X79833Y51090*
X79825Y51054*
X79819Y51010*
X79811Y50954*
X79808Y50921*
Y50885*
X79806Y50849*
Y50807*
Y50405*
X81271*
Y50813*
Y50816*
Y50821*
Y50832*
Y50843*
Y50860*
X81269Y50879*
X81266Y50921*
X81263Y50968*
X81257Y51018*
X81249Y51068*
X81238Y51110*
X81235Y51115*
X81232Y51129*
X81224Y51149*
X81213Y51174*
X81196Y51201*
X81180Y51229*
X81160Y51257*
X81138Y51285*
X81133Y51288*
X81121Y51299*
X81102Y51315*
X81074Y51335*
X81038Y51357*
X80996Y51382*
X80949Y51404*
X80897Y51424*
X80894*
X80888Y51426*
X80880Y51429*
X80869Y51432*
X80855Y51435*
X80835Y51440*
X80816Y51446*
X80794Y51451*
X80738Y51460*
X80674Y51468*
X80602Y51474*
X80525Y51476*
G37*
G36*
X15209Y67859D02*
Y67364D01*
X15875Y67616*
X15209Y67859*
G37*
G36*
X80799Y40116D02*
Y40113D01*
X80802Y40110*
X80805Y40102*
X80808Y40091*
X80813Y40077*
X80819Y40060*
X80824Y40041*
X80830Y40019*
X80838Y39994*
X80844Y39963*
X80852Y39933*
X80860Y39897*
X80869Y39858*
X80877Y39819*
X80883Y39775*
X80891Y39727*
Y39725*
Y39722*
X80894Y39705*
X80899Y39677*
X80905Y39647*
X80910Y39613*
X80919Y39580*
X80927Y39550*
X80938Y39522*
Y39519*
X80944Y39511*
X80949Y39500*
X80958Y39489*
X80980Y39455*
X81013Y39427*
X81016*
X81021Y39422*
X81033Y39419*
X81046Y39414*
X81063Y39408*
X81080Y39403*
X81102Y39400*
X81124Y39397*
X81141*
X81158Y39400*
X81180Y39405*
X81205Y39414*
X81230Y39427*
X81257Y39444*
X81282Y39466*
X81285Y39469*
X81291Y39480*
X81302Y39497*
X81313Y39519*
X81324Y39550*
X81335Y39586*
X81341Y39627*
X81344Y39677*
Y39680*
Y39683*
Y39700*
X81341Y39727*
X81335Y39758*
X81330Y39797*
X81319Y39836*
X81305Y39877*
X81285Y39919*
X81282Y39924*
X81274Y39936*
X81260Y39955*
X81241Y39977*
X81219Y40002*
X81191Y40030*
X81158Y40052*
X81121Y40074*
X81119Y40077*
X81108Y40080*
X81088Y40085*
X81063Y40094*
X81030Y40102*
X80991Y40108*
X80944Y40110*
X80888Y40113*
X80799Y40116*
G37*
G36*
X15709Y21611D02*
Y21117D01*
X16375Y21368*
X15709Y21611*
G37*
G36*
X26972Y10700D02*
X26967D01*
X26953Y10698*
X26932Y10695*
X26907Y10688*
X26879Y10679*
X26847Y10663*
X26817Y10642*
X26789Y10612*
X26786Y10607*
X26777Y10596*
X26768Y10575*
X26754Y10547*
X26742Y10510*
X26731Y10466*
X26722Y10413*
X26719Y10351*
Y10348*
Y10344*
Y10332*
X26722Y10321*
Y10307*
X26724Y10288*
X26729Y10249*
X26736Y10205*
X26749Y10161*
X26766Y10119*
X26789Y10082*
X26791Y10078*
X26803Y10068*
X26817Y10054*
X26837Y10041*
X26863Y10024*
X26893Y10010*
X26928Y10001*
X26965Y9997*
X26969*
X26983Y9999*
X27004Y10001*
X27032Y10008*
X27062Y10017*
X27092Y10034*
X27124Y10054*
X27154Y10085*
X27157Y10089*
X27166Y10101*
X27180Y10122*
X27194Y10149*
X27208Y10186*
X27221Y10230*
X27231Y10284*
X27233Y10344*
Y10346*
Y10351*
Y10360*
Y10374*
X27231Y10388*
X27228Y10406*
X27224Y10445*
X27215Y10489*
X27203Y10533*
X27184Y10575*
X27159Y10612*
X27157Y10617*
X27145Y10626*
X27129Y10640*
X27108Y10656*
X27080Y10672*
X27048Y10686*
X27013Y10695*
X26972Y10700*
G37*
G36*
X22284Y11080D02*
X22073D01*
Y10020*
X22358*
X22388Y10022*
X22420*
X22452Y10027*
X22483Y10029*
X22508Y10034*
X22513*
X22522Y10038*
X22536Y10043*
X22554Y10050*
X22575Y10059*
X22596Y10071*
X22617Y10085*
X22638Y10101*
X22640Y10103*
X22647Y10110*
X22656Y10122*
X22668Y10138*
X22679Y10159*
X22695Y10184*
X22707Y10216*
X22721Y10253*
Y10256*
X22723Y10258*
Y10265*
X22725Y10274*
X22730Y10284*
X22732Y10297*
X22739Y10332*
X22744Y10374*
X22751Y10422*
X22753Y10483*
X22756Y10547*
Y10550*
Y10557*
Y10566*
Y10577*
Y10594*
X22753Y10612*
X22751Y10651*
X22746Y10698*
X22742Y10746*
X22732Y10790*
X22721Y10832*
Y10834*
X22719Y10837*
X22714Y10848*
X22707Y10867*
X22698Y10890*
X22684Y10913*
X22668Y10938*
X22649Y10964*
X22628Y10987*
X22626Y10989*
X22619Y10996*
X22605Y11005*
X22589Y11017*
X22566Y11031*
X22540Y11042*
X22513Y11054*
X22480Y11063*
X22478*
X22466Y11066*
X22448Y11068*
X22422Y11073*
X22406*
X22385Y11075*
X22365*
X22341Y11077*
X22314*
X22284Y11080*
G37*
G36*
X39367Y10485D02*
X39349D01*
X39328Y10480*
X39305Y10476*
X39277Y10466*
X39249Y10452*
X39222Y10432*
X39198Y10406*
X39196Y10402*
X39189Y10392*
X39182Y10376*
X39173Y10355*
X39161Y10330*
X39154Y10302*
X39148Y10270*
X39145Y10237*
Y10235*
Y10233*
Y10226*
Y10216*
X39150Y10193*
X39154Y10163*
X39161Y10131*
X39173Y10098*
X39189Y10066*
X39210Y10036*
X39212Y10034*
X39222Y10024*
X39235Y10015*
X39254Y10001*
X39277Y9990*
X39305Y9978*
X39337Y9969*
X39372Y9967*
X39388*
X39404Y9971*
X39428Y9976*
X39453Y9983*
X39478Y9994*
X39504Y10010*
X39529Y10034*
X39532Y10036*
X39539Y10048*
X39550Y10061*
X39562Y10085*
X39573Y10112*
X39585Y10147*
X39592Y10186*
X39594Y10233*
Y10235*
Y10237*
Y10251*
X39592Y10272*
X39587Y10297*
X39578Y10327*
X39566Y10358*
X39550Y10388*
X39529Y10415*
X39527Y10418*
X39518Y10427*
X39504Y10439*
X39485Y10450*
X39462Y10464*
X39434Y10473*
X39402Y10483*
X39367Y10485*
G37*
G36*
X30954Y10700D02*
X30949D01*
X30935Y10698*
X30915Y10695*
X30891Y10688*
X30861Y10679*
X30831Y10663*
X30801Y10642*
X30771Y10612*
X30769Y10607*
X30759Y10596*
X30748Y10575*
X30736Y10547*
X30722Y10510*
X30711Y10466*
X30702Y10413*
X30699Y10353*
Y10351*
Y10346*
Y10334*
Y10323*
X30702Y10307*
Y10290*
X30706Y10251*
X30711Y10207*
X30720Y10161*
X30734Y10119*
X30741Y10101*
X30750Y10085*
Y10082*
X30755Y10080*
X30764Y10066*
X30780Y10048*
X30803Y10027*
X30834Y10004*
X30868Y9985*
X30910Y9971*
X30933Y9969*
X30956Y9967*
X30961*
X30975Y9969*
X30993Y9971*
X31019Y9978*
X31046Y9987*
X31076Y10004*
X31107Y10024*
X31137Y10054*
X31139Y10059*
X31148Y10071*
X31160Y10091*
X31174Y10122*
X31188Y10159*
X31199Y10205*
X31208Y10260*
X31211Y10323*
Y10325*
Y10332*
Y10341*
Y10355*
X31208Y10371*
X31206Y10392*
X31201Y10434*
X31192Y10483*
X31181Y10529*
X31162Y10575*
X31151Y10594*
X31137Y10612*
X31134Y10617*
X31123Y10626*
X31109Y10640*
X31088Y10656*
X31060Y10672*
X31030Y10686*
X30993Y10695*
X30954Y10700*
G37*
G36*
X32992D02*
X32988D01*
X32974Y10698*
X32953Y10695*
X32928Y10688*
X32898Y10679*
X32865Y10663*
X32835Y10642*
X32805Y10614*
X32803Y10610*
X32793Y10598*
X32782Y10577*
X32770Y10550*
X32756Y10513*
X32745Y10469*
X32736Y10415*
X32733Y10353*
Y10351*
Y10346*
Y10337*
Y10323*
X32736Y10309*
Y10290*
X32740Y10251*
X32747Y10209*
X32756Y10166*
X32770Y10124*
X32789Y10087*
Y10085*
X32793Y10082*
X32803Y10068*
X32821Y10050*
X32847Y10027*
X32877Y10004*
X32914Y9985*
X32955Y9971*
X32979Y9969*
X33004Y9967*
X33009*
X33020Y9969*
X33041Y9971*
X33064Y9978*
X33092Y9987*
X33120Y10004*
X33150Y10024*
X33178Y10052*
X33180Y10057*
X33189Y10068*
X33201Y10089*
X33215Y10119*
X33228Y10156*
X33240Y10203*
X33245Y10230*
X33249Y10260*
X33252Y10290*
Y10325*
Y10327*
Y10334*
Y10344*
Y10358*
X33249Y10374*
X33247Y10392*
X33242Y10436*
X33233Y10483*
X33222Y10531*
X33203Y10575*
X33191Y10594*
X33178Y10612*
X33175Y10617*
X33164Y10626*
X33150Y10640*
X33127Y10656*
X33101Y10672*
X33069Y10686*
X33034Y10695*
X32992Y10700*
G37*
G36*
X30847Y7605D02*
X30838D01*
X30826Y7603*
X30815Y7600*
X30798Y7596*
X30782Y7589*
X30764Y7580*
X30748Y7568*
X30745Y7566*
X30741Y7561*
X30734Y7552*
X30724Y7540*
X30713Y7522*
X30704Y7501*
X30692Y7473*
X30683Y7441*
Y7438*
X30680Y7436*
Y7427*
X30678Y7418*
X30676Y7404*
X30674Y7387*
X30671Y7369*
X30669Y7346*
X30664Y7318*
X30662Y7290*
X30660Y7256*
X30657Y7221*
X30655Y7179*
Y7138*
X30653Y7089*
Y7038*
Y7036*
Y7026*
Y7010*
Y6992*
Y6969*
X30655Y6943*
Y6913*
X30657Y6883*
X30660Y6818*
X30664Y6753*
X30667Y6723*
X30671Y6696*
X30676Y6670*
X30680Y6647*
X30683Y6642*
X30685Y6631*
X30692Y6612*
X30699Y6591*
X30711Y6568*
X30722Y6545*
X30736Y6524*
X30750Y6508*
X30752Y6506*
X30757Y6504*
X30766Y6497*
X30778Y6492*
X30792Y6485*
X30808Y6478*
X30826Y6476*
X30847Y6473*
X30856*
X30868Y6476*
X30879Y6478*
X30896Y6483*
X30912Y6487*
X30928Y6497*
X30944Y6508*
X30947Y6510*
X30951Y6515*
X30960Y6524*
X30970Y6538*
X30979Y6554*
X30991Y6578*
X31002Y6603*
X31011Y6635*
Y6638*
X31014Y6640*
Y6649*
X31016Y6659*
X31018Y6672*
X31021Y6689*
X31025Y6707*
X31028Y6730*
X31030Y6756*
X31035Y6786*
X31037Y6818*
X31039Y6855*
X31041Y6895*
Y6939*
X31044Y6987*
Y7038*
Y7040*
Y7050*
Y7066*
Y7084*
Y7107*
X31041Y7133*
Y7163*
X31039Y7193*
X31037Y7258*
X31032Y7320*
X31028Y7350*
X31023Y7381*
X31018Y7406*
X31014Y7427*
Y7429*
X31011Y7431*
X31009Y7443*
X31002Y7462*
X30995Y7485*
X30984Y7508*
X30972Y7531*
X30958Y7552*
X30944Y7568*
X30942Y7570*
X30937Y7575*
X30928Y7580*
X30916Y7586*
X30903Y7593*
X30886Y7600*
X30868Y7603*
X30847Y7605*
G37*
G36*
X33374Y7064D02*
X33360D01*
X33342Y7059*
X33321Y7054*
X33298Y7045*
X33272Y7033*
X33247Y7015*
X33223Y6992*
X33221Y6989*
X33214Y6978*
X33205Y6962*
X33193Y6941*
X33182Y6911*
X33173Y6876*
X33166Y6834*
X33163Y6786*
Y6784*
Y6779*
Y6772*
Y6760*
X33168Y6735*
X33173Y6700*
X33180Y6663*
X33191Y6624*
X33207Y6587*
X33230Y6554*
X33233Y6552*
X33242Y6543*
X33258Y6529*
X33277Y6515*
X33300Y6499*
X33325Y6487*
X33355Y6478*
X33388Y6473*
X33402*
X33418Y6478*
X33439Y6483*
X33460Y6490*
X33485Y6501*
X33508Y6517*
X33531Y6538*
X33534Y6541*
X33541Y6552*
X33550Y6568*
X33561Y6591*
X33571Y6622*
X33580Y6659*
X33587Y6705*
X33589Y6758*
Y6760*
Y6765*
Y6774*
Y6784*
X33587Y6811*
X33582Y6846*
X33573Y6883*
X33564Y6922*
X33547Y6959*
X33527Y6989*
X33524Y6992*
X33515Y7001*
X33503Y7013*
X33485Y7026*
X33462Y7040*
X33436Y7052*
X33406Y7061*
X33374Y7064*
G37*
G36*
X39365Y11117D02*
X39351D01*
X39335Y11114*
X39314Y11110*
X39291Y11103*
X39268Y11093*
X39245Y11082*
X39224Y11063*
X39222Y11061*
X39217Y11054*
X39208Y11042*
X39198Y11026*
X39189Y11005*
X39180Y10982*
X39175Y10955*
X39173Y10922*
Y10918*
Y10906*
X39175Y10890*
X39180Y10869*
X39185Y10846*
X39194Y10823*
X39208Y10800*
X39224Y10779*
X39226Y10776*
X39233Y10772*
X39245Y10763*
X39261Y10753*
X39282Y10744*
X39305Y10735*
X39333Y10730*
X39363Y10728*
X39377*
X39393Y10730*
X39414Y10735*
X39437Y10739*
X39460Y10749*
X39483Y10763*
X39504Y10779*
X39506Y10781*
X39513Y10788*
X39520Y10800*
X39532Y10818*
X39541Y10839*
X39548Y10862*
X39555Y10892*
X39557Y10924*
Y10929*
Y10938*
X39555Y10955*
X39550Y10973*
X39543Y10996*
X39534Y11019*
X39522Y11042*
X39504Y11063*
X39502Y11066*
X39495Y11073*
X39483Y11080*
X39467Y11091*
X39446Y11100*
X39423Y11107*
X39395Y11114*
X39365Y11117*
G37*
G36*
X23820Y10700D02*
X23804D01*
X23785Y10695*
X23762Y10691*
X23737Y10682*
X23709Y10670*
X23681Y10651*
X23656Y10626*
X23653Y10624*
X23646Y10612*
X23635Y10596*
X23623Y10573*
X23609Y10545*
X23600Y10510*
X23593Y10471*
X23591Y10427*
X24049*
Y10429*
Y10434*
Y10439*
X24047Y10448*
X24044Y10473*
X24040Y10501*
X24031Y10533*
X24019Y10568*
X24000Y10601*
X23980Y10628*
X23977Y10631*
X23968Y10640*
X23954Y10651*
X23936Y10665*
X23913Y10677*
X23885Y10688*
X23855Y10698*
X23820Y10700*
G37*
G36*
X29667D02*
X29651D01*
X29633Y10695*
X29609Y10691*
X29584Y10682*
X29556Y10670*
X29528Y10651*
X29503Y10626*
X29501Y10624*
X29494Y10612*
X29482Y10596*
X29471Y10573*
X29457Y10545*
X29447Y10510*
X29441Y10471*
X29438Y10427*
X29896*
Y10429*
Y10434*
Y10439*
X29894Y10448*
X29892Y10473*
X29887Y10501*
X29878Y10533*
X29866Y10568*
X29848Y10601*
X29827Y10628*
X29825Y10631*
X29815Y10640*
X29802Y10651*
X29783Y10665*
X29760Y10677*
X29732Y10688*
X29702Y10698*
X29667Y10700*
G37*
G36*
X20172Y14580D02*
X20166D01*
X20146Y14577*
X20117Y14574*
X20082Y14564*
X20040Y14551*
X19994Y14528*
X19952Y14499*
X19910Y14460*
X19907Y14454*
X19894Y14438*
X19878Y14408*
X19861Y14370*
X19842Y14318*
X19826Y14256*
X19813Y14182*
X19810Y14094*
Y14091*
Y14085*
Y14072*
Y14052*
X19813Y14033*
Y14007*
X19819Y13952*
X19829Y13893*
X19842Y13832*
X19861Y13774*
X19887Y13722*
Y13719*
X19894Y13715*
X19907Y13696*
X19933Y13670*
X19968Y13638*
X20010Y13605*
X20062Y13579*
X20121Y13560*
X20153Y13557*
X20189Y13553*
X20195*
X20211Y13557*
X20240Y13560*
X20273Y13570*
X20312Y13583*
X20350Y13605*
X20393Y13634*
X20431Y13673*
X20435Y13680*
X20448Y13696*
X20464Y13725*
X20483Y13767*
X20503Y13819*
X20519Y13884*
X20525Y13923*
X20532Y13965*
X20535Y14007*
Y14055*
Y14059*
Y14068*
Y14081*
Y14101*
X20532Y14123*
X20529Y14149*
X20522Y14211*
X20509Y14276*
X20493Y14344*
X20467Y14405*
X20451Y14431*
X20431Y14457*
X20428Y14463*
X20412Y14476*
X20393Y14496*
X20360Y14518*
X20325Y14541*
X20279Y14561*
X20231Y14574*
X20172Y14580*
G37*
G36*
X28861Y15111D02*
X28567D01*
Y13628*
X28965*
X29007Y13631*
X29052*
X29098Y13638*
X29140Y13641*
X29175Y13647*
X29182*
X29195Y13654*
X29214Y13660*
X29240Y13670*
X29269Y13683*
X29298Y13699*
X29328Y13719*
X29357Y13741*
X29360Y13744*
X29370Y13754*
X29383Y13770*
X29399Y13793*
X29415Y13822*
X29438Y13858*
X29454Y13903*
X29473Y13955*
Y13958*
X29477Y13961*
Y13971*
X29480Y13984*
X29486Y13997*
X29489Y14017*
X29499Y14065*
X29506Y14123*
X29515Y14191*
X29519Y14276*
X29522Y14366*
Y14370*
Y14379*
Y14392*
Y14408*
Y14431*
X29519Y14457*
X29515Y14512*
X29509Y14577*
X29502Y14645*
X29489Y14706*
X29473Y14765*
Y14768*
X29470Y14771*
X29464Y14787*
X29454Y14813*
X29441Y14846*
X29421Y14878*
X29399Y14914*
X29373Y14949*
X29344Y14982*
X29341Y14985*
X29331Y14995*
X29311Y15008*
X29289Y15024*
X29256Y15043*
X29221Y15059*
X29182Y15076*
X29137Y15088*
X29133*
X29117Y15092*
X29091Y15095*
X29056Y15101*
X29033*
X29004Y15105*
X28975*
X28942Y15108*
X28903*
X28861Y15111*
G37*
G36*
X18265Y14570D02*
X18258D01*
X18239Y14567*
X18210Y14564*
X18174Y14554*
X18132Y14541*
X18087Y14518*
X18045Y14489*
X18003Y14447*
X17999Y14441*
X17986Y14425*
X17970Y14395*
X17954Y14357*
X17935Y14305*
X17918Y14243*
X17905Y14172*
X17902Y14088*
Y14085*
Y14075*
Y14062*
X17905Y14042*
Y14020*
X17909Y13994*
X17915Y13936*
X17928Y13868*
X17947Y13800*
X17973Y13738*
X17990Y13709*
X18009Y13683*
X18016Y13676*
X18028Y13664*
X18051Y13641*
X18084Y13618*
X18119Y13596*
X18164Y13573*
X18216Y13560*
X18271Y13553*
X18278*
X18297Y13557*
X18323Y13560*
X18359Y13570*
X18398Y13583*
X18440Y13605*
X18482Y13634*
X18521Y13673*
X18524Y13680*
X18537Y13696*
X18553Y13725*
X18573Y13767*
X18579Y13793*
X18589Y13822*
X18598Y13855*
X18605Y13890*
X18611Y13929*
X18618Y13971*
X18621Y14017*
Y14065*
Y14068*
Y14078*
Y14091*
Y14107*
X18618Y14130*
X18615Y14153*
X18608Y14208*
X18595Y14269*
X18579Y14334*
X18553Y14392*
X18517Y14444*
X18514Y14450*
X18498Y14463*
X18475Y14483*
X18446Y14509*
X18411Y14531*
X18368Y14551*
X18320Y14564*
X18265Y14570*
G37*
G36*
X16489Y28386D02*
X15302D01*
Y28119*
Y28117*
Y28112*
Y28104*
Y28094*
Y28068*
X15305Y28034*
Y27998*
X15310Y27961*
X15312Y27928*
X15318Y27899*
Y27894*
X15323Y27884*
X15328Y27868*
X15336Y27847*
X15346Y27824*
X15359Y27801*
X15375Y27777*
X15393Y27754*
X15395Y27752*
X15403Y27744*
X15416Y27733*
X15434Y27720*
X15458Y27707*
X15486Y27689*
X15522Y27676*
X15564Y27661*
X15566*
X15569Y27658*
X15577*
X15587Y27656*
X15597Y27651*
X15613Y27648*
X15652Y27640*
X15699Y27635*
X15753Y27627*
X15820Y27625*
X15893Y27622*
X15945*
X15965Y27625*
X16009Y27627*
X16061Y27632*
X16116Y27638*
X16165Y27648*
X16211Y27661*
X16214*
X16217Y27663*
X16230Y27669*
X16250Y27676*
X16276Y27687*
X16302Y27702*
X16331Y27720*
X16359Y27741*
X16385Y27764*
X16388Y27767*
X16395Y27775*
X16406Y27790*
X16419Y27809*
X16434Y27834*
X16447Y27863*
X16460Y27894*
X16471Y27930*
Y27933*
X16473Y27946*
X16476Y27967*
X16481Y27995*
Y28013*
X16484Y28037*
Y28060*
X16486Y28086*
Y28117*
X16489Y28151*
Y28187*
Y28226*
Y28386*
G37*
G36*
X14900Y14026D02*
X14897D01*
X14884Y14020*
X14864Y14017*
X14835Y14007*
X14800Y13997*
X14751Y13984*
X14699Y13971*
X14634Y13958*
X14628*
X14618Y13955*
X14605Y13952*
X14576Y13945*
X14537Y13936*
X14498Y13926*
X14460Y13913*
X14427Y13897*
X14401Y13884*
X14398Y13881*
X14388Y13874*
X14375Y13861*
X14362Y13845*
X14346Y13822*
X14333Y13796*
X14324Y13767*
X14320Y13735*
Y13732*
Y13719*
X14324Y13702*
X14330Y13683*
X14337Y13657*
X14346Y13631*
X14362Y13605*
X14385Y13579*
X14388Y13576*
X14398Y13570*
X14411Y13560*
X14434Y13547*
X14456Y13534*
X14486Y13524*
X14521Y13518*
X14557Y13515*
X14576*
X14599Y13518*
X14628Y13524*
X14664Y13534*
X14699Y13547*
X14741Y13563*
X14780Y13589*
X14783Y13592*
X14793Y13599*
X14806Y13612*
X14822Y13628*
X14839Y13651*
X14855Y13673*
X14871Y13702*
X14881Y13732*
Y13735*
X14884Y13741*
X14887Y13757*
X14890Y13777*
X14894Y13806*
X14897Y13842*
X14900Y13887*
Y13939*
Y14026*
G37*
G36*
X12721Y15111D02*
X12202D01*
Y14541*
X12643*
X12708Y14544*
X12776Y14548*
X12844Y14551*
X12873Y14554*
X12899Y14557*
X12925Y14564*
X12941Y14567*
X12944*
X12954Y14574*
X12970Y14580*
X12986Y14590*
X13028Y14619*
X13048Y14638*
X13067Y14661*
X13070Y14664*
X13074Y14674*
X13083Y14687*
X13093Y14706*
X13099Y14732*
X13109Y14761*
X13112Y14794*
X13116Y14829*
Y14836*
Y14849*
X13112Y14868*
X13109Y14894*
X13099Y14923*
X13090Y14952*
X13074Y14985*
X13054Y15011*
X13051Y15014*
X13044Y15024*
X13028Y15033*
X13009Y15050*
X12986Y15066*
X12957Y15079*
X12921Y15092*
X12882Y15101*
X12879*
X12870Y15105*
X12850*
X12821Y15108*
X12750*
X12721Y15111*
G37*
G36*
X37562Y10304D02*
X37560D01*
X37551Y10300*
X37537Y10297*
X37516Y10290*
X37491Y10284*
X37456Y10274*
X37419Y10265*
X37373Y10256*
X37368*
X37361Y10253*
X37352Y10251*
X37331Y10247*
X37303Y10240*
X37276Y10233*
X37248Y10223*
X37225Y10212*
X37206Y10203*
X37204Y10200*
X37197Y10196*
X37188Y10186*
X37178Y10175*
X37167Y10159*
X37158Y10140*
X37151Y10119*
X37148Y10096*
Y10094*
Y10085*
X37151Y10073*
X37155Y10059*
X37160Y10041*
X37167Y10022*
X37178Y10004*
X37195Y9985*
X37197Y9983*
X37204Y9978*
X37213Y9971*
X37229Y9962*
X37245Y9953*
X37266Y9946*
X37292Y9941*
X37317Y9939*
X37331*
X37347Y9941*
X37368Y9946*
X37394Y9953*
X37419Y9962*
X37449Y9973*
X37477Y9992*
X37479Y9994*
X37486Y9999*
X37495Y10008*
X37507Y10020*
X37519Y10036*
X37530Y10052*
X37542Y10073*
X37549Y10094*
Y10096*
X37551Y10101*
X37553Y10112*
X37556Y10126*
X37558Y10147*
X37560Y10172*
X37562Y10205*
Y10242*
Y10304*
G37*
G36*
X36556Y15111D02*
X36219D01*
Y14473*
X36530*
X36553Y14476*
X36611*
X36669Y14480*
X36728Y14486*
X36779Y14496*
X36802Y14499*
X36821Y14506*
X36825Y14509*
X36838Y14512*
X36854Y14522*
X36873Y14531*
X36896Y14548*
X36919Y14567*
X36945Y14590*
X36964Y14616*
X36967Y14619*
X36974Y14629*
X36980Y14645*
X36990Y14667*
X37000Y14693*
X37009Y14723*
X37013Y14755*
X37016Y14791*
Y14797*
Y14810*
X37013Y14833*
X37006Y14862*
X36996Y14894*
X36983Y14930*
X36967Y14962*
X36941Y14995*
X36938Y14998*
X36928Y15008*
X36912Y15020*
X36893Y15037*
X36867Y15056*
X36834Y15072*
X36799Y15085*
X36760Y15095*
X36757*
X36744Y15098*
X36721Y15101*
X36689Y15105*
X36647*
X36617Y15108*
X36588*
X36556Y15111*
G37*
G36*
X31248Y14969D02*
X30944Y14136D01*
X31562*
X31248Y14969*
G37*
G36*
X21960Y14580D02*
X21937D01*
X21911Y14574*
X21879Y14567*
X21843Y14554*
X21805Y14538*
X21766Y14512*
X21730Y14476*
X21727Y14473*
X21717Y14457*
X21701Y14434*
X21685Y14402*
X21665Y14363*
X21652Y14314*
X21643Y14259*
X21639Y14198*
X22281*
Y14201*
Y14208*
Y14214*
X22277Y14227*
X22274Y14263*
X22268Y14302*
X22255Y14347*
X22239Y14395*
X22213Y14441*
X22183Y14480*
X22180Y14483*
X22167Y14496*
X22148Y14512*
X22122Y14531*
X22090Y14548*
X22051Y14564*
X22009Y14577*
X21960Y14580*
G37*
%LNdigitalpsu-3*%
%LPD*%
G54D30*
X23609Y45897D02*
D01*
X23609Y45906*
X23608Y45915*
X23607Y45923*
X23605Y45932*
X23602Y45940*
X23599Y45948*
X23595Y45956*
X23590Y45964*
X23586Y45971*
X23580Y45978*
X23574Y45984*
X23568Y45990*
X23561Y45996*
X23554Y46001*
X23547Y46006*
X23539Y46010*
X23531Y46013*
X23523Y46016*
X23515Y46019*
X23506Y46021*
X23498Y46022*
X23489Y46022*
X23480*
X23471Y46022*
X23463Y46021*
X23454Y46019*
X23446Y46016*
X23438Y46013*
X23430Y46010*
X23422Y46006*
X23415Y46001*
X23408Y45996*
X23401Y45990*
X23395Y45984*
X23389Y45978*
X23383Y45971*
X23378Y45964*
X23374Y45956*
X23370Y45948*
X23367Y45940*
X23364Y45932*
X23362Y45923*
X23361Y45915*
X23360Y45906*
X23359Y45897*
X23360Y45889*
X23361Y45880*
X23362Y45871*
X23364Y45863*
X23367Y45855*
X23370Y45847*
X23374Y45839*
X23378Y45831*
X23383Y45824*
X23389Y45817*
X23395Y45811*
X23401Y45805*
X23408Y45799*
X23415Y45794*
X23422Y45789*
X23430Y45785*
X23438Y45782*
X23446Y45779*
X23454Y45776*
X23463Y45774*
X23471Y45773*
X23480Y45773*
X23489*
X23498Y45773*
X23506Y45774*
X23515Y45776*
X23523Y45779*
X23531Y45782*
X23539Y45785*
X23547Y45789*
X23554Y45794*
X23561Y45799*
X23568Y45805*
X23574Y45811*
X23580Y45817*
X23586Y45824*
X23590Y45831*
X23595Y45839*
X23599Y45847*
X23602Y45855*
X23605Y45863*
X23607Y45871*
X23608Y45880*
X23609Y45889*
X23609Y45897*
X22609Y84897D02*
D01*
X22609Y84906*
X22608Y84915*
X22607Y84923*
X22605Y84932*
X22602Y84940*
X22599Y84948*
X22595Y84956*
X22590Y84964*
X22586Y84971*
X22580Y84978*
X22574Y84984*
X22568Y84990*
X22561Y84996*
X22554Y85001*
X22547Y85006*
X22539Y85010*
X22531Y85013*
X22523Y85016*
X22515Y85019*
X22506Y85021*
X22498Y85022*
X22489Y85022*
X22480*
X22471Y85022*
X22463Y85021*
X22454Y85019*
X22446Y85016*
X22438Y85013*
X22430Y85010*
X22422Y85006*
X22415Y85001*
X22408Y84996*
X22401Y84990*
X22395Y84984*
X22389Y84978*
X22383Y84971*
X22378Y84964*
X22374Y84956*
X22370Y84948*
X22367Y84940*
X22364Y84932*
X22362Y84923*
X22361Y84915*
X22360Y84906*
X22359Y84897*
X22360Y84889*
X22361Y84880*
X22362Y84871*
X22364Y84863*
X22367Y84855*
X22370Y84847*
X22374Y84839*
X22378Y84831*
X22383Y84824*
X22389Y84817*
X22395Y84811*
X22401Y84805*
X22408Y84799*
X22415Y84794*
X22422Y84789*
X22430Y84785*
X22438Y84782*
X22446Y84779*
X22454Y84776*
X22463Y84774*
X22471Y84773*
X22480Y84773*
X22489*
X22498Y84773*
X22506Y84774*
X22515Y84776*
X22523Y84779*
X22531Y84782*
X22539Y84785*
X22547Y84789*
X22554Y84794*
X22561Y84799*
X22568Y84805*
X22574Y84811*
X22580Y84817*
X22586Y84824*
X22590Y84831*
X22595Y84839*
X22599Y84847*
X22602Y84855*
X22605Y84863*
X22607Y84871*
X22608Y84880*
X22609Y84889*
X22609Y84897*
G54D31*
X82499Y24519D02*
D01*
X82455Y24518*
X82411Y24513*
X82367Y24506*
X82324Y24495*
X82282Y24481*
X82241Y24465*
X82201Y24445*
X82163Y24423*
X82126Y24398*
X82091Y24371*
X82058Y24341*
X82028Y24309*
X81999Y24275*
X81973Y24240*
X81950Y24202*
X81929Y24163*
X81911Y24122*
X81896Y24081*
X81883Y24038*
X81874Y23995*
X81868Y23951*
X81865Y23907*
Y23862*
X81868Y23818*
X81874Y23774*
X81883Y23731*
X81896Y23688*
X81911Y23647*
X81929Y23606*
X81950Y23567*
X81973Y23529*
X81999Y23494*
X82028Y23460*
X82058Y23428*
X82091Y23398*
X82126Y23371*
X82163Y23346*
X82201Y23324*
X82241Y23304*
X82282Y23288*
X82324Y23274*
X82367Y23263*
X82411Y23256*
X82455Y23251*
X82499Y23249*
Y21979D02*
D01*
X82544Y21981*
X82588Y21986*
X82632Y21993*
X82675Y22004*
X82717Y22018*
X82758Y22034*
X82798Y22054*
X82836Y22076*
X82873Y22101*
X82908Y22128*
X82941Y22158*
X82971Y22190*
X83000Y22224*
X83026Y22259*
X83049Y22297*
X83070Y22336*
X83088Y22377*
X83103Y22418*
X83116Y22461*
X83125Y22504*
X83131Y22548*
X83134Y22592*
Y22637*
X83131Y22681*
X83125Y22725*
X83116Y22768*
X83103Y22811*
X83088Y22852*
X83070Y22893*
X83049Y22932*
X83026Y22970*
X83000Y23005*
X82971Y23039*
X82941Y23071*
X82908Y23101*
X82873Y23128*
X82836Y23153*
X82798Y23175*
X82758Y23195*
X82717Y23211*
X82675Y23225*
X82632Y23236*
X82588Y23243*
X82544Y23248*
X82499Y23249*
X14999Y34499D02*
X15499Y33999D01*
X26499Y34099D02*
X26899Y34499D01*
X14999Y43999D02*
X26899D01*
X19299D02*
Y45799D01*
X17699Y43999D02*
X19299D01*
X17699D02*
Y45799D01*
X21699Y43999D02*
Y44799D01*
X20299Y43999D02*
X21699D01*
X20299D02*
Y44799D01*
X21699*
X22699Y43999D02*
Y45799D01*
Y43999D02*
X24299D01*
Y45799*
X14999Y34499D02*
Y43999D01*
X26899Y34499D02*
Y43999D01*
X13999Y73499D02*
X14499Y72999D01*
X25499Y73099D02*
X25899Y73499D01*
X13999Y82999D02*
X25899D01*
X18299D02*
Y84799D01*
X16699Y82999D02*
X18299D01*
X16699D02*
Y84799D01*
X20699Y82999D02*
Y83799D01*
X19299Y82999D02*
X20699D01*
X19299D02*
Y83799D01*
X20699*
X21699Y82999D02*
Y84799D01*
Y82999D02*
X23299D01*
Y84799*
X13999Y73499D02*
Y82999D01*
X25899Y73499D02*
Y82999D01*
X83959Y70011D02*
Y70964D01*
Y70011D02*
X84213Y69757D01*
X83959Y67154D02*
Y68106D01*
X84213Y68361*
X83959Y70964D02*
X89039D01*
Y69821D02*
Y70964D01*
Y69821D02*
X89928D01*
Y68297D02*
Y69821D01*
X89039Y68297D02*
X89928D01*
X89039Y67154D02*
Y68297D01*
X83959Y67154D02*
X89039D01*
X84213Y68361D02*
Y69757D01*
X83451Y58391D02*
Y72107D01*
Y58391D02*
X90817D01*
X91122Y69059D02*
X91757Y68424D01*
X91122Y69059D02*
X91757Y69694D01*
Y68424D02*
Y69694D01*
X83451Y72107D02*
X90817D01*
Y58391D02*
Y72107D01*
X67761Y14289D02*
X68714D01*
X67507Y14035D02*
X67761Y14289D01*
X64904D02*
X65856D01*
X66111Y14035*
X68714Y9209D02*
Y14289D01*
X67571Y9209D02*
X68714D01*
X67571Y8320D02*
Y9209D01*
X66047Y8320D02*
X67571D01*
X66047D02*
Y9209D01*
X64904D02*
X66047D01*
X64904D02*
Y14289D01*
X66111Y14035D02*
X67507D01*
X56141Y14797D02*
X69857D01*
X56141Y7431D02*
Y14797D01*
X66174Y6491D02*
X66809Y7126D01*
X67444Y6491*
X66174D02*
X67444D01*
X69857Y7431D02*
Y14797D01*
X56141Y7431D02*
X69857D01*
X8071Y69873D02*
Y70825D01*
X8427Y69873D02*
Y70825D01*
X8071Y72523D02*
Y73475D01*
X8427Y72523D02*
Y73475D01*
X5709Y66606D02*
Y67559D01*
Y66606D02*
X5963Y66353D01*
X5709Y63749D02*
Y64701D01*
X5963Y64955*
X5709Y67559D02*
X10789D01*
Y66416D02*
Y67559D01*
Y66416D02*
X11678D01*
Y64892D02*
Y66416D01*
X10789Y64892D02*
X11678D01*
X10789Y63749D02*
Y64892D01*
X5709Y63749D02*
X10789D01*
X5963Y64955D02*
Y66353D01*
X5201Y58794D02*
Y68704D01*
Y58796D02*
X12567D01*
X12872Y65654D02*
X13507Y65019D01*
X12872Y65654D02*
X13507Y66289D01*
Y65019D02*
Y66289D01*
X5201Y68702D02*
X12567D01*
Y58794D02*
Y68704D01*
X8571Y31273D02*
Y32225D01*
X8927Y31273D02*
Y32225D01*
X8571Y34023D02*
Y34975D01*
X8927Y34023D02*
Y34975D01*
X5709Y26857D02*
Y27809D01*
Y26857D02*
X5963Y26603D01*
X5709Y23999D02*
Y24951D01*
X5963Y25205*
X5709Y27809D02*
X10789D01*
Y26666D02*
Y27809D01*
Y26666D02*
X11678D01*
Y25142D02*
Y26666D01*
X10789Y25142D02*
X11678D01*
X10789Y23999D02*
Y25142D01*
X5709Y23999D02*
X10789D01*
X5963Y25205D02*
Y26603D01*
X5201Y19044D02*
Y28954D01*
Y19046D02*
X12567D01*
X12872Y25904D02*
X13507Y25269D01*
X12872Y25904D02*
X13507Y26539D01*
Y25269D02*
Y26539D01*
X5201Y28952D02*
X12567D01*
Y19044D02*
Y28954D01*
X10149Y79499D02*
Y79849D01*
Y77149D02*
Y77499D01*
X5849Y76349D02*
Y77499D01*
Y79499D02*
Y80649D01*
Y76349D02*
X9349D01*
X5849Y80649D02*
X9349D01*
X10149Y79849*
X9349Y76349D02*
X10149Y77149D01*
X10649Y42249D02*
Y42599D01*
Y39899D02*
Y40249D01*
X6349Y39099D02*
Y40249D01*
Y42249D02*
Y43399D01*
Y39099D02*
X9849D01*
X6349Y43399D02*
X9849D01*
X10649Y42599*
X9849Y39099D02*
X10649Y39899D01*
G54D32*
X86899Y23249D02*
D01*
X86889Y23556*
X86857Y23862*
X86803Y24164*
X86729Y24462*
X86634Y24754*
X86519Y25039*
X86384Y25315*
X86231Y25581*
X86059Y25836*
X85870Y26078*
X85665Y26306*
X85444Y26519*
X85208Y26717*
X84960Y26897*
X84699Y27060*
X84428Y27204*
X84148Y27329*
X83859Y27434*
X83564Y27519*
X83264Y27583*
X82959Y27625*
X82653Y27647*
X82346*
X82040Y27625*
X81735Y27583*
X81435Y27519*
X81140Y27434*
X80851Y27329*
X80571Y27204*
X80299Y27060*
X80039Y26897*
X79791Y26717*
X79555Y26519*
X79334Y26306*
X79129Y26078*
X78940Y25836*
X78768Y25581*
X78615Y25315*
X78480Y25039*
X78365Y24754*
X78270Y24462*
X78196Y24164*
X78142Y23862*
X78110Y23556*
X78099Y23249*
X78110Y22943*
X78142Y22637*
X78196Y22335*
X78270Y22037*
X78365Y21745*
X78480Y21460*
X78615Y21184*
X78768Y20918*
X78940Y20663*
X79129Y20421*
X79334Y20193*
X79555Y19980*
X79791Y19782*
X80039Y19602*
X80299Y19439*
X80571Y19295*
X80851Y19170*
X81140Y19065*
X81435Y18980*
X81735Y18916*
X82040Y18874*
X82346Y18852*
X82653*
X82959Y18874*
X83264Y18916*
X83564Y18980*
X83859Y19065*
X84148Y19170*
X84428Y19295*
X84699Y19439*
X84960Y19602*
X85208Y19782*
X85444Y19980*
X85665Y20193*
X85870Y20421*
X86059Y20663*
X86231Y20918*
X86384Y21184*
X86519Y21460*
X86634Y21745*
X86729Y22037*
X86803Y22335*
X86857Y22637*
X86889Y22943*
X86899Y23249*
X28299Y56399D02*
Y56899D01*
X27799Y56399D02*
X28799D01*
X28199Y55199D02*
X29299Y56299D01*
X28199Y49699D02*
Y55199D01*
Y49699D02*
X30349D01*
X29299Y56299D02*
X30249D01*
X29499Y52599D02*
X33499D01*
X29499Y53399D02*
X33499D01*
X31499Y53499D02*
Y53699D01*
Y52299D02*
Y52499D01*
X32749Y56299D02*
X33699D01*
X32649Y49699D02*
X34799D01*
Y55199*
X33699Y56299D02*
X34799Y55199D01*
X28299Y55899D02*
Y56399D01*
Y85149D02*
Y85649D01*
X27799Y85149D02*
X28799D01*
X28199Y83949D02*
X29299Y85049D01*
X28199Y78449D02*
Y83949D01*
Y78449D02*
X30349D01*
X29299Y85049D02*
X30249D01*
X29499Y81349D02*
X33499D01*
X29499Y82149D02*
X33499D01*
X31499Y82249D02*
Y82449D01*
Y81049D02*
Y81249D01*
X32749Y85049D02*
X33699D01*
X32649Y78449D02*
X34799D01*
Y83949*
X33699Y85049D02*
X34799Y83949D01*
X28299Y84649D02*
Y85149D01*
G54D33*
X76535Y32249D02*
D01*
X76501Y33229*
X76399Y34203*
X76229Y35168*
X75992Y36118*
X75689Y37050*
X75322Y37958*
X74893Y38839*
X74403Y39687*
X73855Y40500*
X73252Y41272*
X72596Y42000*
X71891Y42680*
X71141Y43310*
X70348Y43886*
X69517Y44405*
X68652Y44865*
X67757Y45263*
X66837Y45599*
X65895Y45869*
X64937Y46072*
X63967Y46209*
X62989Y46277*
X62010*
X61032Y46209*
X60062Y46072*
X59104Y45869*
X58162Y45599*
X57241Y45263*
X56347Y44865*
X55481Y44405*
X54651Y43886*
X53858Y43310*
X53108Y42680*
X52403Y42000*
X51747Y41272*
X51144Y40500*
X50596Y39687*
X50106Y38839*
X49677Y37958*
X49310Y37050*
X49007Y36118*
X48770Y35168*
X48600Y34203*
X48498Y33229*
X48463Y32249*
X48498Y31270*
X48600Y30296*
X48770Y29331*
X49007Y28381*
X49310Y27449*
X49677Y26541*
X50106Y25660*
X50596Y24812*
X51144Y23999*
X51747Y23227*
X52403Y22499*
X53108Y21819*
X53858Y21189*
X54651Y20613*
X55481Y20094*
X56347Y19634*
X57241Y19236*
X58162Y18900*
X59104Y18630*
X60062Y18427*
X61032Y18290*
X62010Y18222*
X62989*
X63967Y18290*
X64937Y18427*
X65895Y18630*
X66837Y18900*
X67757Y19236*
X68652Y19634*
X69517Y20094*
X70348Y20613*
X71141Y21189*
X71891Y21819*
X72596Y22499*
X73252Y23227*
X73855Y23999*
X74403Y24812*
X74893Y25660*
X75322Y26541*
X75689Y27449*
X75992Y28381*
X76229Y29331*
X76399Y30296*
X76501Y31270*
X76535Y32249*
X37499Y48649D02*
Y57149D01*
X47799Y48649D02*
Y57149D01*
Y77149D02*
Y85649D01*
X37499Y77149D02*
Y85649D01*
X49949Y82749D02*
X77749D01*
Y49949D02*
Y82749D01*
X49949Y49949D02*
X77749D01*
X49949D02*
Y82749D01*
G54D34*
X37499Y48649D02*
X47799D01*
X37499Y57149D02*
X47799D01*
X37499Y85649D02*
X47799D01*
X37499Y77149D02*
X47799D01*
G54D35*
X20249Y31023D02*
Y29753D01*
X20503Y29499*
X21011*
X21265Y29753*
Y31023*
X22788D02*
X21773D01*
Y30261*
X22280Y30515*
X22534*
X22788Y30261*
Y29753*
X22534Y29499*
X22026*
X21773Y29753*
X19249Y70273D02*
Y69003D01*
X19503Y68749*
X20011*
X20265Y69003*
Y70273*
X21788D02*
X21280Y70019D01*
X20773Y69511*
Y69003*
X21026Y68749*
X21534*
X21788Y69003*
Y69257*
X21534Y69511*
X20773*
X59249Y3749D02*
Y4765D01*
X59757Y5273*
X60265Y4765*
Y3749*
Y4511*
X59249*
X61788Y5019D02*
X61534Y5273D01*
X61026*
X60773Y5019*
Y4003*
X61026Y3749*
X61534*
X61788Y4003*
X63820Y5273D02*
X64327D01*
X64073*
Y3749*
X63820*
X64327*
X65089D02*
Y5273D01*
X66105Y3749*
Y5273*
X81999Y61249D02*
X80983D01*
X80475Y61757*
X80983Y62265*
X81999*
X81237*
Y61249*
X80729Y63788D02*
X80475Y63534D01*
Y63026*
X80729Y62773*
X81745*
X81999Y63026*
Y63534*
X81745Y63788*
X80475Y66581D02*
Y66073D01*
X80729Y65820*
X81745*
X81999Y66073*
Y66581*
X81745Y66835*
X80729*
X80475Y66581*
Y67343D02*
X81745D01*
X81999Y67597*
Y68105*
X81745Y68359*
X80475*
Y68867D02*
Y69882D01*
Y69374*
X81999*
X3265Y70769D02*
X3011Y71023D01*
X2503*
X2249Y70769*
Y69753*
X2503Y69499*
X3011*
X3265Y69753*
X4788Y71023D02*
X3773D01*
Y70261*
X4280Y70515*
X4534*
X4788Y70261*
Y69753*
X4534Y69499*
X4026*
X3773Y69753*
X6312Y69499D02*
X5296D01*
X6312Y70515*
Y70769*
X6058Y71023*
X5550*
X5296Y70769*
X3015Y74019D02*
X2761Y74273D01*
X2253*
X1999Y74019*
Y73003*
X2253Y72749*
X2761*
X3015Y73003*
X4538Y74273D02*
X3523D01*
Y73511*
X4030Y73765*
X4284*
X4538Y73511*
Y73003*
X4284Y72749*
X3776*
X3523Y73003*
X5046Y74019D02*
X5300Y74273D01*
X5808*
X6062Y74019*
Y73003*
X5808Y72749*
X5300*
X5046Y73003*
Y74019*
X3765Y35519D02*
X3511Y35773D01*
X3003*
X2749Y35519*
Y34503*
X3003Y34249*
X3511*
X3765Y34503*
X5034Y34249D02*
Y35773D01*
X4273Y35011*
X5288*
X5796Y35519D02*
X6050Y35773D01*
X6558*
X6812Y35519*
Y35265*
X6558Y35011*
X6812Y34757*
Y34503*
X6558Y34249*
X6050*
X5796Y34503*
Y34757*
X6050Y35011*
X5796Y35265*
Y35519*
X6050Y35011D02*
X6558D01*
X3765Y31519D02*
X3511Y31773D01*
X3003*
X2749Y31519*
Y30503*
X3003Y30249*
X3511*
X3765Y30503*
X5034Y30249D02*
Y31773D01*
X4273Y31011*
X5288*
X5796Y31773D02*
X6812D01*
Y31519*
X5796Y30503*
Y30249*
X7015Y83019D02*
X6761Y83273D01*
X6253*
X5999Y83019*
Y82003*
X6253Y81749*
X6761*
X7015Y82003*
X8284Y81749D02*
Y83273D01*
X7523Y82511*
X8538*
X9046Y82003D02*
X9300Y81749D01*
X9808*
X10062Y82003*
Y83019*
X9808Y83273*
X9300*
X9046Y83019*
Y82765*
X9300Y82511*
X10062*
X7265Y45519D02*
X7011Y45773D01*
X6503*
X6249Y45519*
Y44503*
X6503Y44249*
X7011*
X7265Y44503*
X8534Y44249D02*
Y45773D01*
X7773Y45011*
X8788*
X10312Y45773D02*
X9296D01*
Y45011*
X9804Y45265*
X10058*
X10312Y45011*
Y44503*
X10058Y44249*
X9550*
X9296Y44503*
X30765Y89019D02*
X30511Y89273D01*
X30003*
X29749Y89019*
Y88003*
X30003Y87749*
X30511*
X30765Y88003*
X32288Y89273D02*
X31273D01*
Y88511*
X31780Y88765*
X32034*
X32288Y88511*
Y88003*
X32034Y87749*
X31526*
X31273Y88003*
X32796Y87749D02*
X33304D01*
X33050*
Y89273*
X32796Y89019*
X30015Y60519D02*
X29761Y60773D01*
X29253*
X28999Y60519*
Y59503*
X29253Y59249*
X29761*
X30015Y59503*
X31284Y59249D02*
Y60773D01*
X30523Y60011*
X31538*
X33062Y60773D02*
X32554Y60519D01*
X32046Y60011*
Y59503*
X32300Y59249*
X32808*
X33062Y59503*
Y59757*
X32808Y60011*
X32046*
X40999Y89273D02*
Y87749D01*
X41761*
X42015Y88003*
Y89019*
X41761Y89273*
X40999*
X43538Y87749D02*
X42523D01*
X43538Y88765*
Y89019*
X43284Y89273*
X42776*
X42523Y89019*
X40999Y60523D02*
Y58999D01*
X41761*
X42015Y59253*
Y60269*
X41761Y60523*
X40999*
X42523Y58999D02*
X43030D01*
X42776*
Y60523*
X42523Y60269*
X63049Y87473D02*
X64065D01*
X63557*
Y85949*
X64573D02*
X65080D01*
X64826*
Y87473*
X64573Y87219*
X82515Y30773D02*
X81499D01*
Y30011*
X82007*
X81499*
Y29249*
X83023D02*
X83530D01*
X83276*
Y30773*
X83023Y30519*
X47265Y43773D02*
X46249D01*
Y43011*
X46757*
X46249*
Y42249*
X47773Y43773D02*
Y42249D01*
X48788*
X49296Y43773D02*
X50312D01*
X49804*
Y42249*
M02*