%FSLAX23Y23*%
%MOMM*%
%SFA1B1*%

%IPPOS*%
%ADD31C,0.127000*%
%LNdigitalpsu-1*%
%LPD*%
G54D31*
X85749Y41999D02*
X88749D01*
X87249Y40499D02*
Y43499D01*
X85839Y61439D02*
X87159D01*
X86499Y60779D02*
Y62099D01*
X85839Y65249D02*
X87159D01*
X86499Y64589D02*
Y65909D01*
X85839Y69059D02*
X87159D01*
X86499Y68399D02*
Y69719D01*
X58529Y11749D02*
X59849D01*
X59189Y11089D02*
Y12409D01*
X62339Y11749D02*
X63659D01*
X62999Y11089D02*
Y12409D01*
X66149Y11749D02*
X67469D01*
X66809Y11089D02*
Y12409D01*
X5499Y87999D02*
X8499D01*
X6999Y86499D02*
Y89499D01*
X5499Y6999D02*
X8499D01*
X6999Y5499D02*
Y8499D01*
X7589Y61844D02*
X8909D01*
X8249Y61184D02*
Y62504D01*
X7589Y65654D02*
X8909D01*
X8249Y64994D02*
Y66314D01*
X7589Y22094D02*
X8909D01*
X8249Y21434D02*
Y22754D01*
X7589Y25904D02*
X8909D01*
X8249Y25244D02*
Y26564D01*
X86249Y87749D02*
X89249D01*
X87749Y86249D02*
Y89249D01*
X86249Y7249D02*
X89249D01*
X87749Y5749D02*
Y8749D01*
X73549Y75249D02*
X74349D01*
X73949Y74849D02*
Y75649D01*
X73549Y70249D02*
X74349D01*
X73949Y69849D02*
Y70649D01*
X73549Y65249D02*
X74349D01*
X73949Y64849D02*
Y65649D01*
X73549Y60249D02*
X74349D01*
X73949Y59849D02*
Y60649D01*
X73549Y55249D02*
X74349D01*
X73949Y54849D02*
Y55649D01*
X53549Y55249D02*
X54349D01*
X53949Y54849D02*
Y55649D01*
X53549Y60249D02*
X54349D01*
X53949Y59849D02*
Y60649D01*
X53549Y65249D02*
X54349D01*
X53949Y64849D02*
Y65649D01*
X53549Y70249D02*
X54349D01*
X53949Y69849D02*
Y70649D01*
X53549Y75249D02*
X54349D01*
X53949Y74849D02*
Y75649D01*
X82016Y25789D02*
X82982D01*
X82499Y25306D02*
Y26272D01*
X82016Y20709D02*
X82982D01*
X82499Y20226D02*
Y21192D01*
X68368Y37249D02*
X69130D01*
X68749Y36868D02*
Y37630D01*
X55868Y37249D02*
X56630D01*
X56249Y36868D02*
Y37630D01*
X68349Y27249D02*
X69149D01*
X68749Y26849D02*
Y27649D01*
X55849Y27249D02*
X56649D01*
X56249Y26849D02*
Y27649D01*
X62118Y43499D02*
X62880D01*
X62499Y43118D02*
Y43880D01*
X17324Y35499D02*
X17674D01*
X17499Y35324D02*
Y35674D01*
X18574Y35499D02*
X18924D01*
X18749Y35324D02*
Y35674D01*
X19824Y35499D02*
X20174D01*
X19999Y35324D02*
Y35674D01*
X23574Y35499D02*
X23924D01*
X23749Y35324D02*
Y35674D01*
X22324Y35499D02*
X22674D01*
X22499Y35324D02*
Y35674D01*
X21074Y35499D02*
X21424D01*
X21249Y35324D02*
Y35674D01*
X17324Y37499D02*
X17674D01*
X17499Y37324D02*
Y37674D01*
X18574Y37499D02*
X18924D01*
X18749Y37324D02*
Y37674D01*
X19824Y37499D02*
X20174D01*
X19999Y37324D02*
Y37674D01*
X23574Y37499D02*
X23924D01*
X23749Y37324D02*
Y37674D01*
X22324Y37499D02*
X22674D01*
X22499Y37324D02*
Y37674D01*
X21074Y37499D02*
X21424D01*
X21249Y37324D02*
Y37674D01*
X17324Y39499D02*
X17674D01*
X17499Y39324D02*
Y39674D01*
X18574Y39499D02*
X18924D01*
X18749Y39324D02*
Y39674D01*
X19824Y39499D02*
X20174D01*
X19999Y39324D02*
Y39674D01*
X23574Y39499D02*
X23924D01*
X23749Y39324D02*
Y39674D01*
X22324Y39499D02*
X22674D01*
X22499Y39324D02*
Y39674D01*
X21074Y39499D02*
X21424D01*
X21249Y39324D02*
Y39674D01*
X16324Y74249D02*
X16674D01*
X16499Y74074D02*
Y74424D01*
X17574Y74249D02*
X17924D01*
X17749Y74074D02*
Y74424D01*
X18824Y74249D02*
X19174D01*
X18999Y74074D02*
Y74424D01*
X22574Y74249D02*
X22924D01*
X22749Y74074D02*
Y74424D01*
X21324Y74249D02*
X21674D01*
X21499Y74074D02*
Y74424D01*
X20074Y74249D02*
X20424D01*
X20249Y74074D02*
Y74424D01*
X16324Y76249D02*
X16674D01*
X16499Y76074D02*
Y76424D01*
X17574Y76249D02*
X17924D01*
X17749Y76074D02*
Y76424D01*
X18824Y76249D02*
X19174D01*
X18999Y76074D02*
Y76424D01*
X22574Y76249D02*
X22924D01*
X22749Y76074D02*
Y76424D01*
X21324Y76249D02*
X21674D01*
X21499Y76074D02*
Y76424D01*
X20074Y76249D02*
X20424D01*
X20249Y76074D02*
Y76424D01*
X20074Y78249D02*
X20424D01*
X20249Y78074D02*
Y78424D01*
X21324Y78249D02*
X21674D01*
X21499Y78074D02*
Y78424D01*
X22574Y78249D02*
X22924D01*
X22749Y78074D02*
Y78424D01*
X18824Y78249D02*
X19174D01*
X18999Y78074D02*
Y78424D01*
X17574Y78249D02*
X17924D01*
X17749Y78074D02*
Y78424D01*
X16324Y78249D02*
X16674D01*
X16499Y78074D02*
Y78424D01*
M02*