%FSLAX23Y23*%
%MOMM*%
%SFA1B1*%

%IPPOS*%
%ADD31C,0.127000*%
%LNdigitalpsu-1*%
%LPD*%
G54D31*
X87249Y43057D02*
X87461Y43269D01*
X87884*
X88095Y43057*
Y42845*
X87884Y42634*
X87672*
X87884*
X88095Y42422*
Y42211*
X87884Y41999*
X87461*
X87249Y42211*
X86499Y61439D02*
X86922D01*
X86711*
Y62709*
X86499Y62497*
X87557Y61439D02*
Y61651D01*
X87769*
Y61439*
X87557*
X88615Y62497D02*
X88827Y62709D01*
X89250*
X89461Y62497*
Y62285*
X89250Y62074*
X89038*
X89250*
X89461Y61862*
Y61651*
X89250Y61439*
X88827*
X88615Y61651*
X90731Y61439D02*
X89885D01*
X90731Y62285*
Y62497*
X90519Y62709*
X90096*
X89885Y62497*
X91154D02*
X91366Y62709D01*
X91789*
X92001Y62497*
Y61651*
X91789Y61439*
X91366*
X91154Y61651*
Y62497*
X92424D02*
X92635Y62709D01*
X93059*
X93270Y62497*
Y62285*
X93059Y62074*
X93270Y61862*
Y61651*
X93059Y61439*
X92635*
X92424Y61651*
Y61862*
X92635Y62074*
X92424Y62285*
Y62497*
X92635Y62074D02*
X93059D01*
X86499Y65249D02*
X86922D01*
X86711*
Y66519*
X86499Y66307*
X87557Y65249D02*
Y65461D01*
X87769*
Y65249*
X87557*
X88615Y66307D02*
X88827Y66519D01*
X89250*
X89461Y66307*
Y66095*
X89250Y65884*
X89038*
X89250*
X89461Y65672*
Y65461*
X89250Y65249*
X88827*
X88615Y65461*
X90731Y65249D02*
X89885D01*
X90731Y66095*
Y66307*
X90519Y66519*
X90096*
X89885Y66307*
X91154D02*
X91366Y66519D01*
X91789*
X92001Y66307*
Y65461*
X91789Y65249*
X91366*
X91154Y65461*
Y66307*
X92424D02*
X92635Y66519D01*
X93059*
X93270Y66307*
Y66095*
X93059Y65884*
X93270Y65672*
Y65461*
X93059Y65249*
X92635*
X92424Y65461*
Y65672*
X92635Y65884*
X92424Y66095*
Y66307*
X92635Y65884D02*
X93059D01*
X86499Y69059D02*
X86922D01*
X86711*
Y70329*
X86499Y70117*
X87557Y69059D02*
Y69271D01*
X87769*
Y69059*
X87557*
X88615Y70117D02*
X88827Y70329D01*
X89250*
X89461Y70117*
Y69905*
X89250Y69694*
X89038*
X89250*
X89461Y69482*
Y69271*
X89250Y69059*
X88827*
X88615Y69271*
X90731Y69059D02*
X89885D01*
X90731Y69905*
Y70117*
X90519Y70329*
X90096*
X89885Y70117*
X91154D02*
X91366Y70329D01*
X91789*
X92001Y70117*
Y69271*
X91789Y69059*
X91366*
X91154Y69271*
Y70117*
X92424D02*
X92635Y70329D01*
X93059*
X93270Y70117*
Y69905*
X93059Y69694*
X93270Y69482*
Y69271*
X93059Y69059*
X92635*
X92424Y69271*
Y69482*
X92635Y69694*
X92424Y69905*
Y70117*
X92635Y69694D02*
X93059D01*
X59189Y11749D02*
X59612D01*
X59401*
Y13019*
X59189Y12807*
X60247Y11749D02*
Y11961D01*
X60459*
Y11749*
X60247*
X61305Y12807D02*
X61517Y13019D01*
X61940*
X62151Y12807*
Y12595*
X61940Y12384*
X61728*
X61940*
X62151Y12172*
Y11961*
X61940Y11749*
X61517*
X61305Y11961*
X63421Y11749D02*
X62575D01*
X63421Y12595*
Y12807*
X63209Y13019*
X62786*
X62575Y12807*
X63844D02*
X64056Y13019D01*
X64479*
X64691Y12807*
Y11961*
X64479Y11749*
X64056*
X63844Y11961*
Y12807*
X65114D02*
X65325Y13019D01*
X65749*
X65960Y12807*
Y12595*
X65749Y12384*
X65960Y12172*
Y11961*
X65749Y11749*
X65325*
X65114Y11961*
Y12172*
X65325Y12384*
X65114Y12595*
Y12807*
X65325Y12384D02*
X65749D01*
X62999Y11749D02*
X63422D01*
X63211*
Y13019*
X62999Y12807*
X64057Y11749D02*
Y11961D01*
X64269*
Y11749*
X64057*
X65115Y12807D02*
X65327Y13019D01*
X65750*
X65961Y12807*
Y12595*
X65750Y12384*
X65538*
X65750*
X65961Y12172*
Y11961*
X65750Y11749*
X65327*
X65115Y11961*
X67231Y11749D02*
X66385D01*
X67231Y12595*
Y12807*
X67019Y13019*
X66596*
X66385Y12807*
X67654D02*
X67866Y13019D01*
X68289*
X68501Y12807*
Y11961*
X68289Y11749*
X67866*
X67654Y11961*
Y12807*
X68924D02*
X69135Y13019D01*
X69559*
X69770Y12807*
Y12595*
X69559Y12384*
X69770Y12172*
Y11961*
X69559Y11749*
X69135*
X68924Y11961*
Y12172*
X69135Y12384*
X68924Y12595*
Y12807*
X69135Y12384D02*
X69559D01*
X66809Y11749D02*
X67232D01*
X67021*
Y13019*
X66809Y12807*
X67867Y11749D02*
Y11961D01*
X68079*
Y11749*
X67867*
X68925Y12807D02*
X69137Y13019D01*
X69560*
X69771Y12807*
Y12595*
X69560Y12384*
X69348*
X69560*
X69771Y12172*
Y11961*
X69560Y11749*
X69137*
X68925Y11961*
X71041Y11749D02*
X70195D01*
X71041Y12595*
Y12807*
X70829Y13019*
X70406*
X70195Y12807*
X71464D02*
X71676Y13019D01*
X72099*
X72311Y12807*
Y11961*
X72099Y11749*
X71676*
X71464Y11961*
Y12807*
X72734D02*
X72945Y13019D01*
X73369*
X73580Y12807*
Y12595*
X73369Y12384*
X73580Y12172*
Y11961*
X73369Y11749*
X72945*
X72734Y11961*
Y12172*
X72945Y12384*
X72734Y12595*
Y12807*
X72945Y12384D02*
X73369D01*
X6999Y89057D02*
X7211Y89269D01*
X7634*
X7845Y89057*
Y88845*
X7634Y88634*
X7422*
X7634*
X7845Y88422*
Y88211*
X7634Y87999*
X7211*
X6999Y88211*
Y8057D02*
X7211Y8269D01*
X7634*
X7845Y8057*
Y7845*
X7634Y7634*
X7422*
X7634*
X7845Y7422*
Y7211*
X7634Y6999*
X7211*
X6999Y7211*
X8249Y61844D02*
X8672D01*
X8461*
Y63114*
X8249Y62902*
X9307Y61844D02*
Y62056D01*
X9519*
Y61844*
X9307*
X10365Y62902D02*
X10577Y63114D01*
X11000*
X11211Y62902*
Y62690*
X11000Y62479*
X10788*
X11000*
X11211Y62267*
Y62056*
X11000Y61844*
X10577*
X10365Y62056*
X12481Y61844D02*
X11635D01*
X12481Y62690*
Y62902*
X12269Y63114*
X11846*
X11635Y62902*
X12904D02*
X13116Y63114D01*
X13539*
X13751Y62902*
Y62056*
X13539Y61844*
X13116*
X12904Y62056*
Y62902*
X14174D02*
X14385Y63114D01*
X14809*
X15020Y62902*
Y62690*
X14809Y62479*
X15020Y62267*
Y62056*
X14809Y61844*
X14385*
X14174Y62056*
Y62267*
X14385Y62479*
X14174Y62690*
Y62902*
X14385Y62479D02*
X14809D01*
X8249Y65654D02*
X8672D01*
X8461*
Y66924*
X8249Y66712*
X9307Y65654D02*
Y65866D01*
X9519*
Y65654*
X9307*
X10365Y66712D02*
X10577Y66924D01*
X11000*
X11211Y66712*
Y66500*
X11000Y66289*
X10788*
X11000*
X11211Y66077*
Y65866*
X11000Y65654*
X10577*
X10365Y65866*
X12481Y65654D02*
X11635D01*
X12481Y66500*
Y66712*
X12269Y66924*
X11846*
X11635Y66712*
X12904D02*
X13116Y66924D01*
X13539*
X13751Y66712*
Y65866*
X13539Y65654*
X13116*
X12904Y65866*
Y66712*
X14174D02*
X14385Y66924D01*
X14809*
X15020Y66712*
Y66500*
X14809Y66289*
X15020Y66077*
Y65866*
X14809Y65654*
X14385*
X14174Y65866*
Y66077*
X14385Y66289*
X14174Y66500*
Y66712*
X14385Y66289D02*
X14809D01*
X8249Y22094D02*
X8672D01*
X8461*
Y23364*
X8249Y23152*
X9307Y22094D02*
Y22306D01*
X9519*
Y22094*
X9307*
X10365Y23152D02*
X10577Y23364D01*
X11000*
X11211Y23152*
Y22940*
X11000Y22729*
X10788*
X11000*
X11211Y22517*
Y22306*
X11000Y22094*
X10577*
X10365Y22306*
X12481Y22094D02*
X11635D01*
X12481Y22940*
Y23152*
X12269Y23364*
X11846*
X11635Y23152*
X12904D02*
X13116Y23364D01*
X13539*
X13751Y23152*
Y22306*
X13539Y22094*
X13116*
X12904Y22306*
Y23152*
X14174D02*
X14385Y23364D01*
X14809*
X15020Y23152*
Y22940*
X14809Y22729*
X15020Y22517*
Y22306*
X14809Y22094*
X14385*
X14174Y22306*
Y22517*
X14385Y22729*
X14174Y22940*
Y23152*
X14385Y22729D02*
X14809D01*
X8249Y25904D02*
X8672D01*
X8461*
Y27174*
X8249Y26962*
X9307Y25904D02*
Y26116D01*
X9519*
Y25904*
X9307*
X10365Y26962D02*
X10577Y27174D01*
X11000*
X11211Y26962*
Y26750*
X11000Y26539*
X10788*
X11000*
X11211Y26327*
Y26116*
X11000Y25904*
X10577*
X10365Y26116*
X12481Y25904D02*
X11635D01*
X12481Y26750*
Y26962*
X12269Y27174*
X11846*
X11635Y26962*
X12904D02*
X13116Y27174D01*
X13539*
X13751Y26962*
Y26116*
X13539Y25904*
X13116*
X12904Y26116*
Y26962*
X14174D02*
X14385Y27174D01*
X14809*
X15020Y26962*
Y26750*
X14809Y26539*
X15020Y26327*
Y26116*
X14809Y25904*
X14385*
X14174Y26116*
Y26327*
X14385Y26539*
X14174Y26750*
Y26962*
X14385Y26539D02*
X14809D01*
X87749Y88807D02*
X87961Y89019D01*
X88384*
X88595Y88807*
Y88595*
X88384Y88384*
X88172*
X88384*
X88595Y88172*
Y87961*
X88384Y87749*
X87961*
X87749Y87961*
Y8307D02*
X87961Y8519D01*
X88384*
X88595Y8307*
Y8095*
X88384Y7884*
X88172*
X88384*
X88595Y7672*
Y7461*
X88384Y7249*
X87961*
X87749Y7461*
X73949Y76307D02*
X74161Y76519D01*
X74584*
X74795Y76307*
Y75461*
X74584Y75249*
X74161*
X73949Y75461*
Y76307*
X75219Y75249D02*
Y75461D01*
X75430*
Y75249*
X75219*
X76277Y76307D02*
X76488Y76519D01*
X76911*
X77123Y76307*
Y76095*
X76911Y75884*
X77123Y75672*
Y75461*
X76911Y75249*
X76488*
X76277Y75461*
Y75672*
X76488Y75884*
X76277Y76095*
Y76307*
X76488Y75884D02*
X76911D01*
X73949Y71307D02*
X74161Y71519D01*
X74584*
X74795Y71307*
Y70461*
X74584Y70249*
X74161*
X73949Y70461*
Y71307*
X75219Y70249D02*
Y70461D01*
X75430*
Y70249*
X75219*
X76277Y71307D02*
X76488Y71519D01*
X76911*
X77123Y71307*
Y71095*
X76911Y70884*
X77123Y70672*
Y70461*
X76911Y70249*
X76488*
X76277Y70461*
Y70672*
X76488Y70884*
X76277Y71095*
Y71307*
X76488Y70884D02*
X76911D01*
X73949Y66307D02*
X74161Y66519D01*
X74584*
X74795Y66307*
Y65461*
X74584Y65249*
X74161*
X73949Y65461*
Y66307*
X75219Y65249D02*
Y65461D01*
X75430*
Y65249*
X75219*
X76277Y66307D02*
X76488Y66519D01*
X76911*
X77123Y66307*
Y66095*
X76911Y65884*
X77123Y65672*
Y65461*
X76911Y65249*
X76488*
X76277Y65461*
Y65672*
X76488Y65884*
X76277Y66095*
Y66307*
X76488Y65884D02*
X76911D01*
X73949Y61307D02*
X74161Y61519D01*
X74584*
X74795Y61307*
Y60461*
X74584Y60249*
X74161*
X73949Y60461*
Y61307*
X75219Y60249D02*
Y60461D01*
X75430*
Y60249*
X75219*
X76277Y61307D02*
X76488Y61519D01*
X76911*
X77123Y61307*
Y61095*
X76911Y60884*
X77123Y60672*
Y60461*
X76911Y60249*
X76488*
X76277Y60461*
Y60672*
X76488Y60884*
X76277Y61095*
Y61307*
X76488Y60884D02*
X76911D01*
X73949Y56307D02*
X74161Y56519D01*
X74584*
X74795Y56307*
Y55461*
X74584Y55249*
X74161*
X73949Y55461*
Y56307*
X75219Y55249D02*
Y55461D01*
X75430*
Y55249*
X75219*
X76277Y56307D02*
X76488Y56519D01*
X76911*
X77123Y56307*
Y56095*
X76911Y55884*
X77123Y55672*
Y55461*
X76911Y55249*
X76488*
X76277Y55461*
Y55672*
X76488Y55884*
X76277Y56095*
Y56307*
X76488Y55884D02*
X76911D01*
X53949Y56307D02*
X54161Y56519D01*
X54584*
X54795Y56307*
Y55461*
X54584Y55249*
X54161*
X53949Y55461*
Y56307*
X55219Y55249D02*
Y55461D01*
X55430*
Y55249*
X55219*
X56277Y56307D02*
X56488Y56519D01*
X56911*
X57123Y56307*
Y56095*
X56911Y55884*
X57123Y55672*
Y55461*
X56911Y55249*
X56488*
X56277Y55461*
Y55672*
X56488Y55884*
X56277Y56095*
Y56307*
X56488Y55884D02*
X56911D01*
X53949Y61307D02*
X54161Y61519D01*
X54584*
X54795Y61307*
Y60461*
X54584Y60249*
X54161*
X53949Y60461*
Y61307*
X55219Y60249D02*
Y60461D01*
X55430*
Y60249*
X55219*
X56277Y61307D02*
X56488Y61519D01*
X56911*
X57123Y61307*
Y61095*
X56911Y60884*
X57123Y60672*
Y60461*
X56911Y60249*
X56488*
X56277Y60461*
Y60672*
X56488Y60884*
X56277Y61095*
Y61307*
X56488Y60884D02*
X56911D01*
X53949Y66307D02*
X54161Y66519D01*
X54584*
X54795Y66307*
Y65461*
X54584Y65249*
X54161*
X53949Y65461*
Y66307*
X55219Y65249D02*
Y65461D01*
X55430*
Y65249*
X55219*
X56277Y66307D02*
X56488Y66519D01*
X56911*
X57123Y66307*
Y66095*
X56911Y65884*
X57123Y65672*
Y65461*
X56911Y65249*
X56488*
X56277Y65461*
Y65672*
X56488Y65884*
X56277Y66095*
Y66307*
X56488Y65884D02*
X56911D01*
X53949Y71307D02*
X54161Y71519D01*
X54584*
X54795Y71307*
Y70461*
X54584Y70249*
X54161*
X53949Y70461*
Y71307*
X55219Y70249D02*
Y70461D01*
X55430*
Y70249*
X55219*
X56277Y71307D02*
X56488Y71519D01*
X56911*
X57123Y71307*
Y71095*
X56911Y70884*
X57123Y70672*
Y70461*
X56911Y70249*
X56488*
X56277Y70461*
Y70672*
X56488Y70884*
X56277Y71095*
Y71307*
X56488Y70884D02*
X56911D01*
X53949Y76307D02*
X54161Y76519D01*
X54584*
X54795Y76307*
Y75461*
X54584Y75249*
X54161*
X53949Y75461*
Y76307*
X55219Y75249D02*
Y75461D01*
X55430*
Y75249*
X55219*
X56277Y76307D02*
X56488Y76519D01*
X56911*
X57123Y76307*
Y76095*
X56911Y75884*
X57123Y75672*
Y75461*
X56911Y75249*
X56488*
X56277Y75461*
Y75672*
X56488Y75884*
X56277Y76095*
Y76307*
X56488Y75884D02*
X56911D01*
X82499Y26847D02*
X82711Y27059D01*
X83134*
X83345Y26847*
Y26001*
X83134Y25789*
X82711*
X82499Y26001*
Y26847*
X83769Y25789D02*
Y26001D01*
X83980*
Y25789*
X83769*
X84827Y26001D02*
X85038Y25789D01*
X85461*
X85673Y26001*
Y26847*
X85461Y27059*
X85038*
X84827Y26847*
Y26635*
X85038Y26424*
X85673*
X86943Y27059D02*
X86519Y26847D01*
X86096Y26424*
Y26001*
X86308Y25789*
X86731*
X86943Y26001*
Y26212*
X86731Y26424*
X86096*
X88212Y27059D02*
X87366D01*
Y26424*
X87789Y26635*
X88001*
X88212Y26424*
Y26001*
X88001Y25789*
X87577*
X87366Y26001*
X89482Y25789D02*
X88635D01*
X89482Y26635*
Y26847*
X89270Y27059*
X88847*
X88635Y26847*
X82499Y21767D02*
X82711Y21979D01*
X83134*
X83345Y21767*
Y20921*
X83134Y20709*
X82711*
X82499Y20921*
Y21767*
X83769Y20709D02*
Y20921D01*
X83980*
Y20709*
X83769*
X84827Y20921D02*
X85038Y20709D01*
X85461*
X85673Y20921*
Y21767*
X85461Y21979*
X85038*
X84827Y21767*
Y21555*
X85038Y21344*
X85673*
X86943Y21979D02*
X86519Y21767D01*
X86096Y21344*
Y20921*
X86308Y20709*
X86731*
X86943Y20921*
Y21132*
X86731Y21344*
X86096*
X88212Y21979D02*
X87366D01*
Y21344*
X87789Y21555*
X88001*
X88212Y21344*
Y20921*
X88001Y20709*
X87577*
X87366Y20921*
X89482Y20709D02*
X88635D01*
X89482Y21555*
Y21767*
X89270Y21979*
X88847*
X88635Y21767*
X68749Y38307D02*
X68961Y38519D01*
X69384*
X69595Y38307*
Y37461*
X69384Y37249*
X68961*
X68749Y37461*
Y38307*
X70019Y37249D02*
Y37461D01*
X70230*
Y37249*
X70019*
X71077Y38519D02*
X71923D01*
Y38307*
X71077Y37461*
Y37249*
X73193Y38519D02*
X72769Y38307D01*
X72346Y37884*
Y37461*
X72558Y37249*
X72981*
X73193Y37461*
Y37672*
X72981Y37884*
X72346*
X74462Y37249D02*
X73616D01*
X74462Y38095*
Y38307*
X74251Y38519*
X73827*
X73616Y38307*
X56249D02*
X56461Y38519D01*
X56884*
X57095Y38307*
Y37461*
X56884Y37249*
X56461*
X56249Y37461*
Y38307*
X57519Y37249D02*
Y37461D01*
X57730*
Y37249*
X57519*
X58577Y38519D02*
X59423D01*
Y38307*
X58577Y37461*
Y37249*
X60693Y38519D02*
X60269Y38307D01*
X59846Y37884*
Y37461*
X60058Y37249*
X60481*
X60693Y37461*
Y37672*
X60481Y37884*
X59846*
X61962Y37249D02*
X61116D01*
X61962Y38095*
Y38307*
X61751Y38519*
X61327*
X61116Y38307*
X68749Y28307D02*
X68961Y28519D01*
X69384*
X69595Y28307*
Y27461*
X69384Y27249*
X68961*
X68749Y27461*
Y28307*
X70019Y27249D02*
Y27461D01*
X70230*
Y27249*
X70019*
X71077Y28307D02*
X71288Y28519D01*
X71711*
X71923Y28307*
Y28095*
X71711Y27884*
X71923Y27672*
Y27461*
X71711Y27249*
X71288*
X71077Y27461*
Y27672*
X71288Y27884*
X71077Y28095*
Y28307*
X71288Y27884D02*
X71711D01*
X56249Y28307D02*
X56461Y28519D01*
X56884*
X57095Y28307*
Y27461*
X56884Y27249*
X56461*
X56249Y27461*
Y28307*
X57519Y27249D02*
Y27461D01*
X57730*
Y27249*
X57519*
X58577Y28307D02*
X58788Y28519D01*
X59211*
X59423Y28307*
Y28095*
X59211Y27884*
X59423Y27672*
Y27461*
X59211Y27249*
X58788*
X58577Y27461*
Y27672*
X58788Y27884*
X58577Y28095*
Y28307*
X58788Y27884D02*
X59211D01*
X62499Y44557D02*
X62711Y44769D01*
X63134*
X63345Y44557*
Y43711*
X63134Y43499*
X62711*
X62499Y43711*
Y44557*
X63769Y43499D02*
Y43711D01*
X63980*
Y43499*
X63769*
X64827Y44769D02*
X65673D01*
Y44557*
X64827Y43711*
Y43499*
X66943Y44769D02*
X66519Y44557D01*
X66096Y44134*
Y43711*
X66308Y43499*
X66731*
X66943Y43711*
Y43922*
X66731Y44134*
X66096*
X68212Y43499D02*
X67366D01*
X68212Y44345*
Y44557*
X68001Y44769*
X67577*
X67366Y44557*
X17499Y36557D02*
X17711Y36769D01*
X18134*
X18345Y36557*
Y35711*
X18134Y35499*
X17711*
X17499Y35711*
Y36557*
X18769Y35499D02*
Y35711D01*
X18980*
Y35499*
X18769*
X19827Y36557D02*
X20038Y36769D01*
X20461*
X20673Y36557*
Y36345*
X20461Y36134*
X20250*
X20461*
X20673Y35922*
Y35711*
X20461Y35499*
X20038*
X19827Y35711*
X21943Y36769D02*
X21096D01*
Y36134*
X21519Y36345*
X21731*
X21943Y36134*
Y35711*
X21731Y35499*
X21308*
X21096Y35711*
X18749Y36557D02*
X18961Y36769D01*
X19384*
X19595Y36557*
Y35711*
X19384Y35499*
X18961*
X18749Y35711*
Y36557*
X20019Y35499D02*
Y35711D01*
X20230*
Y35499*
X20019*
X21077Y36557D02*
X21288Y36769D01*
X21711*
X21923Y36557*
Y36345*
X21711Y36134*
X21500*
X21711*
X21923Y35922*
Y35711*
X21711Y35499*
X21288*
X21077Y35711*
X23193Y36769D02*
X22346D01*
Y36134*
X22769Y36345*
X22981*
X23193Y36134*
Y35711*
X22981Y35499*
X22558*
X22346Y35711*
X19999Y36557D02*
X20211Y36769D01*
X20634*
X20845Y36557*
Y35711*
X20634Y35499*
X20211*
X19999Y35711*
Y36557*
X21269Y35499D02*
Y35711D01*
X21480*
Y35499*
X21269*
X22327Y36557D02*
X22538Y36769D01*
X22961*
X23173Y36557*
Y36345*
X22961Y36134*
X22750*
X22961*
X23173Y35922*
Y35711*
X22961Y35499*
X22538*
X22327Y35711*
X24443Y36769D02*
X23596D01*
Y36134*
X24019Y36345*
X24231*
X24443Y36134*
Y35711*
X24231Y35499*
X23808*
X23596Y35711*
X23749Y36557D02*
X23961Y36769D01*
X24384*
X24595Y36557*
Y35711*
X24384Y35499*
X23961*
X23749Y35711*
Y36557*
X25019Y35499D02*
Y35711D01*
X25230*
Y35499*
X25019*
X26077Y36557D02*
X26288Y36769D01*
X26711*
X26923Y36557*
Y36345*
X26711Y36134*
X26500*
X26711*
X26923Y35922*
Y35711*
X26711Y35499*
X26288*
X26077Y35711*
X28193Y36769D02*
X27346D01*
Y36134*
X27769Y36345*
X27981*
X28193Y36134*
Y35711*
X27981Y35499*
X27558*
X27346Y35711*
X22499Y36557D02*
X22711Y36769D01*
X23134*
X23345Y36557*
Y35711*
X23134Y35499*
X22711*
X22499Y35711*
Y36557*
X23769Y35499D02*
Y35711D01*
X23980*
Y35499*
X23769*
X24827Y36557D02*
X25038Y36769D01*
X25461*
X25673Y36557*
Y36345*
X25461Y36134*
X25250*
X25461*
X25673Y35922*
Y35711*
X25461Y35499*
X25038*
X24827Y35711*
X26943Y36769D02*
X26096D01*
Y36134*
X26519Y36345*
X26731*
X26943Y36134*
Y35711*
X26731Y35499*
X26308*
X26096Y35711*
X21249Y36557D02*
X21461Y36769D01*
X21884*
X22095Y36557*
Y35711*
X21884Y35499*
X21461*
X21249Y35711*
Y36557*
X22519Y35499D02*
Y35711D01*
X22730*
Y35499*
X22519*
X23577Y36557D02*
X23788Y36769D01*
X24211*
X24423Y36557*
Y36345*
X24211Y36134*
X24000*
X24211*
X24423Y35922*
Y35711*
X24211Y35499*
X23788*
X23577Y35711*
X25693Y36769D02*
X24846D01*
Y36134*
X25269Y36345*
X25481*
X25693Y36134*
Y35711*
X25481Y35499*
X25058*
X24846Y35711*
X17499Y38557D02*
X17711Y38769D01*
X18134*
X18345Y38557*
Y37711*
X18134Y37499*
X17711*
X17499Y37711*
Y38557*
X18769Y37499D02*
Y37711D01*
X18980*
Y37499*
X18769*
X19827Y38557D02*
X20038Y38769D01*
X20461*
X20673Y38557*
Y38345*
X20461Y38134*
X20250*
X20461*
X20673Y37922*
Y37711*
X20461Y37499*
X20038*
X19827Y37711*
X21943Y38769D02*
X21096D01*
Y38134*
X21519Y38345*
X21731*
X21943Y38134*
Y37711*
X21731Y37499*
X21308*
X21096Y37711*
X18749Y38557D02*
X18961Y38769D01*
X19384*
X19595Y38557*
Y37711*
X19384Y37499*
X18961*
X18749Y37711*
Y38557*
X20019Y37499D02*
Y37711D01*
X20230*
Y37499*
X20019*
X21077Y38557D02*
X21288Y38769D01*
X21711*
X21923Y38557*
Y38345*
X21711Y38134*
X21500*
X21711*
X21923Y37922*
Y37711*
X21711Y37499*
X21288*
X21077Y37711*
X23193Y38769D02*
X22346D01*
Y38134*
X22769Y38345*
X22981*
X23193Y38134*
Y37711*
X22981Y37499*
X22558*
X22346Y37711*
X19999Y38557D02*
X20211Y38769D01*
X20634*
X20845Y38557*
Y37711*
X20634Y37499*
X20211*
X19999Y37711*
Y38557*
X21269Y37499D02*
Y37711D01*
X21480*
Y37499*
X21269*
X22327Y38557D02*
X22538Y38769D01*
X22961*
X23173Y38557*
Y38345*
X22961Y38134*
X22750*
X22961*
X23173Y37922*
Y37711*
X22961Y37499*
X22538*
X22327Y37711*
X24443Y38769D02*
X23596D01*
Y38134*
X24019Y38345*
X24231*
X24443Y38134*
Y37711*
X24231Y37499*
X23808*
X23596Y37711*
X23749Y38557D02*
X23961Y38769D01*
X24384*
X24595Y38557*
Y37711*
X24384Y37499*
X23961*
X23749Y37711*
Y38557*
X25019Y37499D02*
Y37711D01*
X25230*
Y37499*
X25019*
X26077Y38557D02*
X26288Y38769D01*
X26711*
X26923Y38557*
Y38345*
X26711Y38134*
X26500*
X26711*
X26923Y37922*
Y37711*
X26711Y37499*
X26288*
X26077Y37711*
X28193Y38769D02*
X27346D01*
Y38134*
X27769Y38345*
X27981*
X28193Y38134*
Y37711*
X27981Y37499*
X27558*
X27346Y37711*
X22499Y38557D02*
X22711Y38769D01*
X23134*
X23345Y38557*
Y37711*
X23134Y37499*
X22711*
X22499Y37711*
Y38557*
X23769Y37499D02*
Y37711D01*
X23980*
Y37499*
X23769*
X24827Y38557D02*
X25038Y38769D01*
X25461*
X25673Y38557*
Y38345*
X25461Y38134*
X25250*
X25461*
X25673Y37922*
Y37711*
X25461Y37499*
X25038*
X24827Y37711*
X26943Y38769D02*
X26096D01*
Y38134*
X26519Y38345*
X26731*
X26943Y38134*
Y37711*
X26731Y37499*
X26308*
X26096Y37711*
X21249Y38557D02*
X21461Y38769D01*
X21884*
X22095Y38557*
Y37711*
X21884Y37499*
X21461*
X21249Y37711*
Y38557*
X22519Y37499D02*
Y37711D01*
X22730*
Y37499*
X22519*
X23577Y38557D02*
X23788Y38769D01*
X24211*
X24423Y38557*
Y38345*
X24211Y38134*
X24000*
X24211*
X24423Y37922*
Y37711*
X24211Y37499*
X23788*
X23577Y37711*
X25693Y38769D02*
X24846D01*
Y38134*
X25269Y38345*
X25481*
X25693Y38134*
Y37711*
X25481Y37499*
X25058*
X24846Y37711*
X17499Y40557D02*
X17711Y40769D01*
X18134*
X18345Y40557*
Y39711*
X18134Y39499*
X17711*
X17499Y39711*
Y40557*
X18769Y39499D02*
Y39711D01*
X18980*
Y39499*
X18769*
X19827Y40557D02*
X20038Y40769D01*
X20461*
X20673Y40557*
Y40345*
X20461Y40134*
X20250*
X20461*
X20673Y39922*
Y39711*
X20461Y39499*
X20038*
X19827Y39711*
X21943Y40769D02*
X21096D01*
Y40134*
X21519Y40345*
X21731*
X21943Y40134*
Y39711*
X21731Y39499*
X21308*
X21096Y39711*
X18749Y40557D02*
X18961Y40769D01*
X19384*
X19595Y40557*
Y39711*
X19384Y39499*
X18961*
X18749Y39711*
Y40557*
X20019Y39499D02*
Y39711D01*
X20230*
Y39499*
X20019*
X21077Y40557D02*
X21288Y40769D01*
X21711*
X21923Y40557*
Y40345*
X21711Y40134*
X21500*
X21711*
X21923Y39922*
Y39711*
X21711Y39499*
X21288*
X21077Y39711*
X23193Y40769D02*
X22346D01*
Y40134*
X22769Y40345*
X22981*
X23193Y40134*
Y39711*
X22981Y39499*
X22558*
X22346Y39711*
X19999Y40557D02*
X20211Y40769D01*
X20634*
X20845Y40557*
Y39711*
X20634Y39499*
X20211*
X19999Y39711*
Y40557*
X21269Y39499D02*
Y39711D01*
X21480*
Y39499*
X21269*
X22327Y40557D02*
X22538Y40769D01*
X22961*
X23173Y40557*
Y40345*
X22961Y40134*
X22750*
X22961*
X23173Y39922*
Y39711*
X22961Y39499*
X22538*
X22327Y39711*
X24443Y40769D02*
X23596D01*
Y40134*
X24019Y40345*
X24231*
X24443Y40134*
Y39711*
X24231Y39499*
X23808*
X23596Y39711*
X23749Y40557D02*
X23961Y40769D01*
X24384*
X24595Y40557*
Y39711*
X24384Y39499*
X23961*
X23749Y39711*
Y40557*
X25019Y39499D02*
Y39711D01*
X25230*
Y39499*
X25019*
X26077Y40557D02*
X26288Y40769D01*
X26711*
X26923Y40557*
Y40345*
X26711Y40134*
X26500*
X26711*
X26923Y39922*
Y39711*
X26711Y39499*
X26288*
X26077Y39711*
X28193Y40769D02*
X27346D01*
Y40134*
X27769Y40345*
X27981*
X28193Y40134*
Y39711*
X27981Y39499*
X27558*
X27346Y39711*
X22499Y40557D02*
X22711Y40769D01*
X23134*
X23345Y40557*
Y39711*
X23134Y39499*
X22711*
X22499Y39711*
Y40557*
X23769Y39499D02*
Y39711D01*
X23980*
Y39499*
X23769*
X24827Y40557D02*
X25038Y40769D01*
X25461*
X25673Y40557*
Y40345*
X25461Y40134*
X25250*
X25461*
X25673Y39922*
Y39711*
X25461Y39499*
X25038*
X24827Y39711*
X26943Y40769D02*
X26096D01*
Y40134*
X26519Y40345*
X26731*
X26943Y40134*
Y39711*
X26731Y39499*
X26308*
X26096Y39711*
X21249Y40557D02*
X21461Y40769D01*
X21884*
X22095Y40557*
Y39711*
X21884Y39499*
X21461*
X21249Y39711*
Y40557*
X22519Y39499D02*
Y39711D01*
X22730*
Y39499*
X22519*
X23577Y40557D02*
X23788Y40769D01*
X24211*
X24423Y40557*
Y40345*
X24211Y40134*
X24000*
X24211*
X24423Y39922*
Y39711*
X24211Y39499*
X23788*
X23577Y39711*
X25693Y40769D02*
X24846D01*
Y40134*
X25269Y40345*
X25481*
X25693Y40134*
Y39711*
X25481Y39499*
X25058*
X24846Y39711*
X16499Y75307D02*
X16711Y75519D01*
X17134*
X17345Y75307*
Y74461*
X17134Y74249*
X16711*
X16499Y74461*
Y75307*
X17769Y74249D02*
Y74461D01*
X17980*
Y74249*
X17769*
X18827Y75307D02*
X19038Y75519D01*
X19461*
X19673Y75307*
Y75095*
X19461Y74884*
X19250*
X19461*
X19673Y74672*
Y74461*
X19461Y74249*
X19038*
X18827Y74461*
X20943Y75519D02*
X20096D01*
Y74884*
X20519Y75095*
X20731*
X20943Y74884*
Y74461*
X20731Y74249*
X20308*
X20096Y74461*
X17749Y75307D02*
X17961Y75519D01*
X18384*
X18595Y75307*
Y74461*
X18384Y74249*
X17961*
X17749Y74461*
Y75307*
X19019Y74249D02*
Y74461D01*
X19230*
Y74249*
X19019*
X20077Y75307D02*
X20288Y75519D01*
X20711*
X20923Y75307*
Y75095*
X20711Y74884*
X20500*
X20711*
X20923Y74672*
Y74461*
X20711Y74249*
X20288*
X20077Y74461*
X22193Y75519D02*
X21346D01*
Y74884*
X21769Y75095*
X21981*
X22193Y74884*
Y74461*
X21981Y74249*
X21558*
X21346Y74461*
X18999Y75307D02*
X19211Y75519D01*
X19634*
X19845Y75307*
Y74461*
X19634Y74249*
X19211*
X18999Y74461*
Y75307*
X20269Y74249D02*
Y74461D01*
X20480*
Y74249*
X20269*
X21327Y75307D02*
X21538Y75519D01*
X21961*
X22173Y75307*
Y75095*
X21961Y74884*
X21750*
X21961*
X22173Y74672*
Y74461*
X21961Y74249*
X21538*
X21327Y74461*
X23443Y75519D02*
X22596D01*
Y74884*
X23019Y75095*
X23231*
X23443Y74884*
Y74461*
X23231Y74249*
X22808*
X22596Y74461*
X22749Y75307D02*
X22961Y75519D01*
X23384*
X23595Y75307*
Y74461*
X23384Y74249*
X22961*
X22749Y74461*
Y75307*
X24019Y74249D02*
Y74461D01*
X24230*
Y74249*
X24019*
X25077Y75307D02*
X25288Y75519D01*
X25711*
X25923Y75307*
Y75095*
X25711Y74884*
X25500*
X25711*
X25923Y74672*
Y74461*
X25711Y74249*
X25288*
X25077Y74461*
X27193Y75519D02*
X26346D01*
Y74884*
X26769Y75095*
X26981*
X27193Y74884*
Y74461*
X26981Y74249*
X26558*
X26346Y74461*
X21499Y75307D02*
X21711Y75519D01*
X22134*
X22345Y75307*
Y74461*
X22134Y74249*
X21711*
X21499Y74461*
Y75307*
X22769Y74249D02*
Y74461D01*
X22980*
Y74249*
X22769*
X23827Y75307D02*
X24038Y75519D01*
X24461*
X24673Y75307*
Y75095*
X24461Y74884*
X24250*
X24461*
X24673Y74672*
Y74461*
X24461Y74249*
X24038*
X23827Y74461*
X25943Y75519D02*
X25096D01*
Y74884*
X25519Y75095*
X25731*
X25943Y74884*
Y74461*
X25731Y74249*
X25308*
X25096Y74461*
X20249Y75307D02*
X20461Y75519D01*
X20884*
X21095Y75307*
Y74461*
X20884Y74249*
X20461*
X20249Y74461*
Y75307*
X21519Y74249D02*
Y74461D01*
X21730*
Y74249*
X21519*
X22577Y75307D02*
X22788Y75519D01*
X23211*
X23423Y75307*
Y75095*
X23211Y74884*
X23000*
X23211*
X23423Y74672*
Y74461*
X23211Y74249*
X22788*
X22577Y74461*
X24693Y75519D02*
X23846D01*
Y74884*
X24269Y75095*
X24481*
X24693Y74884*
Y74461*
X24481Y74249*
X24058*
X23846Y74461*
X16499Y77307D02*
X16711Y77519D01*
X17134*
X17345Y77307*
Y76461*
X17134Y76249*
X16711*
X16499Y76461*
Y77307*
X17769Y76249D02*
Y76461D01*
X17980*
Y76249*
X17769*
X18827Y77307D02*
X19038Y77519D01*
X19461*
X19673Y77307*
Y77095*
X19461Y76884*
X19250*
X19461*
X19673Y76672*
Y76461*
X19461Y76249*
X19038*
X18827Y76461*
X20943Y77519D02*
X20096D01*
Y76884*
X20519Y77095*
X20731*
X20943Y76884*
Y76461*
X20731Y76249*
X20308*
X20096Y76461*
X17749Y77307D02*
X17961Y77519D01*
X18384*
X18595Y77307*
Y76461*
X18384Y76249*
X17961*
X17749Y76461*
Y77307*
X19019Y76249D02*
Y76461D01*
X19230*
Y76249*
X19019*
X20077Y77307D02*
X20288Y77519D01*
X20711*
X20923Y77307*
Y77095*
X20711Y76884*
X20500*
X20711*
X20923Y76672*
Y76461*
X20711Y76249*
X20288*
X20077Y76461*
X22193Y77519D02*
X21346D01*
Y76884*
X21769Y77095*
X21981*
X22193Y76884*
Y76461*
X21981Y76249*
X21558*
X21346Y76461*
X18999Y77307D02*
X19211Y77519D01*
X19634*
X19845Y77307*
Y76461*
X19634Y76249*
X19211*
X18999Y76461*
Y77307*
X20269Y76249D02*
Y76461D01*
X20480*
Y76249*
X20269*
X21327Y77307D02*
X21538Y77519D01*
X21961*
X22173Y77307*
Y77095*
X21961Y76884*
X21750*
X21961*
X22173Y76672*
Y76461*
X21961Y76249*
X21538*
X21327Y76461*
X23443Y77519D02*
X22596D01*
Y76884*
X23019Y77095*
X23231*
X23443Y76884*
Y76461*
X23231Y76249*
X22808*
X22596Y76461*
X22749Y77307D02*
X22961Y77519D01*
X23384*
X23595Y77307*
Y76461*
X23384Y76249*
X22961*
X22749Y76461*
Y77307*
X24019Y76249D02*
Y76461D01*
X24230*
Y76249*
X24019*
X25077Y77307D02*
X25288Y77519D01*
X25711*
X25923Y77307*
Y77095*
X25711Y76884*
X25500*
X25711*
X25923Y76672*
Y76461*
X25711Y76249*
X25288*
X25077Y76461*
X27193Y77519D02*
X26346D01*
Y76884*
X26769Y77095*
X26981*
X27193Y76884*
Y76461*
X26981Y76249*
X26558*
X26346Y76461*
X21499Y77307D02*
X21711Y77519D01*
X22134*
X22345Y77307*
Y76461*
X22134Y76249*
X21711*
X21499Y76461*
Y77307*
X22769Y76249D02*
Y76461D01*
X22980*
Y76249*
X22769*
X23827Y77307D02*
X24038Y77519D01*
X24461*
X24673Y77307*
Y77095*
X24461Y76884*
X24250*
X24461*
X24673Y76672*
Y76461*
X24461Y76249*
X24038*
X23827Y76461*
X25943Y77519D02*
X25096D01*
Y76884*
X25519Y77095*
X25731*
X25943Y76884*
Y76461*
X25731Y76249*
X25308*
X25096Y76461*
X20249Y77307D02*
X20461Y77519D01*
X20884*
X21095Y77307*
Y76461*
X20884Y76249*
X20461*
X20249Y76461*
Y77307*
X21519Y76249D02*
Y76461D01*
X21730*
Y76249*
X21519*
X22577Y77307D02*
X22788Y77519D01*
X23211*
X23423Y77307*
Y77095*
X23211Y76884*
X23000*
X23211*
X23423Y76672*
Y76461*
X23211Y76249*
X22788*
X22577Y76461*
X24693Y77519D02*
X23846D01*
Y76884*
X24269Y77095*
X24481*
X24693Y76884*
Y76461*
X24481Y76249*
X24058*
X23846Y76461*
X20249Y79307D02*
X20461Y79519D01*
X20884*
X21095Y79307*
Y78461*
X20884Y78249*
X20461*
X20249Y78461*
Y79307*
X21519Y78249D02*
Y78461D01*
X21730*
Y78249*
X21519*
X22577Y79307D02*
X22788Y79519D01*
X23211*
X23423Y79307*
Y79095*
X23211Y78884*
X23000*
X23211*
X23423Y78672*
Y78461*
X23211Y78249*
X22788*
X22577Y78461*
X24693Y79519D02*
X23846D01*
Y78884*
X24269Y79095*
X24481*
X24693Y78884*
Y78461*
X24481Y78249*
X24058*
X23846Y78461*
X21499Y79307D02*
X21711Y79519D01*
X22134*
X22345Y79307*
Y78461*
X22134Y78249*
X21711*
X21499Y78461*
Y79307*
X22769Y78249D02*
Y78461D01*
X22980*
Y78249*
X22769*
X23827Y79307D02*
X24038Y79519D01*
X24461*
X24673Y79307*
Y79095*
X24461Y78884*
X24250*
X24461*
X24673Y78672*
Y78461*
X24461Y78249*
X24038*
X23827Y78461*
X25943Y79519D02*
X25096D01*
Y78884*
X25519Y79095*
X25731*
X25943Y78884*
Y78461*
X25731Y78249*
X25308*
X25096Y78461*
X22749Y79307D02*
X22961Y79519D01*
X23384*
X23595Y79307*
Y78461*
X23384Y78249*
X22961*
X22749Y78461*
Y79307*
X24019Y78249D02*
Y78461D01*
X24230*
Y78249*
X24019*
X25077Y79307D02*
X25288Y79519D01*
X25711*
X25923Y79307*
Y79095*
X25711Y78884*
X25500*
X25711*
X25923Y78672*
Y78461*
X25711Y78249*
X25288*
X25077Y78461*
X27193Y79519D02*
X26346D01*
Y78884*
X26769Y79095*
X26981*
X27193Y78884*
Y78461*
X26981Y78249*
X26558*
X26346Y78461*
X18999Y79307D02*
X19211Y79519D01*
X19634*
X19845Y79307*
Y78461*
X19634Y78249*
X19211*
X18999Y78461*
Y79307*
X20269Y78249D02*
Y78461D01*
X20480*
Y78249*
X20269*
X21327Y79307D02*
X21538Y79519D01*
X21961*
X22173Y79307*
Y79095*
X21961Y78884*
X21750*
X21961*
X22173Y78672*
Y78461*
X21961Y78249*
X21538*
X21327Y78461*
X23443Y79519D02*
X22596D01*
Y78884*
X23019Y79095*
X23231*
X23443Y78884*
Y78461*
X23231Y78249*
X22808*
X22596Y78461*
X17749Y79307D02*
X17961Y79519D01*
X18384*
X18595Y79307*
Y78461*
X18384Y78249*
X17961*
X17749Y78461*
Y79307*
X19019Y78249D02*
Y78461D01*
X19230*
Y78249*
X19019*
X20077Y79307D02*
X20288Y79519D01*
X20711*
X20923Y79307*
Y79095*
X20711Y78884*
X20500*
X20711*
X20923Y78672*
Y78461*
X20711Y78249*
X20288*
X20077Y78461*
X22193Y79519D02*
X21346D01*
Y78884*
X21769Y79095*
X21981*
X22193Y78884*
Y78461*
X21981Y78249*
X21558*
X21346Y78461*
X16499Y79307D02*
X16711Y79519D01*
X17134*
X17345Y79307*
Y78461*
X17134Y78249*
X16711*
X16499Y78461*
Y79307*
X17769Y78249D02*
Y78461D01*
X17980*
Y78249*
X17769*
X18827Y79307D02*
X19038Y79519D01*
X19461*
X19673Y79307*
Y79095*
X19461Y78884*
X19250*
X19461*
X19673Y78672*
Y78461*
X19461Y78249*
X19038*
X18827Y78461*
X20943Y79519D02*
X20096D01*
Y78884*
X20519Y79095*
X20731*
X20943Y78884*
Y78461*
X20731Y78249*
X20308*
X20096Y78461*
M02*