%FSLAX23Y23*%
%MOMM*%
%SFA1B1*%

%IPPOS*%
%ADD9500C,0.349999*%
%ADD9501C,0.761998*%
%ADD9502C,0.799998*%
%ADD9503C,0.964998*%
%ADD9504C,1.320997*%
%ADD9505C,2.999994*%
%LNdigitalpsu-1*%
%LPD*%
G54D9500*
X17499Y35499D03*
X18749D03*
X19999D03*
X21249D03*
X22499D03*
X23749D03*
Y37499D03*
X22499D03*
X21249D03*
X19999D03*
X18749D03*
X17499D03*
Y39499D03*
X18749D03*
X19999D03*
X21249D03*
X22499D03*
X23749D03*
X22749Y74249D03*
X21499D03*
X20249D03*
X18999D03*
X17749D03*
X16499D03*
Y76249D03*
X17749D03*
X18999D03*
X20249D03*
X21499D03*
X22749D03*
Y78249D03*
X21499D03*
X20249D03*
X18999D03*
X17749D03*
X16499D03*
G54D9501*
X56249Y37249D03*
X68749D03*
X62499Y43499D03*
G54D9502*
X56249Y27249D03*
X68749D03*
X73949Y55249D03*
Y60249D03*
Y65249D03*
Y70249D03*
Y75249D03*
X53949D03*
Y70249D03*
Y65249D03*
Y60249D03*
Y55249D03*
G54D9503*
X82499Y20709D03*
Y25789D03*
G54D9504*
X8249Y22094D03*
Y25904D03*
X59189Y11749D03*
X62999D03*
X66809D03*
X86499Y61439D03*
Y65249D03*
Y69059D03*
X8249Y65654D03*
Y61844D03*
G54D9505*
X87749Y7249D03*
X6999Y6999D03*
X87249Y41999D03*
X87749Y87749D03*
X6999Y87999D03*
M02*