%FSLAX23Y23*%
%MOMM*%
%SFA1B1*%

%IPPOS*%
%AMD10*
4,1,8,-0.508000,1.397000,-0.508000,-1.397000,-0.381000,-1.524000,0.381000,-1.524000,0.508000,-1.397000,0.508000,1.397000,0.381000,1.524000,-0.381000,1.524000,-0.508000,1.397000,0.0*
1,1,0.254000,-0.381000,1.397000*
1,1,0.254000,-0.381000,-1.397000*
1,1,0.254000,0.381000,-1.397000*
1,1,0.254000,0.381000,1.397000*
%
%AMD11*
4,1,8,-5.334000,3.141980,-5.334000,-3.141980,-4.284980,-4.191000,4.284980,-4.191000,5.334000,-3.141980,5.334000,3.141980,4.284980,4.191000,-4.284980,4.191000,-5.334000,3.141980,0.0*
1,1,2.096000,-4.284980,3.141980*
1,1,2.096000,-4.284980,-3.141980*
1,1,2.096000,4.284980,-3.141980*
1,1,2.096000,4.284980,3.141980*
%
%AMD12*
4,1,8,0.449580,-0.386080,0.449580,0.386080,0.337820,0.500380,-0.337820,0.500380,-0.449580,0.386080,-0.449580,-0.386080,-0.337820,-0.500380,0.337820,-0.500380,0.449580,-0.386080,0.0*
1,1,0.226000,0.337820,-0.386080*
1,1,0.226000,0.337820,0.386080*
1,1,0.226000,-0.337820,0.386080*
1,1,0.226000,-0.337820,-0.386080*
%
%AMD14*
4,1,8,-0.800100,1.549400,-0.800100,-1.549400,-0.599440,-1.750060,0.599440,-1.750060,0.800100,-1.549400,0.800100,1.549400,0.599440,1.750060,-0.599440,1.750060,-0.800100,1.549400,0.0*
1,1,0.400000,-0.599440,1.549400*
1,1,0.400000,-0.599440,-1.549400*
1,1,0.400000,0.599440,-1.549400*
1,1,0.400000,0.599440,1.549400*
%
%AMD22*
4,1,8,-0.952500,-1.270000,0.952500,-1.270000,1.270000,-0.952500,1.270000,0.952500,0.952500,1.270000,-0.952500,1.270000,-1.270000,0.952500,-1.270000,-0.952500,-0.952500,-1.270000,0.0*
1,1,0.636000,-0.952500,-0.952500*
1,1,0.636000,0.952500,-0.952500*
1,1,0.636000,0.952500,0.952500*
1,1,0.636000,-0.952500,0.952500*
%
%AMD23*
4,1,8,-1.270000,0.952500,-1.270000,-0.952500,-0.952500,-1.270000,0.952500,-1.270000,1.270000,-0.952500,1.270000,0.952500,0.952500,1.270000,-0.952500,1.270000,-1.270000,0.952500,0.0*
1,1,0.636000,-0.952500,0.952500*
1,1,0.636000,-0.952500,-0.952500*
1,1,0.636000,0.952500,-0.952500*
1,1,0.636000,0.952500,0.952500*
%
%AMD28*
4,1,8,-1.049020,0.787400,-1.049020,-0.787400,-0.787400,-1.049020,0.787400,-1.049020,1.049020,-0.787400,1.049020,0.787400,0.787400,1.049020,-0.787400,1.049020,-1.049020,0.787400,0.0*
1,1,0.526000,-0.787400,0.787400*
1,1,0.526000,-0.787400,-0.787400*
1,1,0.526000,0.787400,-0.787400*
1,1,0.526000,0.787400,0.787400*
%
G04~CAMADD=10~8~0.0~0.0~1200.0~400.0~50.0~0.0~15~0.0~0.0~0.0~0.0~0~0.0~0.0~0.0~0.0~0~0.0~0.0~0.0~90.0~400.0~1200.0*
%ADD10D10*%
G04~CAMADD=11~8~0.0~0.0~3300.0~4200.0~412.6~0.0~15~0.0~0.0~0.0~0.0~0~0.0~0.0~0.0~0.0~0~0.0~0.0~0.0~90.0~4200.0~3300.0*
%ADD11D11*%
G04~CAMADD=12~8~0.0~0.0~393.7~354.3~44.5~0.0~15~0.0~0.0~0.0~0.0~0~0.0~0.0~0.0~0.0~0~0.0~0.0~0.0~270.0~354.0~394.0*
%ADD12D12*%
%ADD13R,1.519997X1.199998*%
G04~CAMADD=14~8~0.0~0.0~1378.0~629.9~78.7~0.0~15~0.0~0.0~0.0~0.0~0~0.0~0.0~0.0~0.0~0~0.0~0.0~0.0~90.0~630.0~1378.0*
%ADD14D14*%
%ADD15R,2.599995X1.599997*%
%ADD16C,1.199998*%
%ADD17C,2.499995*%
%ADD18C,2.999994*%
%ADD19C,1.999996*%
%ADD20C,7.499985*%
%ADD21C,2.539995*%
G04~CAMADD=22~8~0.0~0.0~1000.0~1000.0~125.2~0.0~15~0.0~0.0~0.0~0.0~0~0.0~0.0~0.0~0.0~0~0.0~0.0~0.0~180.0~1000.0~1000.0*
%ADD22D22*%
G04~CAMADD=23~8~0.0~0.0~1000.0~1000.0~125.2~0.0~15~0.0~0.0~0.0~0.0~0~0.0~0.0~0.0~0.0~0~0.0~0.0~0.0~90.0~1000.0~1000.0*
%ADD23D23*%
%ADD24C,6.199988*%
%ADD25C,2.499995*%
%ADD26C,1.523997*%
%ADD27C,2.099996*%
G04~CAMADD=28~8~0.0~0.0~826.8~826.8~103.5~0.0~15~0.0~0.0~0.0~0.0~0~0.0~0.0~0.0~0.0~0~0.0~0.0~0.0~90.0~826.0~826.0*
%ADD28D28*%
%ADD29C,0.799998*%
%LNdigitalpsu-1*%
%LPD*%
G36*
X42499Y73749D02*
Y66249D01*
X40749Y64499*
X38749Y62499*
X18749*
X12499Y56249*
X12249Y55999*
X3499*
X2499Y56999*
Y92499*
X42499*
Y73749*
G37*
G36*
X42249Y44999D02*
X41249Y43999D01*
Y4749*
Y3249*
X40499Y2499*
X2499*
Y36249*
Y51249*
X3749Y52499*
X18749*
X19999Y53749*
Y57499*
X22499Y59999*
X42249*
Y44999*
G37*
%LNdigitalpsu-2*%
%LPC*%
G36*
X32099Y58055D02*
X30899D01*
X30716Y58031*
X30663Y58009*
X23499*
X23304Y57970*
X23139Y57859*
X22639Y57359*
X22528Y57194*
X22489Y56999*
Y46999*
X22519Y46851*
Y46754*
X22567Y46509*
X22706Y46301*
X22913Y46163*
X23158Y46114*
X23920*
X24165Y46163*
X24372Y46301*
X24511Y46509*
X24559Y46754*
Y49548*
X24511Y49792*
X24509Y49795*
Y53538*
X24710Y53739*
X30414*
X30546Y53638*
X30716Y53567*
X30899Y53543*
X32099*
X32282Y53567*
X32452Y53638*
X32598Y53750*
X32710Y53896*
X32781Y54066*
X32805Y54249*
Y54340*
X37999*
X38071Y54349*
X39259*
Y56549*
X38071*
X37999Y56558*
X32805*
Y57349*
X32781Y57532*
X32710Y57702*
X32598Y57848*
X32452Y57960*
X32282Y58031*
X32099Y58055*
G37*
G36*
X6999Y10610D02*
X6434Y10566D01*
X5883Y10433*
X5360Y10217*
X4876Y9920*
X4446Y9552*
X4078Y9122*
X3781Y8638*
X3565Y8115*
X3432Y7564*
X3388Y6999*
X3432Y6434*
X3565Y5883*
X3781Y5360*
X4078Y4876*
X4446Y4446*
X4876Y4078*
X5360Y3781*
X5883Y3565*
X6434Y3432*
X6999Y3388*
X7564Y3432*
X8115Y3565*
X8638Y3781*
X9122Y4078*
X9552Y4446*
X9920Y4876*
X10217Y5360*
X10433Y5883*
X10566Y6434*
X10610Y6999*
X10566Y7564*
X10433Y8115*
X10217Y8638*
X9920Y9122*
X9552Y9552*
X9122Y9920*
X8638Y10217*
X8115Y10433*
X7564Y10566*
X6999Y10610*
G37*
G36*
X18840Y50187D02*
X18078D01*
X17833Y50138*
X17640Y50009*
X9749*
X9586Y49976*
X9554Y49970*
X9389Y49859*
X8639Y49109*
X8528Y48944*
X8489Y48749*
Y41749*
Y41249*
Y36249*
X8528Y36054*
X8639Y35889*
X8839Y35688*
Y35341*
X8820Y35328*
X8734Y35199*
X8349*
X8149Y34999*
Y33999*
X8349Y33799*
X8734*
X8820Y33670*
X8839Y33657*
Y32591*
X8820Y32578*
X8734Y32449*
X8349*
X8149Y32249*
Y31249*
X8349Y31049*
X8734*
X8820Y30920*
X8839Y30907*
Y30310*
X6639Y28109*
X6528Y27944*
X6489Y27749*
Y26988*
X6472Y26857*
Y24951*
X6489Y24820*
Y24749*
X6528Y24554*
X6639Y24389*
X6804Y24278*
X6841Y24271*
X6884Y24237*
X7083Y24155*
X7297Y24127*
X9202*
X9415Y24155*
X9614Y24237*
X9657Y24271*
X9694Y24278*
X9859Y24389*
X9970Y24554*
X10009Y24749*
Y24820*
X10026Y24951*
Y26857*
X10009Y26988*
Y28038*
X11859Y29889*
X11970Y30054*
X12009Y30249*
Y39949*
X12099*
Y42549*
X12009*
Y46239*
X17719*
X17833Y46163*
X18078Y46114*
X18840*
X19085Y46163*
X19292Y46301*
X19431Y46509*
X19479Y46754*
Y49548*
X19431Y49792*
X19292Y50000*
X19085Y50138*
X18840Y50187*
G37*
G36*
X31999Y92259D02*
X22499D01*
X22304Y92220*
X22139Y92109*
X21639Y91609*
X21528Y91444*
X21489Y91249*
Y85749*
X21498Y85705*
X21497Y85661*
X21517Y85609*
X21528Y85554*
X21553Y85517*
X21569Y85475*
X21607Y85435*
X21639Y85389*
X21655Y85377*
X21706Y85301*
X21913Y85163*
X22158Y85114*
X22920*
X23165Y85163*
X23372Y85301*
X23511Y85509*
X23559Y85754*
Y88548*
X23511Y88792*
X23509Y88795*
Y89489*
X30239*
Y86335*
X30217Y86282*
X30193Y86099*
Y82999*
X30217Y82816*
X30288Y82646*
X30400Y82500*
X30546Y82388*
X30716Y82317*
X30899Y82293*
X32099*
X32282Y82317*
X32452Y82388*
X32598Y82500*
X32710Y82646*
X32781Y82816*
X32784Y82840*
X37999*
X38071Y82849*
X39259*
Y85049*
X38071*
X37999Y85058*
X32805*
Y86099*
X32781Y86282*
X32759Y86335*
Y91499*
X32720Y91694*
X32609Y91859*
X32359Y92109*
X32194Y92220*
X31999Y92259*
G37*
G36*
X6999Y91610D02*
X6434Y91566D01*
X5883Y91433*
X5360Y91217*
X4876Y90920*
X4446Y90552*
X4078Y90122*
X3781Y89638*
X3565Y89115*
X3432Y88564*
X3388Y87999*
X3432Y87434*
X3565Y86883*
X3781Y86360*
X4078Y85876*
X4446Y85446*
X4876Y85078*
X5360Y84781*
X5883Y84565*
X6434Y84432*
X6999Y84388*
X7564Y84432*
X8115Y84565*
X8638Y84781*
X9122Y85078*
X9552Y85446*
X9920Y85876*
X10143Y86240*
X10239Y86212*
Y83710*
X8139Y81609*
X8028Y81444*
X7989Y81249*
Y78249*
Y77749*
Y74749*
X8028Y74554*
X8139Y74389*
X8339Y74188*
Y73841*
X8320Y73828*
X8234Y73699*
X7849*
X7649Y73499*
Y72499*
X7849Y72299*
X8234*
X8320Y72170*
X8339Y72157*
Y71191*
X8320Y71178*
X8234Y71049*
X7849*
X7649Y70849*
Y69849*
X7849Y69649*
X8234*
X8239Y69641*
Y69210*
X6639Y67609*
X6528Y67444*
X6489Y67249*
Y66738*
X6472Y66606*
Y64701*
X6500Y64488*
X6582Y64289*
X6713Y64118*
X6884Y63987*
X7083Y63905*
X7297Y63877*
X9202*
X9415Y63905*
X9614Y63987*
X9785Y64118*
X9916Y64289*
X9998Y64488*
X10026Y64701*
Y66606*
X10009Y66738*
Y67994*
X10805Y68591*
X10829Y68618*
X10859Y68639*
X10895Y68692*
X10938Y68739*
X10950Y68774*
X10970Y68804*
X10982Y68867*
X11004Y68927*
X11002Y68963*
X11009Y68999*
Y74134*
X11291Y74331*
X11322Y74364*
X11359Y74389*
X11390Y74435*
X11429Y74475*
X11445Y74517*
X11470Y74554*
X11481Y74609*
X11501Y74660*
X11500Y74705*
X11509Y74749*
Y77199*
X11599*
Y79799*
X11509*
Y80788*
X13609Y82889*
X13720Y83054*
X13759Y83249*
Y85239*
X16719*
X16833Y85163*
X17078Y85114*
X17840*
X18085Y85163*
X18292Y85301*
X18431Y85509*
X18479Y85754*
Y88548*
X18431Y88792*
X18292Y89000*
X18085Y89138*
X17840Y89187*
X17078*
X16833Y89138*
X16640Y89009*
X11749*
X11554Y88970*
X11389Y88859*
X10689Y88160*
X10595Y88194*
X10566Y88564*
X10433Y89115*
X10217Y89638*
X9920Y90122*
X9552Y90552*
X9122Y90920*
X8638Y91217*
X8115Y91433*
X7564Y91566*
X6999Y91610*
G37*
%LNdigitalpsu-3*%
%LPD*%
G36*
X32249Y91499D02*
Y83249D01*
X31999Y82999*
X30749*
Y89749*
X30499Y89999*
X23249*
X22999Y89749*
Y87999*
X22499*
X21999Y85749*
Y91249*
X22499Y91749*
X31999*
X32249Y91499*
G37*
G36*
X17499Y85749D02*
X13499D01*
X13249Y85499*
Y83249*
X10999Y80999*
Y77749*
Y74749*
X10499Y74399*
Y68999*
X9499Y68249*
Y64749*
X9249Y64499*
X7249*
X6999Y64749*
Y67249*
X8749Y68999*
Y70249*
X8849Y70349*
Y74399*
X8499Y74749*
Y77749*
Y81249*
X10749Y83499*
Y87499*
X11749Y88499*
X17249*
X17499Y85749*
G37*
G36*
X31999Y54499D02*
X31749Y54249D01*
X24499*
X23999Y53749*
Y46749*
X23249*
X22999Y46999*
Y56999*
X23499Y57499*
X31999*
Y54499*
G37*
G36*
X18749Y46749D02*
X11749D01*
X11499Y46499*
Y41749*
Y30249*
X9499Y28249*
Y24749*
X6999*
Y27749*
X9349Y30099*
Y35899*
X8999Y36249*
Y41249*
Y48749*
X9749Y49499*
X18749*
Y46749*
G37*
G54D10*
X23539Y48151D03*
X18459D03*
X22539Y87150D03*
X17459D03*
G54D11*
X20999Y36847D03*
X19999Y75848D03*
G54D12*
X9099Y70349D03*
X7399D03*
X9099Y72999D03*
X7399D03*
X9599Y31749D03*
X7899D03*
X9599Y34499D03*
X7899D03*
G54D13*
X47499Y55449D03*
X37999D03*
X47499Y50249D03*
X37999D03*
Y78749D03*
X47499D03*
X37999Y83949D03*
X47499D03*
G54D14*
X31499Y55799D03*
Y50199D03*
Y84549D03*
Y78949D03*
G54D15*
X9799Y78499D03*
X6199D03*
X10299Y41249D03*
X6699D03*
G54D16*
X51499Y52799D02*
X53949Y55249D01*
X51499Y51749D02*
Y52799D01*
X49999Y50249D02*
X51499Y51749D01*
X47499Y50249D02*
X49999D01*
X31499Y55449D02*
X37999D01*
X31499Y50249D02*
X37999D01*
X53699Y60499D02*
X53949Y60249D01*
X47999Y60499D02*
X53699D01*
X47499Y59999D02*
X47999Y60499D01*
X47499Y55449D02*
Y59999D01*
X51249Y70249D02*
X53949D01*
X49999Y71499D02*
X51249Y70249D01*
X49999Y71499D02*
Y78249D01*
X49499Y78749D02*
X49999Y78249D01*
X47499Y78749D02*
X49499D01*
X53949Y75249D02*
Y81799D01*
X51799Y83949D02*
X53949Y81799D01*
X47499Y83949D02*
X51799D01*
X31749D02*
X37999D01*
X31749Y78749D02*
X37999D01*
G54D17*
X65999Y73249D02*
X67999Y75249D01*
X83999D02*
X86499Y72749D01*
X67999Y75249D02*
X83999D01*
X73999Y47749D02*
Y55249D01*
X73949D02*
X73999D01*
X82999*
X68749Y42499D02*
X73999Y47749D01*
X56249Y37249D02*
Y44499D01*
X65999Y54249*
Y73249*
X86499Y69059D02*
Y72749D01*
X68749Y37249D02*
Y42499D01*
X82999Y55249D02*
X86499Y58749D01*
Y61439*
X66809Y11749D02*
X78999D01*
X82499Y15249*
Y20709*
G54D18*
X59189Y11749D02*
Y19059D01*
X56249Y21999D02*
X59189Y19059D01*
X56249Y21999D02*
Y27249D01*
G54D19*
X74459Y25789D02*
X82499D01*
X72999Y27249D02*
X74459Y25789D01*
X68749Y27249D02*
X72999D01*
G54D20*
X87249Y41999D03*
G54D21*
X86499Y61439D03*
Y65249D03*
X59189Y11749D03*
X62999D03*
X8249Y61844D03*
Y22094D03*
G54D22*
X86499Y69059D03*
X8249Y65654D03*
Y25904D03*
G54D23*
X66809Y11749D03*
G54D24*
X6999Y87999D03*
Y6999D03*
X87749Y87749D03*
Y7249D03*
G54D25*
X73949Y75249D03*
Y55249D03*
X53949D03*
Y60249D03*
Y70249D03*
Y75249D03*
X68749Y37249D03*
X56249D03*
X68749Y27249D03*
X56249D03*
X62499Y43499D03*
G54D26*
X73949Y70249D03*
Y65249D03*
Y60249D03*
X53949Y65249D03*
G54D27*
X82499Y25789D03*
G54D28*
X82499Y20709D03*
G54D29*
X17499Y35499D03*
X18749D03*
X19999D03*
X23749D03*
X22499D03*
X21249D03*
X17499Y37499D03*
X18749D03*
X19999D03*
X23749D03*
X22499D03*
X21249D03*
X17499Y39499D03*
X18749D03*
X19999D03*
X23749D03*
X22499D03*
X21249D03*
X16499Y74249D03*
X17749D03*
X18999D03*
X22749D03*
X21499D03*
X20249D03*
X16499Y76249D03*
X17749D03*
X18999D03*
X22749D03*
X21499D03*
X20249D03*
Y78249D03*
X21499D03*
X22749D03*
X18999D03*
X17749D03*
X16499D03*
M02*