%FSLAX23Y23*%
%MOMM*%
%SFA1B1*%

%IPPOS*%
%AMD15*
4,1,8,-1.549400,-0.800100,1.549400,-0.800100,1.750060,-0.599440,1.750060,0.599440,1.549400,0.800100,-1.549400,0.800100,-1.750060,0.599440,-1.750060,-0.599440,-1.549400,-0.800100,0.0*
1,1,0.400000,-1.549400,-0.599440*
1,1,0.400000,1.549400,-0.599440*
1,1,0.400000,1.549400,0.599440*
1,1,0.400000,-1.549400,0.599440*
%
%AMD16*
4,1,8,-0.299720,-0.398780,0.299720,-0.398780,0.398780,-0.299720,0.398780,0.299720,0.299720,0.398780,-0.299720,0.398780,-0.398780,0.299720,-0.398780,-0.299720,-0.299720,-0.398780,0.0*
1,1,0.200000,-0.299720,-0.299720*
1,1,0.200000,0.299720,-0.299720*
1,1,0.200000,0.299720,0.299720*
1,1,0.200000,-0.299720,0.299720*
%
%AMD17*
4,1,8,-0.500380,0.226060,-0.500380,-0.226060,-0.424180,-0.299720,0.424180,-0.299720,0.500380,-0.226060,0.500380,0.226060,0.424180,0.299720,-0.424180,0.299720,-0.500380,0.226060,0.0*
1,1,0.150000,-0.424180,0.226060*
1,1,0.150000,-0.424180,-0.226060*
1,1,0.150000,0.424180,-0.226060*
1,1,0.150000,0.424180,0.226060*
%
%AMD18*
4,1,8,1.206500,0.574040,-1.206500,0.574040,-1.348740,0.431800,-1.348740,-0.431800,-1.206500,-0.574040,1.206500,-0.574040,1.348740,-0.431800,1.348740,0.431800,1.206500,0.574040,0.0*
1,1,0.288000,1.206500,0.431800*
1,1,0.288000,-1.206500,0.431800*
1,1,0.288000,-1.206500,-0.431800*
1,1,0.288000,1.206500,-0.431800*
%
%AMD19*
4,1,8,0.574040,0.500380,-0.574040,0.500380,-0.701040,0.375920,-0.701040,-0.375920,-0.574040,-0.500380,0.574040,-0.500380,0.701040,-0.375920,0.701040,0.375920,0.574040,0.500380,0.0*
1,1,0.250000,0.574040,0.375920*
1,1,0.250000,-0.574040,0.375920*
1,1,0.250000,-0.574040,-0.375920*
1,1,0.250000,0.574040,-0.375920*
%
%AMD20*
4,1,8,0.551180,0.398780,-0.551180,0.398780,-0.650240,0.299720,-0.650240,-0.299720,-0.551180,-0.398780,0.551180,-0.398780,0.650240,-0.299720,0.650240,0.299720,0.551180,0.398780,0.0*
1,1,0.200000,0.551180,0.299720*
1,1,0.200000,-0.551180,0.299720*
1,1,0.200000,-0.551180,-0.299720*
1,1,0.200000,0.551180,-0.299720*
%
%AMD21*
4,1,8,0.386080,0.449580,-0.386080,0.449580,-0.500380,0.337820,-0.500380,-0.337820,-0.386080,-0.449580,0.386080,-0.449580,0.500380,-0.337820,0.500380,0.337820,0.386080,0.449580,0.0*
1,1,0.226000,0.386080,0.337820*
1,1,0.226000,-0.386080,0.337820*
1,1,0.226000,-0.386080,-0.337820*
1,1,0.226000,0.386080,-0.337820*
%
%AMD22*
4,1,8,-0.449580,0.386080,-0.449580,-0.386080,-0.337820,-0.500380,0.337820,-0.500380,0.449580,-0.386080,0.449580,0.386080,0.337820,0.500380,-0.337820,0.500380,-0.449580,0.386080,0.0*
1,1,0.226000,-0.337820,0.386080*
1,1,0.226000,-0.337820,-0.386080*
1,1,0.226000,0.337820,-0.386080*
1,1,0.226000,0.337820,0.386080*
%
%AMD23*
4,1,8,-0.500380,0.574040,-0.500380,-0.574040,-0.375920,-0.701040,0.375920,-0.701040,0.500380,-0.574040,0.500380,0.574040,0.375920,0.701040,-0.375920,0.701040,-0.500380,0.574040,0.0*
1,1,0.250000,-0.375920,0.574040*
1,1,0.250000,-0.375920,-0.574040*
1,1,0.250000,0.375920,-0.574040*
1,1,0.250000,0.375920,0.574040*
%
%AMD24*
4,1,8,-0.756920,-0.574040,0.756920,-0.574040,0.899160,-0.431800,0.899160,0.431800,0.756920,0.574040,-0.756920,0.574040,-0.899160,0.431800,-0.899160,-0.431800,-0.756920,-0.574040,0.0*
1,1,0.288000,-0.756920,-0.431800*
1,1,0.288000,0.756920,-0.431800*
1,1,0.288000,0.756920,0.431800*
1,1,0.288000,-0.756920,0.431800*
%
%AMD25*
4,1,8,-0.574040,0.756920,-0.574040,-0.756920,-0.431800,-0.899160,0.431800,-0.899160,0.574040,-0.756920,0.574040,0.756920,0.431800,0.899160,-0.431800,0.899160,-0.574040,0.756920,0.0*
1,1,0.288000,-0.431800,0.756920*
1,1,0.288000,-0.431800,-0.756920*
1,1,0.288000,0.431800,-0.756920*
1,1,0.288000,0.431800,0.756920*
%
%AMD39*
4,1,8,-0.952500,-1.270000,0.952500,-1.270000,1.270000,-0.952500,1.270000,0.952500,0.952500,1.270000,-0.952500,1.270000,-1.270000,0.952500,-1.270000,-0.952500,-0.952500,-1.270000,0.0*
1,1,0.636000,-0.952500,-0.952500*
1,1,0.636000,0.952500,-0.952500*
1,1,0.636000,0.952500,0.952500*
1,1,0.636000,-0.952500,0.952500*
%
%AMD44*
4,1,8,1.270000,-0.952500,1.270000,0.952500,0.952500,1.270000,-0.952500,1.270000,-1.270000,0.952500,-1.270000,-0.952500,-0.952500,-1.270000,0.952500,-1.270000,1.270000,-0.952500,0.0*
1,1,0.636000,0.952500,-0.952500*
1,1,0.636000,0.952500,0.952500*
1,1,0.636000,-0.952500,0.952500*
1,1,0.636000,-0.952500,-0.952500*
%
%ADD10C,0.253999*%
%ADD11C,0.150000*%
%ADD12R,1.269997X1.015998*%
%ADD13R,0.761998X0.761998*%
%ADD14R,0.761998X0.761998*%
G04~CAMADD=15~8~0.0~0.0~1378.0~629.9~78.7~0.0~15~0.0~0.0~0.0~0.0~0~0.0~0.0~0.0~0.0~0~0.0~0.0~0.0~180.0~1378.0~630.0*
%ADD15D15*%
G04~CAMADD=16~8~0.0~0.0~315.0~315.0~39.4~0.0~15~0.0~0.0~0.0~0.0~0~0.0~0.0~0.0~0.0~0~0.0~0.0~0.0~180.0~314.0~314.0*
%ADD16D16*%
G04~CAMADD=17~8~0.0~0.0~236.2~393.7~29.5~0.0~15~0.0~0.0~0.0~0.0~0~0.0~0.0~0.0~0.0~0~0.0~0.0~0.0~90.0~394.0~236.0*
%ADD17D17*%
G04~CAMADD=18~8~0.0~0.0~1063.0~452.8~56.7~0.0~15~0.0~0.0~0.0~0.0~0~0.0~0.0~0.0~0.0~0~0.0~0.0~0.0~0.0~1063.0~452.8*
%ADD18D18*%
G04~CAMADD=19~8~0.0~0.0~551.2~393.7~49.2~0.0~15~0.0~0.0~0.0~0.0~0~0.0~0.0~0.0~0.0~0~0.0~0.0~0.0~0.0~551.2~393.7*
%ADD19D19*%
G04~CAMADD=20~8~0.0~0.0~511.8~315.0~39.4~0.0~15~0.0~0.0~0.0~0.0~0~0.0~0.0~0.0~0.0~0~0.0~0.0~0.0~0.0~511.8~315.0*
%ADD20D20*%
G04~CAMADD=21~8~0.0~0.0~393.7~354.3~44.5~0.0~15~0.0~0.0~0.0~0.0~0~0.0~0.0~0.0~0.0~0~0.0~0.0~0.0~0.0~393.7~354.3*
%ADD21D21*%
G04~CAMADD=22~8~0.0~0.0~393.7~354.3~44.5~0.0~15~0.0~0.0~0.0~0.0~0~0.0~0.0~0.0~0.0~0~0.0~0.0~0.0~90.0~354.0~394.0*
%ADD22D22*%
G04~CAMADD=23~8~0.0~0.0~551.2~393.7~49.2~0.0~15~0.0~0.0~0.0~0.0~0~0.0~0.0~0.0~0.0~0~0.0~0.0~0.0~90.0~394.0~552.0*
%ADD23D23*%
G04~CAMADD=24~8~0.0~0.0~708.7~452.8~56.7~0.0~15~0.0~0.0~0.0~0.0~0~0.0~0.0~0.0~0.0~0~0.0~0.0~0.0~180.0~708.0~452.0*
%ADD24D24*%
G04~CAMADD=25~8~0.0~0.0~708.7~452.8~56.7~0.0~15~0.0~0.0~0.0~0.0~0~0.0~0.0~0.0~0.0~0~0.0~0.0~0.0~90.0~452.0~708.0*
%ADD25D25*%
%ADD26R,2.299995X2.299995*%
%ADD27O,0.200000X0.799998*%
%ADD28O,0.799998X0.200000*%
%ADD29R,3.499993X3.499993*%
%ADD30C,0.160000*%
%ADD31C,0.499999*%
%ADD32C,0.349999*%
%ADD33C,0.250000*%
%ADD34C,0.399999*%
%ADD35C,1.199998*%
%ADD36C,0.999998*%
%ADD37C,0.549999*%
%ADD38R,1.039998X1.159998*%
G04~CAMADD=39~8~0.0~0.0~1000.0~1000.0~125.2~0.0~15~0.0~0.0~0.0~0.0~0~0.0~0.0~0.0~0.0~0~0.0~0.0~0.0~180.0~1000.0~1000.0*
%ADD39D39*%
%ADD40C,2.539995*%
%ADD41C,1.499997*%
%ADD42R,1.499997X1.499997*%
%ADD43C,6.199988*%
G04~CAMADD=44~8~0.0~0.0~1000.0~1000.0~125.2~0.0~15~0.0~0.0~0.0~0.0~0~0.0~0.0~0.0~0.0~0~0.0~0.0~0.0~270.0~1000.0~1000.0*
%ADD44D44*%
%ADD45C,0.699999*%
%LNraspberryhatboard-1*%
%LPD*%
G36*
X1174Y17297D02*
X1164D01*
X1174Y17299*
Y17297*
G37*
G36*
X59280Y55080D02*
Y54780D01*
X58799Y54299*
Y53899*
X58499Y53599*
Y52499*
Y51299*
X58899Y50899*
Y50499*
X59699Y49699*
Y49599*
X59999*
X60599Y48999*
X61199*
X61399Y48799*
X62899*
X63199Y49099*
X63699*
X63999Y49399*
X64199*
X64335Y49567*
X64499Y49499*
Y36024*
X64474*
X58499*
Y35999*
X55309*
X55299Y36024*
Y36828*
X55331Y36876*
X55360Y37024*
Y37272*
X53438*
Y37024*
X53467Y36876*
X53499Y36828*
Y36024*
X53489Y35999*
X52603*
X52540Y36076*
X52559Y36174*
Y36272*
X51799*
Y36526*
X52559*
Y36624*
X52534Y36752*
X52461Y36861*
X52448Y36870*
X52388Y36960*
X52439Y37035*
X52456Y37124*
Y37574*
X52439Y37663*
X52388Y37738*
X52313Y37789*
X52224Y37806*
X52032*
Y39749*
X52011Y39857*
X51990Y39888*
X51949Y39949*
X50909Y40989*
X50938Y41085*
X51030Y41103*
X51186Y41207*
X51290Y41363*
X51326Y41547*
Y43451*
X51290Y43635*
X51186Y43791*
X51030Y43895*
X50846Y43931*
X48942*
X48758Y43895*
X48602Y43791*
X48498Y43635*
X48462Y43451*
Y41547*
X48498Y41363*
X48602Y41207*
X48758Y41103*
X48942Y41067*
X50122*
X50134Y41009*
X50137Y40991*
X50199Y40899*
X51466Y39632*
Y37806*
X51374*
X51285Y37789*
X51210Y37738*
X51159Y37663*
X51143Y37582*
X50899*
X50791Y37561*
X50760Y37540*
X50699Y37499*
X50499Y37299*
X50437Y37207*
X50434Y37189*
X50416Y37099*
Y35999*
X47233*
Y37699*
X47208Y37827*
X47135Y37935*
X46435Y38635*
X46327Y38708*
X46199Y38733*
X45708*
Y38830*
X45685Y38946*
X45619Y39044*
X45521Y39110*
X45405Y39133*
X42993*
X42877Y39110*
X42779Y39044*
X42713Y38946*
X42690Y38830*
Y38733*
X41938*
X41572Y39099*
X41835Y39363*
X41908Y39471*
X41933Y39599*
Y43899*
X41908Y44027*
X41835Y44135*
X41535Y44435*
X41427Y44508*
X41299Y44533*
X37480*
X37462Y44562*
X37295Y44673*
X37099Y44712*
X36903Y44673*
X36736Y44562*
X36625Y44395*
X36586Y44199*
X36625Y44003*
X36736Y43836*
X36903Y43725*
X37099Y43686*
X37295Y43725*
X37462Y43836*
X37480Y43865*
X41160*
X41265Y43760*
Y39738*
X40860Y39333*
X40430*
Y39533*
X39362*
Y38465*
X39509*
Y37939*
X39310*
Y36871*
X40378*
Y37939*
X40178*
Y38465*
X40430*
Y38665*
X41060*
X41563Y38163*
X41671Y38090*
X41799Y38065*
X42690*
Y37968*
X42713Y37852*
X42779Y37754*
X42877Y37688*
X42993Y37665*
X45405*
X45521Y37688*
X45619Y37754*
X45685Y37852*
X45708Y37968*
Y38065*
X46060*
X46565Y37560*
Y35999*
X45771*
X45692Y36117*
X45560Y36205*
X45405Y36236*
X44326*
Y35399*
X44072*
Y36236*
X42993*
X42838Y36205*
X42706Y36117*
X42627Y35999*
X38487*
X38442Y36067*
X37667Y36842*
X37590Y36893*
X37499Y36912*
X35334*
X35287Y37000*
X35307Y37099*
Y37699*
X35287Y37798*
X35303Y37895*
X35400Y37911*
X35499Y37891*
X36099*
X36198Y37911*
X36199*
X36651*
X37325Y37237*
X37402Y37186*
X37493Y37168*
X37913*
Y36871*
X38981*
Y37939*
X37913*
Y37643*
X37591*
X36917Y38317*
X36980Y38411*
X37409*
X37500Y38430*
X37577Y38481*
X37858Y38761*
X37965*
Y38465*
X39033*
Y39533*
X38047*
X37984Y39610*
X37987Y39624*
Y39726*
X38526Y40265*
X38933*
Y41333*
X37865*
Y40276*
X37631Y40042*
X37531Y40052*
X37459Y40159*
X37260Y40293*
X37088Y40327*
X37059Y40423*
X37267Y40631*
X37318Y40708*
X37337Y40799*
Y42301*
X37397Y42361*
X37741*
Y42212*
X37761Y42108*
X37820Y42020*
X37908Y41961*
X38012Y41941*
X38687*
X38745Y41953*
X38799Y41899*
X39520*
X39568Y41866*
X39712Y41838*
X39922*
Y42599*
Y43360*
X39712*
X39568Y43332*
X39520Y43299*
X38799*
X38745Y43245*
X38687Y43257*
X38012*
X37908Y43237*
X37820Y43178*
X37761Y43090*
X37741Y42986*
Y42837*
X37299*
X37208Y42818*
X37131Y42767*
X36931Y42567*
X36880Y42490*
X36861Y42399*
Y40897*
X36544Y40580*
X36456Y40627*
X36460Y40649*
X36432Y40787*
X36358Y40899*
X36432Y41011*
X36435Y41022*
X35799*
Y41276*
X36435*
X36432Y41287*
X36358Y41399*
X36432Y41511*
X36435Y41522*
X35799*
Y41649*
X35672*
Y42010*
X35499*
X35476Y42005*
X35405Y42076*
X35410Y42099*
Y42272*
X35049*
Y42526*
X35410*
Y42699*
X35382Y42837*
X35304Y42954*
X35187Y43032*
X35109Y43048*
X35080Y43144*
X35268Y43332*
X35428Y43225*
X35624Y43186*
X35820Y43225*
X35987Y43336*
X36098Y43503*
X36137Y43699*
X36098Y43895*
X35987Y44062*
X35820Y44173*
X35624Y44212*
X35428Y44173*
X35273Y44069*
X35184Y44116*
Y44568*
X35433*
Y45636*
X34365*
Y44568*
X34614*
Y44217*
X33855Y43459*
X33850Y43451*
X33751*
X33384Y43817*
Y44568*
X33633*
Y45636*
X32565*
Y44568*
X32814*
Y43699*
X32835Y43590*
X32897Y43497*
X33264Y43131*
Y42966*
X33175Y42919*
X33148Y42937*
X33049Y42957*
X32950Y42937*
X32867Y42881*
X32849Y42855*
X32749*
X32731Y42881*
X32648Y42937*
X32549Y42957*
X32450Y42937*
X32423Y42919*
X32334Y42966*
Y43849*
X32313Y43958*
X32251Y44051*
X31733Y44569*
Y45636*
X30665*
Y44568*
X30950*
X30997Y44497*
X31764Y43731*
Y43096*
X31686Y43033*
X31676Y43035*
Y42399*
X31549*
Y42272*
X31188*
Y42099*
X31214Y41969*
X31187Y41942*
X31127Y41901*
X31099Y41907*
X30499*
X30400Y41887*
X30399*
X30392*
X29837Y42442*
Y44699*
X29818Y44790*
X29767Y44867*
X29567Y45067*
X29490Y45118*
X29399Y45137*
X29033*
Y45433*
X27965*
Y44365*
X29033*
Y44661*
X29301*
X29361Y44601*
Y42378*
X29306Y42333*
X29250Y42322*
X29174Y42337*
X28978Y42298*
X28811Y42187*
X28700Y42020*
X28661Y41824*
X28700Y41628*
X28811Y41461*
X28978Y41350*
X28996Y41256*
X28964Y41234*
X28830Y41035*
X28783Y40799*
X28794Y40743*
X28706Y40696*
X28584Y40817*
Y41099*
X28563Y41208*
X28557Y41216*
Y41674*
X28536Y41782*
X28474Y41874*
X28382Y41936*
X28342Y41944*
X28313Y42040*
X28735Y42463*
X28808Y42571*
X28833Y42699*
Y42968*
X29033*
Y44036*
X27965*
Y43836*
X27335*
X27251Y43920*
X27261Y44019*
X27287Y44036*
X27398Y44203*
X27437Y44399*
X27398Y44595*
X27287Y44762*
X27120Y44873*
X26924Y44912*
X26728Y44873*
X26561Y44762*
X26450Y44595*
X26411Y44399*
X26450Y44203*
X26561Y44036*
X26565Y44034*
Y43799*
X26590Y43671*
X26663Y43563*
X26960Y43266*
X27068Y43193*
X27196Y43168*
X27965*
Y42968*
X28165*
Y42838*
X27663Y42335*
X27590Y42227*
X27565Y42099*
Y42090*
X27474Y41999*
X26670*
X26622Y42031*
X26474Y42060*
X26226*
Y41099*
Y40138*
X26474*
X26622Y40167*
X26670Y40199*
X27474*
X27565Y40108*
Y39890*
X27474Y39799*
X26670*
X26622Y39831*
X26474Y39860*
X26226*
Y38899*
Y37938*
X26474*
X26622Y37967*
X26670Y37999*
X27474*
X27517Y38042*
X27524Y38041*
X27914*
Y37357*
X27811*
X27753Y37345*
X27699Y37399*
X26978*
X26930Y37432*
X26787Y37460*
X26576*
Y36699*
X26449*
Y36572*
X25738*
Y36311*
X25766Y36168*
X25821Y36087*
X25773Y35999*
X25669*
Y35499*
X26429*
X26458Y35403*
X26420Y35378*
X26361Y35290*
X26341Y35187*
Y34512*
X26353Y34453*
X26299Y34399*
Y33678*
X26266Y33630*
X26238Y33486*
Y33276*
X26999*
Y33149*
X27126*
Y32438*
X27387*
X27530Y32466*
X27651Y32547*
X27732Y32668*
X27797Y32696*
X27903Y32625*
X28099Y32586*
X28295Y32625*
X28449Y32728*
X28538Y32681*
Y32624*
X28567Y32476*
X28651Y32351*
X28776Y32267*
X28924Y32238*
X29372*
Y32999*
X29499*
Y33126*
X30460*
Y33374*
X30431Y33522*
X30399Y33570*
Y34374*
X30356Y34417*
X30357Y34424*
Y35174*
X30336Y35282*
X30274Y35374*
X30231Y35403*
X30260Y35499*
X31811*
Y33147*
X30031Y31367*
X29980Y31290*
X29961Y31199*
Y31160*
X29411*
Y29838*
X30987*
Y31160*
X30627*
X30588Y31252*
X31169Y31833*
X31261Y31795*
Y30799*
X31280Y30708*
X31331Y30631*
X31631Y30331*
X31708Y30280*
X31799Y30261*
X32011*
Y29838*
X33587*
Y31160*
X32011*
Y30737*
X31897*
X31737Y30897*
Y31829*
X32717Y32810*
X32768Y32887*
X32787Y32978*
Y35318*
X32881Y35381*
X36361Y31901*
Y30797*
X36301Y30737*
X36187*
Y31114*
X34611*
Y29792*
X36187*
Y30261*
X36399*
X36490Y30280*
X36567Y30331*
X36767Y30531*
X36818Y30608*
X36837Y30699*
Y31895*
X36929Y31933*
X37656Y31206*
X37617Y31114*
X37211*
Y29792*
X38787*
Y31114*
X38237*
Y31199*
X38218Y31290*
X38167Y31367*
X34127Y35407*
X34166Y35499*
X38036*
Y35220*
X37911Y35137*
X37800Y34970*
X37761Y34774*
X37800Y34578*
X37911Y34411*
X38078Y34300*
X38274Y34261*
X38470Y34300*
X38637Y34411*
X38748Y34578*
X38787Y34774*
X38748Y34970*
X38637Y35137*
X38512Y35220*
Y35499*
X42690*
Y34968*
X42713Y34852*
X42779Y34754*
X42877Y34688*
X42993Y34665*
X45405*
X45521Y34688*
X45619Y34754*
X45685Y34852*
X45708Y34968*
Y35499*
X46726*
X47013Y35213*
X47121Y35140*
X47249Y35115*
X48573*
X48610Y35060*
X48685Y35009*
X48774Y34992*
X49624*
X49713Y35009*
X49788Y35060*
X49839Y35135*
X49856Y35224*
Y35499*
X50498*
X50499*
X50749Y35249*
X50841Y35187*
X50859Y35184*
X50949Y35166*
X51153*
X51159Y35135*
X51210Y35060*
X51285Y35009*
X51374Y34992*
X52224*
X52313Y35009*
X52388Y35060*
X52425Y35115*
X53563*
X53624Y35024*
X53716Y34962*
X53824Y34941*
X54974*
X55082Y34962*
X55174Y35024*
X55236Y35116*
X55257Y35224*
Y35499*
X64499*
Y6999*
X60899*
X60499Y6599*
X60099*
X58899Y5399*
Y5099*
X58599Y4799*
Y4399*
X58399Y4199*
Y3299*
X58499Y3199*
Y2199*
X58899Y1799*
Y1418*
X59210Y1107*
X59101Y999*
X6797*
X6688Y1107*
X6899Y1318*
Y1499*
X7199Y1799*
Y2299*
X7499Y2599*
Y3799*
X7399Y3899*
Y4599*
X6999Y4999*
Y5399*
X5899Y6499*
X5599*
X5199Y6899*
X4599*
X4499Y6999*
X2799*
X2599Y6799*
X2099*
X1673Y6373*
X1573*
X1536Y6336*
X1499Y6299*
X1267Y6067*
X1156*
X1148Y6075*
Y6299*
X1149Y16999*
X1174Y17297*
X1274*
X1249Y17499*
X1424Y17699*
X1399*
X1599Y17899*
X1699Y17902*
Y17999*
X4899*
X5699Y18199*
X5799Y18299*
X5999*
X6099Y18399*
Y18599*
X6144*
X6228Y18683*
X6248Y18703*
X6199Y18899*
Y35499*
X21288*
X21335Y35411*
X21318Y35385*
X21287Y35230*
Y34926*
X24511*
Y35230*
X24480Y35385*
X24463Y35411*
X24510Y35499*
X24739*
Y35999*
X6299*
Y36399*
X6366*
X6199Y36599*
X5599Y37099*
X1499*
Y48499*
Y49599*
X1621Y49680*
Y49677*
X2099Y49199*
X2499*
X2699Y48999*
X2999*
X3099Y48899*
X3799*
X3899Y48799*
X3999Y48899*
X4799*
X4899Y48999*
X5299*
X5599Y49299*
X5999*
X6999Y50299*
Y50499*
X7399Y50899*
Y51099*
X7499*
Y53974*
X7374Y54099*
X7299*
Y54199*
X7099Y54399*
Y54599*
X6799Y54999*
Y55099*
X59299*
X59280Y55080*
G37*
%LNraspberryhatboard-2*%
%LPC*%
G36*
X25730Y30361D02*
X25426D01*
Y29326*
X26136*
Y29955*
X26105Y30110*
X26017Y30242*
X25885Y30330*
X25730Y30361*
G37*
G36*
X15460Y30172D02*
X14626D01*
Y29538*
X15074*
X15222Y29567*
X15347Y29651*
X15431Y29776*
X15460Y29924*
Y30172*
G37*
G36*
X14372D02*
X13538D01*
Y29924*
X13567Y29776*
X13651Y29651*
X13776Y29567*
X13924Y29538*
X14372*
Y30172*
G37*
G36*
X26872Y33022D02*
X26238D01*
Y32811*
X26266Y32668*
X26347Y32547*
X26468Y32466*
X26611Y32438*
X26872*
Y33022*
G37*
G36*
X30460Y32872D02*
X29626D01*
Y32238*
X30074*
X30222Y32267*
X30347Y32351*
X30431Y32476*
X30460Y32624*
Y32872*
G37*
G36*
X20124Y32606D02*
X19274D01*
X19185Y32589*
X19110Y32538*
X19059Y32463*
X19042Y32374*
Y31924*
X19059Y31835*
X19110Y31760*
X19185Y31709*
X19274Y31692*
X20124*
X20132Y31693*
X20263Y31563*
X20371Y31490*
X20499Y31465*
X21390*
Y31368*
X21413Y31252*
X21479Y31154*
X21577Y31088*
X21693Y31065*
X24105*
X24221Y31088*
X24319Y31154*
X24385Y31252*
X24407Y31365*
X24818*
X24836Y31336*
X25003Y31225*
X25199Y31186*
X25395Y31225*
X25562Y31336*
X25673Y31503*
X25712Y31699*
X25673Y31895*
X25562Y32062*
X25395Y32173*
X25199Y32212*
X25003Y32173*
X24836Y32062*
X24818Y32033*
X24408*
Y32230*
X24385Y32346*
X24319Y32444*
X24221Y32510*
X24105Y32533*
X21693*
X21577Y32510*
X21479Y32444*
X21413Y32346*
X21390Y32230*
Y32133*
X20638*
X20385Y32385*
X20349Y32410*
X20339Y32463*
X20288Y32538*
X20213Y32589*
X20124Y32606*
G37*
G36*
X26136Y29072D02*
X25426D01*
Y28037*
X25730*
X25885Y28068*
X26017Y28156*
X26105Y28288*
X26136Y28443*
Y29072*
G37*
G36*
X20124Y30706D02*
X19274D01*
X19185Y30689*
X19110Y30638*
X19059Y30563*
X19042Y30474*
Y30024*
X19059Y29935*
X19110Y29860*
X19185Y29809*
X19274Y29792*
X19565*
Y29299*
X19590Y29171*
X19663Y29063*
X19763Y28963*
X19871Y28890*
X19999Y28865*
X21565*
Y28443*
X21588Y28327*
X21654Y28229*
X21752Y28163*
X21868Y28140*
X22730*
X22846Y28163*
X22944Y28229*
X23010Y28327*
X23033Y28443*
Y29955*
X23010Y30071*
X22944Y30169*
X22846Y30235*
X22730Y30258*
X21868*
X21752Y30235*
X21654Y30169*
X21588Y30071*
X21565Y29955*
Y29533*
X20233*
Y29823*
X20288Y29860*
X20339Y29935*
X20356Y30024*
Y30474*
X20339Y30563*
X20288Y30638*
X20213Y30689*
X20124Y30706*
G37*
G36*
X56412Y28072D02*
X54526D01*
Y27136*
X55949*
X56126Y27171*
X56276Y27272*
X56377Y27422*
X56412Y27599*
Y28072*
G37*
G36*
X25172Y29072D02*
X24462D01*
Y28443*
X24493Y28288*
X24581Y28156*
X24713Y28068*
X24868Y28037*
X25172*
Y29072*
G37*
G36*
X50349Y29159D02*
X47249D01*
X47111Y29132*
X46994Y29054*
X46916Y28937*
X46889Y28799*
Y28410*
X43588*
X43587Y28412*
X43420Y28523*
X43224Y28562*
X43028Y28523*
X42861Y28412*
X42750Y28245*
X42711Y28049*
X42750Y27853*
X42861Y27686*
X43028Y27575*
X43224Y27536*
X43420Y27575*
X43440Y27588*
X46891*
X46916Y27461*
X46994Y27345*
X47111Y27266*
X47249Y27239*
X50349*
X50487Y27266*
X50603Y27345*
X50682Y27461*
X50709Y27599*
Y28799*
X50682Y28937*
X50603Y29054*
X50487Y29132*
X50349Y29159*
G37*
G36*
X25172Y30361D02*
X24868D01*
X24713Y30330*
X24581Y30242*
X24493Y30110*
X24462Y29955*
Y29326*
X25172*
Y30361*
G37*
G36*
X54272Y29262D02*
X52849D01*
X52672Y29227*
X52522Y29126*
X52421Y28976*
X52386Y28799*
Y28326*
X54272*
Y29262*
G37*
G36*
X55949D02*
X54526D01*
Y28326*
X56412*
Y28799*
X56377Y28976*
X56276Y29126*
X56126Y29227*
X55949Y29262*
G37*
G36*
X22772Y34672D02*
X21287D01*
Y34368*
X21318Y34213*
X21406Y34081*
X21538Y33993*
X21693Y33962*
X22772*
Y34672*
G37*
G36*
X40431Y40672D02*
X39923D01*
Y40164*
X40431*
Y40672*
G37*
G36*
X39669D02*
X39161D01*
Y40164*
X39669*
Y40672*
G37*
G36*
X25972Y40972D02*
X25338D01*
Y40524*
X25367Y40376*
X25451Y40251*
X25576Y40167*
X25724Y40138*
X25972*
Y40972*
G37*
G36*
X39669Y41434D02*
X39161D01*
Y40926*
X39669*
Y41434*
G37*
G36*
X55223Y42372D02*
X53831D01*
Y40980*
X54003Y40997*
X54290Y41084*
X54555Y41226*
X54787Y41416*
X54977Y41648*
X55119Y41913*
X55206Y42200*
X55223Y42372*
G37*
G36*
X53577D02*
X52185D01*
X52202Y42200*
X52289Y41913*
X52431Y41648*
X52621Y41416*
X52853Y41226*
X53118Y41084*
X53405Y40997*
X53577Y40980*
Y42372*
G37*
G36*
X40431Y41434D02*
X39923D01*
Y40926*
X40431*
Y41434*
G37*
G36*
X44455Y41633D02*
X42943D01*
X42827Y41610*
X42729Y41544*
X42663Y41446*
X42640Y41330*
Y40468*
X42663Y40352*
X42729Y40254*
X42827Y40188*
X42943Y40165*
X44455*
X44571Y40188*
X44669Y40254*
X44735Y40352*
X44758Y40468*
Y40565*
X48060*
X48865Y39760*
Y37806*
X48774*
X48685Y37789*
X48610Y37738*
X48559Y37663*
X48542Y37574*
Y37124*
X48559Y37035*
X48610Y36960*
X48685Y36909*
X48774Y36892*
X49624*
X49713Y36909*
X49788Y36960*
X49839Y37035*
X49856Y37124*
Y37574*
X49839Y37663*
X49788Y37738*
X49713Y37789*
X49624Y37806*
X49533*
Y39899*
X49508Y40027*
X49435Y40135*
X48435Y41135*
X48327Y41208*
X48199Y41233*
X44758*
Y41330*
X44735Y41446*
X44669Y41544*
X44571Y41610*
X44455Y41633*
G37*
G36*
X26322Y37460D02*
X26111D01*
X25968Y37432*
X25847Y37351*
X25766Y37229*
X25738Y37087*
Y36826*
X26322*
Y37460*
G37*
G36*
X24511Y34672D02*
X23026D01*
Y33962*
X24105*
X24260Y33993*
X24392Y34081*
X24480Y34213*
X24511Y34368*
Y34672*
G37*
G36*
X54272Y38160D02*
X53824D01*
X53676Y38131*
X53551Y38047*
X53467Y37922*
X53438Y37774*
Y37526*
X54272*
Y38160*
G37*
G36*
X25972Y39860D02*
X25724D01*
X25576Y39831*
X25451Y39747*
X25367Y39622*
X25338Y39474*
Y39026*
X25972*
Y39860*
G37*
G36*
Y38772D02*
X25338D01*
Y38324*
X25367Y38176*
X25451Y38051*
X25576Y37967*
X25724Y37938*
X25972*
Y38772*
G37*
G36*
X54974Y38160D02*
X54526D01*
Y37526*
X55360*
Y37774*
X55331Y37922*
X55247Y38047*
X55122Y38131*
X54974Y38160*
G37*
G36*
X52918Y16372D02*
X51526D01*
Y14980*
X51698Y14997*
X51985Y15084*
X52250Y15226*
X52482Y15416*
X52672Y15648*
X52814Y15913*
X52901Y16200*
X52918Y16372*
G37*
G36*
X51272D02*
X49880D01*
X49897Y16200*
X49984Y15913*
X50126Y15648*
X50316Y15416*
X50548Y15226*
X50813Y15084*
X51100Y14997*
X51272Y14980*
Y16372*
G37*
G36*
X29987Y17606D02*
X28411D01*
Y16284*
X28865*
Y15499*
Y14099*
X28890Y13971*
X28963Y13863*
X29663Y13163*
X29771Y13090*
X29899Y13065*
X31059*
X31097Y12972*
X31049Y12924*
Y11874*
X31117Y11806*
X31111Y11798*
X31091Y11699*
Y11099*
X31111Y11000*
X31167Y10917*
X31240Y10867*
Y9777*
X31165Y9596*
X31139Y9399*
Y5499*
X31165Y5302*
X31241Y5119*
X31362Y4962*
X31519Y4841*
X31702Y4765*
X31899Y4739*
X32096Y4765*
X32279Y4841*
X32436Y4962*
X32557Y5119*
X32633Y5302*
X32659Y5499*
Y9399*
X32633Y9596*
X32558Y9777*
Y10867*
X32631Y10917*
X32687Y11000*
X32707Y11099*
Y11699*
X32687Y11798*
X32681Y11806*
X32749Y11874*
Y12924*
X32681Y12992*
X32687Y13000*
X32707Y13099*
Y13699*
X32687Y13798*
X32631Y13881*
X32548Y13937*
X32449Y13957*
X32137*
Y14101*
X32197Y14161*
X32301*
X32392Y14180*
X32469Y14231*
X32703Y14465*
X32799Y14436*
X32825Y14303*
X32936Y14136*
X33103Y14025*
X33299Y13986*
X33495Y14025*
X33662Y14136*
X33749Y14267*
X33849*
X33936Y14136*
X34103Y14025*
X34299Y13986*
X34495Y14025*
X34662Y14136*
X34773Y14303*
X34780Y14337*
X34875Y14366*
X34910Y14331*
X34987Y14280*
X35078Y14261*
X35701*
X35861Y14101*
Y13857*
X35749*
X35650Y13837*
X35567Y13781*
X35511Y13698*
X35491Y13599*
Y12999*
X35511Y12900*
X35517Y12892*
X35449Y12824*
Y11774*
X35517Y11706*
X35511Y11698*
X35491Y11599*
Y10999*
X35511Y10900*
X35567Y10817*
X35640Y10767*
Y9777*
X35565Y9596*
X35540Y9399*
Y5499*
X35565Y5302*
X35641Y5119*
X35762Y4962*
X35919Y4841*
X36102Y4765*
X36299Y4739*
X36496Y4765*
X36679Y4841*
X36836Y4962*
X36957Y5119*
X37033Y5302*
X37058Y5499*
Y9399*
X37033Y9596*
X36958Y9777*
Y10767*
X37031Y10817*
X37087Y10900*
X37107Y10999*
Y11599*
X37087Y11698*
X37081Y11706*
X37149Y11774*
Y12824*
X37101Y12872*
X37139Y12965*
X37799*
X37927Y12990*
X38035Y13063*
X38635Y13663*
X38708Y13771*
X38733Y13899*
Y16084*
X39187*
Y17406*
X37611*
Y16084*
X38065*
Y14038*
X37660Y13633*
X37100*
X37087Y13698*
X37031Y13781*
X36948Y13837*
X36849Y13857*
X36337*
Y14199*
X36334Y14213*
X36426Y14252*
X36436Y14236*
X36603Y14125*
X36799Y14086*
X36995Y14125*
X37162Y14236*
X37273Y14403*
X37312Y14599*
X37273Y14795*
X37162Y14962*
X37133Y14980*
Y16699*
X37108Y16827*
X37035Y16935*
X36927Y17008*
X36799Y17033*
X36671Y17008*
X36639Y16987*
X36099*
X36098*
X35999Y17007*
X35399*
X35300Y16987*
X35291Y16981*
X35203Y17028*
Y17372*
X32395*
Y17028*
X32307Y16981*
X32298Y16987*
X32199Y17007*
X31599*
X31500Y16987*
X31499*
X31212*
X31162Y17062*
X30995Y17173*
X30799Y17212*
X30603Y17173*
X30436Y17062*
X30325Y16895*
X30286Y16699*
X30325Y16503*
X30436Y16336*
X30603Y16225*
X30799Y16186*
X30995Y16225*
X31162Y16336*
X31273Y16503*
X31275Y16511*
X31499*
X31500*
X31599Y16491*
X32199*
X32298Y16511*
X32307Y16517*
X32395Y16470*
Y16095*
X32520*
X32567Y16007*
X32561Y15998*
X32541Y15899*
Y15299*
X32561Y15200*
Y15199*
Y14997*
X32531Y14967*
X32527Y14960*
X32406Y14840*
X32203Y14637*
X32099*
X32008Y14618*
X31931Y14567*
X31731Y14367*
X31680Y14290*
X31661Y14199*
Y13957*
X31349*
X31250Y13937*
X31167Y13881*
X31111Y13798*
X31098Y13733*
X30038*
X29533Y14238*
Y15499*
Y16284*
X29987*
Y17606*
G37*
G36*
X51272Y18018D02*
X51100Y18001D01*
X50813Y17914*
X50548Y17772*
X50316Y17582*
X50126Y17350*
X49984Y17085*
X49897Y16798*
X49880Y16626*
X51272*
Y18018*
G37*
G36*
X27888Y19318D02*
X27126D01*
Y18683*
X27888*
Y19318*
G37*
G36*
X26872D02*
X26110D01*
Y18683*
X26872*
Y19318*
G37*
G36*
X51526Y18018D02*
Y16626D01*
X52918*
X52901Y16798*
X52814Y17085*
X52672Y17350*
X52482Y17582*
X52250Y17772*
X51985Y17914*
X51698Y18001*
X51526Y18018*
G37*
G36*
X51399Y14124D02*
X51028Y14075D01*
X50681Y13932*
X50384Y13704*
X50156Y13407*
X50043Y13133*
X46400*
X46387Y13198*
X46331Y13281*
X46248Y13337*
X46149Y13357*
X45641*
X45499Y13499*
X44699*
X44557Y13357*
X44049*
X43950Y13337*
X43867Y13281*
X43811Y13198*
X43798Y13133*
X42999*
X42871Y13108*
X42763Y13035*
X42660Y12933*
X42081*
X42062Y12962*
X41895Y13073*
X41699Y13112*
X41503Y13073*
X41336Y12962*
X41225Y12795*
X41186Y12599*
X41225Y12403*
X41336Y12236*
X41503Y12125*
X41699Y12086*
X41895Y12125*
X42062Y12236*
X42081Y12265*
X42799*
X42927Y12290*
X43035Y12363*
X43138Y12465*
X43798*
X43811Y12400*
X43867Y12317*
X43950Y12261*
X44049Y12241*
X44557*
X44699Y12099*
X45499*
X45641Y12241*
X46149*
X46248Y12261*
X46331Y12317*
X46387Y12400*
X46400Y12465*
X49993*
X50013Y12318*
X50156Y11971*
X50384Y11674*
X50681Y11446*
X51028Y11303*
X51399Y11254*
X51770Y11303*
X52117Y11446*
X52414Y11674*
X52642Y11971*
X52785Y12318*
X52834Y12689*
X52785Y13060*
X52642Y13407*
X52414Y13704*
X52117Y13932*
X51770Y14075*
X51399Y14124*
G37*
G36*
X54372Y5072D02*
X52486D01*
Y4599*
X52521Y4422*
X52622Y4272*
X52772Y4171*
X52949Y4136*
X54372*
Y5072*
G37*
G36*
X42199Y7065D02*
X41820Y7015D01*
X41466Y6868*
X41163Y6635*
X40930Y6332*
X40783Y5978*
X40733Y5599*
Y3199*
X40783Y2820*
X40930Y2466*
X41163Y2163*
X41466Y1930*
X41820Y1783*
X42199Y1733*
X42578Y1783*
X42932Y1930*
X43235Y2163*
X43468Y2466*
X43615Y2820*
X43665Y3199*
Y5599*
X43615Y5978*
X43468Y6332*
X43235Y6635*
X42932Y6868*
X42578Y7015*
X42199Y7065*
G37*
G36*
X26099Y6965D02*
X25720Y6915D01*
X25366Y6768*
X25063Y6535*
X24830Y6232*
X24683Y5878*
X24633Y5499*
Y3099*
X24683Y2720*
X24830Y2366*
X25063Y2063*
X25366Y1830*
X25720Y1683*
X26099Y1633*
X26478Y1683*
X26832Y1830*
X27135Y2063*
X27368Y2366*
X27515Y2720*
X27565Y3099*
Y5499*
X27515Y5878*
X27368Y6232*
X27135Y6535*
X26832Y6768*
X26478Y6915*
X26099Y6965*
G37*
G36*
X56512Y5072D02*
X54626D01*
Y4136*
X56049*
X56226Y4171*
X56376Y4272*
X56477Y4422*
X56512Y4599*
Y5072*
G37*
G36*
X56049Y6262D02*
X54626D01*
Y5326*
X56512*
Y5799*
X56477Y5976*
X56376Y6126*
X56226Y6227*
X56049Y6262*
G37*
G36*
X54372D02*
X52949D01*
X52772Y6227*
X52622Y6126*
X52521Y5976*
X52486Y5799*
Y5326*
X54372*
Y6262*
G37*
G36*
X45899Y7887D02*
X45703Y7848D01*
X45536Y7737*
X45425Y7570*
X45386Y7374*
X45425Y7178*
X45536Y7011*
X45703Y6900*
X45899Y6861*
X46095Y6900*
X46189Y6963*
X47918*
X48463Y6418*
Y6159*
X47349*
X47211Y6132*
X47095Y6054*
X47016Y5937*
X46989Y5799*
Y4599*
X47016Y4461*
X47095Y4344*
X47211Y4266*
X47349Y4239*
X50449*
X50587Y4266*
X50703Y4344*
X50782Y4461*
X50809Y4599*
Y5799*
X50782Y5937*
X50703Y6054*
X50587Y6132*
X50449Y6159*
X49335*
Y6599*
X49302Y6766*
X49208Y6908*
X48408Y7708*
X48266Y7802*
X48099Y7835*
X46114*
X46095Y7848*
X45899Y7887*
G37*
G36*
X21077Y24418D02*
X20905Y24401D01*
X20618Y24314*
X20353Y24172*
X20121Y23982*
X19931Y23750*
X19789Y23485*
X19702Y23198*
X19685Y23026*
X21077*
Y24418*
G37*
G36*
X15074Y32757D02*
X13924D01*
X13816Y32736*
X13724Y32674*
X13662Y32582*
X13641Y32474*
Y31724*
X13642Y31717*
X13599Y31674*
Y30870*
X13567Y30822*
X13538Y30674*
Y30426*
X15460*
Y30674*
X15431Y30822*
X15399Y30870*
Y31674*
X15490Y31765*
X16419*
X16448Y31669*
X16437Y31661*
X16364Y31552*
X16339Y31424*
Y31326*
X17099*
Y31072*
X16339*
Y30974*
X16364Y30846*
X16437Y30737*
X16450Y30728*
X16510Y30638*
X16459Y30563*
X16442Y30474*
Y30024*
X16459Y29935*
X16510Y29860*
X16585Y29809*
X16674Y29792*
X16765*
Y28399*
X16790Y28271*
X16863Y28163*
X17060Y27965*
Y24331*
X16441*
X16258Y24295*
X16102Y24191*
X15998Y24035*
X15962Y23852*
Y21947*
X15998Y21763*
X16102Y21607*
X16258Y21503*
X16441Y21467*
X18346*
X18530Y21503*
X18686Y21607*
X18790Y21763*
X18826Y21947*
Y23852*
X18790Y24035*
X18686Y24191*
X18530Y24295*
X18346Y24331*
X17728*
Y28104*
X17703Y28232*
X17630Y28340*
X17433Y28538*
Y29792*
X17524*
X17613Y29809*
X17688Y29860*
X17739Y29935*
X17745Y29966*
X17949*
X18039Y29984*
X18057Y29987*
X18149Y30049*
X18499Y30399*
X18561Y30491*
X18582Y30599*
Y31699*
X18561Y31807*
X18499Y31899*
X18099Y32299*
X18007Y32361*
X17989Y32364*
X17899Y32382*
X17755*
X17739Y32463*
X17688Y32538*
X17613Y32589*
X17524Y32606*
X16674*
X16585Y32589*
X16510Y32538*
X16459Y32463*
X16453Y32433*
X15357*
Y32474*
X15336Y32582*
X15274Y32674*
X15182Y32736*
X15074Y32757*
G37*
G36*
X22723Y22772D02*
X21331D01*
Y21380*
X21503Y21397*
X21790Y21484*
X22055Y21626*
X22287Y21816*
X22477Y22048*
X22619Y22313*
X22706Y22600*
X22723Y22772*
G37*
G36*
X21331Y24418D02*
Y23026D01*
X22723*
X22706Y23198*
X22619Y23485*
X22477Y23750*
X22287Y23982*
X22055Y24172*
X21790Y24314*
X21503Y24401*
X21331Y24418*
G37*
G36*
X54272Y28072D02*
X52386D01*
Y27599*
X52421Y27422*
X52522Y27272*
X52672Y27171*
X52849Y27136*
X54272*
Y28072*
G37*
G36*
X38787Y29082D02*
X37211D01*
Y27760*
X37665*
Y27338*
X37513Y27185*
X37440Y27077*
X37415Y26949*
Y26814*
X37322Y26776*
X37299Y26799*
X36499*
X36445Y26745*
X36387Y26757*
X36304*
X36285Y26785*
X35733Y27338*
Y27760*
X36187*
Y29082*
X34611*
Y27760*
X35065*
Y27199*
X35090Y27071*
X35163Y26963*
X35491Y26634*
X35461Y26590*
X35441Y26486*
Y25711*
X35461Y25608*
X35520Y25520*
X35608Y25461*
X35712Y25441*
X35715*
Y25188*
X35563Y25035*
X35490Y24927*
X35465Y24799*
Y24414*
X35011*
Y23092*
X36587*
Y24414*
X36133*
Y24660*
X36285Y24813*
X36358Y24921*
X36383Y25049*
Y25384*
X36476Y25422*
X36499Y25399*
X37299*
X37322Y25422*
X37415Y25384*
Y25149*
X37440Y25021*
X37513Y24913*
X38019Y24406*
X37980Y24314*
X37611*
Y22992*
X39187*
Y24314*
X38733*
Y24499*
X38708Y24627*
X38635Y24735*
X38083Y25288*
Y25441*
X38087*
X38190Y25461*
X38278Y25520*
X38337Y25608*
X38357Y25711*
Y26486*
X38337Y26590*
X38278Y26678*
X38190Y26737*
X38144Y26746*
X38115Y26842*
X38235Y26963*
X38308Y27071*
X38333Y27199*
Y27760*
X38787*
Y29082*
G37*
G36*
X33587Y29128D02*
X32011D01*
Y27806*
X32365*
Y26988*
X32134Y26757*
X31611*
X31553Y26745*
X31499Y26799*
X30699*
X30645Y26745*
X30586Y26757*
X30533*
Y27806*
X30987*
Y29128*
X29411*
Y27806*
X29865*
Y26748*
X29808Y26737*
X29720Y26678*
X29661Y26590*
X29641Y26486*
Y25711*
X29661Y25608*
X29720Y25520*
X29808Y25461*
X29865Y25450*
Y24838*
X29441Y24414*
X28611*
Y23092*
X30187*
Y24214*
X30435Y24463*
X30508Y24571*
X30533Y24699*
Y25441*
X30586*
X30645Y25453*
X30699Y25399*
X31499*
X31553Y25453*
X31611Y25441*
X31765*
Y24414*
X31311*
Y23092*
X32887*
Y24414*
X32433*
Y25490*
X32478Y25520*
X32537Y25608*
X32557Y25711*
Y26234*
X32935Y26613*
X33008Y26721*
X33033Y26849*
Y27806*
X33587*
Y29128*
G37*
G36*
X21077Y22772D02*
X19685D01*
X19702Y22600*
X19789Y22313*
X19931Y22048*
X20121Y21816*
X20353Y21626*
X20618Y21484*
X20905Y21397*
X21077Y21380*
Y22772*
G37*
G36*
X27888Y20207D02*
X27126D01*
Y19572*
X27888*
Y20207*
G37*
G36*
X26872D02*
X26110D01*
Y19572*
X26872*
Y20207*
G37*
G36*
X40872Y19394D02*
X40110D01*
Y18759*
X40872*
Y19394*
G37*
G36*
Y20283D02*
X40110D01*
Y19648*
X40872*
Y20283*
G37*
G36*
X52352Y21741D02*
X50446D01*
X50263Y21705*
X50107Y21601*
X50003Y21445*
X49967Y21262*
Y20633*
X46400*
X46387Y20698*
X46331Y20781*
X46248Y20837*
X46149Y20857*
X45641*
X45499Y20999*
X44699*
X44557Y20857*
X44049*
X43950Y20837*
X43867Y20781*
X43811Y20698*
X43791Y20599*
Y19999*
X43811Y19900*
X43867Y19817*
X43950Y19761*
X44015Y19748*
Y19088*
X43760Y18833*
X42422*
X42387Y18887*
X42220Y18998*
X42024Y19037*
X41965Y19025*
X41888Y19089*
Y19394*
X41126*
Y18759*
X41479*
X41543Y18682*
X41511Y18524*
X41550Y18328*
X41661Y18161*
X41828Y18050*
X42024Y18011*
X42220Y18050*
X42387Y18161*
X42389Y18165*
X43899*
X44027Y18190*
X44135Y18263*
X44585Y18713*
X44658Y18821*
X44683Y18949*
Y19593*
X44699Y19599*
X45499*
X45641Y19741*
X46149*
X46248Y19761*
X46331Y19817*
X46387Y19900*
X46400Y19965*
X49967*
Y19357*
X50003Y19173*
X50107Y19017*
X50263Y18913*
X50446Y18877*
X52352*
X52535Y18913*
X52691Y19017*
X52795Y19173*
X52831Y19357*
Y21262*
X52795Y21445*
X52691Y21601*
X52535Y21705*
X52352Y21741*
G37*
G36*
X36587Y22382D02*
X35011D01*
Y21060*
X35516*
Y20899*
X35534Y20809*
X35537Y20791*
X35561Y20754*
Y20637*
X35199*
X35108Y20618*
X35031Y20567*
X34631Y20167*
X34580Y20090*
X34561Y19999*
Y19935*
X34555Y19930*
X34473Y19887*
X34398Y19937*
X34299Y19957*
X34200Y19937*
X34117Y19881*
X34099Y19855*
X33999*
X33981Y19881*
X33898Y19937*
X33799Y19957*
X33700Y19937*
X33617Y19881*
X33599Y19855*
X33499*
X33481Y19881*
X33398Y19937*
X33299Y19957*
X33200Y19937*
X33125Y19887*
X33043Y19930*
X33037Y19935*
Y20199*
X33018Y20290*
X32967Y20367*
X32382Y20952*
Y21060*
X32887*
Y22382*
X31311*
Y21611*
X31211Y21601*
X31173Y21795*
X31062Y21962*
X30895Y22073*
X30699Y22112*
X30503Y22073*
X30477Y22055*
X30187*
Y22382*
X28611*
Y21811*
X27787*
Y22138*
X26211*
Y20816*
X27787*
Y21143*
X28611*
Y21060*
X30187*
Y21288*
X30283Y21317*
X30336Y21236*
X30503Y21125*
X30699Y21086*
X30895Y21125*
X31062Y21236*
X31173Y21403*
X31211Y21597*
X31311Y21587*
Y21060*
X31816*
Y20899*
Y20816*
X31482Y20482*
X29699*
X29591Y20461*
X29499Y20399*
X29199Y20099*
X29137Y20007*
X29134Y19989*
X29116Y19899*
Y19638*
X28411*
Y18316*
X29987*
Y19638*
X29682*
Y19782*
X29816Y19916*
X31599*
X31689Y19934*
X31707Y19937*
X31799Y19999*
X32231Y20431*
X32561Y20101*
Y19799*
Y19798*
X32541Y19699*
Y19099*
X32561Y19000*
X32567Y18991*
X32520Y18903*
X32395*
Y18528*
X32307Y18481*
X32298Y18487*
X32199Y18507*
X31599*
X31500Y18487*
X31499*
X31147*
X31037Y18597*
Y18853*
X31162Y18936*
X31273Y19103*
X31312Y19299*
X31273Y19495*
X31162Y19662*
X30995Y19773*
X30799Y19812*
X30603Y19773*
X30436Y19662*
X30325Y19495*
X30286Y19299*
X30325Y19103*
X30436Y18936*
X30561Y18853*
Y18499*
X30580Y18408*
X30631Y18331*
X30881Y18081*
X30958Y18030*
X31049Y18011*
X31499*
X31500*
X31599Y17991*
X32199*
X32298Y18011*
X32307Y18017*
X32395Y17970*
Y17626*
X35203*
Y17970*
X35291Y18017*
X35300Y18011*
X35399Y17991*
X35999*
X36098Y18011*
X36099*
X36423*
X36425Y18003*
X36536Y17836*
X36703Y17725*
X36899Y17686*
X37095Y17725*
X37262Y17836*
X37373Y18003*
X37412Y18199*
X37373Y18395*
X37262Y18562*
X37095Y18673*
X36899Y18712*
X36703Y18673*
X36536Y18562*
X36486Y18487*
X36099*
X36098*
X35999Y18507*
X35399*
X35300Y18487*
X35291Y18481*
X35203Y18528*
Y18903*
X35078*
X35031Y18991*
X35037Y19000*
X35057Y19099*
Y19699*
X35037Y19798*
Y19799*
Y19901*
X35297Y20161*
X35699*
X35790Y20180*
X35867Y20231*
X35917Y20281*
X36017*
X36299Y19999*
X36391Y19937*
X36409Y19934*
X36499Y19916*
X37782*
X38116Y19582*
Y19438*
X37611*
Y18116*
X39187*
Y19438*
X38682*
Y19699*
X38664Y19789*
X38661Y19807*
X38599Y19899*
X38099Y20399*
X38007Y20461*
X37989Y20464*
X37899Y20482*
X37432*
X37385Y20571*
X37473Y20703*
X37512Y20899*
X37473Y21095*
X37376Y21240*
X37519Y21383*
X37611Y21344*
Y20960*
X39187*
Y21287*
X40211*
Y20892*
X41787*
Y22214*
X40211*
Y21955*
X39187*
Y22282*
X37611*
Y21859*
X37421*
X37330Y21840*
X37253Y21789*
X36845Y21381*
X36803Y21373*
X36675Y21288*
X36587Y21335*
Y22382*
G37*
G36*
X41888Y20283D02*
X41126D01*
Y19648*
X41888*
Y20283*
G37*
G36*
X25972Y42060D02*
X25724D01*
X25576Y42031*
X25451Y41947*
X25367Y41822*
X25338Y41674*
Y41226*
X25972*
Y42060*
G37*
G36*
X11439Y54650D02*
X11203Y54619D01*
X10984Y54528*
X10795Y54383*
X10650Y54194*
X10559Y53975*
X10528Y53739*
X10559Y53503*
X10650Y53284*
X10795Y53095*
X10984Y52950*
X11203Y52859*
X11439Y52828*
X11675Y52859*
X11894Y52950*
X12083Y53095*
X12228Y53284*
X12319Y53503*
X12350Y53739*
X12319Y53975*
X12228Y54194*
X12083Y54383*
X11894Y54528*
X11675Y54619*
X11439Y54650*
G37*
G36*
X8899D02*
X8663Y54619D01*
X8444Y54528*
X8255Y54383*
X8110Y54194*
X8019Y53975*
X7988Y53739*
X8019Y53503*
X8110Y53284*
X8255Y53095*
X8444Y52950*
X8663Y52859*
X8899Y52828*
X9135Y52859*
X9354Y52950*
X9543Y53095*
X9688Y53284*
X9779Y53503*
X9810Y53739*
X9779Y53975*
X9688Y54194*
X9543Y54383*
X9354Y54528*
X9135Y54619*
X8899Y54650*
G37*
G36*
X50535Y53612D02*
X49666D01*
Y52743*
X49801Y52761*
X50045Y52862*
X50255Y53023*
X50416Y53233*
X50517Y53477*
X50535Y53612*
G37*
G36*
X16519Y54650D02*
X16283Y54619D01*
X16064Y54528*
X15875Y54383*
X15730Y54194*
X15639Y53975*
X15608Y53739*
X15639Y53503*
X15730Y53284*
X15875Y53095*
X16064Y52950*
X16283Y52859*
X16519Y52828*
X16755Y52859*
X16974Y52950*
X17163Y53095*
X17308Y53284*
X17399Y53503*
X17430Y53739*
X17399Y53975*
X17308Y54194*
X17163Y54383*
X16974Y54528*
X16755Y54619*
X16519Y54650*
G37*
G36*
X24139D02*
X23903Y54619D01*
X23684Y54528*
X23495Y54383*
X23350Y54194*
X23259Y53975*
X23228Y53739*
X23259Y53503*
X23350Y53284*
X23495Y53095*
X23684Y52950*
X23903Y52859*
X24139Y52828*
X24375Y52859*
X24594Y52950*
X24783Y53095*
X24928Y53284*
X25019Y53503*
X25050Y53739*
X25019Y53975*
X24928Y54194*
X24783Y54383*
X24594Y54528*
X24375Y54619*
X24139Y54650*
G37*
G36*
X21599D02*
X21363Y54619D01*
X21144Y54528*
X20955Y54383*
X20810Y54194*
X20719Y53975*
X20688Y53739*
X20719Y53503*
X20810Y53284*
X20955Y53095*
X21144Y52950*
X21363Y52859*
X21599Y52828*
X21835Y52859*
X22054Y52950*
X22243Y53095*
X22388Y53284*
X22479Y53503*
X22510Y53739*
X22479Y53975*
X22388Y54194*
X22243Y54383*
X22054Y54528*
X21835Y54619*
X21599Y54650*
G37*
G36*
X19059D02*
X18823Y54619D01*
X18604Y54528*
X18415Y54383*
X18270Y54194*
X18179Y53975*
X18148Y53739*
X18179Y53503*
X18270Y53284*
X18415Y53095*
X18604Y52950*
X18823Y52859*
X19059Y52828*
X19295Y52859*
X19514Y52950*
X19703Y53095*
X19848Y53284*
X19939Y53503*
X19970Y53739*
X19939Y53975*
X19848Y54194*
X19703Y54383*
X19514Y54528*
X19295Y54619*
X19059Y54650*
G37*
G36*
X49412Y53612D02*
X48543D01*
X48561Y53477*
X48662Y53233*
X48823Y53023*
X49033Y52862*
X49277Y52761*
X49412Y52743*
Y53612*
G37*
G36*
X19186Y52195D02*
Y51326D01*
X20055*
X20037Y51461*
X19936Y51705*
X19775Y51915*
X19565Y52076*
X19321Y52177*
X19186Y52195*
G37*
G36*
X18932D02*
X18797Y52177D01*
X18553Y52076*
X18343Y51915*
X18182Y51705*
X18081Y51461*
X18063Y51326*
X18932*
Y52195*
G37*
G36*
X9802Y52102D02*
X7996D01*
Y50296*
X9802*
Y52102*
G37*
G36*
X57286Y52195D02*
Y51326D01*
X58155*
X58137Y51461*
X58036Y51705*
X57875Y51915*
X57665Y52076*
X57421Y52177*
X57286Y52195*
G37*
G36*
X14975Y53612D02*
X14106D01*
Y52743*
X14241Y52761*
X14485Y52862*
X14695Y53023*
X14856Y53233*
X14957Y53477*
X14975Y53612*
G37*
G36*
X13852D02*
X12983D01*
X13001Y53477*
X13102Y53233*
X13263Y53023*
X13473Y52862*
X13717Y52761*
X13852Y52743*
Y53612*
G37*
G36*
X54619Y54650D02*
X54383Y54619D01*
X54164Y54528*
X53975Y54383*
X53830Y54194*
X53739Y53975*
X53708Y53739*
X53739Y53503*
X53830Y53284*
X53975Y53095*
X54164Y52950*
X54383Y52859*
X54619Y52828*
X54855Y52859*
X55049Y52940*
X55639Y52350*
Y51904*
X55622Y51879*
X55595Y51742*
Y51458*
X55497Y51439*
X55408Y51654*
X55263Y51843*
X55074Y51988*
X54855Y52079*
X54619Y52110*
X54383Y52079*
X54164Y51988*
X53975Y51843*
X53830Y51654*
X53739Y51435*
X53708Y51199*
X53739Y50963*
X53830Y50744*
X53975Y50555*
X54164Y50410*
X54383Y50319*
X54619Y50288*
X54855Y50319*
X55074Y50410*
X55263Y50555*
X55408Y50744*
X55497Y50959*
X55595Y50940*
Y50404*
X53450Y48259*
X33799*
X33661Y48232*
X33545Y48153*
X32845Y47453*
X32766Y47337*
X32739Y47199*
Y47033*
X32565*
Y45965*
X33633*
Y47033*
X33573*
X33534Y47125*
X33948Y47539*
X53599*
X53737Y47566*
X53853Y47645*
X56209Y50000*
X56288Y50117*
X56315Y50255*
Y50494*
X56410Y50526*
X56443Y50483*
X56653Y50322*
X56897Y50221*
X57032Y50203*
Y51199*
Y52195*
X56897Y52177*
X56653Y52076*
X56449Y51919*
X56359Y51964*
Y52499*
X56332Y52637*
X56254Y52754*
X55499Y53508*
X55530Y53739*
X55499Y53975*
X55408Y54194*
X55263Y54383*
X55074Y54528*
X54855Y54619*
X54619Y54650*
G37*
G36*
X57159D02*
X56923Y54619D01*
X56704Y54528*
X56515Y54383*
X56370Y54194*
X56279Y53975*
X56248Y53739*
X56279Y53503*
X56370Y53284*
X56515Y53095*
X56704Y52950*
X56923Y52859*
X57159Y52828*
X57395Y52859*
X57614Y52950*
X57803Y53095*
X57948Y53284*
X58039Y53503*
X58070Y53739*
X58039Y53975*
X57948Y54194*
X57803Y54383*
X57614Y54528*
X57395Y54619*
X57159Y54650*
G37*
G36*
X52079D02*
X51843Y54619D01*
X51624Y54528*
X51435Y54383*
X51290Y54194*
X51199Y53975*
X51168Y53739*
X51199Y53503*
X51290Y53284*
X51435Y53095*
X51624Y52950*
X51843Y52859*
X52079Y52828*
X52315Y52859*
X52534Y52950*
X52723Y53095*
X52868Y53284*
X52959Y53503*
X52990Y53739*
X52959Y53975*
X52868Y54194*
X52723Y54383*
X52534Y54528*
X52315Y54619*
X52079Y54650*
G37*
G36*
X46999D02*
X46763Y54619D01*
X46544Y54528*
X46355Y54383*
X46210Y54194*
X46119Y53975*
X46088Y53739*
X46119Y53503*
X46210Y53284*
X46355Y53095*
X46544Y52950*
X46763Y52859*
X46999Y52828*
X47235Y52859*
X47454Y52950*
X47643Y53095*
X47788Y53284*
X47879Y53503*
X47910Y53739*
X47879Y53975*
X47788Y54194*
X47643Y54383*
X47454Y54528*
X47235Y54619*
X46999Y54650*
G37*
G36*
X13852Y54735D02*
X13717Y54717D01*
X13473Y54616*
X13263Y54455*
X13102Y54245*
X13001Y54001*
X12983Y53866*
X13852*
Y54735*
G37*
G36*
X49666D02*
Y53866D01*
X50535*
X50517Y54001*
X50416Y54245*
X50255Y54455*
X50045Y54616*
X49801Y54717*
X49666Y54735*
G37*
G36*
X49412D02*
X49277Y54717D01*
X49033Y54616*
X48823Y54455*
X48662Y54245*
X48561Y54001*
X48543Y53866*
X49412*
Y54735*
G37*
G36*
X14106D02*
Y53866D01*
X14975*
X14957Y54001*
X14856Y54245*
X14695Y54455*
X14485Y54616*
X14241Y54717*
X14106Y54735*
G37*
G36*
X44459Y54650D02*
X44223Y54619D01*
X44004Y54528*
X43815Y54383*
X43670Y54194*
X43579Y53975*
X43548Y53739*
X43579Y53503*
X43670Y53284*
X43815Y53095*
X44004Y52950*
X44223Y52859*
X44459Y52828*
X44695Y52859*
X44914Y52950*
X45103Y53095*
X45248Y53284*
X45339Y53503*
X45370Y53739*
X45339Y53975*
X45248Y54194*
X45103Y54383*
X44914Y54528*
X44695Y54619*
X44459Y54650*
G37*
G36*
X31759D02*
X31523Y54619D01*
X31304Y54528*
X31115Y54383*
X30970Y54194*
X30879Y53975*
X30848Y53739*
X30879Y53503*
X30970Y53284*
X31115Y53095*
X31304Y52950*
X31523Y52859*
X31759Y52828*
X31995Y52859*
X32214Y52950*
X32403Y53095*
X32548Y53284*
X32639Y53503*
X32670Y53739*
X32639Y53975*
X32548Y54194*
X32403Y54383*
X32214Y54528*
X31995Y54619*
X31759Y54650*
G37*
G36*
X29219D02*
X28983Y54619D01*
X28764Y54528*
X28575Y54383*
X28430Y54194*
X28339Y53975*
X28308Y53739*
X28339Y53503*
X28430Y53284*
X28575Y53095*
X28764Y52950*
X28983Y52859*
X29219Y52828*
X29455Y52859*
X29674Y52950*
X29863Y53095*
X30008Y53284*
X30099Y53503*
X30130Y53739*
X30099Y53975*
X30008Y54194*
X29863Y54383*
X29674Y54528*
X29455Y54619*
X29219Y54650*
G37*
G36*
X26679D02*
X26443Y54619D01*
X26224Y54528*
X26035Y54383*
X25890Y54194*
X25799Y53975*
X25768Y53739*
X25799Y53503*
X25890Y53284*
X26035Y53095*
X26224Y52950*
X26443Y52859*
X26679Y52828*
X26915Y52859*
X27134Y52950*
X27323Y53095*
X27468Y53284*
X27559Y53503*
X27590Y53739*
X27559Y53975*
X27468Y54194*
X27323Y54383*
X27134Y54528*
X26915Y54619*
X26679Y54650*
G37*
G36*
X34299D02*
X34063Y54619D01*
X33844Y54528*
X33655Y54383*
X33510Y54194*
X33419Y53975*
X33388Y53739*
X33419Y53503*
X33510Y53284*
X33655Y53095*
X33844Y52950*
X34063Y52859*
X34299Y52828*
X34535Y52859*
X34754Y52950*
X34943Y53095*
X35088Y53284*
X35179Y53503*
X35210Y53739*
X35179Y53975*
X35088Y54194*
X34943Y54383*
X34754Y54528*
X34535Y54619*
X34299Y54650*
G37*
G36*
X41919D02*
X41683Y54619D01*
X41464Y54528*
X41275Y54383*
X41130Y54194*
X41039Y53975*
X41008Y53739*
X41039Y53503*
X41130Y53284*
X41275Y53095*
X41464Y52950*
X41683Y52859*
X41919Y52828*
X42155Y52859*
X42374Y52950*
X42563Y53095*
X42708Y53284*
X42799Y53503*
X42830Y53739*
X42799Y53975*
X42708Y54194*
X42563Y54383*
X42374Y54528*
X42155Y54619*
X41919Y54650*
G37*
G36*
X39379D02*
X39143Y54619D01*
X38924Y54528*
X38735Y54383*
X38590Y54194*
X38499Y53975*
X38468Y53739*
X38499Y53503*
X38590Y53284*
X38735Y53095*
X38924Y52950*
X39143Y52859*
X39379Y52828*
X39615Y52859*
X39834Y52950*
X40023Y53095*
X40168Y53284*
X40259Y53503*
X40290Y53739*
X40259Y53975*
X40168Y54194*
X40023Y54383*
X39834Y54528*
X39615Y54619*
X39379Y54650*
G37*
G36*
X36839D02*
X36603Y54619D01*
X36384Y54528*
X36195Y54383*
X36050Y54194*
X35959Y53975*
X35928Y53739*
X35959Y53503*
X36050Y53284*
X36195Y53095*
X36384Y52950*
X36603Y52859*
X36839Y52828*
X37075Y52859*
X37294Y52950*
X37483Y53095*
X37628Y53284*
X37719Y53503*
X37750Y53739*
X37719Y53975*
X37628Y54194*
X37483Y54383*
X37294Y54528*
X37075Y54619*
X36839Y54650*
G37*
G36*
X35433Y47033D02*
X34365D01*
Y45965*
X35433*
Y46214*
X36085*
X36136Y46136*
X36303Y46025*
X36499Y45986*
X36695Y46025*
X36862Y46136*
X36973Y46303*
X37012Y46499*
X36973Y46695*
X36862Y46862*
X36695Y46973*
X36499Y47012*
X36303Y46973*
X36136Y46862*
X36085Y46784*
X35433*
Y47033*
G37*
G36*
X44455Y44736D02*
X43826D01*
Y44026*
X44861*
Y44330*
X44830Y44485*
X44742Y44617*
X44610Y44705*
X44455Y44736*
G37*
G36*
X43572D02*
X42943D01*
X42788Y44705*
X42656Y44617*
X42568Y44485*
X42537Y44330*
Y44026*
X43572*
Y44736*
G37*
G36*
X52079Y52110D02*
X51843Y52079D01*
X51624Y51988*
X51435Y51843*
X51290Y51654*
X51199Y51435*
X51168Y51199*
X51199Y50963*
X51290Y50744*
X51435Y50555*
X51624Y50410*
X51719Y50371*
Y50028*
X51550Y49859*
X32999*
X32861Y49832*
X32744Y49754*
X30944Y47953*
X30866Y47837*
X30839Y47699*
Y47033*
X30665*
Y45965*
X31733*
Y47033*
X31559*
Y47550*
X33148Y49139*
X51699*
X51837Y49166*
X51953Y49244*
X52333Y49624*
X52412Y49741*
X52439Y49879*
Y50371*
X52534Y50410*
X52723Y50555*
X52868Y50744*
X52959Y50963*
X52990Y51199*
X52959Y51435*
X52868Y51654*
X52723Y51843*
X52534Y51988*
X52315Y52079*
X52079Y52110*
G37*
G36*
X58155Y51072D02*
X57286D01*
Y50203*
X57421Y50221*
X57665Y50322*
X57875Y50483*
X58036Y50693*
X58137Y50937*
X58155Y51072*
G37*
G36*
X20055D02*
X19186D01*
Y50203*
X19321Y50221*
X19565Y50322*
X19775Y50483*
X19936Y50693*
X20037Y50937*
X20055Y51072*
G37*
G36*
X18932D02*
X18063D01*
X18081Y50937*
X18182Y50693*
X18343Y50483*
X18553Y50322*
X18797Y50221*
X18932Y50203*
Y51072*
G37*
G36*
X44861Y43772D02*
X43826D01*
Y43062*
X44455*
X44610Y43093*
X44742Y43181*
X44830Y43313*
X44861Y43468*
Y43772*
G37*
G36*
X31422Y43035D02*
X31411Y43032D01*
X31294Y42954*
X31216Y42837*
X31188Y42699*
Y42526*
X31422*
Y43035*
G37*
G36*
X40760Y42472D02*
X40176D01*
Y41838*
X40387*
X40529Y41866*
X40651Y41947*
X40732Y42068*
X40760Y42212*
Y42472*
G37*
G36*
X36099Y42010D02*
X35926D01*
Y41776*
X36435*
X36432Y41787*
X36354Y41904*
X36237Y41982*
X36099Y42010*
G37*
G36*
X53577Y44018D02*
X53405Y44001D01*
X53118Y43914*
X52853Y43772*
X52621Y43582*
X52431Y43350*
X52289Y43085*
X52202Y42798*
X52185Y42626*
X53577*
Y44018*
G37*
G36*
X43572Y43772D02*
X42537D01*
Y43468*
X42568Y43313*
X42656Y43181*
X42788Y43093*
X42943Y43062*
X43572*
Y43772*
G37*
G36*
X40387Y43360D02*
X40176D01*
Y42726*
X40760*
Y42986*
X40732Y43130*
X40651Y43251*
X40529Y43332*
X40387Y43360*
G37*
G36*
X53831Y44018D02*
Y42626D01*
X55223*
X55206Y42798*
X55119Y43085*
X54977Y43350*
X54787Y43582*
X54555Y43772*
X54290Y43914*
X54003Y44001*
X53831Y44018*
G37*
G36*
X39379Y52110D02*
X39143Y52079D01*
X38924Y51988*
X38735Y51843*
X38590Y51654*
X38499Y51435*
X38468Y51199*
X38499Y50963*
X38590Y50744*
X38735Y50555*
X38924Y50410*
X39143Y50319*
X39379Y50288*
X39615Y50319*
X39834Y50410*
X40023Y50555*
X40168Y50744*
X40259Y50963*
X40290Y51199*
X40259Y51435*
X40168Y51654*
X40023Y51843*
X39834Y51988*
X39615Y52079*
X39379Y52110*
G37*
G36*
X36839D02*
X36603Y52079D01*
X36384Y51988*
X36195Y51843*
X36050Y51654*
X35959Y51435*
X35928Y51199*
X35959Y50963*
X36050Y50744*
X36195Y50555*
X36384Y50410*
X36603Y50319*
X36839Y50288*
X37075Y50319*
X37294Y50410*
X37483Y50555*
X37628Y50744*
X37719Y50963*
X37750Y51199*
X37719Y51435*
X37628Y51654*
X37483Y51843*
X37294Y51988*
X37075Y52079*
X36839Y52110*
G37*
G36*
X34299D02*
X34063Y52079D01*
X33844Y51988*
X33655Y51843*
X33510Y51654*
X33419Y51435*
X33388Y51199*
X33419Y50963*
X33510Y50744*
X33655Y50555*
X33844Y50410*
X34063Y50319*
X34299Y50288*
X34535Y50319*
X34754Y50410*
X34943Y50555*
X35088Y50744*
X35179Y50963*
X35210Y51199*
X35179Y51435*
X35088Y51654*
X34943Y51843*
X34754Y51988*
X34535Y52079*
X34299Y52110*
G37*
G36*
X41919D02*
X41683Y52079D01*
X41464Y51988*
X41275Y51843*
X41130Y51654*
X41039Y51435*
X41008Y51199*
X41039Y50963*
X41130Y50744*
X41275Y50555*
X41464Y50410*
X41683Y50319*
X41919Y50288*
X42155Y50319*
X42374Y50410*
X42563Y50555*
X42708Y50744*
X42799Y50963*
X42830Y51199*
X42799Y51435*
X42708Y51654*
X42563Y51843*
X42374Y51988*
X42155Y52079*
X41919Y52110*
G37*
G36*
X49539D02*
X49303Y52079D01*
X49084Y51988*
X48895Y51843*
X48750Y51654*
X48659Y51435*
X48628Y51199*
X48659Y50963*
X48750Y50744*
X48895Y50555*
X49084Y50410*
X49303Y50319*
X49539Y50288*
X49775Y50319*
X49994Y50410*
X50183Y50555*
X50328Y50744*
X50419Y50963*
X50450Y51199*
X50419Y51435*
X50328Y51654*
X50183Y51843*
X49994Y51988*
X49775Y52079*
X49539Y52110*
G37*
G36*
X46999D02*
X46763Y52079D01*
X46544Y51988*
X46355Y51843*
X46210Y51654*
X46119Y51435*
X46088Y51199*
X46119Y50963*
X46210Y50744*
X46355Y50555*
X46544Y50410*
X46763Y50319*
X46999Y50288*
X47235Y50319*
X47454Y50410*
X47643Y50555*
X47788Y50744*
X47879Y50963*
X47910Y51199*
X47879Y51435*
X47788Y51654*
X47643Y51843*
X47454Y51988*
X47235Y52079*
X46999Y52110*
G37*
G36*
X44459D02*
X44223Y52079D01*
X44004Y51988*
X43815Y51843*
X43670Y51654*
X43579Y51435*
X43548Y51199*
X43579Y50963*
X43670Y50744*
X43815Y50555*
X44004Y50410*
X44223Y50319*
X44459Y50288*
X44695Y50319*
X44914Y50410*
X45103Y50555*
X45248Y50744*
X45339Y50963*
X45370Y51199*
X45339Y51435*
X45248Y51654*
X45103Y51843*
X44914Y51988*
X44695Y52079*
X44459Y52110*
G37*
G36*
X31759D02*
X31523Y52079D01*
X31304Y51988*
X31115Y51843*
X30970Y51654*
X30879Y51435*
X30848Y51199*
X30879Y50963*
X30970Y50744*
X31115Y50555*
X31304Y50410*
X31523Y50319*
X31759Y50288*
X31995Y50319*
X32214Y50410*
X32403Y50555*
X32548Y50744*
X32639Y50963*
X32670Y51199*
X32639Y51435*
X32548Y51654*
X32403Y51843*
X32214Y51988*
X31995Y52079*
X31759Y52110*
G37*
G36*
X16519D02*
X16283Y52079D01*
X16064Y51988*
X15875Y51843*
X15730Y51654*
X15639Y51435*
X15608Y51199*
X15639Y50963*
X15730Y50744*
X15875Y50555*
X16064Y50410*
X16283Y50319*
X16519Y50288*
X16755Y50319*
X16974Y50410*
X17163Y50555*
X17308Y50744*
X17399Y50963*
X17430Y51199*
X17399Y51435*
X17308Y51654*
X17163Y51843*
X16974Y51988*
X16755Y52079*
X16519Y52110*
G37*
G36*
X13979D02*
X13743Y52079D01*
X13524Y51988*
X13335Y51843*
X13190Y51654*
X13099Y51435*
X13068Y51199*
X13099Y50963*
X13190Y50744*
X13335Y50555*
X13524Y50410*
X13743Y50319*
X13979Y50288*
X14215Y50319*
X14434Y50410*
X14623Y50555*
X14768Y50744*
X14859Y50963*
X14890Y51199*
X14859Y51435*
X14768Y51654*
X14623Y51843*
X14434Y51988*
X14215Y52079*
X13979Y52110*
G37*
G36*
X11439D02*
X11203Y52079D01*
X10984Y51988*
X10795Y51843*
X10650Y51654*
X10559Y51435*
X10528Y51199*
X10559Y50963*
X10650Y50744*
X10795Y50555*
X10984Y50410*
X11203Y50319*
X11439Y50288*
X11675Y50319*
X11894Y50410*
X12083Y50555*
X12228Y50744*
X12319Y50963*
X12350Y51199*
X12319Y51435*
X12228Y51654*
X12083Y51843*
X11894Y51988*
X11675Y52079*
X11439Y52110*
G37*
G36*
X21599D02*
X21363Y52079D01*
X21144Y51988*
X20955Y51843*
X20810Y51654*
X20719Y51435*
X20688Y51199*
X20719Y50963*
X20810Y50744*
X20955Y50555*
X21144Y50410*
X21363Y50319*
X21599Y50288*
X21835Y50319*
X22054Y50410*
X22243Y50555*
X22388Y50744*
X22479Y50963*
X22510Y51199*
X22479Y51435*
X22388Y51654*
X22243Y51843*
X22054Y51988*
X21835Y52079*
X21599Y52110*
G37*
G36*
X29219D02*
X28983Y52079D01*
X28764Y51988*
X28575Y51843*
X28430Y51654*
X28339Y51435*
X28308Y51199*
X28339Y50963*
X28430Y50744*
X28575Y50555*
X28764Y50410*
X28983Y50319*
X29219Y50288*
X29455Y50319*
X29674Y50410*
X29863Y50555*
X30008Y50744*
X30099Y50963*
X30130Y51199*
X30099Y51435*
X30008Y51654*
X29863Y51843*
X29674Y51988*
X29455Y52079*
X29219Y52110*
G37*
G36*
X26679D02*
X26443Y52079D01*
X26224Y51988*
X26035Y51843*
X25890Y51654*
X25799Y51435*
X25768Y51199*
X25799Y50963*
X25890Y50744*
X26035Y50555*
X26224Y50410*
X26443Y50319*
X26679Y50288*
X26915Y50319*
X27134Y50410*
X27323Y50555*
X27468Y50744*
X27559Y50963*
X27590Y51199*
X27559Y51435*
X27468Y51654*
X27323Y51843*
X27134Y51988*
X26915Y52079*
X26679Y52110*
G37*
G36*
X24139D02*
X23903Y52079D01*
X23684Y51988*
X23495Y51843*
X23350Y51654*
X23259Y51435*
X23228Y51199*
X23259Y50963*
X23350Y50744*
X23495Y50555*
X23684Y50410*
X23903Y50319*
X24139Y50288*
X24375Y50319*
X24594Y50410*
X24783Y50555*
X24928Y50744*
X25019Y50963*
X25050Y51199*
X25019Y51435*
X24928Y51654*
X24783Y51843*
X24594Y51988*
X24375Y52079*
X24139Y52110*
G37*
%LNraspberryhatboard-3*%
%LPD*%
G54D10*
X59393Y55005D02*
D01*
X59225Y54811*
X59071Y54604*
X58932Y54388*
X58808Y54163*
X58700Y53929*
X58608Y53688*
X58534Y53442*
X58477Y53191*
X58437Y52936*
X58416Y52680*
X58412Y52422*
X58427Y52165*
X58459Y51910*
X58509Y51657*
X58576Y51409*
X58661Y51166*
X58762Y50929*
X58880Y50700*
X59013Y50480*
X59162Y50270*
X59324Y50070*
X59501Y49883*
X59689Y49708*
X59890Y49546*
X60101Y49399*
X60323Y49268*
X60552Y49152*
X60790Y49052*
X61033Y48969*
X61282Y48903*
X61535Y48855*
X61791Y48824*
X62048Y48812*
X62305Y48817*
X62562Y48840*
X62816Y48882*
X63066Y48940*
X63312Y49016*
X63552Y49110*
X63785Y49219*
X64010Y49345*
X64225Y49486*
X64335Y49567*
X6688Y1107D02*
D01*
X6841Y1315*
X6979Y1532*
X7102Y1758*
X7208Y1993*
X7298Y2234*
X7371Y2481*
X7426Y2732*
X7464Y2987*
X7484Y3243*
X7486Y3501*
X7470Y3758*
X7436Y4013*
X7384Y4265*
X7315Y4513*
X7229Y4755*
X7126Y4991*
X7007Y5220*
X6872Y5439*
X6722Y5648*
X6558Y5847*
X6381Y6033*
X6191Y6207*
X5989Y6367*
X5777Y6512*
X5555Y6643*
X5324Y6757*
X5087Y6855*
X4842Y6937*
X4593Y7001*
X4340Y7047*
X4084Y7076*
X3827Y7087*
X3570Y7080*
X3313Y7055*
X3060Y7012*
X2809Y6952*
X2564Y6874*
X2325Y6779*
X2092Y6668*
X1869Y6541*
X1654Y6399*
X1450Y6242*
X1258Y6071*
X1253Y6067*
X62397Y7075D02*
D01*
X62140Y7087*
X61883Y7081*
X61627Y7057*
X61373Y7015*
X61122Y6956*
X60877Y6879*
X60637Y6785*
X60404Y6675*
X60180Y6549*
X59965Y6407*
X59760Y6251*
X59567Y6081*
X59386Y5897*
X59219Y5702*
X59065Y5496*
X58926Y5279*
X58803Y5053*
X58695Y4819*
X58605Y4578*
X58531Y4331*
X58475Y4080*
X58436Y3826*
X58415Y3569*
X58412Y3312*
X58428Y3055*
X58461Y2799*
X58511Y2547*
X58580Y2299*
X58665Y2056*
X58767Y1820*
X58885Y1591*
X59019Y1371*
X59168Y1161*
X59210Y1107*
X2299Y17999D02*
D01*
X2234Y18004*
X2168Y18003*
X2102Y17998*
X2037Y17989*
X1973Y17975*
X1910Y17956*
X1848Y17933*
X1788Y17906*
X1730Y17875*
X1674Y17840*
X1621Y17801*
X1571Y17758*
X1524Y17712*
X1480Y17663*
X1440Y17611*
X1403Y17556*
X1371Y17498*
X1342Y17439*
X1318Y17378*
X1298Y17315*
X1282Y17251*
X1271Y17186*
X1265Y17121*
X1263Y17055*
X1264Y16997*
X1621Y49680D02*
D01*
X1824Y49521*
X2037Y49377*
X2260Y49248*
X2491Y49134*
X2729Y49037*
X2974Y48957*
X3223Y48894*
X3477Y48849*
X3733Y48821*
X3990Y48811*
X4247Y48820*
X4503Y48846*
X4757Y48890*
X5007Y48952*
X5252Y49031*
X5491Y49126*
X5722Y49239*
X5946Y49367*
X6159Y49510*
X6363Y49668*
X6554Y49840*
X6734Y50025*
X6900Y50221*
X7052Y50429*
X7189Y50647*
X7310Y50874*
X7415Y51109*
X7504Y51351*
X7576Y51598*
X7630Y51850*
X7666Y52104*
X7685Y52361*
X7686Y52619*
X7668Y52875*
X7633Y53130*
X7580Y53382*
X7510Y53630*
X7423Y53872*
X7318Y54108*
X7198Y54335*
X7062Y54554*
X6912Y54762*
X6799Y54899*
X28299Y40699D02*
X28849Y40149D01*
X28199Y38799D02*
X28299Y38899D01*
X28149Y36699D02*
X28199Y36749D01*
X34899Y46499D02*
X36499D01*
X34057Y42399D02*
Y43257D01*
X34899Y44099*
Y45102*
X33549Y42399D02*
Y43249D01*
X33099Y43699D02*
X33549Y43249D01*
X33099Y43699D02*
Y45102D01*
X32049Y42399D02*
Y43849D01*
X31199Y44699D02*
X32049Y43849D01*
X31199Y44699D02*
Y45102D01*
X29749Y39649D02*
X30799D01*
X28999Y38899D02*
X29749Y39649D01*
X28199Y36749D02*
Y38799D01*
X28299Y40699D02*
Y41099D01*
X28849Y40149D02*
X30799D01*
X28299Y38899D02*
X28999D01*
G54D11*
X5299Y18099D02*
D01*
X5369Y18102*
X5439Y18109*
X5507Y18121*
X5575Y18138*
X5642Y18160*
X5706Y18186*
X5769Y18217*
X5829Y18251*
X5887Y18290*
X5942Y18333*
X5994Y18380*
X6043Y18430*
X6087Y18484*
X6129Y18540*
X6166Y18599*
X6198Y18661*
X6227Y18725*
X6251Y18790*
X6270Y18858*
X6284Y18926*
X6294Y18995*
X6299Y19065*
X6299Y19099*
Y36099D02*
D01*
X6297Y36169*
X6290Y36239*
X6278Y36307*
X6261Y36375*
X6239Y36442*
X6213Y36506*
X6182Y36569*
X6148Y36629*
X6109Y36687*
X6066Y36742*
X6019Y36794*
X5969Y36843*
X5915Y36887*
X5859Y36929*
X5799Y36966*
X5738Y36998*
X5674Y37027*
X5609Y37051*
X5541Y37070*
X5473Y37084*
X5404Y37094*
X5334Y37099*
X5299Y37099*
G54D12*
X29199Y18977D03*
Y16945D03*
X26999Y19445D03*
Y21477D03*
X40999Y19521D03*
Y21553D03*
X38399Y16745D03*
Y18777D03*
X29399Y21721D03*
Y23753D03*
X30199Y30499D03*
Y28467D03*
X32799D03*
Y30499D03*
X35399Y30453D03*
Y28421D03*
X37999D03*
Y30453D03*
X35799Y23753D03*
Y21721D03*
X32099D03*
Y23753D03*
X38399Y23653D03*
Y21621D03*
G54D13*
X31199Y45102D03*
Y46499D03*
X33099D03*
Y45102D03*
X34899D03*
Y46499D03*
X28499Y44899D03*
Y43502D03*
G54D14*
X39896Y38999D03*
X38499D03*
X38447Y37405D03*
X39844D03*
X39796Y40799D03*
X38399D03*
G54D15*
X54499Y5199D03*
X48899D03*
X48799Y28199D03*
X54399D03*
G54D16*
X44349Y12799D03*
X45849D03*
X44349Y20299D03*
X45849D03*
G54D17*
X49199Y35449D03*
X51799Y37349D03*
Y36399D03*
Y35449D03*
X49199Y37349D03*
X19699Y32149D03*
X17099Y30249D03*
Y31199D03*
Y32149D03*
X19699Y30249D03*
G54D18*
X44199Y35399D03*
Y38399D03*
X22899Y34799D03*
Y31799D03*
G54D19*
X14499Y30299D03*
Y32099D03*
X29499Y32999D03*
Y34799D03*
X54399Y37399D03*
Y35599D03*
G54D20*
X36299Y13299D03*
Y11299D03*
X31899Y13399D03*
Y11399D03*
G54D21*
X26999Y33149D03*
Y34849D03*
G54D22*
X28149Y36699D03*
X26449D03*
X31949Y26099D03*
X30249D03*
X37749D03*
X36049D03*
X38349Y42599D03*
X40049D03*
G54D23*
X27899Y38899D03*
X26099D03*
X27899Y41099D03*
X26099D03*
G54D24*
X43699Y43899D03*
Y40899D03*
G54D25*
X25299Y29199D03*
X22299D03*
G54D26*
X33799Y17499D03*
G54D27*
X34799Y15599D03*
X34299D03*
X33799D03*
X33299D03*
X32799D03*
Y19399D03*
X33299D03*
X33799D03*
X34299D03*
X34799D03*
X31549Y37399D03*
X32049D03*
X32549D03*
X33049D03*
X33549D03*
X34049D03*
X34549D03*
X35049D03*
Y42399D03*
X34549D03*
X34049D03*
X33549D03*
X33049D03*
X32549D03*
X32049D03*
X31549D03*
G54D28*
X31899Y16749D03*
Y18249D03*
X35699D03*
Y16749D03*
X30799Y41649D03*
Y41149D03*
Y40649D03*
Y40149D03*
Y39649D03*
Y39149D03*
Y38649D03*
Y38149D03*
X35799D03*
Y38649D03*
Y39149D03*
Y39649D03*
Y40149D03*
Y40649D03*
Y41149D03*
Y41649D03*
G54D29*
X33299Y39899D03*
G54D30*
X29200Y41804D02*
X29294D01*
X29699Y37774D02*
Y38295D01*
X29299Y37374D02*
X29699Y37774D01*
X29299Y37099D02*
Y37374D01*
X30574Y36399D02*
X31199D01*
X29499Y35324D02*
X30574Y36399D01*
X29499Y34799D02*
Y35324D01*
X36949Y39649D02*
X37024Y39724D01*
X35799Y39649D02*
X36949D01*
X38399Y40474D02*
Y40799D01*
X37749Y39824D02*
X38399Y40474D01*
X37749Y39624D02*
Y39824D01*
X37124Y38999D02*
X37749Y39624D01*
X36674Y38999D02*
X37124D01*
X36524Y39149D02*
X36674Y38999D01*
X35799Y39149D02*
X36524D01*
X35799Y40149D02*
X36449D01*
X37099Y40799*
X37759Y38999D02*
X38499D01*
X37409Y38649D02*
X37759Y38999D01*
X35799Y38649D02*
X37409D01*
X35649Y35324D02*
Y36124D01*
X35549Y36224D02*
X35649Y36124D01*
X35099Y36224D02*
X35549D01*
X34549Y36774D02*
X35099Y36224D01*
X34549Y36774D02*
Y37399D01*
X35174Y36674D02*
X37499D01*
X35049Y36799D02*
Y37399D01*
Y36799D02*
X35174Y36674D01*
X38274Y34774D02*
Y35899D01*
X37499Y36674D02*
X38274Y35899D01*
X32549Y32978D02*
Y37399D01*
X31499Y31928D02*
X32549Y32978D01*
X35399Y30453D02*
X35445Y30499D01*
X36399D02*
X36599Y30699D01*
X31799Y30499D02*
X32799D01*
X31499Y30799D02*
X31799Y30499D01*
X31499Y30799D02*
D01*
Y31928D01*
X37999Y30453D02*
Y31199D01*
X33520Y35678D02*
X37999Y31199D01*
X33520Y35678D02*
Y37370D01*
X33549Y37399*
X30199Y30499D02*
Y31199D01*
X32049Y33049*
Y37399*
X26999Y34849D02*
X27049Y34799D01*
X31199Y36399D02*
X31549Y36749D01*
Y37399*
X34049Y36149D02*
X34099Y36099D01*
X34049Y36149D02*
Y37399D01*
X29699Y36499D02*
X30099Y36899D01*
Y37805*
X30103Y37809*
Y37999*
X30253Y38149*
X29699Y38295D02*
X30053Y38649D01*
X28999Y38099D02*
Y38199D01*
X29949Y39149*
X37493Y37405D02*
X38447D01*
X36749Y38149D02*
X37493Y37405D01*
X37099Y42399D02*
X37299Y42599D01*
X37099Y40799D02*
Y42399D01*
X29399Y44899D02*
X29599Y44699D01*
Y42344D02*
Y44699D01*
X29294Y41804D02*
X29949Y41149D01*
X30799*
X29399Y40799D02*
X29549Y40649D01*
X29599Y42344D02*
X30294Y41649D01*
X34549Y42399D02*
Y42949D01*
X35299Y43699*
X32099Y20899D02*
X32799Y20199D01*
Y19399D02*
Y20199D01*
Y14899D02*
Y15599D01*
X34799Y19399D02*
Y19999D01*
X35199Y20399*
X35699D02*
X35799Y20499D01*
Y20899*
X36849Y18249D02*
X36899Y18199D01*
X36999Y20899D02*
Y21199D01*
X37421Y21621*
X33299Y14499D02*
Y15599D01*
X34299Y14499D02*
Y15599D01*
Y14499D02*
D01*
X30799Y16699D02*
X30849Y16749D01*
X32699Y14799D02*
X32799Y14899D01*
X36099Y13599D02*
X36299Y13399D01*
X34878Y14699D02*
X35078Y14499D01*
X34878Y14699D02*
Y14739D01*
X34799Y14818D02*
X34878Y14739D01*
X34799Y14818D02*
Y15599D01*
X35799Y14499D02*
X36099Y14199D01*
Y13599D02*
Y14199D01*
X32574Y14672D02*
X32799Y14897D01*
X31899Y13399D02*
Y14199D01*
X32099Y14399*
X32301D02*
X32574Y14672D01*
X36749Y16749D02*
X36799Y16699D01*
X30799Y18499D02*
X31049Y18249D01*
X30799Y18499D02*
Y19299D01*
X36457Y40649D02*
Y41057D01*
X36365Y41149D02*
X36457Y41057D01*
X33049Y35549D02*
Y37399D01*
Y35549D02*
X36599Y31999D01*
Y30699D02*
Y31999D01*
X28999Y36799D02*
X29299Y37099D01*
X28999Y35899D02*
Y36799D01*
X28699Y35599D02*
X28999Y35899D01*
X37421Y21621D02*
X38399D01*
X37299Y42599D02*
X38349D01*
X35445Y30499D02*
X36399D01*
X35199Y20399D02*
X35699D01*
Y18249D02*
X36849D01*
X35699Y16749D02*
X36749D01*
X35078Y14499D02*
X35799D01*
X29549Y40649D02*
X30799D01*
X31049Y18249D02*
X31899D01*
X30849Y16749D02*
X31899D01*
X35799Y41149D02*
X36365D01*
X35799Y40649D02*
X36457D01*
X35799Y38149D02*
X36749D01*
X35299Y43699D02*
X35599D01*
X32099Y14399D02*
X32301D01*
X30294Y41649D02*
X30799D01*
X29949Y39149D02*
X30799D01*
X30053Y38649D02*
X30799D01*
X30253Y38149D02*
X30799D01*
X28499Y44899D02*
X29399D01*
X28199Y35599D02*
X28699D01*
G54D31*
X43199Y27999D02*
X48299D01*
X27049Y34799D02*
X29499D01*
G54D32*
X22899Y31799D02*
X22999Y31699D01*
X17099Y28399D02*
Y30249D01*
Y28399D02*
X17394Y28104D01*
Y22899D02*
Y28104D01*
X49199Y37349D02*
Y39899D01*
X48199Y40899D02*
X49199Y39899D01*
X46899Y35799D02*
X47249Y35449D01*
X46899Y35799D02*
Y37699D01*
X46199Y38399D02*
X46899Y37699D01*
X39844Y37405D02*
Y38947D01*
X39896Y38999*
X41199D02*
X41799Y38399D01*
X44199*
X51799Y35449D02*
X54249D01*
X54399Y35599*
X52699Y36399D02*
X53699Y37399D01*
X54399*
X14499Y32099D02*
X17049D01*
X19699Y30249D02*
X19899Y30049D01*
Y29299D02*
Y30049D01*
Y29299D02*
X19999Y29199D01*
X20149Y32149D02*
X20499Y31799D01*
X22899*
X30199Y24699D02*
Y28467D01*
X31949Y26099D02*
X32699Y26849D01*
Y28367*
X32799Y28467*
X35399Y27199D02*
Y28421D01*
Y27199D02*
X36049Y26549D01*
Y26099D02*
Y26549D01*
X37749Y26099D02*
Y26949D01*
X37999Y27199*
Y28421*
X37749Y25149D02*
Y26099D01*
Y25149D02*
X38399Y24499D01*
Y23653D02*
Y24499D01*
X35799Y23753D02*
Y24799D01*
X36049Y25049*
Y26099*
X32099Y23753D02*
Y25949D01*
X31949Y26099D02*
X32099Y25949D01*
X29399Y23753D02*
Y23899D01*
X30199Y24699*
X29199Y15499D02*
Y16945D01*
X38399Y21621D02*
X40931D01*
X40999Y21553*
X36799Y14599D02*
Y16699D01*
X37799Y13299D02*
X38399Y13899D01*
Y16745*
X29199Y14099D02*
X29899Y13399D01*
X29199Y14099D02*
Y15499D01*
X29399Y21721D02*
X30577D01*
X30699Y21599*
X29043Y21477D02*
X29343Y21777D01*
X43899Y18499D02*
X44349Y18949D01*
Y20299*
X51389D02*
X51399Y20309D01*
X51289Y12799D02*
X51399Y12689D01*
X42799Y12599D02*
X42999Y12799D01*
X44349*
X27899Y41099D02*
Y42099D01*
X28499Y42699*
Y43502*
X39896Y38999D02*
X40999D01*
X41599Y39599*
Y43899*
X41299Y44199D02*
X41599Y43899D01*
X40999Y38999D02*
X41199D01*
X26899Y43799D02*
Y44399D01*
Y43799D02*
X27196Y43502D01*
X27899Y38899D02*
Y41099D01*
X22999Y31699D02*
X25199D01*
X37099Y44199D02*
X41299D01*
X47249Y35449D02*
X49199D01*
X45849Y20299D02*
X51389D01*
X45849Y12799D02*
X51289D01*
X36299Y13299D02*
X37799D01*
X26999Y21477D02*
X29043D01*
X29899Y13399D02*
X31899D01*
X51799Y36399D02*
X52699D01*
X43699Y40899D02*
X48199D01*
X44199Y38399D02*
X46199D01*
X41999Y18499D02*
X43899D01*
X41699Y12599D02*
X42799D01*
X27196Y43502D02*
X28499D01*
X19999Y29199D02*
X22299D01*
X19699Y32149D02*
X20149D01*
G54D33*
X51749Y37299D02*
Y39749D01*
X50399Y41099D02*
X51749Y39749D01*
X50399Y41099D02*
Y41994D01*
X49894Y42499D02*
X50399Y41994D01*
X50899Y37299D02*
X51749D01*
X50699Y37099D02*
X50899Y37299D01*
X50699Y35699D02*
Y37099D01*
Y35699D02*
X50949Y35449D01*
X17949Y30249D02*
X18299Y30599D01*
Y31699*
X17899Y32099D02*
X18299Y31699D01*
X29199Y18977D02*
X29399Y19177D01*
Y19899*
X29699Y20199*
X31599D02*
X32099Y20699D01*
Y20899*
Y21721*
X38399Y18777D02*
Y19699D01*
X37899Y20199D02*
X38399Y19699D01*
X35799Y20899D02*
X36499Y20199D01*
X35799Y20899D02*
Y21721D01*
X36499Y20199D02*
X37899D01*
X29699D02*
X31599D01*
X17049Y32099D02*
X17899D01*
X17099Y30249D02*
X17949D01*
X50949Y35449D02*
X51799D01*
G54D34*
X51699Y49499D02*
X52079Y49879D01*
X32999Y49499D02*
X51699D01*
X31199Y47699D02*
X32999Y49499D01*
X54759Y53739D02*
X55999Y52499D01*
Y51786D02*
Y52499D01*
X55955Y51742D02*
X55999Y51786D01*
X55955Y50255D02*
Y51742D01*
X53599Y47899D02*
X55955Y50255D01*
X33799Y47899D02*
X53599D01*
X33099Y47199D02*
X33799Y47899D01*
X33099Y46499D02*
Y47199D01*
X52079Y49879D02*
Y51199D01*
X31199Y46499D02*
Y47699D01*
X54619Y53739D02*
X54759D01*
G54D35*
X36299Y5499D02*
Y9399D01*
X31899Y5499D02*
Y9399D01*
G54D36*
X31899Y9399D02*
Y11399D01*
X36299Y9499D02*
Y11299D01*
G54D37*
X48099Y7399D02*
X48899Y6599D01*
Y5199D02*
Y6599D01*
X45899Y7399D02*
X48099D01*
G54D38*
X39289Y35819D03*
G54D39*
X51399Y20309D03*
G54D40*
X51399Y16499D03*
Y12689D03*
X21204Y22899D03*
X53704Y42499D03*
G54D41*
X57159Y53739D03*
Y51199D03*
X54619Y53739D03*
Y51199D03*
X52079Y53739D03*
Y51199D03*
X49539Y53739D03*
Y51199D03*
X46999Y53739D03*
Y51199D03*
X44459Y53739D03*
Y51199D03*
X41919Y53739D03*
Y51199D03*
X39379Y53739D03*
Y51199D03*
X36839Y53739D03*
Y51199D03*
X34299Y53739D03*
Y51199D03*
X31759Y53739D03*
Y51199D03*
X29219Y53739D03*
Y51199D03*
X26679Y53739D03*
Y51199D03*
X24139Y53739D03*
Y51199D03*
X21599Y53739D03*
Y51199D03*
X19059Y53739D03*
Y51199D03*
X16519Y53739D03*
Y51199D03*
X13979Y53739D03*
Y51199D03*
X11439Y53739D03*
Y51199D03*
X8899Y53739D03*
G54D42*
X8899Y51199D03*
G54D43*
X3999Y3499D03*
X61999D03*
Y52499D03*
X3999D03*
G54D44*
X17394Y22899D03*
X49894Y42499D03*
G54D45*
X37024Y39724D03*
X45899Y7374D03*
X30699Y21599D03*
X30799Y19299D03*
Y16699D03*
X41699Y12599D03*
X33299Y14499D03*
X34299D03*
X36799Y14599D03*
X42024Y18524D03*
X36899Y18199D03*
X36999Y20899D03*
X43224Y28049D03*
X25199Y31699D03*
X28099Y33099D03*
X28199Y35624D03*
X38274Y34774D03*
X34149Y36099D03*
X29699Y36499D03*
X28999Y38099D03*
X28899Y40099D03*
X29399Y40799D03*
X29174Y41824D03*
X26924Y44399D03*
X35624Y43699D03*
X37099Y44199D03*
X36499Y46499D03*
X33249Y18049D03*
X34349D03*
X33249Y16949D03*
X34349D03*
X32199Y40999D03*
X33299D03*
X34399D03*
X32199Y39899D03*
X33299D03*
X34399D03*
X32199Y38799D03*
X33299D03*
X34399D03*
M02*