%FSLAX23Y23*%
%MOMM*%
%SFA1B1*%

%IPPOS*%
%ADD9500C,0.299999*%
%ADD9501C,0.339999*%
%ADD9502C,0.899998*%
%ADD9503C,1.320997*%
%ADD9504C,2.999994*%
%LNraspberryhatboard-roundholes-1*%
%LPD*%
G54D9500*
X33249Y16949D03*
Y18049D03*
X34349D03*
Y16949D03*
X34399Y38799D03*
Y39899D03*
Y40999D03*
X33299D03*
X32199D03*
Y39899D03*
X33299D03*
Y38799D03*
X32199D03*
G54D9501*
X45899Y7374D03*
X41699Y12599D03*
X42024Y18524D03*
X36899Y18199D03*
X36999Y20899D03*
X36799Y14599D03*
X34299Y14499D03*
X33299D03*
X30799Y16699D03*
Y19299D03*
X30699Y21599D03*
X28099Y33099D03*
X28199Y35624D03*
X29699Y36499D03*
X28999Y38099D03*
X28899Y40099D03*
X29399Y40799D03*
X29174Y41824D03*
X37024Y39724D03*
X38274Y34774D03*
X34149Y36099D03*
X25199Y31699D03*
X43224Y28049D03*
X37099Y44199D03*
X35624Y43699D03*
X36499Y46499D03*
X26924Y44399D03*
G54D9502*
X8899Y51199D03*
X11439D03*
X13979D03*
X16519D03*
X19059D03*
X21599D03*
X24139D03*
X26679D03*
X29219D03*
X31759D03*
X34299D03*
X36839D03*
X39379D03*
X41919D03*
X44459D03*
Y53739D03*
X41919D03*
X39379D03*
X36839D03*
X34299D03*
X31759D03*
X29219D03*
X26679D03*
X24139D03*
X21599D03*
X19059D03*
X16519D03*
X13979D03*
X11439D03*
X8899D03*
X46999D03*
X49539D03*
X52079D03*
X54619D03*
X57159D03*
Y51199D03*
X54619D03*
X52079D03*
X49539D03*
X46999D03*
G54D9503*
X51399Y12689D03*
Y16499D03*
Y20309D03*
X21204Y22899D03*
X17394D03*
X49894Y42499D03*
X53704D03*
G54D9504*
X61999Y3499D03*
X3999D03*
Y52499D03*
X61999D03*
M02*