%FSLAX23Y23*%
%MOMM*%
%SFA1B1*%

%IPPOS*%
%AMD15*
4,1,8,-1.549400,-0.800100,1.549400,-0.800100,1.750060,-0.599440,1.750060,0.599440,1.549400,0.800100,-1.549400,0.800100,-1.750060,0.599440,-1.750060,-0.599440,-1.549400,-0.800100,0.0*
1,1,0.400000,-1.549400,-0.599440*
1,1,0.400000,1.549400,-0.599440*
1,1,0.400000,1.549400,0.599440*
1,1,0.400000,-1.549400,0.599440*
%
%AMD16*
4,1,8,-0.299720,-0.398780,0.299720,-0.398780,0.398780,-0.299720,0.398780,0.299720,0.299720,0.398780,-0.299720,0.398780,-0.398780,0.299720,-0.398780,-0.299720,-0.299720,-0.398780,0.0*
1,1,0.200000,-0.299720,-0.299720*
1,1,0.200000,0.299720,-0.299720*
1,1,0.200000,0.299720,0.299720*
1,1,0.200000,-0.299720,0.299720*
%
%AMD17*
4,1,8,-0.500380,0.226060,-0.500380,-0.226060,-0.424180,-0.299720,0.424180,-0.299720,0.500380,-0.226060,0.500380,0.226060,0.424180,0.299720,-0.424180,0.299720,-0.500380,0.226060,0.0*
1,1,0.150000,-0.424180,0.226060*
1,1,0.150000,-0.424180,-0.226060*
1,1,0.150000,0.424180,-0.226060*
1,1,0.150000,0.424180,0.226060*
%
%AMD18*
4,1,8,1.206500,0.574040,-1.206500,0.574040,-1.348740,0.431800,-1.348740,-0.431800,-1.206500,-0.574040,1.206500,-0.574040,1.348740,-0.431800,1.348740,0.431800,1.206500,0.574040,0.0*
1,1,0.288000,1.206500,0.431800*
1,1,0.288000,-1.206500,0.431800*
1,1,0.288000,-1.206500,-0.431800*
1,1,0.288000,1.206500,-0.431800*
%
%AMD19*
4,1,8,0.574040,0.500380,-0.574040,0.500380,-0.701040,0.375920,-0.701040,-0.375920,-0.574040,-0.500380,0.574040,-0.500380,0.701040,-0.375920,0.701040,0.375920,0.574040,0.500380,0.0*
1,1,0.250000,0.574040,0.375920*
1,1,0.250000,-0.574040,0.375920*
1,1,0.250000,-0.574040,-0.375920*
1,1,0.250000,0.574040,-0.375920*
%
%AMD20*
4,1,8,0.551180,0.398780,-0.551180,0.398780,-0.650240,0.299720,-0.650240,-0.299720,-0.551180,-0.398780,0.551180,-0.398780,0.650240,-0.299720,0.650240,0.299720,0.551180,0.398780,0.0*
1,1,0.200000,0.551180,0.299720*
1,1,0.200000,-0.551180,0.299720*
1,1,0.200000,-0.551180,-0.299720*
1,1,0.200000,0.551180,-0.299720*
%
%AMD21*
4,1,8,0.386080,0.449580,-0.386080,0.449580,-0.500380,0.337820,-0.500380,-0.337820,-0.386080,-0.449580,0.386080,-0.449580,0.500380,-0.337820,0.500380,0.337820,0.386080,0.449580,0.0*
1,1,0.226000,0.386080,0.337820*
1,1,0.226000,-0.386080,0.337820*
1,1,0.226000,-0.386080,-0.337820*
1,1,0.226000,0.386080,-0.337820*
%
%AMD22*
4,1,8,-0.449580,0.386080,-0.449580,-0.386080,-0.337820,-0.500380,0.337820,-0.500380,0.449580,-0.386080,0.449580,0.386080,0.337820,0.500380,-0.337820,0.500380,-0.449580,0.386080,0.0*
1,1,0.226000,-0.337820,0.386080*
1,1,0.226000,-0.337820,-0.386080*
1,1,0.226000,0.337820,-0.386080*
1,1,0.226000,0.337820,0.386080*
%
%AMD23*
4,1,8,-0.500380,0.574040,-0.500380,-0.574040,-0.375920,-0.701040,0.375920,-0.701040,0.500380,-0.574040,0.500380,0.574040,0.375920,0.701040,-0.375920,0.701040,-0.500380,0.574040,0.0*
1,1,0.250000,-0.375920,0.574040*
1,1,0.250000,-0.375920,-0.574040*
1,1,0.250000,0.375920,-0.574040*
1,1,0.250000,0.375920,0.574040*
%
%AMD24*
4,1,8,-0.756920,-0.574040,0.756920,-0.574040,0.899160,-0.431800,0.899160,0.431800,0.756920,0.574040,-0.756920,0.574040,-0.899160,0.431800,-0.899160,-0.431800,-0.756920,-0.574040,0.0*
1,1,0.288000,-0.756920,-0.431800*
1,1,0.288000,0.756920,-0.431800*
1,1,0.288000,0.756920,0.431800*
1,1,0.288000,-0.756920,0.431800*
%
%AMD25*
4,1,8,-0.574040,0.756920,-0.574040,-0.756920,-0.431800,-0.899160,0.431800,-0.899160,0.574040,-0.756920,0.574040,0.756920,0.431800,0.899160,-0.431800,0.899160,-0.574040,0.756920,0.0*
1,1,0.288000,-0.431800,0.756920*
1,1,0.288000,-0.431800,-0.756920*
1,1,0.288000,0.431800,-0.756920*
1,1,0.288000,0.431800,0.756920*
%
%ADD12R,1.269997X1.015998*%
%ADD13R,0.761998X0.761998*%
%ADD14R,0.761998X0.761998*%
G04~CAMADD=15~8~0.0~0.0~1378.0~629.9~78.7~0.0~15~0.0~0.0~0.0~0.0~0~0.0~0.0~0.0~0.0~0~0.0~0.0~0.0~180.0~1378.0~630.0*
%ADD15D15*%
G04~CAMADD=16~8~0.0~0.0~315.0~315.0~39.4~0.0~15~0.0~0.0~0.0~0.0~0~0.0~0.0~0.0~0.0~0~0.0~0.0~0.0~180.0~314.0~314.0*
%ADD16D16*%
G04~CAMADD=17~8~0.0~0.0~236.2~393.7~29.5~0.0~15~0.0~0.0~0.0~0.0~0~0.0~0.0~0.0~0.0~0~0.0~0.0~0.0~90.0~394.0~236.0*
%ADD17D17*%
G04~CAMADD=18~8~0.0~0.0~1063.0~452.8~56.7~0.0~15~0.0~0.0~0.0~0.0~0~0.0~0.0~0.0~0.0~0~0.0~0.0~0.0~0.0~1063.0~452.8*
%ADD18D18*%
G04~CAMADD=19~8~0.0~0.0~551.2~393.7~49.2~0.0~15~0.0~0.0~0.0~0.0~0~0.0~0.0~0.0~0.0~0~0.0~0.0~0.0~0.0~551.2~393.7*
%ADD19D19*%
G04~CAMADD=20~8~0.0~0.0~511.8~315.0~39.4~0.0~15~0.0~0.0~0.0~0.0~0~0.0~0.0~0.0~0.0~0~0.0~0.0~0.0~0.0~511.8~315.0*
%ADD20D20*%
G04~CAMADD=21~8~0.0~0.0~393.7~354.3~44.5~0.0~15~0.0~0.0~0.0~0.0~0~0.0~0.0~0.0~0.0~0~0.0~0.0~0.0~0.0~393.7~354.3*
%ADD21D21*%
G04~CAMADD=22~8~0.0~0.0~393.7~354.3~44.5~0.0~15~0.0~0.0~0.0~0.0~0~0.0~0.0~0.0~0.0~0~0.0~0.0~0.0~90.0~354.0~394.0*
%ADD22D22*%
G04~CAMADD=23~8~0.0~0.0~551.2~393.7~49.2~0.0~15~0.0~0.0~0.0~0.0~0~0.0~0.0~0.0~0.0~0~0.0~0.0~0.0~90.0~394.0~552.0*
%ADD23D23*%
G04~CAMADD=24~8~0.0~0.0~708.7~452.8~56.7~0.0~15~0.0~0.0~0.0~0.0~0~0.0~0.0~0.0~0.0~0~0.0~0.0~0.0~180.0~708.0~452.0*
%ADD24D24*%
G04~CAMADD=25~8~0.0~0.0~708.7~452.8~56.7~0.0~15~0.0~0.0~0.0~0.0~0~0.0~0.0~0.0~0.0~0~0.0~0.0~0.0~90.0~452.0~708.0*
%ADD25D25*%
%ADD26R,2.299995X2.299995*%
%ADD27O,0.200000X0.799998*%
%ADD28O,0.799998X0.200000*%
%ADD29R,3.499993X3.499993*%
%LNraspberryhatboard-1*%
%LPD*%
G36*
X30499Y3899D02*
X37699D01*
Y9099*
X39399*
X39499Y1899*
X28799*
Y9199*
X30499*
Y3899*
G37*
G54D12*
X29199Y18977D03*
Y16945D03*
X26999Y19445D03*
Y21477D03*
X40999Y19521D03*
Y21553D03*
X38399Y16745D03*
Y18777D03*
X29399Y21721D03*
Y23753D03*
X30199Y30499D03*
Y28467D03*
X32799D03*
Y30499D03*
X35399Y30453D03*
Y28421D03*
X37999D03*
Y30453D03*
X35799Y23753D03*
Y21721D03*
X32099D03*
Y23753D03*
X38399Y23653D03*
Y21621D03*
G54D13*
X31199Y45102D03*
Y46499D03*
X33099D03*
Y45102D03*
X34899D03*
Y46499D03*
X28499Y44899D03*
Y43502D03*
G54D14*
X39896Y38999D03*
X38499D03*
X38447Y37405D03*
X39844D03*
X39796Y40799D03*
X38399D03*
G54D15*
X54499Y5199D03*
X48899D03*
X48799Y28199D03*
X54399D03*
G54D16*
X44349Y12799D03*
X45849D03*
X44349Y20299D03*
X45849D03*
G54D17*
X49199Y35449D03*
X51799Y37349D03*
Y36399D03*
Y35449D03*
X49199Y37349D03*
X19699Y32149D03*
X17099Y30249D03*
Y31199D03*
Y32149D03*
X19699Y30249D03*
G54D18*
X44199Y35399D03*
Y38399D03*
X22899Y34799D03*
Y31799D03*
G54D19*
X14499Y30299D03*
Y32099D03*
X29499Y32999D03*
Y34799D03*
X54399Y37399D03*
Y35599D03*
G54D20*
X36299Y13299D03*
Y11299D03*
X31899Y13399D03*
Y11399D03*
G54D21*
X26999Y33149D03*
Y34849D03*
G54D22*
X28149Y36699D03*
X26449D03*
X31949Y26099D03*
X30249D03*
X37749D03*
X36049D03*
X38349Y42599D03*
X40049D03*
G54D23*
X27899Y38899D03*
X26099D03*
X27899Y41099D03*
X26099D03*
G54D24*
X43699Y43899D03*
Y40899D03*
G54D25*
X25299Y29199D03*
X22299D03*
G54D26*
X33799Y17499D03*
G54D27*
X34799Y15599D03*
X34299D03*
X33799D03*
X33299D03*
X32799D03*
Y19399D03*
X33299D03*
X33799D03*
X34299D03*
X34799D03*
X31549Y37399D03*
X32049D03*
X32549D03*
X33049D03*
X33549D03*
X34049D03*
X34549D03*
X35049D03*
Y42399D03*
X34549D03*
X34049D03*
X33549D03*
X33049D03*
X32549D03*
X32049D03*
X31549D03*
G54D28*
X31899Y16749D03*
Y18249D03*
X35699D03*
Y16749D03*
X30799Y41649D03*
Y41149D03*
Y40649D03*
Y40149D03*
Y39649D03*
Y39149D03*
Y38649D03*
Y38149D03*
X35799D03*
Y38649D03*
Y39149D03*
Y39649D03*
Y40149D03*
Y40649D03*
Y41149D03*
Y41649D03*
G54D29*
X33299Y39899D03*
M02*