%FSLAX23Y23*%
%MOMM*%
%SFA1B1*%

%IPPOS*%
%AMD55*
4,1,8,-1.549400,-0.901700,1.549400,-0.901700,1.851660,-0.599440,1.851660,0.599440,1.549400,0.901700,-1.549400,0.901700,-1.851660,0.599440,-1.851660,-0.599440,-1.549400,-0.901700,0.0*
1,1,0.604000,-1.549400,-0.599440*
1,1,0.604000,1.549400,-0.599440*
1,1,0.604000,1.549400,0.599440*
1,1,0.604000,-1.549400,0.599440*
%
%AMD56*
4,1,8,-0.299720,-0.500380,0.299720,-0.500380,0.500380,-0.299720,0.500380,0.299720,0.299720,0.500380,-0.299720,0.500380,-0.500380,0.299720,-0.500380,-0.299720,-0.299720,-0.500380,0.0*
1,1,0.404000,-0.299720,-0.299720*
1,1,0.404000,0.299720,-0.299720*
1,1,0.404000,0.299720,0.299720*
1,1,0.404000,-0.299720,0.299720*
%
%AMD57*
4,1,8,-0.601980,0.223520,-0.601980,-0.223520,-0.424180,-0.401320,0.424180,-0.401320,0.601980,-0.223520,0.601980,0.223520,0.424180,0.401320,-0.424180,0.401320,-0.601980,0.223520,0.0*
1,1,0.354000,-0.424180,0.223520*
1,1,0.354000,-0.424180,-0.223520*
1,1,0.354000,0.424180,-0.223520*
1,1,0.354000,0.424180,0.223520*
%
%AMD58*
4,1,8,1.206500,0.675640,-1.206500,0.675640,-1.450340,0.431800,-1.450340,-0.431800,-1.206500,-0.675640,1.206500,-0.675640,1.450340,-0.431800,1.450340,0.431800,1.206500,0.675640,0.0*
1,1,0.490000,1.206500,0.431800*
1,1,0.490000,-1.206500,0.431800*
1,1,0.490000,-1.206500,-0.431800*
1,1,0.490000,1.206500,-0.431800*
%
%AMD59*
4,1,8,0.574040,0.601980,-0.574040,0.601980,-0.802640,0.373380,-0.802640,-0.373380,-0.574040,-0.601980,0.574040,-0.601980,0.802640,-0.373380,0.802640,0.373380,0.574040,0.601980,0.0*
1,1,0.454000,0.574040,0.373380*
1,1,0.454000,-0.574040,0.373380*
1,1,0.454000,-0.574040,-0.373380*
1,1,0.454000,0.574040,-0.373380*
%
%AMD60*
4,1,8,0.548640,0.500380,-0.548640,0.500380,-0.751840,0.299720,-0.751840,-0.299720,-0.548640,-0.500380,0.548640,-0.500380,0.751840,-0.299720,0.751840,0.299720,0.548640,0.500380,0.0*
1,1,0.404000,0.548640,0.299720*
1,1,0.404000,-0.548640,0.299720*
1,1,0.404000,-0.548640,-0.299720*
1,1,0.404000,0.548640,-0.299720*
%
%AMD61*
4,1,8,0.388620,0.551180,-0.388620,0.551180,-0.601980,0.337820,-0.601980,-0.337820,-0.388620,-0.551180,0.388620,-0.551180,0.601980,-0.337820,0.601980,0.337820,0.388620,0.551180,0.0*
1,1,0.428000,0.388620,0.337820*
1,1,0.428000,-0.388620,0.337820*
1,1,0.428000,-0.388620,-0.337820*
1,1,0.428000,0.388620,-0.337820*
%
%AMD62*
4,1,8,-0.551180,0.388620,-0.551180,-0.388620,-0.337820,-0.601980,0.337820,-0.601980,0.551180,-0.388620,0.551180,0.388620,0.337820,0.601980,-0.337820,0.601980,-0.551180,0.388620,0.0*
1,1,0.428000,-0.337820,0.388620*
1,1,0.428000,-0.337820,-0.388620*
1,1,0.428000,0.337820,-0.388620*
1,1,0.428000,0.337820,0.388620*
%
%AMD63*
4,1,8,-0.601980,0.574040,-0.601980,-0.574040,-0.373380,-0.802640,0.373380,-0.802640,0.601980,-0.574040,0.601980,0.574040,0.373380,0.802640,-0.373380,0.802640,-0.601980,0.574040,0.0*
1,1,0.454000,-0.373380,0.574040*
1,1,0.454000,-0.373380,-0.574040*
1,1,0.454000,0.373380,-0.574040*
1,1,0.454000,0.373380,0.574040*
%
%AMD64*
4,1,8,-0.756920,-0.675640,0.756920,-0.675640,1.000760,-0.431800,1.000760,0.431800,0.756920,0.675640,-0.756920,0.675640,-1.000760,0.431800,-1.000760,-0.431800,-0.756920,-0.675640,0.0*
1,1,0.490000,-0.756920,-0.431800*
1,1,0.490000,0.756920,-0.431800*
1,1,0.490000,0.756920,0.431800*
1,1,0.490000,-0.756920,0.431800*
%
%AMD65*
4,1,8,-0.675640,0.756920,-0.675640,-0.756920,-0.431800,-1.000760,0.431800,-1.000760,0.675640,-0.756920,0.675640,0.756920,0.431800,1.000760,-0.431800,1.000760,-0.675640,0.756920,0.0*
1,1,0.490000,-0.431800,0.756920*
1,1,0.490000,-0.431800,-0.756920*
1,1,0.490000,0.431800,-0.756920*
1,1,0.490000,0.431800,0.756920*
%
%AMD72*
4,1,8,-0.952500,-1.371600,0.952500,-1.371600,1.371600,-0.952500,1.371600,0.952500,0.952500,1.371600,-0.952500,1.371600,-1.371600,0.952500,-1.371600,-0.952500,-0.952500,-1.371600,0.0*
1,1,0.838000,-0.952500,-0.952500*
1,1,0.838000,0.952500,-0.952500*
1,1,0.838000,0.952500,0.952500*
1,1,0.838000,-0.952500,0.952500*
%
%AMD77*
4,1,8,1.371600,-0.952500,1.371600,0.952500,0.952500,1.371600,-0.952500,1.371600,-1.371600,0.952500,-1.371600,-0.952500,-0.952500,-1.371600,0.952500,-1.371600,1.371600,-0.952500,0.0*
1,1,0.838000,0.952500,-0.952500*
1,1,0.838000,0.952500,0.952500*
1,1,0.838000,-0.952500,0.952500*
1,1,0.838000,-0.952500,-0.952500*
%
%ADD45C,0.699999*%
%ADD52R,1.472997X1.218998*%
%ADD53R,0.964998X0.964998*%
%ADD54R,0.964998X0.964998*%
G04~CAMADD=55~8~0.0~0.0~1457.9~709.8~118.9~0.0~15~0.0~0.0~0.0~0.0~0~0.0~0.0~0.0~0.0~0~0.0~0.0~0.0~180.0~1458.0~710.0*
%ADD55D55*%
G04~CAMADD=56~8~0.0~0.0~394.9~394.9~79.5~0.0~15~0.0~0.0~0.0~0.0~0~0.0~0.0~0.0~0.0~0~0.0~0.0~0.0~180.0~394.0~394.0*
%ADD56D56*%
G04~CAMADD=57~8~0.0~0.0~316.1~473.6~69.7~0.0~15~0.0~0.0~0.0~0.0~0~0.0~0.0~0.0~0.0~0~0.0~0.0~0.0~90.0~474.0~317.0*
%ADD57D57*%
G04~CAMADD=58~8~0.0~0.0~1142.9~532.7~96.5~0.0~15~0.0~0.0~0.0~0.0~0~0.0~0.0~0.0~0.0~0~0.0~0.0~0.0~0.0~1142.9~532.7*
%ADD58D58*%
G04~CAMADD=59~8~0.0~0.0~631.1~473.6~89.4~0.0~15~0.0~0.0~0.0~0.0~0~0.0~0.0~0.0~0.0~0~0.0~0.0~0.0~0.0~631.1~473.6*
%ADD59D59*%
G04~CAMADD=60~8~0.0~0.0~591.7~394.9~79.5~0.0~15~0.0~0.0~0.0~0.0~0~0.0~0.0~0.0~0.0~0~0.0~0.0~0.0~0.0~591.7~394.9*
%ADD60D60*%
G04~CAMADD=61~8~0.0~0.0~473.6~434.3~84.3~0.0~15~0.0~0.0~0.0~0.0~0~0.0~0.0~0.0~0.0~0~0.0~0.0~0.0~0.0~473.6~434.3*
%ADD61D61*%
G04~CAMADD=62~8~0.0~0.0~473.6~434.3~84.3~0.0~15~0.0~0.0~0.0~0.0~0~0.0~0.0~0.0~0.0~0~0.0~0.0~0.0~90.0~434.0~474.0*
%ADD62D62*%
G04~CAMADD=63~8~0.0~0.0~631.1~473.6~89.4~0.0~15~0.0~0.0~0.0~0.0~0~0.0~0.0~0.0~0.0~0~0.0~0.0~0.0~90.0~475.0~632.0*
%ADD63D63*%
G04~CAMADD=64~8~0.0~0.0~788.6~532.7~96.5~0.0~15~0.0~0.0~0.0~0.0~0~0.0~0.0~0.0~0.0~0~0.0~0.0~0.0~180.0~788.0~532.0*
%ADD64D64*%
G04~CAMADD=65~8~0.0~0.0~788.6~532.7~96.5~0.0~15~0.0~0.0~0.0~0.0~0~0.0~0.0~0.0~0.0~0~0.0~0.0~0.0~90.0~532.0~788.0*
%ADD65D65*%
%ADD66R,2.502995X2.502995*%
%ADD67O,0.402999X1.002998*%
%ADD68O,1.002998X0.402999*%
%ADD69R,3.702993X3.702993*%
%ADD70C,1.402997*%
%ADD71C,0.203000*%
G04~CAMADD=72~8~0.0~0.0~1079.9~1079.9~165.0~0.0~15~0.0~0.0~0.0~0.0~0~0.0~0.0~0.0~0.0~0~0.0~0.0~0.0~180.0~1080.0~1080.0*
%ADD72D72*%
%ADD73C,2.742995*%
%ADD74C,1.702997*%
%ADD75R,1.702997X1.702997*%
%ADD76C,6.402987*%
G04~CAMADD=77~8~0.0~0.0~1079.9~1079.9~165.0~0.0~15~0.0~0.0~0.0~0.0~0~0.0~0.0~0.0~0.0~0~0.0~0.0~0.0~270.0~1080.0~1080.0*
%ADD77D77*%
%LNraspberryhatboard-1*%
%LPD*%
G36*
X30512Y9300D02*
X30525Y9297D01*
X30538Y9293*
X30550Y9287*
X30561Y9280*
X30571Y9271*
X30580Y9261*
X30587Y9250*
X30593Y9238*
X30597Y9225*
X30600Y9212*
X30601Y9199*
Y4001*
X33097*
Y9149*
X33098Y9162*
X33101Y9175*
X33105Y9188*
X33111Y9200*
X33118Y9211*
X33127Y9221*
X33137Y9230*
X33148Y9237*
X33160Y9243*
X33173Y9247*
X33186Y9250*
X33199Y9251*
X34999*
X35012Y9250*
X35025Y9247*
X35038Y9243*
X35050Y9237*
X35061Y9230*
X35071Y9221*
X35080Y9211*
X35087Y9200*
X35093Y9188*
X35097Y9175*
X35100Y9162*
X35101Y9149*
Y4001*
X37597*
Y9099*
X37598Y9112*
X37601Y9125*
X37605Y9138*
X37611Y9150*
X37618Y9161*
X37627Y9171*
X37637Y9180*
X37648Y9187*
X37660Y9193*
X37673Y9197*
X37686Y9200*
X37699Y9201*
X39399*
X39405Y9200*
X39411*
X39412*
X39418Y9199*
X39424Y9198*
X39425Y9197*
X39431Y9195*
X39437Y9194*
Y9193*
X39438*
X39443Y9190*
X39449Y9188*
Y9187*
X39450*
X39455Y9184*
X39460Y9181*
Y9180*
X39461*
X39465Y9176*
X39470Y9172*
Y9171*
X39471*
X39475Y9167*
X39479Y9162*
X39480Y9161*
X39483Y9156*
X39486Y9151*
X39487Y9150*
X39490Y9145*
X39493Y9139*
Y9138*
X39495Y9132*
X39497Y9127*
Y9126*
Y9125*
X39499Y9120*
X39500Y9114*
Y9113*
Y9112*
Y9106*
X39501Y9100*
X39601Y1900*
Y1899*
X39600Y1893*
Y1887*
Y1886*
X39599Y1880*
X39598Y1874*
X39597Y1873*
X39595Y1867*
X39594Y1861*
X39593*
Y1860*
X39590Y1855*
X39588Y1849*
X39587*
Y1848*
X39584Y1843*
X39581Y1838*
X39580*
Y1837*
X39576Y1833*
X39572Y1828*
X39571*
Y1827*
X39566Y1823*
X39562Y1819*
X39561Y1818*
X39556Y1815*
X39551Y1812*
X39550Y1811*
X39545Y1808*
X39539Y1805*
X39538*
X39532Y1803*
X39527Y1801*
X39526*
X39525*
X39519Y1799*
X39514Y1798*
X39513*
X39512*
X39506*
X39500Y1797*
X39499*
X28799*
X28786Y1798*
X28773Y1801*
X28760Y1805*
X28748Y1811*
X28737Y1818*
X28727Y1827*
X28718Y1837*
X28711Y1848*
X28705Y1860*
X28701Y1873*
X28698Y1886*
X28697Y1899*
Y9199*
X28698Y9212*
X28701Y9225*
X28705Y9238*
X28711Y9250*
X28718Y9261*
X28727Y9271*
X28737Y9280*
X28748Y9287*
X28760Y9293*
X28773Y9297*
X28786Y9300*
X28799Y9301*
X30499*
X30512Y9300*
G37*
G54D45*
X33249Y18049D03*
X34349D03*
X33249Y16949D03*
X34349D03*
X32199Y40999D03*
X33299D03*
X34399D03*
X32199Y39899D03*
X33299D03*
X34399D03*
X32199Y38799D03*
X33299D03*
X34399D03*
G54D52*
X29199Y18977D03*
Y16945D03*
X26999Y19445D03*
Y21477D03*
X40999Y19521D03*
Y21553D03*
X38399Y16745D03*
Y18777D03*
X29399Y21721D03*
Y23753D03*
X30199Y30499D03*
Y28467D03*
X32799D03*
Y30499D03*
X35399Y30453D03*
Y28421D03*
X37999D03*
Y30453D03*
X35799Y23753D03*
Y21721D03*
X32099D03*
Y23753D03*
X38399Y23653D03*
Y21621D03*
G54D53*
X31199Y45102D03*
Y46499D03*
X33099D03*
Y45102D03*
X34899D03*
Y46499D03*
X28499Y44899D03*
Y43502D03*
G54D54*
X39896Y38999D03*
X38499D03*
X38447Y37405D03*
X39844D03*
X39796Y40799D03*
X38399D03*
G54D55*
X54499Y5199D03*
X48899D03*
X48799Y28199D03*
X54399D03*
G54D56*
X44349Y12799D03*
X45849D03*
X44349Y20299D03*
X45849D03*
G54D57*
X49199Y35449D03*
X51799Y37349D03*
Y36399D03*
Y35449D03*
X49199Y37349D03*
X19699Y32149D03*
X17099Y30249D03*
Y31199D03*
Y32149D03*
X19699Y30249D03*
G54D58*
X44199Y35399D03*
Y38399D03*
X22899Y34799D03*
Y31799D03*
G54D59*
X14499Y30299D03*
Y32099D03*
X29499Y32999D03*
Y34799D03*
X54399Y37399D03*
Y35599D03*
G54D60*
X36299Y13299D03*
Y11299D03*
X31899Y13399D03*
Y11399D03*
G54D61*
X26999Y33149D03*
Y34849D03*
G54D62*
X28149Y36699D03*
X26449D03*
X31949Y26099D03*
X30249D03*
X37749D03*
X36049D03*
X38349Y42599D03*
X40049D03*
G54D63*
X27899Y38899D03*
X26099D03*
X27899Y41099D03*
X26099D03*
G54D64*
X43699Y43899D03*
Y40899D03*
G54D65*
X25299Y29199D03*
X22299D03*
G54D66*
X33799Y17499D03*
G54D67*
X34799Y15599D03*
X34299D03*
X33799D03*
X33299D03*
X32799D03*
Y19399D03*
X33299D03*
X33799D03*
X34299D03*
X34799D03*
X31549Y37399D03*
X32049D03*
X32549D03*
X33049D03*
X33549D03*
X34049D03*
X34549D03*
X35049D03*
Y42399D03*
X34549D03*
X34049D03*
X33549D03*
X33049D03*
X32549D03*
X32049D03*
X31549D03*
G54D68*
X31899Y16749D03*
Y18249D03*
X35699D03*
Y16749D03*
X30799Y41649D03*
Y41149D03*
Y40649D03*
Y40149D03*
Y39649D03*
Y39149D03*
Y38649D03*
Y38149D03*
X35799D03*
Y38649D03*
Y39149D03*
Y39649D03*
Y40149D03*
Y40649D03*
Y41149D03*
Y41649D03*
G54D69*
X33299Y39899D03*
G54D70*
X36299Y5499D02*
Y9399D01*
X31899Y5499D02*
Y9399D01*
G54D71*
X26099Y4299D03*
X42199Y4399D03*
G54D72*
X51399Y20309D03*
G54D73*
X51399Y16499D03*
Y12689D03*
X21204Y22899D03*
X53704Y42499D03*
G54D74*
X57159Y53739D03*
Y51199D03*
X54619Y53739D03*
Y51199D03*
X52079Y53739D03*
Y51199D03*
X49539Y53739D03*
Y51199D03*
X46999Y53739D03*
Y51199D03*
X44459Y53739D03*
Y51199D03*
X41919Y53739D03*
Y51199D03*
X39379Y53739D03*
Y51199D03*
X36839Y53739D03*
Y51199D03*
X34299Y53739D03*
Y51199D03*
X31759Y53739D03*
Y51199D03*
X29219Y53739D03*
Y51199D03*
X26679Y53739D03*
Y51199D03*
X24139Y53739D03*
Y51199D03*
X21599Y53739D03*
Y51199D03*
X19059Y53739D03*
Y51199D03*
X16519Y53739D03*
Y51199D03*
X13979Y53739D03*
Y51199D03*
X11439Y53739D03*
Y51199D03*
X8899Y53739D03*
G54D75*
X8899Y51199D03*
G54D76*
X3999Y3499D03*
X61999D03*
Y52499D03*
X3999D03*
G54D77*
X17394Y22899D03*
X49894Y42499D03*
M02*