%FSLAX23Y23*%
%MOMM*%
%SFA1B1*%

%IPPOS*%
%AMD58*
4,1,8,1.206500,0.675640,-1.206500,0.675640,-1.450340,0.431800,-1.450340,-0.431800,-1.206500,-0.675640,1.206500,-0.675640,1.450340,-0.431800,1.450340,0.431800,1.206500,0.675640,0.0*
1,1,0.490000,1.206500,0.431800*
1,1,0.490000,-1.206500,0.431800*
1,1,0.490000,-1.206500,-0.431800*
1,1,0.490000,1.206500,-0.431800*
%
%AMD59*
4,1,8,0.574040,0.601980,-0.574040,0.601980,-0.802640,0.373380,-0.802640,-0.373380,-0.574040,-0.601980,0.574040,-0.601980,0.802640,-0.373380,0.802640,0.373380,0.574040,0.601980,0.0*
1,1,0.454000,0.574040,0.373380*
1,1,0.454000,-0.574040,0.373380*
1,1,0.454000,-0.574040,-0.373380*
1,1,0.454000,0.574040,-0.373380*
%
%AMD61*
4,1,8,0.388620,0.551180,-0.388620,0.551180,-0.601980,0.337820,-0.601980,-0.337820,-0.388620,-0.551180,0.388620,-0.551180,0.601980,-0.337820,0.601980,0.337820,0.388620,0.551180,0.0*
1,1,0.428000,0.388620,0.337820*
1,1,0.428000,-0.388620,0.337820*
1,1,0.428000,-0.388620,-0.337820*
1,1,0.428000,0.388620,-0.337820*
%
%AMD62*
4,1,8,-0.551180,0.388620,-0.551180,-0.388620,-0.337820,-0.601980,0.337820,-0.601980,0.551180,-0.388620,0.551180,0.388620,0.337820,0.601980,-0.337820,0.601980,-0.551180,0.388620,0.0*
1,1,0.428000,-0.337820,0.388620*
1,1,0.428000,-0.337820,-0.388620*
1,1,0.428000,0.337820,-0.388620*
1,1,0.428000,0.337820,0.388620*
%
%AMD63*
4,1,8,-0.601980,0.574040,-0.601980,-0.574040,-0.373380,-0.802640,0.373380,-0.802640,0.601980,-0.574040,0.601980,0.574040,0.373380,0.802640,-0.373380,0.802640,-0.601980,0.574040,0.0*
1,1,0.454000,-0.373380,0.574040*
1,1,0.454000,-0.373380,-0.574040*
1,1,0.454000,0.373380,-0.574040*
1,1,0.454000,0.373380,0.574040*
%
%AMD72*
4,1,8,-0.952500,-1.371600,0.952500,-1.371600,1.371600,-0.952500,1.371600,0.952500,0.952500,1.371600,-0.952500,1.371600,-1.371600,0.952500,-1.371600,-0.952500,-0.952500,-1.371600,0.0*
1,1,0.838000,-0.952500,-0.952500*
1,1,0.838000,0.952500,-0.952500*
1,1,0.838000,0.952500,0.952500*
1,1,0.838000,-0.952500,0.952500*
%
%AMD77*
4,1,8,1.371600,-0.952500,1.371600,0.952500,0.952500,1.371600,-0.952500,1.371600,-1.371600,0.952500,-1.371600,-0.952500,-0.952500,-1.371600,0.952500,-1.371600,1.371600,-0.952500,0.0*
1,1,0.838000,0.952500,-0.952500*
1,1,0.838000,0.952500,0.952500*
1,1,0.838000,-0.952500,0.952500*
1,1,0.838000,-0.952500,-0.952500*
%
%AMD78*
4,1,8,0.675640,-1.206500,0.675640,1.206500,0.431800,1.450340,-0.431800,1.450340,-0.675640,1.206500,-0.675640,-1.206500,-0.431800,-1.450340,0.431800,-1.450340,0.675640,-1.206500,0.0*
1,1,0.490000,0.431800,-1.206500*
1,1,0.490000,0.431800,1.206500*
1,1,0.490000,-0.431800,1.206500*
1,1,0.490000,-0.431800,-1.206500*
%
%ADD45C,0.699999*%
%ADD54R,0.964998X0.964998*%
G04~CAMADD=58~8~0.0~0.0~1142.9~532.7~96.5~0.0~15~0.0~0.0~0.0~0.0~0~0.0~0.0~0.0~0.0~0~0.0~0.0~0.0~0.0~1142.9~532.7*
%ADD58D58*%
G04~CAMADD=59~8~0.0~0.0~631.1~473.6~89.4~0.0~15~0.0~0.0~0.0~0.0~0~0.0~0.0~0.0~0.0~0~0.0~0.0~0.0~0.0~631.1~473.6*
%ADD59D59*%
G04~CAMADD=61~8~0.0~0.0~473.6~434.3~84.3~0.0~15~0.0~0.0~0.0~0.0~0~0.0~0.0~0.0~0.0~0~0.0~0.0~0.0~0.0~473.6~434.3*
%ADD61D61*%
G04~CAMADD=62~8~0.0~0.0~473.6~434.3~84.3~0.0~15~0.0~0.0~0.0~0.0~0~0.0~0.0~0.0~0.0~0~0.0~0.0~0.0~90.0~434.0~474.0*
%ADD62D62*%
G04~CAMADD=63~8~0.0~0.0~631.1~473.6~89.4~0.0~15~0.0~0.0~0.0~0.0~0~0.0~0.0~0.0~0.0~0~0.0~0.0~0.0~90.0~475.0~632.0*
%ADD63D63*%
%ADD71C,0.203000*%
G04~CAMADD=72~8~0.0~0.0~1079.9~1079.9~165.0~0.0~15~0.0~0.0~0.0~0.0~0~0.0~0.0~0.0~0.0~0~0.0~0.0~0.0~180.0~1080.0~1080.0*
%ADD72D72*%
%ADD73C,2.742995*%
%ADD74C,1.702997*%
%ADD75R,1.702997X1.702997*%
%ADD76C,6.402987*%
G04~CAMADD=77~8~0.0~0.0~1079.9~1079.9~165.0~0.0~15~0.0~0.0~0.0~0.0~0~0.0~0.0~0.0~0.0~0~0.0~0.0~0.0~270.0~1080.0~1080.0*
%ADD77D77*%
G04~CAMADD=78~8~0.0~0.0~1142.9~532.7~96.5~0.0~15~0.0~0.0~0.0~0.0~0~0.0~0.0~0.0~0.0~0~0.0~0.0~0.0~270.0~532.0~1142.0*
%ADD78D78*%
%LNraspberryhatboard-1*%
%LPD*%
G54D45*
X33249Y18049D03*
X34349D03*
X33249Y16949D03*
X34349D03*
X32199Y40999D03*
X33299D03*
X34399D03*
X32199Y39899D03*
X33299D03*
X34399D03*
X32199Y38799D03*
X33299D03*
X34399D03*
G54D54*
X31896Y44299D03*
X30499D03*
G54D58*
X38999Y14099D03*
Y17099D03*
G54D59*
X27099Y37399D03*
Y39199D03*
X41999Y15399D03*
Y17199D03*
G54D61*
X39999Y20849D03*
Y19149D03*
X38199Y20849D03*
Y19149D03*
X29599Y15149D03*
Y16849D03*
X27599Y15149D03*
Y16849D03*
X36499Y34749D03*
Y33049D03*
X34299Y34749D03*
Y33049D03*
X32499Y34749D03*
Y33049D03*
X30499Y34749D03*
Y33049D03*
G54D62*
X26149Y40999D03*
X27849D03*
X27749Y42999D03*
X26049D03*
G54D63*
X27699Y18899D03*
X29499D03*
G54D71*
X26099Y4299D03*
X42199Y4399D03*
G54D72*
X51399Y20309D03*
G54D73*
X51399Y16499D03*
Y12689D03*
X21204Y22899D03*
X53704Y42499D03*
G54D74*
X57159Y53739D03*
Y51199D03*
X54619Y53739D03*
Y51199D03*
X52079Y53739D03*
Y51199D03*
X49539Y53739D03*
Y51199D03*
X46999Y53739D03*
Y51199D03*
X44459Y53739D03*
Y51199D03*
X41919Y53739D03*
Y51199D03*
X39379Y53739D03*
Y51199D03*
X36839Y53739D03*
Y51199D03*
X34299Y53739D03*
Y51199D03*
X31759Y53739D03*
Y51199D03*
X29219Y53739D03*
Y51199D03*
X26679Y53739D03*
Y51199D03*
X24139Y53739D03*
Y51199D03*
X21599Y53739D03*
Y51199D03*
X19059Y53739D03*
Y51199D03*
X16519Y53739D03*
Y51199D03*
X13979Y53739D03*
Y51199D03*
X11439Y53739D03*
Y51199D03*
X8899Y53739D03*
G54D75*
X8899Y51199D03*
G54D76*
X3999Y3499D03*
X61999D03*
Y52499D03*
X3999D03*
G54D77*
X17394Y22899D03*
X49894Y42499D03*
G54D78*
X35399Y11699D03*
X32399D03*
M02*