%FSLAX23Y23*%
%MOMM*%
%SFA1B1*%

%IPPOS*%
%ADD50C,0.127000*%
%LNraspberryhatboard-1*%
%LPD*%
G54D50*
X24799Y4299D02*
X27399D01*
X26099Y2999D02*
Y5599D01*
X50739Y20309D02*
X52059D01*
X51399Y19649D02*
Y20969D01*
X50739Y16499D02*
X52059D01*
X51399Y15839D02*
Y17159D01*
X50739Y12689D02*
X52059D01*
X51399Y12029D02*
Y13349D01*
X56709Y53739D02*
X57609D01*
X57159Y53289D02*
Y54189D01*
X56709Y51199D02*
X57609D01*
X57159Y50749D02*
Y51649D01*
X54169Y53739D02*
X55069D01*
X54619Y53289D02*
Y54189D01*
X54169Y51199D02*
X55069D01*
X54619Y50749D02*
Y51649D01*
X51629Y53739D02*
X52529D01*
X52079Y53289D02*
Y54189D01*
X51629Y51199D02*
X52529D01*
X52079Y50749D02*
Y51649D01*
X49089Y53739D02*
X49989D01*
X49539Y53289D02*
Y54189D01*
X49089Y51199D02*
X49989D01*
X49539Y50749D02*
Y51649D01*
X46549Y53739D02*
X47449D01*
X46999Y53289D02*
Y54189D01*
X46549Y51199D02*
X47449D01*
X46999Y50749D02*
Y51649D01*
X44009Y53739D02*
X44909D01*
X44459Y53289D02*
Y54189D01*
X44009Y51199D02*
X44909D01*
X44459Y50749D02*
Y51649D01*
X41469Y53739D02*
X42369D01*
X41919Y53289D02*
Y54189D01*
X41469Y51199D02*
X42369D01*
X41919Y50749D02*
Y51649D01*
X38929Y53739D02*
X39829D01*
X39379Y53289D02*
Y54189D01*
X38929Y51199D02*
X39829D01*
X39379Y50749D02*
Y51649D01*
X36389Y53739D02*
X37289D01*
X36839Y53289D02*
Y54189D01*
X36389Y51199D02*
X37289D01*
X36839Y50749D02*
Y51649D01*
X33849Y53739D02*
X34749D01*
X34299Y53289D02*
Y54189D01*
X33849Y51199D02*
X34749D01*
X34299Y50749D02*
Y51649D01*
X31309Y53739D02*
X32209D01*
X31759Y53289D02*
Y54189D01*
X31309Y51199D02*
X32209D01*
X31759Y50749D02*
Y51649D01*
X28769Y53739D02*
X29669D01*
X29219Y53289D02*
Y54189D01*
X28769Y51199D02*
X29669D01*
X29219Y50749D02*
Y51649D01*
X26229Y53739D02*
X27129D01*
X26679Y53289D02*
Y54189D01*
X26229Y51199D02*
X27129D01*
X26679Y50749D02*
Y51649D01*
X23689Y53739D02*
X24589D01*
X24139Y53289D02*
Y54189D01*
X23689Y51199D02*
X24589D01*
X24139Y50749D02*
Y51649D01*
X21149Y53739D02*
X22049D01*
X21599Y53289D02*
Y54189D01*
X21149Y51199D02*
X22049D01*
X21599Y50749D02*
Y51649D01*
X18609Y53739D02*
X19509D01*
X19059Y53289D02*
Y54189D01*
X18609Y51199D02*
X19509D01*
X19059Y50749D02*
Y51649D01*
X16069Y53739D02*
X16969D01*
X16519Y53289D02*
Y54189D01*
X16069Y51199D02*
X16969D01*
X16519Y50749D02*
Y51649D01*
X13529Y53739D02*
X14429D01*
X13979Y53289D02*
Y54189D01*
X13529Y51199D02*
X14429D01*
X13979Y50749D02*
Y51649D01*
X10989Y53739D02*
X11889D01*
X11439Y53289D02*
Y54189D01*
X10989Y51199D02*
X11889D01*
X11439Y50749D02*
Y51649D01*
X8449Y53739D02*
X9349D01*
X8899Y53289D02*
Y54189D01*
X8449Y51199D02*
X9349D01*
X8899Y50749D02*
Y51649D01*
X2499Y3499D02*
X5499D01*
X3999Y1999D02*
Y4999D01*
X60499Y3499D02*
X63499D01*
X61999Y1999D02*
Y4999D01*
X60499Y52499D02*
X63499D01*
X61999Y50999D02*
Y53999D01*
X2499Y52499D02*
X5499D01*
X3999Y50999D02*
Y53999D01*
X20544Y22899D02*
X21864D01*
X21204Y22239D02*
Y23559D01*
X16734Y22899D02*
X18054D01*
X17394Y22239D02*
Y23559D01*
X53044Y42499D02*
X54364D01*
X53704Y41839D02*
Y43159D01*
X49234Y42499D02*
X50554D01*
X49894Y41839D02*
Y43159D01*
X40899Y4399D02*
X43499D01*
X42199Y3099D02*
Y5699D01*
X36854Y39724D02*
X37194D01*
X37024Y39554D02*
Y39894D01*
X45729Y7374D02*
X46069D01*
X45899Y7204D02*
Y7544D01*
X30529Y21599D02*
X30869D01*
X30699Y21429D02*
Y21769D01*
X30629Y19299D02*
X30969D01*
X30799Y19129D02*
Y19469D01*
X30629Y16699D02*
X30969D01*
X30799Y16529D02*
Y16869D01*
X41529Y12599D02*
X41869D01*
X41699Y12429D02*
Y12769D01*
X33129Y14499D02*
X33469D01*
X33299Y14329D02*
Y14669D01*
X34129Y14499D02*
X34469D01*
X34299Y14329D02*
Y14669D01*
X36629Y14599D02*
X36969D01*
X36799Y14429D02*
Y14769D01*
X41854Y18524D02*
X42194D01*
X42024Y18354D02*
Y18694D01*
X36729Y18199D02*
X37069D01*
X36899Y18029D02*
Y18369D01*
X36829Y20899D02*
X37169D01*
X36999Y20729D02*
Y21069D01*
X43054Y28049D02*
X43394D01*
X43224Y27879D02*
Y28219D01*
X25029Y31699D02*
X25369D01*
X25199Y31529D02*
Y31869D01*
X27929Y33099D02*
X28269D01*
X28099Y32929D02*
Y33269D01*
X28029Y35624D02*
X28369D01*
X28199Y35454D02*
Y35794D01*
X38104Y34774D02*
X38444D01*
X38274Y34604D02*
Y34944D01*
X33979Y36099D02*
X34319D01*
X34149Y35929D02*
Y36269D01*
X29529Y36499D02*
X29869D01*
X29699Y36329D02*
Y36669D01*
X28829Y38099D02*
X29169D01*
X28999Y37929D02*
Y38269D01*
X28729Y40099D02*
X29069D01*
X28899Y39929D02*
Y40269D01*
X29229Y40799D02*
X29569D01*
X29399Y40629D02*
Y40969D01*
X29004Y41824D02*
X29344D01*
X29174Y41654D02*
Y41994D01*
X26754Y44399D02*
X27094D01*
X26924Y44229D02*
Y44569D01*
X35454Y43699D02*
X35794D01*
X35624Y43529D02*
Y43869D01*
X36929Y44199D02*
X37269D01*
X37099Y44029D02*
Y44369D01*
X36329Y46499D02*
X36669D01*
X36499Y46329D02*
Y46669D01*
X33099Y18049D02*
X33399D01*
X33249Y17899D02*
Y18199D01*
X34199Y18049D02*
X34499D01*
X34349Y17899D02*
Y18199D01*
X33099Y16949D02*
X33399D01*
X33249Y16799D02*
Y17099D01*
X34199Y16949D02*
X34499D01*
X34349Y16799D02*
Y17099D01*
X32049Y40999D02*
X32349D01*
X32199Y40849D02*
Y41149D01*
X33149Y40999D02*
X33449D01*
X33299Y40849D02*
Y41149D01*
X34249Y40999D02*
X34549D01*
X34399Y40849D02*
Y41149D01*
X32049Y39899D02*
X32349D01*
X32199Y39749D02*
Y40049D01*
X33149Y39899D02*
X33449D01*
X33299Y39749D02*
Y40049D01*
X34249Y39899D02*
X34549D01*
X34399Y39749D02*
Y40049D01*
X32049Y38799D02*
X32349D01*
X32199Y38649D02*
Y38949D01*
X33149Y38799D02*
X33449D01*
X33299Y38649D02*
Y38949D01*
X34249Y38799D02*
X34549D01*
X34399Y38649D02*
Y38949D01*
M02*