%FSLAX23Y23*%
%MOMM*%
%SFA1B1*%

%IPPOS*%
%ADD50C,0.127000*%
%ADD79C,0.010000*%
%LNraspberryhatboard-1*%
%LPD*%
G36*
X26165Y4863D02*
X26176D01*
X26189Y4861*
X26204Y4859*
X26221Y4856*
X26239Y4854*
X26258Y4849*
X26279Y4844*
X26299Y4836*
X26319Y4828*
X26339Y4819*
X26358Y4807*
X26377Y4794*
X26394Y4779*
X26395Y4778*
X26398Y4775*
X26402Y4770*
X26408Y4763*
X26414Y4755*
X26422Y4745*
X26429Y4733*
X26438Y4720*
X26446Y4704*
X26453Y4687*
X26461Y4669*
X26467Y4648*
X26473Y4627*
X26477Y4604*
X26480Y4580*
X26481Y4554*
Y4552*
Y4548*
X26480Y4540*
X26479Y4531*
X26478Y4519*
X26476Y4505*
X26474Y4489*
X26470Y4473*
X26465Y4454*
X26460Y4437*
X26452Y4417*
X26444Y4399*
X26435Y4379*
X26423Y4362*
X26410Y4344*
X26394Y4328*
X26393Y4327*
X26390Y4324*
X26385Y4320*
X26378Y4315*
X26369Y4308*
X26358Y4301*
X26346Y4293*
X26331Y4286*
X26316Y4278*
X26297Y4270*
X26278Y4263*
X26256Y4256*
X26233Y4251*
X26208Y4247*
X26181Y4244*
X26154Y4243*
X26144*
X26137Y4244*
X26129*
X26120Y4245*
X26108Y4246*
X26096Y4247*
X26071Y4251*
X26043Y4255*
X26015Y4263*
X25989Y4272*
X25988*
X25987Y4273*
X25985Y4275*
X25981Y4276*
X25972Y4281*
X25960Y4288*
X25946Y4296*
X25932Y4306*
X25916Y4318*
X25901Y4331*
X25900Y4332*
X25899Y4333*
X25895Y4338*
X25887Y4346*
X25879Y4356*
X25870Y4368*
X25860Y4382*
X25850Y4398*
X25843Y4415*
X25842Y4417*
X25840Y4421*
X25839Y4426*
X25837Y4431*
X25835Y4438*
X25833Y4446*
X25830Y4454*
X25826Y4475*
X25821Y4498*
X25818Y4525*
X25817Y4552*
Y4554*
Y4559*
X25818Y4566*
Y4575*
X25820Y4587*
X25822Y4601*
X25825Y4617*
X25828Y4634*
X25833Y4651*
X25838Y4670*
X25846Y4688*
X25854Y4708*
X25864Y4726*
X25876Y4745*
X25890Y4762*
X25906Y4779*
X25907Y4780*
X25910Y4782*
X25915Y4787*
X25922Y4792*
X25931Y4798*
X25942Y4806*
X25955Y4813*
X25970Y4821*
X25985Y4830*
X26004Y4837*
X26024Y4844*
X26046Y4851*
X26070Y4856*
X26095Y4860*
X26121Y4863*
X26150Y4864*
X26156*
X26165Y4863*
G37*
G36*
X26469Y5271D02*
X26400D01*
X26402Y5270*
X26406Y5266*
X26413Y5260*
X26421Y5252*
X26431Y5243*
X26440Y5231*
X26451Y5218*
X26459Y5203*
X26460Y5201*
X26462Y5196*
X26465Y5187*
X26469Y5176*
X26473Y5163*
X26476Y5149*
X26478Y5133*
X26479Y5116*
Y5115*
Y5114*
Y5112*
Y5108*
X26478Y5100*
X26476Y5089*
X26475Y5075*
X26471Y5061*
X26465Y5046*
X26459Y5032*
X26458Y5030*
X26455Y5027*
X26451Y5019*
X26444Y5012*
X26436Y5003*
X26426Y4994*
X26414Y4986*
X26402Y4978*
X26400*
X26395Y4976*
X26387Y4973*
X26375Y4970*
X26360Y4967*
X26342Y4965*
X26322Y4963*
X26299Y4962*
X26005*
Y5085*
X26250*
X26269Y5086*
X26291Y5087*
X26310Y5088*
X26318Y5089*
X26327*
X26333Y5090*
X26338Y5091*
X26339*
X26341Y5092*
X26345Y5094*
X26351Y5097*
X26356Y5100*
X26362Y5104*
X26367Y5109*
X26373Y5115*
X26374Y5116*
X26375Y5119*
X26377Y5123*
X26378Y5128*
X26381Y5135*
X26383Y5143*
X26384Y5151*
X26385Y5162*
Y5163*
Y5167*
X26384Y5173*
X26383Y5180*
X26381Y5189*
X26377Y5199*
X26374Y5209*
X26368Y5218*
X26367Y5219*
X26365Y5222*
X26362Y5226*
X26356Y5232*
X26350Y5237*
X26343Y5243*
X26335Y5248*
X26326Y5252*
X26325*
X26320Y5254*
X26316*
X26312Y5255*
X26307Y5256*
X26301Y5257*
X26292Y5258*
X26284Y5259*
X26274Y5260*
X26262*
X26249*
X26234Y5261*
X26005*
Y5384*
X26469*
Y5271*
G37*
G36*
X26462Y5733D02*
X26463Y5732D01*
X26464Y5726*
X26467Y5717*
X26470Y5705*
X26474Y5691*
X26476Y5675*
X26478Y5656*
X26479Y5637*
Y5635*
Y5631*
X26478Y5625*
X26477Y5616*
X26476Y5607*
X26475Y5597*
X26472Y5587*
X26468Y5577*
X26467Y5576*
X26466Y5572*
X26463Y5567*
X26461Y5562*
X26451Y5549*
X26446Y5542*
X26439Y5537*
X26438Y5536*
X26436Y5535*
X26432Y5533*
X26426Y5530*
X26420Y5528*
X26412Y5525*
X26402Y5522*
X26392Y5520*
X26391*
X26388Y5519*
X26382*
X26373Y5518*
X26361*
X26346*
X26338Y5517*
X26103*
Y5460*
X26005*
Y5517*
X25912*
X25840Y5640*
X26005*
Y5724*
X26103*
Y5640*
X26320*
X26331*
X26351*
X26354Y5641*
X26356*
X26358Y5642*
X26362Y5644*
X26366Y5647*
X26372Y5653*
X26373Y5654*
X26375Y5658*
X26377Y5665*
Y5673*
Y5674*
Y5677*
Y5680*
X26376Y5686*
X26375Y5693*
X26373Y5702*
X26370Y5712*
X26366Y5723*
X26462Y5734*
Y5733*
G37*
G36*
X26278Y3065D02*
X26283Y3063D01*
X26291Y3060*
X26299Y3056*
X26309Y3053*
X26320Y3048*
X26332Y3042*
X26357Y3030*
X26383Y3013*
X26408Y2993*
X26419Y2981*
X26429Y2969*
X26430*
X26431Y2967*
X26434Y2963*
X26438Y2957*
X26441Y2951*
X26445Y2943*
X26450Y2933*
X26454Y2923*
X26460Y2911*
X26464Y2898*
X26468Y2884*
X26472Y2870*
X26475Y2854*
X26478Y2836*
X26479Y2819*
X26480Y2799*
Y2797*
Y2794*
X26479Y2787*
X26478Y2778*
X26477Y2768*
X26475Y2755*
X26473Y2741*
X26469Y2725*
X26464Y2710*
X26459Y2693*
X26451Y2675*
X26443Y2658*
X26434Y2640*
X26422Y2623*
X26409Y2606*
X26393Y2590*
X26392Y2589*
X26389Y2587*
X26384Y2583*
X26377Y2577*
X26368Y2572*
X26358Y2564*
X26345Y2557*
X26330Y2550*
X26315Y2542*
X26297Y2535*
X26277Y2527*
X26255Y2522*
X26233Y2516*
X26208Y2513*
X26182Y2510*
X26155Y2509*
X26147*
X26139Y2510*
X26128*
X26115Y2512*
X26099Y2514*
X26083Y2515*
X26063Y2519*
X26044Y2524*
X26023Y2529*
X26003Y2536*
X25982Y2544*
X25961Y2553*
X25942Y2564*
X25924Y2576*
X25906Y2591*
X25905Y2592*
X25902Y2595*
X25898Y2600*
X25892Y2606*
X25886Y2614*
X25878Y2625*
X25870Y2636*
X25862Y2650*
X25853Y2664*
X25845Y2680*
X25838Y2699*
X25831Y2717*
X25826Y2738*
X25821Y2760*
X25818Y2784*
X25817Y2808*
Y2809*
Y2813*
Y2819*
X25818Y2827*
X25819Y2837*
X25821Y2848*
X25823Y2861*
X25826Y2875*
X25829Y2890*
X25834Y2906*
X25839Y2921*
X25847Y2938*
X25854Y2954*
X25863Y2969*
X25875Y2984*
X25887Y2998*
Y2999*
X25888Y3000*
X25891Y3003*
X25894Y3005*
X25899Y3009*
X25904Y3013*
X25917Y3023*
X25934Y3033*
X25954Y3044*
X25977Y3054*
X26004Y3064*
X26034Y2936*
X26033Y2935*
X26030*
X26026Y2933*
X26018Y2931*
X26007Y2926*
X25994Y2920*
X25981Y2911*
X25968Y2900*
X25957Y2888*
X25956Y2886*
X25952Y2882*
X25948Y2874*
X25942Y2864*
X25936Y2851*
X25932Y2836*
X25928Y2820*
X25927Y2801*
Y2800*
Y2798*
Y2795*
X25928Y2789*
X25929Y2784*
X25930Y2776*
X25934Y2760*
X25940Y2742*
X25949Y2723*
X25955Y2712*
X25961Y2703*
X25970Y2694*
X25979Y2686*
X25980*
X25982Y2684*
X25985Y2682*
X25989Y2679*
X25995Y2675*
X26001Y2672*
X26009Y2668*
X26019Y2664*
X26030Y2660*
X26042Y2656*
X26056Y2652*
X26071Y2649*
X26087Y2646*
X26105Y2644*
X26124Y2643*
X26145Y2642*
X26157*
X26165Y2643*
X26175*
X26187Y2645*
X26199Y2646*
X26213Y2648*
X26242Y2653*
X26270Y2661*
X26284Y2665*
X26297Y2672*
X26309Y2678*
X26319Y2686*
X26320Y2687*
X26321*
X26324Y2690*
X26328Y2694*
X26335Y2703*
X26344Y2716*
X26354Y2732*
X26362Y2751*
X26368Y2773*
X26369Y2785*
X26370Y2798*
Y2799*
Y2800*
Y2803*
X26369Y2807*
X26368Y2817*
X26366Y2829*
X26362Y2842*
X26356Y2857*
X26349Y2871*
X26338Y2886*
X26336Y2888*
X26331Y2893*
X26324Y2899*
X26313Y2907*
X26298Y2916*
X26280Y2924*
X26259Y2932*
X26234Y2940*
X26273Y3066*
X26274*
X26278Y3065*
G37*
G36*
X26469Y3483D02*
X26400D01*
X26402Y3482*
X26406Y3478*
X26413Y3472*
X26421Y3464*
X26431Y3455*
X26440Y3443*
X26451Y3430*
X26459Y3415*
X26460Y3413*
X26462Y3408*
X26465Y3399*
X26469Y3388*
X26473Y3375*
X26476Y3361*
X26478Y3345*
X26479Y3328*
Y3327*
Y3326*
Y3324*
Y3320*
X26478Y3312*
X26476Y3300*
X26475Y3287*
X26471Y3273*
X26465Y3258*
X26459Y3244*
X26458Y3242*
X26455Y3238*
X26451Y3231*
X26444Y3224*
X26436Y3214*
X26426Y3206*
X26414Y3198*
X26402Y3190*
X26400Y3189*
X26395Y3188*
X26387Y3185*
X26375Y3182*
X26360Y3179*
X26342Y3177*
X26322Y3175*
X26299Y3174*
X26005*
Y3297*
X26250*
X26269Y3298*
X26291Y3299*
X26310*
X26318Y3300*
X26327Y3301*
X26333Y3302*
X26338Y3303*
X26339*
X26341Y3304*
X26345Y3306*
X26351Y3309*
X26356Y3312*
X26362Y3316*
X26367Y3321*
X26373Y3327*
X26374Y3328*
X26375Y3331*
X26377Y3335*
X26378Y3340*
X26381Y3347*
X26383Y3355*
X26384Y3363*
X26385Y3373*
Y3375*
Y3379*
X26384Y3385*
X26383Y3392*
X26381Y3401*
X26377Y3410*
X26374Y3421*
X26368Y3430*
X26367Y3431*
X26365Y3434*
X26362Y3438*
X26356Y3444*
X26350Y3449*
X26343Y3455*
X26335Y3460*
X26326Y3464*
X26325*
X26320Y3466*
X26316*
X26312Y3467*
X26307Y3468*
X26301Y3469*
X26292Y3470*
X26284Y3471*
X26274*
X26262*
X26249Y3472*
X26234Y3473*
X26005*
Y3596*
X26469*
Y3483*
G37*
G36*
X26462Y3945D02*
X26463Y3944D01*
X26464Y3938*
X26467Y3929*
X26470Y3917*
X26474Y3903*
X26476Y3887*
X26478Y3868*
X26479Y3849*
Y3847*
Y3843*
X26478Y3837*
X26477Y3828*
X26476Y3819*
X26475Y3809*
X26472Y3799*
X26468Y3789*
X26467Y3788*
X26466Y3784*
X26463Y3779*
X26461Y3774*
X26451Y3761*
X26446Y3754*
X26439Y3749*
X26438Y3748*
X26436Y3747*
X26432Y3745*
X26426Y3742*
X26420Y3740*
X26412Y3737*
X26402Y3734*
X26392Y3732*
X26391*
X26388Y3731*
X26382*
X26373Y3730*
X26361Y3729*
X26346*
X26338Y3728*
X26103*
Y3672*
X26005*
Y3728*
X25912*
X25840Y3851*
X26005*
Y3936*
X26103*
Y3851*
X26320*
X26331Y3852*
X26351*
X26354Y3853*
X26356*
X26358Y3854*
X26362Y3856*
X26366Y3859*
X26372Y3864*
X26373Y3866*
X26375Y3870*
X26377Y3876*
Y3885*
Y3886*
Y3888*
Y3892*
X26376Y3898*
X26375Y3905*
X26373Y3913*
X26370Y3924*
X26366Y3935*
X26462Y3946*
Y3945*
G37*
G36*
X42228Y3335D02*
X42233Y3333D01*
X42241Y3330*
X42249Y3326*
X42259Y3323*
X42270Y3318*
X42282Y3312*
X42307Y3300*
X42333Y3283*
X42358Y3263*
X42369Y3251*
X42379Y3239*
X42380*
X42381Y3237*
X42384Y3233*
X42388Y3227*
X42391Y3221*
X42395Y3213*
X42400Y3203*
X42404Y3193*
X42410Y3181*
X42414Y3168*
X42418Y3154*
X42422Y3140*
X42425Y3124*
X42428Y3106*
X42429Y3089*
X42430Y3069*
Y3067*
Y3064*
X42429Y3057*
X42428Y3048*
X42427Y3038*
X42425Y3025*
X42423Y3011*
X42419Y2995*
X42414Y2980*
X42409Y2963*
X42401Y2945*
X42393Y2928*
X42384Y2910*
X42372Y2893*
X42359Y2876*
X42343Y2860*
X42342Y2859*
X42339Y2857*
X42334Y2853*
X42327Y2847*
X42318Y2842*
X42308Y2834*
X42295Y2827*
X42280Y2820*
X42265Y2812*
X42247Y2805*
X42227Y2797*
X42205Y2792*
X42183Y2786*
X42158Y2783*
X42132Y2780*
X42105Y2779*
X42097*
X42089Y2780*
X42078*
X42065Y2782*
X42049Y2784*
X42033Y2785*
X42013Y2789*
X41994Y2794*
X41973Y2799*
X41953Y2806*
X41932Y2814*
X41911Y2823*
X41892Y2834*
X41874Y2846*
X41856Y2861*
X41855Y2862*
X41852Y2865*
X41848Y2870*
X41842Y2876*
X41836Y2884*
X41828Y2895*
X41820Y2906*
X41812Y2920*
X41803Y2934*
X41795Y2950*
X41788Y2969*
X41781Y2987*
X41776Y3008*
X41771Y3030*
X41768Y3054*
X41767Y3078*
Y3079*
Y3083*
Y3089*
X41768Y3097*
X41769Y3107*
X41771Y3118*
X41773Y3131*
X41776Y3145*
X41779Y3160*
X41784Y3176*
X41789Y3191*
X41797Y3208*
X41804Y3224*
X41813Y3239*
X41825Y3254*
X41837Y3268*
Y3269*
X41838Y3270*
X41841Y3273*
X41844Y3275*
X41849Y3279*
X41854Y3283*
X41867Y3293*
X41884Y3303*
X41904Y3314*
X41927Y3324*
X41954Y3334*
X41984Y3206*
X41983Y3205*
X41980*
X41976Y3203*
X41968Y3201*
X41957Y3196*
X41944Y3190*
X41931Y3181*
X41918Y3170*
X41907Y3158*
X41906Y3156*
X41902Y3152*
X41898Y3144*
X41892Y3134*
X41886Y3121*
X41882Y3106*
X41878Y3090*
X41877Y3071*
Y3070*
Y3068*
Y3065*
X41878Y3059*
X41879Y3054*
X41880Y3046*
X41884Y3030*
X41890Y3012*
X41899Y2993*
X41905Y2982*
X41911Y2973*
X41920Y2964*
X41929Y2956*
X41930*
X41932Y2954*
X41935Y2952*
X41939Y2949*
X41945Y2945*
X41951Y2942*
X41959Y2938*
X41969Y2934*
X41980Y2930*
X41992Y2926*
X42006Y2922*
X42021Y2919*
X42037Y2916*
X42055Y2914*
X42074Y2913*
X42095Y2912*
X42107*
X42115Y2913*
X42125*
X42137Y2915*
X42149Y2916*
X42163Y2918*
X42192Y2923*
X42220Y2931*
X42234Y2935*
X42247Y2942*
X42259Y2948*
X42269Y2956*
X42270Y2957*
X42271*
X42274Y2960*
X42278Y2964*
X42285Y2973*
X42294Y2986*
X42304Y3002*
X42312Y3021*
X42318Y3043*
X42319Y3055*
X42320Y3068*
Y3069*
Y3070*
Y3073*
X42319Y3077*
X42318Y3087*
X42316Y3099*
X42312Y3112*
X42306Y3127*
X42299Y3141*
X42288Y3156*
X42286Y3158*
X42281Y3163*
X42274Y3169*
X42263Y3177*
X42248Y3186*
X42230Y3194*
X42209Y3202*
X42184Y3210*
X42223Y3336*
X42224*
X42228Y3335*
G37*
G36*
X42115Y5133D02*
X42126D01*
X42139Y5131*
X42154Y5129*
X42171Y5126*
X42189Y5124*
X42208Y5119*
X42229Y5114*
X42249Y5106*
X42269Y5098*
X42289Y5089*
X42308Y5077*
X42327Y5064*
X42344Y5049*
X42345Y5048*
X42348Y5045*
X42352Y5040*
X42358Y5033*
X42364Y5025*
X42372Y5015*
X42379Y5003*
X42388Y4990*
X42396Y4974*
X42403Y4957*
X42411Y4939*
X42417Y4918*
X42423Y4897*
X42427Y4874*
X42430Y4850*
X42431Y4824*
Y4822*
Y4818*
X42430Y4810*
X42429Y4801*
X42428Y4789*
X42426Y4775*
X42424Y4759*
X42420Y4743*
X42415Y4724*
X42410Y4707*
X42402Y4687*
X42394Y4669*
X42385Y4649*
X42373Y4632*
X42360Y4614*
X42344Y4598*
X42343Y4597*
X42340Y4594*
X42335Y4590*
X42328Y4585*
X42319Y4578*
X42308Y4571*
X42296Y4563*
X42281Y4556*
X42266Y4548*
X42247Y4540*
X42228Y4533*
X42206Y4526*
X42183Y4521*
X42158Y4517*
X42131Y4514*
X42104Y4513*
X42094*
X42087Y4514*
X42079*
X42070Y4515*
X42058Y4516*
X42046Y4517*
X42021Y4521*
X41993Y4525*
X41965Y4533*
X41939Y4542*
X41938*
X41937Y4543*
X41935Y4545*
X41931Y4546*
X41922Y4551*
X41910Y4558*
X41896Y4566*
X41882Y4576*
X41866Y4588*
X41851Y4601*
X41850Y4602*
X41849Y4603*
X41845Y4608*
X41837Y4616*
X41829Y4626*
X41820Y4638*
X41810Y4652*
X41800Y4668*
X41793Y4685*
X41792Y4687*
X41790Y4691*
X41789Y4696*
X41787Y4701*
X41785Y4708*
X41783Y4716*
X41780Y4724*
X41776Y4745*
X41771Y4768*
X41768Y4795*
X41767Y4822*
Y4824*
Y4829*
X41768Y4836*
Y4845*
X41770Y4857*
X41772Y4871*
X41775Y4887*
X41778Y4904*
X41783Y4921*
X41788Y4940*
X41796Y4958*
X41804Y4978*
X41814Y4996*
X41826Y5015*
X41840Y5032*
X41856Y5049*
X41857Y5050*
X41860Y5052*
X41865Y5057*
X41872Y5062*
X41881Y5068*
X41892Y5076*
X41905Y5083*
X41920Y5091*
X41935Y5100*
X41954Y5107*
X41974Y5114*
X41996Y5121*
X42020Y5126*
X42045Y5130*
X42071Y5133*
X42100Y5134*
X42106*
X42115Y5133*
G37*
G36*
X42419Y5541D02*
X42350D01*
X42352Y5540*
X42356Y5536*
X42363Y5530*
X42371Y5522*
X42381Y5513*
X42390Y5501*
X42401Y5488*
X42409Y5473*
X42410Y5471*
X42412Y5466*
X42415Y5457*
X42419Y5446*
X42423Y5433*
X42426Y5419*
X42428Y5403*
X42429Y5386*
Y5385*
Y5384*
Y5382*
Y5378*
X42428Y5370*
X42426Y5359*
X42425Y5345*
X42421Y5331*
X42415Y5316*
X42409Y5302*
X42408Y5300*
X42405Y5297*
X42401Y5289*
X42394Y5282*
X42386Y5273*
X42376Y5264*
X42364Y5256*
X42352Y5248*
X42350*
X42345Y5246*
X42337Y5243*
X42325Y5240*
X42310Y5237*
X42292Y5235*
X42272Y5233*
X42249Y5232*
X41955*
Y5355*
X42200*
X42219Y5356*
X42241Y5357*
X42260Y5358*
X42268Y5359*
X42277*
X42283Y5360*
X42288Y5361*
X42289*
X42291Y5362*
X42295Y5364*
X42301Y5367*
X42306Y5370*
X42312Y5374*
X42317Y5379*
X42323Y5385*
X42324Y5386*
X42325Y5389*
X42327Y5393*
X42328Y5398*
X42331Y5405*
X42333Y5413*
X42334Y5421*
X42335Y5432*
Y5433*
Y5437*
X42334Y5443*
X42333Y5450*
X42331Y5459*
X42327Y5469*
X42324Y5479*
X42318Y5488*
X42317Y5489*
X42315Y5492*
X42312Y5496*
X42306Y5502*
X42300Y5507*
X42293Y5513*
X42285Y5518*
X42276Y5522*
X42275*
X42270Y5524*
X42266*
X42262Y5525*
X42257Y5526*
X42251Y5527*
X42242Y5528*
X42234Y5529*
X42224Y5530*
X42212*
X42199*
X42184Y5531*
X41955*
Y5654*
X42419*
Y5541*
G37*
G36*
X42412Y6003D02*
X42413Y6002D01*
X42414Y5996*
X42417Y5987*
X42420Y5975*
X42424Y5961*
X42426Y5945*
X42428Y5926*
X42429Y5907*
Y5905*
Y5901*
X42428Y5895*
X42427Y5886*
X42426Y5877*
X42425Y5867*
X42422Y5857*
X42418Y5847*
X42417Y5846*
X42416Y5842*
X42413Y5837*
X42411Y5832*
X42401Y5819*
X42396Y5812*
X42389Y5807*
X42388Y5806*
X42386Y5805*
X42382Y5803*
X42376Y5800*
X42370Y5798*
X42362Y5795*
X42352Y5792*
X42342Y5790*
X42341*
X42338Y5789*
X42332*
X42323Y5788*
X42311*
X42296*
X42288Y5787*
X42053*
Y5730*
X41955*
Y5787*
X41862*
X41790Y5910*
X41955*
Y5994*
X42053*
Y5910*
X42270*
X42281*
X42301*
X42304Y5911*
X42306*
X42308Y5912*
X42312Y5914*
X42316Y5917*
X42322Y5923*
X42323Y5924*
X42325Y5928*
X42327Y5935*
Y5943*
Y5944*
Y5947*
Y5950*
X42326Y5956*
X42325Y5963*
X42323Y5972*
X42320Y5982*
X42316Y5993*
X42412Y6004*
Y6003*
G37*
G36*
Y4215D02*
X42413Y4214D01*
X42414Y4208*
X42417Y4199*
X42420Y4187*
X42424Y4173*
X42426Y4157*
X42428Y4138*
X42429Y4119*
Y4117*
Y4113*
X42428Y4107*
X42427Y4098*
X42426Y4089*
X42425Y4079*
X42422Y4069*
X42418Y4059*
X42417Y4058*
X42416Y4054*
X42413Y4049*
X42411Y4044*
X42401Y4031*
X42396Y4024*
X42389Y4019*
X42388Y4018*
X42386Y4017*
X42382Y4015*
X42376Y4012*
X42370Y4010*
X42362Y4007*
X42352Y4004*
X42342Y4002*
X42341*
X42338Y4001*
X42332*
X42323Y4000*
X42311Y3999*
X42296*
X42288Y3998*
X42053*
Y3942*
X41955*
Y3998*
X41862*
X41790Y4121*
X41955*
Y4206*
X42053*
Y4121*
X42270*
X42281Y4122*
X42301*
X42304Y4123*
X42306*
X42308Y4124*
X42312Y4126*
X42316Y4129*
X42322Y4134*
X42323Y4136*
X42325Y4140*
X42327Y4146*
Y4155*
Y4156*
Y4158*
Y4162*
X42326Y4168*
X42325Y4175*
X42323Y4183*
X42320Y4194*
X42316Y4205*
X42412Y4216*
Y4215*
G37*
G36*
X42419Y3753D02*
X42350D01*
X42352Y3752*
X42356Y3748*
X42363Y3742*
X42371Y3734*
X42381Y3725*
X42390Y3713*
X42401Y3700*
X42409Y3685*
X42410Y3683*
X42412Y3678*
X42415Y3669*
X42419Y3658*
X42423Y3645*
X42426Y3631*
X42428Y3615*
X42429Y3598*
Y3597*
Y3596*
Y3594*
Y3590*
X42428Y3582*
X42426Y3570*
X42425Y3557*
X42421Y3543*
X42415Y3528*
X42409Y3514*
X42408Y3512*
X42405Y3508*
X42401Y3501*
X42394Y3494*
X42386Y3484*
X42376Y3476*
X42364Y3468*
X42352Y3460*
X42350Y3459*
X42345Y3458*
X42337Y3455*
X42325Y3452*
X42310Y3449*
X42292Y3447*
X42272Y3445*
X42249Y3444*
X41955*
Y3567*
X42200*
X42219Y3568*
X42241Y3569*
X42260*
X42268Y3570*
X42277Y3571*
X42283Y3572*
X42288Y3573*
X42289*
X42291Y3574*
X42295Y3576*
X42301Y3579*
X42306Y3582*
X42312Y3586*
X42317Y3591*
X42323Y3597*
X42324Y3598*
X42325Y3601*
X42327Y3605*
X42328Y3610*
X42331Y3617*
X42333Y3625*
X42334Y3633*
X42335Y3643*
Y3645*
Y3649*
X42334Y3655*
X42333Y3662*
X42331Y3671*
X42327Y3680*
X42324Y3691*
X42318Y3700*
X42317Y3701*
X42315Y3704*
X42312Y3708*
X42306Y3714*
X42300Y3719*
X42293Y3725*
X42285Y3730*
X42276Y3734*
X42275*
X42270Y3736*
X42266*
X42262Y3737*
X42257Y3738*
X42251Y3739*
X42242Y3740*
X42234Y3741*
X42224*
X42212*
X42199Y3742*
X42184Y3743*
X41955*
Y3866*
X42419*
Y3753*
G37*
%LNraspberryhatboard-2*%
%LPC*%
G36*
X26147Y4731D02*
X26137D01*
X26129Y4730*
X26120Y4729*
X26109Y4728*
X26097Y4727*
X26085Y4724*
X26058Y4719*
X26031Y4710*
X26017Y4705*
X26005Y4698*
X25993Y4690*
X25982Y4682*
X25981Y4681*
X25979Y4680*
X25977Y4677*
X25973Y4673*
X25969Y4668*
X25964Y4662*
X25960Y4656*
X25954Y4648*
X25949Y4639*
X25945Y4629*
X25936Y4608*
X25932Y4596*
X25930Y4583*
X25928Y4569*
X25927Y4554*
Y4553*
Y4550*
Y4547*
X25928Y4541*
X25929Y4534*
X25930Y4526*
X25934Y4508*
X25941Y4488*
X25945Y4476*
X25950Y4465*
X25957Y4455*
X25964Y4444*
X25973Y4434*
X25983Y4425*
X25984Y4424*
X25985Y4423*
X25988Y4420*
X25993Y4417*
X25999Y4414*
X26006Y4410*
X26014Y4405*
X26024Y4401*
X26035Y4396*
X26047Y4391*
X26061Y4388*
X26076Y4384*
X26093Y4381*
X26110Y4378*
X26129*
X26149Y4377*
X26159*
X26167Y4378*
X26176*
X26187Y4379*
X26198Y4381*
X26211Y4383*
X26238Y4389*
X26265Y4398*
X26279Y4403*
X26291Y4410*
X26304Y4418*
X26315Y4427*
X26316*
X26317Y4429*
X26320Y4432*
X26323Y4436*
X26328Y4440*
X26332Y4447*
X26338Y4453*
X26342Y4462*
X26353Y4479*
X26362Y4501*
X26365Y4513*
X26368Y4526*
X26370Y4540*
X26371Y4554*
Y4555*
Y4558*
Y4562*
X26370Y4567*
X26369Y4574*
X26368Y4581*
X26364Y4599*
X26357Y4619*
X26353Y4629*
X26348Y4640*
X26341Y4650*
X26334Y4661*
X26326Y4672*
X26316Y4681*
X26315Y4682*
X26313Y4683*
X26310Y4685*
X26305Y4688*
X26299Y4693*
X26291Y4697*
X26283Y4701*
X26273Y4706*
X26262Y4710*
X26250Y4715*
X26236Y4720*
X26220Y4723*
X26205Y4726*
X26187Y4729*
X26168Y4730*
X26147Y4731*
G37*
G36*
X42097Y5001D02*
X42087D01*
X42079Y5000*
X42070Y4999*
X42059Y4998*
X42047Y4997*
X42035Y4994*
X42008Y4989*
X41981Y4980*
X41967Y4975*
X41955Y4968*
X41943Y4960*
X41932Y4952*
X41931Y4951*
X41929Y4950*
X41927Y4947*
X41923Y4943*
X41919Y4938*
X41914Y4932*
X41910Y4926*
X41904Y4918*
X41899Y4909*
X41895Y4899*
X41886Y4878*
X41882Y4866*
X41880Y4853*
X41878Y4839*
X41877Y4824*
Y4823*
Y4820*
Y4817*
X41878Y4811*
X41879Y4804*
X41880Y4796*
X41884Y4778*
X41891Y4758*
X41895Y4746*
X41900Y4735*
X41907Y4725*
X41914Y4714*
X41923Y4704*
X41933Y4695*
X41934Y4694*
X41935Y4693*
X41938Y4690*
X41943Y4687*
X41949Y4684*
X41956Y4680*
X41964Y4675*
X41974Y4671*
X41985Y4666*
X41997Y4661*
X42011Y4658*
X42026Y4654*
X42043Y4651*
X42060Y4648*
X42079*
X42099Y4647*
X42109*
X42117Y4648*
X42126*
X42137Y4649*
X42148Y4651*
X42161Y4653*
X42188Y4659*
X42215Y4668*
X42229Y4673*
X42241Y4680*
X42254Y4688*
X42265Y4697*
X42266*
X42267Y4699*
X42270Y4702*
X42273Y4706*
X42278Y4710*
X42282Y4717*
X42288Y4723*
X42292Y4732*
X42303Y4749*
X42312Y4771*
X42315Y4783*
X42318Y4796*
X42320Y4810*
X42321Y4824*
Y4825*
Y4828*
Y4832*
X42320Y4837*
X42319Y4844*
X42318Y4851*
X42314Y4869*
X42307Y4889*
X42303Y4899*
X42298Y4910*
X42291Y4920*
X42284Y4931*
X42276Y4942*
X42266Y4951*
X42265Y4952*
X42263Y4953*
X42260Y4955*
X42255Y4958*
X42249Y4963*
X42241Y4967*
X42233Y4971*
X42223Y4976*
X42212Y4980*
X42200Y4985*
X42186Y4990*
X42170Y4993*
X42155Y4996*
X42137Y4999*
X42118Y5000*
X42097Y5001*
G37*
%LNraspberryhatboard-3*%
%LPD*%
G54D50*
X1499Y18999D02*
D01*
X1430Y18997*
X1360Y18990*
X1292Y18978*
X1224Y18961*
X1157Y18939*
X1093Y18913*
X1030Y18882*
X970Y18848*
X912Y18809*
X857Y18766*
X805Y18719*
X756Y18669*
X711Y18615*
X670Y18559*
X633Y18499*
X601Y18438*
X572Y18374*
X548Y18309*
X529Y18241*
X515Y18173*
X505Y18104*
X500Y18034*
X499Y17999*
X4499Y18999D02*
D01*
X4569Y19002*
X4639Y19009*
X4707Y19021*
X4775Y19038*
X4842Y19060*
X4906Y19086*
X4969Y19117*
X5029Y19151*
X5087Y19190*
X5142Y19233*
X5194Y19280*
X5243Y19330*
X5288Y19384*
X5329Y19440*
X5366Y19499*
X5398Y19561*
X5427Y19625*
X5451Y19690*
X5470Y19758*
X5484Y19826*
X5494Y19895*
X5499Y19965*
X5499Y19999*
Y34999D02*
D01*
X5497Y35069*
X5490Y35139*
X5478Y35207*
X5461Y35275*
X5439Y35342*
X5413Y35406*
X5382Y35469*
X5348Y35529*
X5309Y35587*
X5266Y35642*
X5219Y35694*
X5169Y35743*
X5115Y35787*
X5059Y35829*
X4999Y35866*
X4938Y35898*
X4874Y35927*
X4809Y35951*
X4741Y35970*
X4673Y35984*
X4604Y35994*
X4534Y35999*
X4499Y35999*
X499Y36999D02*
D01*
X502Y36930*
X509Y36860*
X521Y36792*
X538Y36724*
X560Y36657*
X586Y36593*
X617Y36530*
X651Y36470*
X690Y36412*
X733Y36357*
X780Y36305*
X830Y36256*
X884Y36211*
X940Y36170*
X999Y36133*
X1061Y36101*
X1125Y36072*
X1190Y36048*
X1258Y36029*
X1326Y36015*
X1395Y36005*
X1465Y36000*
X1499Y35999*
X499Y2999D02*
D01*
X507Y2790*
X529Y2582*
X565Y2376*
X616Y2173*
X680Y1973*
X759Y1779*
X851Y1591*
X955Y1410*
X1072Y1236*
X1201Y1071*
X1341Y916*
X1492Y770*
X1653Y635*
X1822Y512*
X1999Y401*
X2184Y303*
X2376Y218*
X2572Y146*
X2774Y89*
X2979Y45*
X3186Y16*
X3395Y1*
X3499Y0*
X62499D02*
D01*
X62709Y7*
X62917Y29*
X63123Y65*
X63326Y116*
X63526Y180*
X63720Y259*
X63908Y351*
X64089Y455*
X64263Y572*
X64428Y701*
X64583Y841*
X64729Y992*
X64864Y1153*
X64987Y1322*
X65098Y1499*
X65196Y1684*
X65281Y1876*
X65353Y2072*
X65410Y2274*
X65454Y2479*
X65483Y2686*
X65498Y2895*
X65499Y2999*
Y52999D02*
D01*
X65492Y53209*
X65470Y53417*
X65434Y53623*
X65383Y53826*
X65319Y54026*
X65240Y54220*
X65148Y54408*
X65044Y54589*
X64927Y54763*
X64798Y54928*
X64658Y55083*
X64507Y55229*
X64346Y55364*
X64177Y55487*
X63999Y55598*
X63815Y55696*
X63623Y55781*
X63427Y55853*
X63225Y55910*
X63020Y55954*
X62813Y55983*
X62604Y55998*
X62499Y55999*
X3499D02*
D01*
X3290Y55992*
X3082Y55970*
X2876Y55934*
X2673Y55883*
X2473Y55819*
X2279Y55740*
X2091Y55648*
X1910Y55544*
X1736Y55427*
X1571Y55298*
X1416Y55158*
X1270Y55007*
X1135Y54846*
X1012Y54677*
X901Y54499*
X803Y54315*
X718Y54123*
X646Y53927*
X589Y53725*
X545Y53520*
X516Y53313*
X501Y53104*
X499Y52999*
X65499Y2999D02*
Y53099D01*
X1499Y18999D02*
X4499D01*
X5499Y19999D02*
Y34999D01*
X499Y2999D02*
Y17999D01*
X1499Y35999D02*
X4499D01*
X499Y36999D02*
Y52999D01*
X3499Y0D02*
X62499D01*
X3499Y55999D02*
X62499D01*
G54D79*
X27399Y5499D02*
D01*
X27396Y5590*
X27386Y5680*
X27369Y5770*
X27347Y5857*
X27318Y5944*
X27283Y6027*
X27243Y6109*
X27197Y6187*
X27146Y6262*
X27090Y6333*
X27028Y6400*
X26963Y6463*
X26893Y6520*
X26819Y6573*
X26742Y6621*
X26661Y6663*
X26578Y6699*
X26493Y6730*
X26405Y6754*
X26316Y6772*
X26226Y6784*
X26136Y6790*
X26045Y6789*
X25955Y6782*
X25865Y6769*
X25776Y6750*
X25689Y6724*
X25604Y6692*
X25522Y6655*
X25442Y6612*
X25365Y6563*
X25292Y6509*
X25223Y6451*
X25158Y6387*
X25098Y6319*
X25042Y6247*
X24992Y6172*
X24947Y6093*
X24908Y6011*
X24875Y5927*
X24847Y5840*
X24826Y5752*
X24811Y5663*
X24802Y5572*
X24799Y5499*
Y3099D02*
D01*
X24803Y3009*
X24814Y2919*
X24830Y2829*
X24853Y2742*
X24881Y2655*
X24916Y2572*
X24956Y2490*
X25002Y2412*
X25054Y2337*
X25110Y2266*
X25171Y2199*
X25237Y2137*
X25307Y2079*
X25381Y2026*
X25458Y1979*
X25539Y1937*
X25622Y1900*
X25707Y1870*
X25795Y1846*
X25884Y1828*
X25974Y1816*
X26064Y1810*
X26155Y1811*
X26245Y1818*
X26335Y1831*
X26424Y1851*
X26511Y1876*
X26596Y1908*
X26678Y1945*
X26758Y1989*
X26835Y2037*
X26908Y2091*
X26977Y2150*
X27042Y2214*
X27102Y2282*
X27157Y2353*
X27207Y2429*
X27252Y2508*
X27291Y2590*
X27325Y2674*
X27352Y2761*
X27373Y2849*
X27388Y2938*
X27397Y3029*
X27399Y3099*
X43499Y5599D02*
D01*
X43496Y5690*
X43486Y5780*
X43469Y5870*
X43447Y5957*
X43418Y6044*
X43383Y6127*
X43343Y6209*
X43297Y6287*
X43246Y6362*
X43190Y6433*
X43128Y6500*
X43063Y6563*
X42993Y6620*
X42919Y6673*
X42842Y6721*
X42761Y6763*
X42678Y6799*
X42593Y6830*
X42505Y6854*
X42416Y6872*
X42326Y6884*
X42236Y6890*
X42145Y6889*
X42055Y6882*
X41965Y6869*
X41876Y6850*
X41789Y6824*
X41704Y6792*
X41622Y6755*
X41542Y6712*
X41465Y6663*
X41392Y6609*
X41323Y6551*
X41258Y6487*
X41198Y6419*
X41142Y6347*
X41092Y6272*
X41047Y6193*
X41008Y6111*
X40975Y6027*
X40947Y5940*
X40926Y5852*
X40911Y5763*
X40902Y5672*
X40899Y5599*
Y3199D02*
D01*
X40903Y3109*
X40914Y3019*
X40930Y2929*
X40953Y2842*
X40981Y2755*
X41016Y2672*
X41056Y2590*
X41102Y2512*
X41154Y2437*
X41210Y2366*
X41271Y2299*
X41337Y2237*
X41407Y2179*
X41481Y2126*
X41558Y2079*
X41639Y2037*
X41722Y2000*
X41807Y1970*
X41895Y1946*
X41984Y1928*
X42074Y1916*
X42164Y1910*
X42255Y1911*
X42345Y1918*
X42435Y1931*
X42524Y1951*
X42611Y1976*
X42696Y2008*
X42778Y2045*
X42858Y2089*
X42935Y2137*
X43008Y2191*
X43077Y2250*
X43142Y2314*
X43202Y2382*
X43257Y2453*
X43307Y2529*
X43352Y2608*
X43391Y2690*
X43425Y2774*
X43452Y2861*
X43473Y2949*
X43488Y3038*
X43497Y3129*
X43499Y3199*
X24799Y3099D02*
Y5499D01*
X27399Y3099D02*
Y5499D01*
X40899Y3199D02*
Y5599D01*
X43499Y3199D02*
Y5599D01*
M02*