%FSLAX23Y23*%
%MOMM*%
%SFA1B1*%

%IPPOS*%
%AMD24*
4,1,8,-0.952500,-1.270000,0.952500,-1.270000,1.270000,-0.952500,1.270000,0.952500,0.952500,1.270000,-0.952500,1.270000,-1.270000,0.952500,-1.270000,-0.952500,-0.952500,-1.270000,0.0*
1,1,0.636000,-0.952500,-0.952500*
1,1,0.636000,0.952500,-0.952500*
1,1,0.636000,0.952500,0.952500*
1,1,0.636000,-0.952500,0.952500*
%
%ADD20C,0.799998*%
%ADD22C,6.199988*%
%ADD23C,2.499995*%
G04~CAMADD=24~8~0.0~0.0~1000.0~1000.0~125.2~0.0~15~0.0~0.0~0.0~0.0~0~0.0~0.0~0.0~0.0~0~0.0~0.0~0.0~180.0~1000.0~1000.0*
%ADD24D24*%
%ADD25C,2.539995*%
%ADD26C,0.799998*%
%ADD27C,1.199998*%
%ADD28C,0.150000*%
%LNanalogpsu-1*%
%LPD*%
G36*
X53499Y2499D02*
X2499D01*
Y92499*
X53499*
Y2499*
G37*
%LNanalogpsu-2*%
%LPC*%
G36*
X9452Y45466D02*
X7547D01*
X7333Y45438*
X7134Y45356*
X6963Y45225*
X6832Y45054*
X6750Y44855*
X6722Y44642*
Y42736*
X6750Y42523*
X6832Y42324*
X6963Y42153*
X7134Y42022*
X7333Y41940*
X7547Y41912*
X9452*
X9665Y41940*
X9864Y42022*
X10035Y42153*
X10166Y42324*
X10248Y42523*
X10276Y42736*
Y44642*
X10248Y44855*
X10166Y45054*
X10035Y45225*
X9864Y45356*
X9665Y45438*
X9452Y45466*
G37*
G36*
X42499Y37257D02*
X42156Y37224D01*
X41826Y37124*
X41522Y36961*
X41256Y36742*
X41037Y36476*
X40874Y36172*
X40774Y35842*
X40741Y35499*
X40774Y35156*
X40874Y34826*
X41037Y34522*
X41256Y34256*
X41522Y34037*
X41826Y33874*
X42156Y33774*
X42499Y33741*
X42842Y33774*
X43172Y33874*
X43476Y34037*
X43742Y34256*
X43961Y34522*
X44124Y34826*
X44224Y35156*
X44257Y35499*
X44224Y35842*
X44124Y36172*
X43961Y36476*
X43742Y36742*
X43476Y36961*
X43172Y37124*
X42842Y37224*
X42499Y37257*
G37*
G36*
X30999Y39509D02*
X20999D01*
X20836Y39476*
X20804Y39470*
X20639Y39359*
X19639Y38359*
X19528Y38194*
X19489Y37999*
Y25407*
X10623*
X10554Y25460*
X10286Y25571*
X9999Y25608*
X9712Y25571*
X9444Y25460*
X9214Y25284*
X9038Y25054*
X8927Y24786*
X8890Y24499*
X8927Y24212*
X9038Y23944*
X9214Y23714*
X9444Y23538*
X9712Y23427*
X9999Y23390*
X10286Y23427*
X10554Y23538*
X10623Y23591*
X19489*
Y22710*
X18788Y22009*
X6999*
X6804Y21970*
X6639Y21859*
X6139Y21359*
X6138*
X6082Y21275*
X6028Y21194*
Y21193*
X6008Y21096*
X5989Y20999*
Y20998*
X6004Y10645*
X5973Y10598*
X5928Y10374*
X5973Y10150*
X6036Y10055*
X6000Y9961*
X5883Y9933*
X5360Y9717*
X4876Y9420*
X4446Y9052*
X4078Y8622*
X3781Y8138*
X3565Y7615*
X3432Y7064*
X3388Y6499*
X3432Y5934*
X3565Y5383*
X3781Y4860*
X4078Y4376*
X4446Y3946*
X4876Y3578*
X5360Y3281*
X5883Y3065*
X6434Y2932*
X6999Y2888*
X7564Y2932*
X8115Y3065*
X8638Y3281*
X9122Y3578*
X9552Y3946*
X9920Y4376*
X10217Y4860*
X10433Y5383*
X10566Y5934*
X10600Y6375*
X10680Y6436*
X10874Y6397*
X11098Y6442*
X11146Y6474*
X30999Y6489*
X51499*
X51694Y6528*
X51859Y6639*
X52859Y7639*
X52970Y7804*
X53009Y7999*
Y14999*
Y20499*
X52970Y20694*
X52859Y20859*
X52359Y21359*
X51859Y21859*
X51694Y21970*
X51499Y22009*
X32710*
X32009Y22710*
Y30499*
Y38499*
X31976Y38662*
X31970Y38694*
X31859Y38859*
X31359Y39359*
X31194Y39470*
X30999Y39509*
G37*
G36*
X9999Y72108D02*
X9712Y72071D01*
X9444Y71960*
X9214Y71784*
X9038Y71554*
X8927Y71286*
X8890Y70999*
X8927Y70712*
X9038Y70444*
X9214Y70214*
X9444Y70038*
X9712Y69927*
X9999Y69890*
X10286Y69927*
X10554Y70038*
X10623Y70091*
X25623*
X26416Y69298*
X26427Y69212*
X26538Y68944*
X26714Y68714*
X26944Y68538*
X27212Y68427*
X27499Y68390*
X27786Y68427*
X28054Y68538*
X28284Y68714*
X28460Y68944*
X28571Y69212*
X28608Y69499*
X28571Y69786*
X28460Y70054*
X28284Y70284*
X28054Y70460*
X27786Y70571*
X27700Y70582*
X26641Y71641*
X26453Y71785*
X26234Y71876*
X25999Y71907*
X10623*
X10554Y71960*
X10286Y72071*
X9999Y72108*
G37*
G36*
X6999Y92110D02*
X6434Y92066D01*
X5883Y91933*
X5360Y91717*
X4876Y91420*
X4446Y91052*
X4078Y90622*
X3781Y90138*
X3565Y89615*
X3432Y89064*
X3388Y88499*
X3432Y87934*
X3565Y87383*
X3781Y86860*
X4078Y86376*
X4446Y85946*
X4876Y85578*
X5360Y85281*
X5883Y85065*
X6434Y84932*
X6999Y84888*
X7564Y84932*
X8115Y85065*
X8638Y85281*
X9122Y85578*
X9552Y85946*
X9920Y86376*
X10217Y86860*
X10433Y87383*
X10566Y87934*
X10610Y88499*
X10566Y89064*
X10433Y89615*
X10217Y90138*
X9920Y90622*
X9552Y91052*
X9122Y91420*
X8638Y91717*
X8115Y91933*
X7564Y92066*
X6999Y92110*
G37*
G36*
X8499Y53088D02*
X8152Y53053D01*
X7818Y52952*
X7511Y52788*
X7241Y52567*
X7020Y52297*
X6856Y51990*
X6755Y51656*
X6720Y51309*
X6755Y50962*
X6856Y50628*
X7020Y50321*
X7241Y50051*
X7511Y49830*
X7818Y49666*
X8152Y49565*
X8499Y49530*
X8846Y49565*
X9180Y49666*
X9487Y49830*
X9757Y50051*
X9978Y50321*
X10142Y50628*
X10243Y50962*
X10278Y51309*
X10243Y51656*
X10142Y51990*
X9978Y52297*
X9757Y52567*
X9487Y52788*
X9180Y52952*
X8846Y53053*
X8499Y53088*
G37*
G36*
X42499Y62257D02*
X42156Y62224D01*
X41826Y62124*
X41522Y61961*
X41256Y61742*
X41037Y61476*
X40874Y61172*
X40774Y60842*
X40741Y60499*
X40774Y60156*
X40874Y59826*
X41037Y59522*
X41256Y59256*
X41522Y59037*
X41826Y58874*
X42156Y58774*
X42499Y58741*
X42842Y58774*
X43172Y58874*
X43476Y59037*
X43742Y59256*
X43961Y59522*
X44124Y59826*
X44224Y60156*
X44257Y60499*
X44224Y60842*
X44124Y61172*
X43961Y61476*
X43742Y61742*
X43476Y61961*
X43172Y62124*
X42842Y62224*
X42499Y62257*
G37*
%LNanalogpsu-3*%
%LPD*%
G36*
X31499Y38499D02*
Y30499D01*
Y22499*
X32499Y21499*
X51499*
X51999Y20999*
X52499Y20499*
Y14999*
Y7999*
X51499Y6999*
X30999*
X10874Y6983*
X10399Y8474*
X9049Y9874*
X7736Y10311*
X6515Y10374*
X6499Y20999*
X6999Y21499*
X18999*
X19999Y22499*
Y23591*
X20499*
X20734Y23622*
X20862Y23675*
X20953Y23713*
X21141Y23857*
X21875Y24591*
X22375*
X22444Y24538*
X22712Y24427*
X22999Y24390*
X23286Y24427*
X23554Y24538*
X23784Y24714*
X23960Y24944*
X24071Y25212*
X24108Y25499*
X24071Y25786*
X23960Y26054*
X23784Y26284*
X23554Y26460*
X23286Y26571*
X22999Y26608*
X22712Y26571*
X22444Y26460*
X22375Y26407*
X21499*
X21264Y26376*
X21045Y26285*
X20857Y26141*
X20123Y25407*
X19999*
Y37999*
X20999Y38999*
X30999*
X31499Y38499*
G37*
G54D20*
X9999Y70999D02*
X25999D01*
X27499Y69499*
X9999Y24499D02*
X20499D01*
X21499Y25499*
X22999*
G54D22*
X6999Y88499D03*
Y6499D03*
X87999D03*
X88499Y88999D03*
G54D23*
X42499Y40499D03*
Y55499D03*
Y60499D03*
X69999D03*
X42499Y35499D03*
X69999D03*
G54D24*
X86499Y51309D03*
X8499Y43689D03*
G54D25*
X86499Y47499D03*
Y43689D03*
X8499Y47499D03*
Y51309D03*
G54D26*
X21499Y14499D03*
X22499D03*
X24499D03*
X23499D03*
X26499D03*
X25499D03*
X28499D03*
X27499D03*
X22499Y12999D03*
X24499D03*
X23499D03*
X26499D03*
X25499D03*
X28499D03*
X27499D03*
X26499Y11499D03*
X25499D03*
X27499D03*
X28499D03*
X21499D03*
Y12999D03*
X22499Y11499D03*
X23499D03*
X24499D03*
G54D27*
X9999Y70999D03*
X27499Y69499D03*
X9999Y24499D03*
X22999Y25499D03*
G54D28*
X10874Y6983D02*
D01*
X10831Y7253*
X10769Y7518*
X10689Y7779*
X10591Y8033*
X10475Y8280*
X10343Y8518*
X10194Y8746*
X10029Y8963*
X9850Y9169*
X9657Y9361*
X9451Y9539*
X9233Y9703*
X9004Y9851*
X8765Y9983*
X8518Y10097*
X8263Y10194*
X8002Y10274*
X7737Y10334*
X7467Y10376*
X7196Y10400*
X6923Y10404*
X6651Y10389*
X6515Y10374*
M02*