%FSLAX23Y23*%
%MOMM*%
%SFA1B1*%

%IPPOS*%
%AMD14*
4,1,8,-0.449580,0.386080,-0.449580,-0.386080,-0.337820,-0.500380,0.337820,-0.500380,0.449580,-0.386080,0.449580,0.386080,0.337820,0.500380,-0.337820,0.500380,-0.449580,0.386080,0.0*
1,1,0.226000,-0.337820,0.386080*
1,1,0.226000,-0.337820,-0.386080*
1,1,0.226000,0.337820,-0.386080*
1,1,0.226000,0.337820,0.386080*
%
%AMD24*
4,1,8,-0.952500,-1.270000,0.952500,-1.270000,1.270000,-0.952500,1.270000,0.952500,0.952500,1.270000,-0.952500,1.270000,-1.270000,0.952500,-1.270000,-0.952500,-0.952500,-1.270000,0.0*
1,1,0.636000,-0.952500,-0.952500*
1,1,0.636000,0.952500,-0.952500*
1,1,0.636000,0.952500,0.952500*
1,1,0.636000,-0.952500,0.952500*
%
%ADD10R,1.519997X1.199998*%
%ADD11O,1.499997X4.499991*%
%ADD12O,1.499997X4.499991*%
%ADD13R,10.999978X8.999982*%
G04~CAMADD=14~8~0.0~0.0~393.7~354.3~44.5~0.0~15~0.0~0.0~0.0~0.0~0~0.0~0.0~0.0~0.0~0~0.0~0.0~0.0~90.0~354.0~394.0*
%ADD14D14*%
%ADD15R,1.599997X3.499993*%
%ADD16R,4.199992X1.899996*%
%ADD17C,2.399995*%
%ADD18C,0.999998*%
%ADD19C,0.699999*%
%ADD20C,0.799998*%
%ADD21C,2.999994*%
%ADD22C,6.199988*%
%ADD23C,2.499995*%
G04~CAMADD=24~8~0.0~0.0~1000.0~1000.0~125.2~0.0~15~0.0~0.0~0.0~0.0~0~0.0~0.0~0.0~0.0~0~0.0~0.0~0.0~180.0~1000.0~1000.0*
%ADD24D24*%
%ADD25C,2.539995*%
%ADD26C,0.799998*%
%ADD27C,1.199998*%
%LNanalogpsu-1*%
%LPD*%
G36*
X53499Y83749D02*
Y2499D01*
X2499*
Y92499*
X53499*
Y83749*
G37*
%LNanalogpsu-2*%
%LPC*%
G36*
X29759Y46099D02*
X27239D01*
Y43899*
X29759*
Y43990*
X45081*
X45490Y43581*
Y37917*
X44081Y36508*
X43935*
X43742Y36742*
X43476Y36961*
X43172Y37124*
X42842Y37224*
X42499Y37257*
X42156Y37224*
X41826Y37124*
X41522Y36961*
X41256Y36742*
X41037Y36476*
X40874Y36172*
X40774Y35842*
X40741Y35499*
X40774Y35156*
X40874Y34826*
X41037Y34522*
X41256Y34256*
X41522Y34037*
X41826Y33874*
X42156Y33774*
X42499Y33741*
X42842Y33774*
X43172Y33874*
X43476Y34037*
X43742Y34256*
X43935Y34490*
X44499*
X44760Y34525*
X45003Y34626*
X45212Y34786*
X47212Y36786*
X47373Y36995*
X47473Y37238*
X47508Y37499*
Y43999*
X47473Y44260*
X47373Y44503*
X47212Y44712*
X46212Y45712*
X46003Y45872*
X45760Y45973*
X45499Y46008*
X29759*
Y46099*
G37*
G36*
X22999Y76509D02*
X17999D01*
X17804Y76470*
X17639Y76359*
X17139Y75859*
X17028Y75694*
X16989Y75499*
Y61449*
X16899*
Y60994*
X16738Y60973*
X16566Y60902*
X16495Y60873*
X16286Y60712*
X15286Y59712*
X15126Y59503*
X15025Y59260*
X14990Y58999*
Y51499*
X15025Y51238*
X15126Y50995*
X15286Y50786*
X16586Y49486*
X16795Y49325*
X17038Y49225*
X17299Y49190*
X17739*
Y49099*
X20259*
Y51299*
X17739*
X17625*
X17008Y51917*
Y58549*
X22099*
Y61449*
X22009*
Y64788*
X22859Y65639*
X22970Y65804*
X23009Y65999*
Y66291*
X23014Y66299*
X23399*
X23599Y66499*
Y67499*
X23399Y67699*
X23014*
X23009Y67707*
Y70288*
X23859Y71139*
X23970Y71304*
X24009Y71499*
Y75499*
X23976Y75662*
X23970Y75694*
X23859Y75859*
X23359Y76359*
X23194Y76470*
X22999Y76509*
G37*
G36*
X20259Y46099D02*
X17739D01*
Y46008*
X17499*
X17238Y45973*
X16995Y45872*
X16786Y45712*
X15286Y44212*
X15126Y44003*
X15025Y43760*
X14990Y43499*
Y35999*
X15025Y35738*
X15101Y35554*
X15028Y35444*
X14989Y35249*
Y7499*
X15022Y7336*
X15028Y7304*
X15139Y7139*
X15639Y6639*
X15804Y6528*
X15999Y6489*
X19459*
Y6474*
X31459*
Y6489*
X43499*
X43694Y6528*
X43859Y6639*
X44109Y6889*
X44220Y7054*
X44259Y7249*
Y14999*
X44226Y15162*
X44220Y15194*
X44109Y15359*
X43109Y16359*
X42944Y16470*
X42749Y16509*
X20210*
X20009Y16710*
Y23288*
X21865Y25144*
X21963Y25125*
X22011Y25009*
Y23869*
X21827Y23629*
X21701Y23325*
X21658Y22999*
Y19999*
X21701Y19673*
X21827Y19369*
X22027Y19107*
X22289Y18907*
X22593Y18781*
X22919Y18738*
X23245Y18781*
X23549Y18907*
X23811Y19107*
X24011Y19369*
X24137Y19673*
X24180Y19999*
Y22999*
X24137Y23325*
X24011Y23629*
X23827Y23869*
Y24746*
X23849Y24800*
X23960Y24944*
X24071Y25212*
X24108Y25499*
X24071Y25786*
X23960Y26054*
X23784Y26284*
X23554Y26460*
X23286Y26571*
X23009Y26607*
Y26791*
X23014Y26799*
X23399*
X23599Y26999*
Y27999*
X23399Y28199*
X23014*
X23009Y28207*
Y33249*
X22976Y33412*
X22970Y33444*
X22859Y33609*
X22099Y34370*
Y36449*
X17008*
Y43081*
X17825Y43899*
X20259*
Y46099*
G37*
G36*
X6999Y10110D02*
X6434Y10066D01*
X5883Y9933*
X5360Y9717*
X4876Y9420*
X4446Y9052*
X4078Y8622*
X3781Y8138*
X3565Y7615*
X3432Y7064*
X3388Y6499*
X3432Y5934*
X3565Y5383*
X3781Y4860*
X4078Y4376*
X4446Y3946*
X4876Y3578*
X5360Y3281*
X5883Y3065*
X6434Y2932*
X6999Y2888*
X7564Y2932*
X8115Y3065*
X8638Y3281*
X9122Y3578*
X9552Y3946*
X9920Y4376*
X10217Y4860*
X10433Y5383*
X10566Y5934*
X10610Y6499*
X10566Y7064*
X10433Y7615*
X10217Y8138*
X9920Y8622*
X9552Y9052*
X9122Y9420*
X8638Y9717*
X8115Y9933*
X7564Y10066*
X6999Y10110*
G37*
G36*
X9499Y45509D02*
X7749D01*
X7554Y45470*
X7548Y45466*
X7547*
X7333Y45438*
X7134Y45356*
X6963Y45225*
X6832Y45054*
X6750Y44855*
X6722Y44642*
Y42736*
X6739Y42605*
Y42210*
X4639Y40109*
X4528Y39944*
X4489Y39749*
Y23499*
X4522Y23336*
X4528Y23304*
X4639Y23139*
X5639Y22139*
X5804Y22028*
X5999Y21989*
X8699*
Y18549*
X11299*
Y23049*
X11259*
Y31749*
X11226Y31912*
X11220Y31944*
X11109Y32109*
X8512Y34707*
X8551Y34799*
X8899*
X9099Y34999*
Y35999*
X8899Y36199*
X8514*
X8509Y36207*
Y36791*
X8514Y36799*
X8899*
X9099Y36999*
Y37999*
X8899Y38199*
X8514*
X8509Y38207*
Y39538*
X10109Y41139*
X10220Y41304*
X10259Y41499*
Y42605*
X10276Y42736*
Y44642*
X10248Y44855*
X10228Y44902*
X10226Y44912*
X10220Y44944*
X10196Y44979*
X10166Y45054*
X10035Y45225*
X9864Y45356*
X9863*
X9859Y45359*
X9694Y45470*
X9499Y45509*
G37*
G36*
X6999Y92110D02*
X6434Y92066D01*
X5883Y91933*
X5360Y91717*
X4876Y91420*
X4446Y91052*
X4078Y90622*
X3781Y90138*
X3565Y89615*
X3432Y89064*
X3388Y88499*
X3432Y87934*
X3565Y87383*
X3781Y86860*
X4078Y86376*
X4446Y85946*
X4876Y85578*
X5360Y85281*
X5883Y85065*
X6434Y84932*
X6999Y84888*
X7564Y84932*
X8115Y85065*
X8638Y85281*
X9122Y85578*
X9552Y85946*
X9920Y86376*
X10217Y86860*
X10433Y87383*
X10566Y87934*
X10610Y88499*
X10566Y89064*
X10433Y89615*
X10217Y90138*
X9920Y90622*
X9552Y91052*
X9122Y91420*
X8638Y91717*
X8115Y91933*
X7564Y92066*
X6999Y92110*
G37*
G36*
X27579Y76260D02*
X27253Y76217D01*
X26949Y76091*
X26687Y75891*
X26487Y75629*
X26361Y75325*
X26318Y74999*
Y71999*
X26361Y71673*
X26487Y71369*
X26671Y71129*
Y70227*
X26538Y70054*
X26427Y69786*
X26390Y69499*
X26427Y69212*
X26538Y68944*
X26714Y68714*
X26944Y68538*
X27212Y68427*
X27499Y68390*
X27786Y68427*
X28054Y68538*
X28284Y68714*
X28460Y68944*
X28571Y69212*
X28608Y69499*
X28571Y69786*
X28487Y69989*
Y71129*
X28671Y71369*
X28797Y71673*
X28840Y71999*
Y74999*
X28797Y75325*
X28671Y75629*
X28471Y75891*
X28209Y76091*
X27905Y76217*
X27579Y76260*
G37*
G36*
X11299Y76949D02*
X8699D01*
Y73400*
X8639Y73359*
X8528Y73194*
X8489Y72999*
Y70210*
X5139Y66859*
X5028Y66694*
X4989Y66499*
Y52499*
X5028Y52304*
X5091Y52210*
X5142Y52040*
X5328Y51692*
X5578Y51388*
X7078Y49888*
X7382Y49638*
X7730Y49452*
X8107Y49338*
X8499Y49299*
X8891Y49338*
X9268Y49452*
X9616Y49638*
X9920Y49888*
X10170Y50192*
X10356Y50540*
X10470Y50917*
X10509Y51309*
X10470Y51701*
X10356Y52078*
X10170Y52426*
X9920Y52730*
X8420Y54230*
X8116Y54480*
X8009Y54537*
Y56291*
X8014Y56299*
X8399*
X8599Y56499*
Y57499*
X8399Y57699*
X8057*
Y58799*
X8399*
X8599Y58999*
Y59999*
X8399Y60199*
X8057*
Y65336*
X11359Y68639*
X11470Y68804*
X11509Y68999*
Y72999*
X11470Y73194*
X11359Y73359*
X11299Y73400*
Y76949*
G37*
G36*
X42499Y62257D02*
X42156Y62224D01*
X41826Y62124*
X41522Y61961*
X41256Y61742*
X41037Y61476*
X40874Y61172*
X40774Y60842*
X40741Y60499*
X40774Y60156*
X40874Y59826*
X41037Y59522*
X41256Y59256*
X41522Y59037*
X41826Y58874*
X42156Y58774*
X42499Y58741*
X42842Y58774*
X43172Y58874*
X43476Y59037*
X43742Y59256*
X43935Y59490*
X44081*
X45490Y58081*
Y51917*
X44781Y51208*
X29759*
Y51299*
X27239*
Y49099*
X29759*
Y49190*
X45199*
X45460Y49225*
X45703Y49325*
X45912Y49486*
X47212Y50786*
X47373Y50995*
X47473Y51238*
X47508Y51499*
Y58499*
X47473Y58760*
X47373Y59003*
X47212Y59212*
X45212Y61212*
X45003Y61373*
X44760Y61473*
X44499Y61508*
X43935*
X43742Y61742*
X43476Y61961*
X43172Y62124*
X42842Y62224*
X42499Y62257*
G37*
%LNanalogpsu-3*%
%LPD*%
G36*
X21249Y35249D02*
Y34499D01*
X22499Y33249*
Y26499*
X19499Y23499*
Y16499*
X19999Y15999*
X42749*
X43749Y14999*
Y7249*
X43499Y6999*
X15999*
X15499Y7499*
Y35249*
X15999Y35749*
X21499*
X21249Y35249*
G37*
G36*
X9749Y44749D02*
Y41499D01*
X7999Y39749*
Y34499*
X10749Y31749*
Y22499*
X5999*
X4999Y23499*
Y39749*
X7249Y41999*
Y44499*
X7749Y44999*
X9499*
X9749Y44749*
G37*
G36*
X10999Y68999D02*
D01*
X7499Y65499*
Y52999*
X6999Y52499*
X5499*
Y66499*
X8999Y69999*
Y72999*
X10999*
Y68999*
G37*
G36*
X23499Y75499D02*
Y71499D01*
X22499Y70499*
Y65999*
X21499Y64999*
Y60499*
X17499*
Y75499*
X17999Y75999*
X22999*
X23499Y75499*
G37*
G54D10*
X18999Y44999D03*
X28499D03*
X18999Y50199D03*
X28499D03*
G54D11*
X22919Y21499D03*
X27579Y73499D03*
G54D12*
X27999Y21499D03*
X22499Y73499D03*
G54D13*
X25459Y11474D03*
X25039Y83524D03*
G54D14*
X8849Y56999D03*
X7149D03*
Y59499D03*
X8849D03*
X22149Y66999D03*
X23849D03*
Y27499D03*
X22149D03*
X9349Y35499D03*
X7649D03*
Y37499D03*
X9349D03*
G54D15*
X9999Y74699D03*
Y80299D03*
Y15199D03*
Y20799D03*
G54D16*
X19499Y59999D03*
X26499D03*
Y34999D03*
X19499D03*
G54D17*
X86499Y38499D02*
Y43689D01*
X83499Y35499D02*
X86499Y38499D01*
X69999Y35499D02*
X83499D01*
X86499Y51309D02*
Y57499D01*
X83499Y60499D02*
X86499Y57499D01*
X69999Y60499D02*
X83499D01*
G54D18*
X28499Y50199D02*
X45199D01*
X46499Y51499*
Y58499*
X44499Y60499D02*
X46499Y58499D01*
X42499Y60499D02*
X44499D01*
X28499Y44999D02*
X45499D01*
X46499Y43999*
X42499Y35499D02*
X44499D01*
X46499Y37499*
Y43999*
X17499Y44999D02*
X18999D01*
X15999Y43499D02*
X17499Y44999D01*
X15999Y35999D02*
Y43499D01*
Y35999D02*
X16999Y34999D01*
X19499*
X17299Y50199D02*
X18999D01*
X15999Y51499D02*
X17299Y50199D01*
X15999Y51499D02*
Y58999D01*
X16999Y59999*
X19499*
G54D19*
X19499Y28499D02*
X20499Y27499D01*
X19499Y28499D02*
Y34999D01*
X20499Y27499D02*
X22149D01*
X20499Y25499D02*
Y27499D01*
X18499Y23499D02*
X20499Y25499D01*
X18499Y15499D02*
Y23499D01*
X20499Y27499D02*
D01*
X18499Y15499D02*
X22524Y11474D01*
X25459*
G54D20*
X19999Y66999D02*
X22149D01*
X19499Y66499D02*
X19999Y66999D01*
X19499Y59999D02*
Y66499D01*
X9999Y70999D02*
Y74699D01*
X27579Y69579D02*
Y73499D01*
X27499Y69499D02*
X27579Y69579D01*
X7149Y59499D02*
Y66649D01*
X9999Y69499*
Y70999*
X7149Y56999D02*
Y59499D01*
X9999Y20799D02*
Y24499D01*
X22919Y21499D02*
Y25019D01*
X22999Y25099*
G54D21*
X6999Y52809D02*
X8499Y51309D01*
G54D22*
X6999Y88499D03*
Y6499D03*
X87999D03*
X88499Y88999D03*
G54D23*
X42499Y40499D03*
Y55499D03*
Y60499D03*
X69999D03*
X42499Y35499D03*
X69999D03*
G54D24*
X86499Y51309D03*
X8499Y43689D03*
G54D25*
X86499Y47499D03*
Y43689D03*
X8499Y47499D03*
Y51309D03*
G54D26*
X21499Y14499D03*
X22499D03*
X24499D03*
X23499D03*
X26499D03*
X25499D03*
X28499D03*
X27499D03*
X22499Y12999D03*
X24499D03*
X23499D03*
X26499D03*
X25499D03*
X28499D03*
X27499D03*
X26499Y11499D03*
X25499D03*
X27499D03*
X28499D03*
X21499D03*
Y12999D03*
X22499Y11499D03*
X23499D03*
X24499D03*
G54D27*
X9999Y70999D03*
X27499Y69499D03*
X9999Y24499D03*
X22999Y25499D03*
M02*