%FSLAX23Y23*%
%MOMM*%
%SFA1B1*%

%IPPOS*%
%ADD29C,0.200000*%
%ADD30C,0.100000*%
%ADD31C,0.127000*%
%ADD32C,0.253999*%
%LNanalogpsu-1*%
%LPD*%
G36*
X72614Y88645D02*
X72639D01*
X72665Y88638*
X72702Y88634*
X72739Y88623*
X72780Y88612*
X72825Y88593*
X72869Y88575*
X72917Y88549*
X72965Y88519*
X73014Y88486*
X73062Y88441*
X73106Y88397*
X73151Y88341*
Y88608*
X73610*
Y86938*
Y86934*
Y86923*
Y86908*
Y86886*
Y86856*
X73606Y86827*
X73602Y86756*
X73595Y86675*
X73588Y86593*
X73573Y86516*
X73565Y86482*
X73554Y86449*
X73551Y86442*
X73543Y86423*
X73532Y86393*
X73513Y86356*
X73491Y86316*
X73465Y86271*
X73436Y86231*
X73399Y86194*
X73395Y86190*
X73380Y86179*
X73358Y86160*
X73332Y86142*
X73295Y86119*
X73251Y86094*
X73199Y86071*
X73139Y86049*
X73132Y86045*
X73110Y86042*
X73076Y86031*
X73028Y86023*
X72965Y86012*
X72895Y86001*
X72814Y85997*
X72725Y85994*
X72680*
X72647Y85997*
X72610*
X72565Y86001*
X72517Y86008*
X72465Y86016*
X72354Y86034*
X72243Y86064*
X72191Y86082*
X72140Y86105*
X72095Y86127*
X72054Y86156*
X72051Y86160*
X72047Y86164*
X72025Y86186*
X71991Y86219*
X71958Y86268*
X71921Y86327*
X71888Y86397*
X71866Y86479*
X71862Y86523*
X71858Y86568*
Y86571*
Y86586*
Y86605*
X71862Y86627*
X72425Y86560*
Y86556*
X72428Y86545*
X72432Y86527*
X72436Y86508*
X72454Y86464*
X72469Y86442*
X72488Y86427*
X72491Y86423*
X72502Y86419*
X72517Y86408*
X72543Y86401*
X72573Y86390*
X72610Y86379*
X72654Y86375*
X72706Y86371*
X72739*
X72773Y86375*
X72814Y86379*
X72862Y86386*
X72910Y86397*
X72954Y86412*
X72995Y86431*
X72999Y86434*
X73006Y86438*
X73017Y86445*
X73032Y86460*
X73047Y86479*
X73062Y86501*
X73076Y86527*
X73091Y86556*
Y86560*
X73095Y86568*
X73099Y86582*
X73106Y86608*
X73110Y86638*
X73114Y86675*
X73117Y86723*
Y86779*
Y87049*
X73114Y87045*
X73106Y87038*
X73095Y87023*
X73076Y87001*
X73058Y86979*
X73032Y86953*
X72999Y86927*
X72965Y86901*
X72928Y86871*
X72884Y86845*
X72791Y86797*
X72739Y86779*
X72684Y86764*
X72625Y86753*
X72562Y86749*
X72547*
X72525Y86753*
X72499*
X72469Y86760*
X72432Y86768*
X72391Y86775*
X72347Y86790*
X72302Y86805*
X72254Y86827*
X72202Y86853*
X72154Y86882*
X72106Y86919*
X72058Y86960*
X72014Y87008*
X71969Y87064*
Y87067*
X71962Y87075*
X71954Y87090*
X71943Y87108*
X71928Y87134*
X71914Y87164*
X71899Y87197*
X71884Y87238*
X71869Y87279*
X71854Y87327*
X71840Y87379*
X71825Y87434*
X71806Y87553*
X71803Y87619*
X71799Y87686*
Y87690*
Y87708*
Y87730*
X71803Y87764*
X71806Y87801*
X71810Y87845*
X71817Y87897*
X71828Y87949*
X71854Y88067*
X71873Y88127*
X71891Y88186*
X71917Y88241*
X71947Y88301*
X71980Y88353*
X72021Y88401*
X72025Y88404*
X72032Y88412*
X72043Y88423*
X72062Y88441*
X72084Y88460*
X72110Y88478*
X72140Y88501*
X72177Y88527*
X72214Y88549*
X72258Y88571*
X72351Y88612*
X72406Y88627*
X72462Y88638*
X72521Y88645*
X72580Y88649*
X72595*
X72614Y88645*
G37*
G36*
X43724Y88390D02*
X43728Y88393D01*
X43735Y88401*
X43746Y88412*
X43765Y88430*
X43787Y88449*
X43813Y88471*
X43842Y88497*
X43876Y88519*
X43954Y88567*
X44046Y88608*
X44094Y88627*
X44150Y88638*
X44205Y88645*
X44261Y88649*
X44294*
X44317Y88645*
X44346Y88641*
X44379Y88634*
X44416Y88627*
X44461Y88619*
X44550Y88590*
X44594Y88567*
X44642Y88545*
X44691Y88515*
X44735Y88482*
X44779Y88445*
X44824Y88401*
X44828Y88397*
X44835Y88390*
X44846Y88375*
X44861Y88356*
X44876Y88330*
X44894Y88301*
X44916Y88264*
X44939Y88223*
X44957Y88175*
X44979Y88123*
X44998Y88064*
X45016Y88001*
X45028Y87934*
X45039Y87860*
X45046Y87782*
X45050Y87697*
Y87693*
Y87675*
Y87653*
X45046Y87619*
X45042Y87579*
X45039Y87534*
X45031Y87482*
X45020Y87427*
X44994Y87308*
X44976Y87249*
X44953Y87186*
X44928Y87127*
X44894Y87067*
X44861Y87016*
X44820Y86964*
X44816Y86960*
X44809Y86953*
X44798Y86942*
X44779Y86923*
X44757Y86905*
X44731Y86882*
X44702Y86860*
X44668Y86838*
X44628Y86812*
X44587Y86790*
X44491Y86749*
X44439Y86730*
X44387Y86719*
X44328Y86712*
X44268Y86708*
X44242*
X44209Y86712*
X44168Y86719*
X44120Y86727*
X44068Y86742*
X44013Y86760*
X43954Y86786*
X43946Y86790*
X43928Y86801*
X43898Y86819*
X43861Y86845*
X43820Y86879*
X43776Y86916*
X43731Y86964*
X43687Y87019*
Y86749*
X43231*
Y89312*
X43724*
Y88390*
G37*
G36*
X89499Y34204D02*
X88233Y33423D01*
X89499*
Y33065*
X87578*
Y33440*
X88872Y34234*
X87578*
Y34592*
X89499*
Y34204*
G37*
G36*
X61868Y82307D02*
X61765Y82029D01*
X61762Y82022*
X61755Y82006*
X61742Y81980*
X61729Y81948*
X61713Y81912*
X61694Y81877*
X61674Y81844*
X61655Y81812*
X61651Y81809*
X61645Y81799*
X61635Y81786*
X61622Y81766*
X61587Y81728*
X61538Y81689*
X61535Y81686*
X61525Y81682*
X61512Y81673*
X61493Y81663*
X61470Y81653*
X61444Y81640*
X61412Y81627*
X61376Y81617*
X61373*
X61360Y81614*
X61341Y81608*
X61311Y81605*
X61279Y81598*
X61243Y81592*
X61201Y81588*
X61137*
X61111Y81592*
X61081*
X61043Y81595*
X61004Y81601*
X60916Y81617*
X60877Y81954*
X60881*
X60894Y81951*
X60913Y81948*
X60939Y81945*
X60965Y81938*
X60997Y81935*
X61059Y81932*
X61085*
X61111Y81938*
X61143Y81945*
X61179Y81954*
X61214Y81970*
X61250Y81993*
X61279Y82022*
X61282Y82026*
X61292Y82038*
X61305Y82058*
X61321Y82084*
X61337Y82116*
X61357Y82155*
X61373Y82197*
X61389Y82246*
X60774Y83875*
X61230*
X61616Y82719*
X61998Y83875*
X62442*
X61868Y82307*
G37*
G36*
X89499Y32305D02*
X87578D01*
Y32693*
X89499*
Y32305*
G37*
G36*
X46216Y88645D02*
X46250Y88641D01*
X46290Y88634*
X46335Y88627*
X46383Y88615*
X46435Y88601*
X46487Y88582*
X46542Y88560*
X46598Y88530*
X46650Y88501*
X46701Y88464*
X46753Y88419*
X46798Y88371*
X46801Y88367*
X46809Y88360*
X46820Y88341*
X46835Y88319*
X46853Y88290*
X46872Y88256*
X46894Y88212*
X46916Y88164*
X46938Y88108*
X46961Y88045*
X46979Y87978*
X46998Y87901*
X47013Y87819*
X47024Y87730*
X47031Y87638*
Y87534*
X45802*
Y87530*
Y87523*
Y87512*
X45805Y87497*
X45809Y87460*
X45816Y87408*
X45831Y87356*
X45853Y87297*
X45879Y87242*
X45916Y87193*
X45920Y87190*
X45939Y87175*
X45961Y87156*
X45994Y87134*
X46035Y87112*
X46087Y87093*
X46142Y87079*
X46201Y87075*
X46220*
X46242Y87079*
X46268Y87082*
X46298Y87090*
X46331Y87101*
X46364Y87116*
X46394Y87138*
X46398Y87142*
X46409Y87149*
X46424Y87164*
X46438Y87186*
X46461Y87216*
X46479Y87249*
X46498Y87293*
X46516Y87342*
X47005Y87260*
Y87256*
X47001Y87249*
X46994Y87234*
X46987Y87216*
X46975Y87193*
X46964Y87167*
X46931Y87108*
X46890Y87042*
X46838Y86971*
X46776Y86908*
X46705Y86849*
X46701*
X46698Y86842*
X46683Y86838*
X46668Y86827*
X46650Y86816*
X46624Y86805*
X46598Y86793*
X46564Y86779*
X46490Y86753*
X46405Y86730*
X46305Y86716*
X46198Y86708*
X46176*
X46153Y86712*
X46120*
X46079Y86719*
X46031Y86727*
X45979Y86734*
X45927Y86749*
X45868Y86764*
X45809Y86786*
X45750Y86812*
X45690Y86842*
X45631Y86879*
X45576Y86919*
X45527Y86967*
X45479Y87023*
X45476Y87027*
X45472Y87034*
X45465Y87049*
X45450Y87067*
X45439Y87093*
X45424Y87123*
X45405Y87156*
X45390Y87197*
X45372Y87242*
X45357Y87290*
X45339Y87342*
X45328Y87401*
X45316Y87460*
X45305Y87523*
X45302Y87593*
X45298Y87664*
Y87667*
Y87682*
Y87708*
X45302Y87741*
X45305Y87779*
X45309Y87823*
X45316Y87871*
X45328Y87927*
X45357Y88041*
X45376Y88101*
X45398Y88164*
X45428Y88223*
X45461Y88278*
X45498Y88334*
X45539Y88386*
X45542Y88390*
X45550Y88397*
X45565Y88412*
X45583Y88427*
X45605Y88445*
X45635Y88467*
X45668Y88493*
X45705Y88519*
X45746Y88541*
X45794Y88567*
X45842Y88590*
X45898Y88608*
X45953Y88623*
X46016Y88638*
X46079Y88645*
X46146Y88649*
X46187*
X46216Y88645*
G37*
G36*
X59763Y84487D02*
X59828Y84484D01*
X59893Y84480*
X59954Y84474*
X60010Y84467*
X60016*
X60032Y84464*
X60055Y84458*
X60087Y84448*
X60123Y84435*
X60162Y84419*
X60204Y84399*
X60243Y84373*
X60246Y84370*
X60259Y84361*
X60278Y84344*
X60304Y84325*
X60330Y84296*
X60359Y84263*
X60388Y84228*
X60414Y84186*
X60418Y84179*
X60424Y84166*
X60437Y84140*
X60450Y84108*
X60463Y84069*
X60476Y84027*
X60482Y83975*
X60486Y83923*
Y83920*
Y83917*
Y83897*
X60482Y83868*
X60476Y83829*
X60463Y83784*
X60450Y83735*
X60427Y83687*
X60398Y83635*
X60395Y83629*
X60382Y83612*
X60362Y83590*
X60340Y83561*
X60307Y83531*
X60269Y83496*
X60223Y83467*
X60171Y83438*
X60175*
X60181Y83434*
X60191Y83431*
X60204Y83428*
X60243Y83412*
X60288Y83389*
X60337Y83363*
X60392Y83327*
X60440Y83285*
X60486Y83233*
X60489Y83227*
X60502Y83208*
X60521Y83178*
X60541Y83140*
X60560Y83088*
X60579Y83033*
X60592Y82968*
X60596Y82897*
Y82893*
Y82890*
Y82871*
X60592Y82842*
X60586Y82803*
X60579Y82757*
X60567Y82706*
X60547Y82654*
X60524Y82599*
X60521Y82592*
X60511Y82576*
X60495Y82550*
X60473Y82518*
X60447Y82479*
X60411Y82443*
X60375Y82404*
X60330Y82369*
X60324Y82366*
X60307Y82356*
X60282Y82340*
X60246Y82323*
X60201Y82304*
X60149Y82288*
X60090Y82272*
X60026Y82262*
X60013*
X60000Y82259*
X59967*
X59945Y82255*
X59883*
X59844Y82252*
X59747*
X59692Y82249*
X58721*
Y84490*
X59705*
X59763Y84487*
G37*
G36*
X49918Y82249D02*
X49488D01*
Y83875*
X49918*
Y82249*
G37*
G36*
X66036Y83907D02*
X66062D01*
X66127Y83901*
X66195Y83894*
X66266Y83881*
X66334Y83862*
X66363Y83852*
X66393Y83839*
X66396*
X66399Y83836*
X66415Y83826*
X66441Y83813*
X66470Y83794*
X66506Y83768*
X66538Y83739*
X66567Y83703*
X66593Y83667*
X66597Y83661*
X66603Y83648*
X66613Y83619*
X66616Y83603*
X66623Y83580*
X66629Y83557*
X66632Y83528*
X66639Y83496*
X66642Y83460*
X66645Y83421*
X66648Y83379*
X66652Y83334*
Y83282*
X66645Y82780*
Y82777*
Y82770*
Y82761*
Y82744*
Y82706*
X66648Y82660*
Y82608*
X66655Y82557*
X66658Y82505*
X66665Y82463*
Y82460*
X66668Y82447*
X66674Y82424*
X66681Y82398*
X66694Y82366*
X66707Y82330*
X66723Y82291*
X66742Y82249*
X66318*
Y82252*
X66315Y82255*
X66312Y82268*
X66305Y82281*
X66299Y82298*
X66292Y82320*
X66286Y82346*
X66276Y82375*
Y82379*
X66273Y82382*
X66270Y82395*
X66263Y82411*
X66260Y82424*
X66253Y82421*
X66240Y82408*
X66218Y82388*
X66189Y82366*
X66153Y82340*
X66114Y82311*
X66069Y82288*
X66023Y82265*
X66017Y82262*
X66001Y82259*
X65975Y82249*
X65942Y82239*
X65904Y82230*
X65858Y82223*
X65806Y82217*
X65755Y82213*
X65732*
X65713Y82217*
X65693*
X65667Y82220*
X65612Y82230*
X65547Y82246*
X65483Y82268*
X65418Y82301*
X65360Y82346*
Y82349*
X65353Y82353*
X65337Y82372*
X65314Y82401*
X65288Y82440*
X65262Y82489*
X65240Y82547*
X65223Y82615*
X65220Y82651*
X65217Y82689*
Y82696*
Y82712*
X65220Y82738*
X65227Y82770*
X65233Y82809*
X65243Y82848*
X65259Y82890*
X65282Y82932*
X65285Y82939*
X65295Y82952*
X65308Y82971*
X65330Y82994*
X65353Y83020*
X65385Y83049*
X65421Y83075*
X65463Y83097*
X65470Y83101*
X65486Y83107*
X65512Y83117*
X65551Y83133*
X65599Y83149*
X65657Y83165*
X65729Y83182*
X65806Y83198*
X65810*
X65819Y83201*
X65836Y83204*
X65855Y83208*
X65881Y83211*
X65910Y83217*
X65975Y83233*
X66043Y83250*
X66114Y83266*
X66176Y83285*
X66205Y83295*
X66227Y83305*
Y83347*
Y83353*
Y83366*
X66224Y83389*
X66221Y83418*
X66211Y83447*
X66202Y83476*
X66185Y83502*
X66163Y83525*
X66159Y83528*
X66150Y83535*
X66134Y83541*
X66111Y83554*
X66078Y83564*
X66040Y83570*
X65991Y83577*
X65933Y83580*
X65913*
X65894Y83577*
X65868Y83574*
X65839Y83567*
X65806Y83561*
X65777Y83548*
X65751Y83531*
X65748Y83528*
X65742Y83522*
X65729Y83512*
X65716Y83496*
X65696Y83473*
X65680Y83444*
X65664Y83412*
X65648Y83373*
X65262Y83444*
Y83447*
X65266Y83454*
X65269Y83467*
X65275Y83483*
X65282Y83502*
X65292Y83525*
X65314Y83577*
X65347Y83632*
X65385Y83690*
X65431Y83745*
X65486Y83794*
X65489*
X65492Y83800*
X65502Y83803*
X65515Y83813*
X65534Y83820*
X65554Y83829*
X65580Y83842*
X65606Y83852*
X65638Y83862*
X65674Y83875*
X65713Y83884*
X65758Y83891*
X65803Y83901*
X65855Y83904*
X65907Y83910*
X66014*
X66036Y83907*
G37*
G36*
X70632Y88645D02*
X70669Y88641D01*
X70710Y88634*
X70758Y88627*
X70806Y88615*
X70862Y88601*
X70917Y88582*
X70973Y88560*
X71032Y88534*
X71091Y88501*
X71147Y88464*
X71203Y88423*
X71254Y88375*
X71258Y88371*
X71266Y88364*
X71280Y88345*
X71295Y88327*
X71317Y88297*
X71340Y88267*
X71366Y88227*
X71391Y88186*
X71414Y88138*
X71440Y88086*
X71462Y88027*
X71484Y87967*
X71499Y87901*
X71514Y87834*
X71521Y87760*
X71525Y87682*
Y87679*
Y87664*
Y87642*
X71521Y87612*
X71517Y87575*
X71510Y87534*
X71503Y87486*
X71491Y87438*
X71477Y87382*
X71458Y87327*
X71436Y87267*
X71410Y87208*
X71377Y87149*
X71340Y87093*
X71299Y87038*
X71251Y86982*
X71247Y86979*
X71240Y86971*
X71225Y86956*
X71203Y86938*
X71177Y86919*
X71143Y86897*
X71106Y86871*
X71066Y86845*
X71017Y86819*
X70966Y86793*
X70910Y86771*
X70847Y86753*
X70784Y86734*
X70714Y86719*
X70643Y86712*
X70566Y86708*
X70540*
X70521Y86712*
X70499*
X70473Y86716*
X70410Y86723*
X70332Y86738*
X70251Y86756*
X70166Y86786*
X70077Y86823*
X70073*
X70066Y86827*
X70055Y86834*
X70040Y86845*
X69999Y86871*
X69947Y86908*
X69892Y86956*
X69832Y87016*
X69777Y87082*
X69725Y87160*
Y87164*
X69721Y87171*
X69714Y87182*
X69706Y87201*
X69699Y87223*
X69688Y87249*
X69677Y87279*
X69666Y87312*
X69655Y87349*
X69644Y87390*
X69625Y87482*
X69610Y87590*
X69606Y87704*
Y87708*
Y87716*
Y87730*
X69610Y87745*
Y87767*
X69614Y87793*
X69621Y87856*
X69636Y87927*
X69658Y88004*
X69684Y88090*
X69725Y88175*
Y88178*
X69732Y88186*
X69736Y88197*
X69747Y88212*
X69777Y88253*
X69814Y88304*
X69862Y88360*
X69921Y88419*
X69988Y88475*
X70066Y88527*
X70069*
X70077Y88530*
X70088Y88538*
X70106Y88545*
X70125Y88556*
X70151Y88564*
X70180Y88575*
X70210Y88590*
X70284Y88612*
X70369Y88630*
X70462Y88645*
X70562Y88649*
X70603*
X70632Y88645*
G37*
G36*
X71237Y84150D02*
X71234Y84147D01*
X71228Y84140*
X71218Y84131*
X71205Y84118*
X71189Y84098*
X71169Y84076*
X71147Y84050*
X71121Y84017*
X71095Y83982*
X71066Y83943*
X71033Y83901*
X71001Y83855*
X70969Y83803*
X70936Y83752*
X70901Y83693*
X70865Y83632*
X70862Y83629*
X70855Y83616*
X70846Y83599*
X70833Y83574*
X70820Y83544*
X70800Y83506*
X70781Y83463*
X70758Y83418*
X70735Y83366*
X70713Y83311*
X70687Y83253*
X70664Y83191*
X70619Y83059*
X70577Y82919*
Y82916*
X70573Y82903*
X70567Y82884*
X70561Y82855*
X70554Y82822*
X70548Y82787*
X70538Y82741*
X70528Y82696*
X70518Y82644*
X70512Y82592*
X70496Y82479*
X70486Y82362*
X70483Y82249*
X70068*
Y82255*
Y82268*
X70072Y82294*
Y82330*
X70075Y82372*
X70081Y82421*
X70088Y82479*
X70097Y82540*
X70107Y82608*
X70120Y82683*
X70136Y82761*
X70152Y82845*
X70175Y82929*
X70198Y83017*
X70227Y83104*
X70259Y83195*
X70263Y83201*
X70269Y83217*
X70279Y83243*
X70292Y83276*
X70311Y83318*
X70334Y83370*
X70360Y83425*
X70389Y83486*
X70421Y83551*
X70457Y83619*
X70496Y83693*
X70541Y83765*
X70635Y83917*
X70742Y84063*
X69767*
Y84461*
X71237*
Y84150*
G37*
G36*
X88924Y31233D02*
X88941Y31227D01*
X88963Y31219*
X88988Y31208*
X89019Y31197*
X89052Y31183*
X89088Y31166*
X89163Y31128*
X89241Y31078*
X89316Y31016*
X89349Y30983*
X89380Y30947*
X89382Y30944*
X89385Y30939*
X89394Y30928*
X89405Y30911*
X89416Y30892*
X89427Y30867*
X89441Y30839*
X89455Y30808*
X89471Y30772*
X89485Y30733*
X89496Y30692*
X89507Y30647*
X89518Y30600*
X89527Y30547*
X89530Y30495*
X89532Y30436*
Y30431*
Y30420*
X89530Y30400*
X89527Y30372*
X89524Y30342*
X89518Y30303*
X89510Y30261*
X89499Y30214*
X89485Y30167*
X89468Y30117*
X89446Y30064*
X89421Y30011*
X89394Y29959*
X89357Y29906*
X89319Y29856*
X89271Y29809*
X89269Y29806*
X89260Y29798*
X89244Y29787*
X89224Y29770*
X89196Y29753*
X89166Y29731*
X89127Y29709*
X89083Y29687*
X89035Y29664*
X88983Y29642*
X88922Y29620*
X88858Y29603*
X88791Y29587*
X88716Y29576*
X88638Y29567*
X88555Y29565*
X88533*
X88508Y29567*
X88475*
X88436Y29573*
X88389Y29578*
X88339Y29584*
X88280Y29595*
X88222Y29609*
X88161Y29626*
X88100Y29645*
X88036Y29670*
X87975Y29698*
X87917Y29731*
X87861Y29767*
X87808Y29812*
X87806Y29814*
X87797Y29823*
X87783Y29837*
X87767Y29856*
X87747Y29881*
X87725Y29912*
X87700Y29945*
X87675Y29986*
X87650Y30031*
X87625Y30078*
X87603Y30134*
X87583Y30189*
X87567Y30253*
X87553Y30317*
X87545Y30389*
X87542Y30461*
Y30464*
Y30478*
Y30495*
X87545Y30520*
X87547Y30550*
X87553Y30583*
X87558Y30622*
X87567Y30664*
X87578Y30708*
X87592Y30756*
X87608Y30803*
X87631Y30853*
X87653Y30900*
X87681Y30944*
X87714Y30991*
X87750Y31033*
Y31036*
X87756Y31039*
X87764Y31047*
X87772Y31055*
X87786Y31066*
X87803Y31078*
X87842Y31108*
X87892Y31139*
X87953Y31172*
X88022Y31202*
X88103Y31230*
X88194Y30847*
X88191*
X88189Y30844*
X88180*
X88169Y30839*
X88144Y30830*
X88111Y30817*
X88072Y30797*
X88033Y30772*
X87994Y30739*
X87961Y30703*
X87958Y30697*
X87947Y30683*
X87933Y30661*
X87917Y30631*
X87900Y30592*
X87886Y30547*
X87875Y30497*
X87872Y30442*
Y30439*
Y30433*
Y30422*
X87875Y30406*
X87878Y30389*
X87880Y30367*
X87892Y30320*
X87911Y30264*
X87939Y30206*
X87955Y30175*
X87975Y30148*
X88000Y30120*
X88028Y30095*
X88030*
X88036Y30089*
X88044Y30084*
X88058Y30075*
X88075Y30064*
X88094Y30053*
X88119Y30042*
X88147Y30031*
X88180Y30017*
X88216Y30006*
X88258Y29995*
X88302Y29984*
X88352Y29975*
X88405Y29970*
X88463Y29967*
X88527Y29964*
X88563*
X88586Y29967*
X88616*
X88652Y29973*
X88688Y29975*
X88730Y29981*
X88816Y29998*
X88902Y30020*
X88944Y30034*
X88983Y30053*
X89019Y30073*
X89049Y30095*
X89052Y30098*
X89055Y30100*
X89063Y30109*
X89074Y30120*
X89096Y30148*
X89124Y30186*
X89155Y30234*
X89177Y30292*
X89196Y30359*
X89199Y30395*
X89202Y30433*
Y30436*
Y30439*
Y30447*
X89199Y30458*
X89196Y30489*
X89191Y30525*
X89177Y30564*
X89160Y30608*
X89138Y30653*
X89105Y30697*
X89099Y30703*
X89085Y30717*
X89063Y30736*
X89030Y30758*
X88985Y30786*
X88933Y30811*
X88869Y30836*
X88794Y30858*
X88910Y31236*
X88913*
X88924Y31233*
G37*
G36*
X55190Y80000D02*
X55216Y79997D01*
X55248Y79990*
X55280Y79984*
X55319Y79974*
X55361Y79961*
X55400Y79945*
X55442Y79929*
X55484Y79906*
X55526Y79877*
X55569Y79848*
X55607Y79812*
X55643Y79770*
X55646Y79767*
X55653Y79757*
X55663Y79741*
X55679Y79718*
X55695Y79686*
X55714Y79647*
X55734Y79605*
X55753Y79550*
X55773Y79491*
X55795Y79423*
X55811Y79349*
X55828Y79265*
X55844Y79174*
X55854Y79077*
X55860Y78970*
X55863Y78853*
Y78850*
Y78847*
Y78837*
Y78824*
Y78792*
X55860Y78750*
X55857Y78698*
X55850Y78636*
X55844Y78572*
X55837Y78500*
X55824Y78426*
X55808Y78348*
X55792Y78274*
X55769Y78199*
X55747Y78125*
X55714Y78057*
X55682Y77992*
X55643Y77937*
X55640Y77934*
X55633Y77927*
X55624Y77914*
X55611Y77901*
X55591Y77885*
X55569Y77866*
X55539Y77843*
X55510Y77823*
X55475Y77801*
X55439Y77778*
X55397Y77759*
X55352Y77743*
X55303Y77730*
X55248Y77717*
X55193Y77710*
X55135Y77707*
X55122*
X55102Y77710*
X55080*
X55054Y77713*
X55021Y77720*
X54986Y77726*
X54947Y77739*
X54905Y77752*
X54863Y77768*
X54817Y77788*
X54775Y77814*
X54730Y77840*
X54688Y77875*
X54646Y77911*
X54607Y77956*
X54604Y77960*
X54597Y77969*
X54587Y77985*
X54578Y78005*
X54561Y78034*
X54545Y78070*
X54526Y78115*
X54510Y78164*
X54490Y78222*
X54471Y78287*
X54455Y78361*
X54442Y78442*
X54429Y78533*
X54419Y78633*
X54412Y78740*
X54409Y78857*
Y78860*
Y78863*
Y78873*
Y78886*
Y78918*
X54412Y78960*
X54416Y79012*
X54422Y79074*
X54429Y79138*
X54435Y79210*
X54448Y79284*
X54461Y79359*
X54480Y79436*
X54500Y79511*
X54526Y79582*
X54555Y79650*
X54587Y79715*
X54626Y79770*
X54629Y79773*
X54636Y79780*
X54646Y79792*
X54662Y79805*
X54678Y79825*
X54701Y79844*
X54730Y79864*
X54759Y79886*
X54795Y79909*
X54830Y79929*
X54872Y79948*
X54918Y79967*
X54966Y79980*
X55021Y79993*
X55076Y80000*
X55135Y80003*
X55167*
X55190Y80000*
G37*
G36*
X49918Y84092D02*
X49488D01*
Y84490*
X49918*
Y84092*
G37*
G36*
X53460Y80000D02*
X53489Y79997D01*
X53522Y79993*
X53557Y79987*
X53596Y79980*
X53681Y79958*
X53765Y79925*
X53810Y79906*
X53849Y79883*
X53891Y79854*
X53927Y79822*
X53930Y79818*
X53936Y79815*
X53943Y79802*
X53956Y79789*
X53972Y79773*
X53988Y79750*
X54004Y79728*
X54024Y79699*
X54056Y79634*
X54089Y79559*
X54102Y79517*
X54108Y79472*
X54115Y79423*
X54118Y79375*
Y79368*
Y79349*
X54115Y79320*
X54111Y79284*
X54105Y79239*
X54095Y79190*
X54082Y79138*
X54063Y79087*
X54059Y79080*
X54053Y79064*
X54040Y79035*
X54021Y78999*
X53998Y78957*
X53969Y78908*
X53933Y78857*
X53891Y78802*
X53888Y78798*
X53875Y78782*
X53855Y78759*
X53826Y78727*
X53787Y78688*
X53739Y78636*
X53681Y78581*
X53609Y78513*
X53606Y78510*
X53600Y78507*
X53590Y78497*
X53577Y78484*
X53541Y78452*
X53499Y78413*
X53457Y78371*
X53415Y78329*
X53376Y78293*
X53363Y78277*
X53350Y78264*
X53347Y78261*
X53340Y78254*
X53331Y78241*
X53318Y78225*
X53289Y78189*
X53263Y78147*
X54118*
Y77749*
X52612*
Y77752*
Y77759*
X52615Y77772*
X52618Y77788*
X52622Y77807*
X52625Y77830*
X52638Y77888*
X52657Y77953*
X52683Y78024*
X52715Y78102*
X52758Y78176*
Y78180*
X52764Y78186*
X52771Y78199*
X52783Y78212*
X52796Y78235*
X52816Y78257*
X52839Y78287*
X52864Y78319*
X52894Y78358*
X52929Y78397*
X52968Y78442*
X53013Y78491*
X53062Y78539*
X53117Y78594*
X53175Y78653*
X53240Y78714*
X53243Y78717*
X53253Y78727*
X53266Y78740*
X53285Y78759*
X53311Y78779*
X53337Y78805*
X53396Y78863*
X53454Y78925*
X53512Y78986*
X53538Y79012*
X53564Y79041*
X53583Y79064*
X53596Y79083*
X53600Y79090*
X53609Y79106*
X53625Y79132*
X53642Y79167*
X53658Y79206*
X53674Y79252*
X53684Y79297*
X53687Y79346*
Y79349*
Y79352*
Y79368*
X53684Y79397*
X53677Y79430*
X53668Y79465*
X53655Y79501*
X53635Y79537*
X53609Y79569*
X53606Y79572*
X53596Y79582*
X53577Y79595*
X53554Y79608*
X53522Y79621*
X53486Y79634*
X53444Y79644*
X53396Y79647*
X53373*
X53347Y79644*
X53318Y79637*
X53282Y79627*
X53247Y79611*
X53211Y79592*
X53179Y79566*
X53175Y79563*
X53166Y79550*
X53153Y79530*
X53140Y79501*
X53124Y79465*
X53111Y79417*
X53098Y79362*
X53091Y79297*
X52664Y79339*
Y79342*
X52667Y79355*
Y79371*
X52673Y79397*
X52677Y79427*
X52686Y79459*
X52696Y79495*
X52706Y79537*
X52738Y79618*
X52777Y79702*
X52803Y79744*
X52832Y79783*
X52864Y79815*
X52900Y79848*
X52903Y79851*
X52910Y79854*
X52919Y79861*
X52936Y79873*
X52955Y79883*
X52981Y79896*
X53007Y79912*
X53039Y79925*
X53075Y79941*
X53114Y79954*
X53198Y79980*
X53298Y79997*
X53350Y80000*
X53405Y80003*
X53438*
X53460Y80000*
G37*
G36*
X14996Y48496D02*
X15021D01*
X15051Y48493*
X15082Y48488*
X15118Y48485*
X15157Y48477*
X15198Y48471*
X15287Y48449*
X15379Y48421*
X15470Y48382*
X15473Y48380*
X15482Y48377*
X15493Y48371*
X15509Y48360*
X15531Y48349*
X15554Y48335*
X15606Y48296*
X15668Y48249*
X15726Y48191*
X15784Y48124*
X15809Y48085*
X15834Y48046*
X15837Y48044*
X15840Y48035*
X15845Y48024*
X15854Y48008*
X15862Y47985*
X15873Y47960*
X15884Y47933*
X15895Y47899*
X15906Y47863*
X15915Y47824*
X15926Y47783*
X15934Y47738*
X15948Y47641*
X15953Y47591*
Y47538*
Y47536*
Y47530*
Y47519*
Y47502*
X15951Y47486*
Y47463*
X15945Y47411*
X15937Y47352*
X15923Y47291*
X15906Y47225*
X15884Y47161*
Y47158*
X15881Y47153*
X15879Y47144*
X15873Y47133*
X15856Y47103*
X15837Y47064*
X15809Y47022*
X15776Y46978*
X15740Y46936*
X15695Y46897*
X15690Y46892*
X15673Y46880*
X15648Y46864*
X15612Y46842*
X15568Y46819*
X15512Y46794*
X15451Y46769*
X15382Y46750*
X15320Y46980*
X15323*
X15326Y46983*
X15334Y46986*
X15345Y46989*
X15370Y46997*
X15404Y47008*
X15443Y47025*
X15479Y47044*
X15518Y47064*
X15551Y47089*
X15554Y47091*
X15565Y47100*
X15579Y47116*
X15598Y47136*
X15620Y47161*
X15643Y47194*
X15665Y47230*
X15684Y47272*
X15687Y47277*
X15692Y47291*
X15701Y47316*
X15712Y47350*
X15720Y47389*
X15729Y47433*
X15734Y47483*
X15737Y47536*
Y47538*
Y47544*
Y47552*
Y47566*
X15734Y47580*
Y47597*
X15731Y47638*
X15723Y47686*
X15715Y47738*
X15701Y47788*
X15681Y47838*
X15679Y47844*
X15673Y47860*
X15659Y47883*
X15645Y47910*
X15623Y47944*
X15601Y47980*
X15573Y48013*
X15543Y48044*
X15540Y48046*
X15529Y48058*
X15509Y48071*
X15487Y48088*
X15459Y48108*
X15426Y48127*
X15390Y48146*
X15351Y48166*
X15348*
X15343Y48169*
X15334Y48171*
X15320Y48177*
X15304Y48183*
X15284Y48188*
X15262Y48196*
X15237Y48202*
X15179Y48216*
X15112Y48227*
X15043Y48235*
X14965Y48238*
X14940*
X14923Y48235*
X14901*
X14874Y48232*
X14846Y48230*
X14815Y48227*
X14746Y48216*
X14674Y48202*
X14601Y48180*
X14532Y48152*
X14529*
X14524Y48146*
X14515Y48144*
X14504Y48135*
X14474Y48116*
X14435Y48085*
X14393Y48049*
X14352Y48005*
X14313Y47952*
X14277Y47894*
Y47891*
X14274Y47885*
X14268Y47877*
X14263Y47863*
X14257Y47849*
X14252Y47830*
X14235Y47786*
X14221Y47730*
X14207Y47669*
X14196Y47602*
X14193Y47533*
Y47530*
Y47525*
Y47516*
Y47505*
X14196Y47488*
Y47472*
X14202Y47430*
X14207Y47380*
X14218Y47327*
X14235Y47269*
X14254Y47211*
Y47208*
X14257Y47202*
X14260Y47197*
X14266Y47186*
X14279Y47155*
X14296Y47122*
X14315Y47083*
X14338Y47041*
X14363Y47003*
X14390Y46969*
X14751*
Y47536*
X14979*
Y46719*
X14266*
X14263Y46722*
X14260Y46728*
X14252Y46739*
X14241Y46753*
X14229Y46769*
X14216Y46789*
X14199Y46814*
X14182Y46839*
X14146Y46897*
X14107Y46964*
X14071Y47033*
X14041Y47108*
Y47111*
X14038Y47116*
X14035Y47128*
X14030Y47141*
X14024Y47161*
X14016Y47183*
X14010Y47208*
X14005Y47233*
X13991Y47294*
X13977Y47364*
X13968Y47438*
X13966Y47516*
Y47519*
Y47530*
Y47544*
X13968Y47563*
Y47588*
X13971Y47619*
X13977Y47652*
X13980Y47688*
X13996Y47769*
X14016Y47855*
X14046Y47944*
X14063Y47988*
X14085Y48033*
X14088Y48035*
X14091Y48044*
X14099Y48055*
X14107Y48071*
X14121Y48091*
X14135Y48110*
X14174Y48163*
X14224Y48219*
X14285Y48277*
X14354Y48332*
X14435Y48382*
X14438*
X14446Y48388*
X14457Y48394*
X14477Y48402*
X14496Y48410*
X14524Y48418*
X14551Y48430*
X14585Y48441*
X14621Y48452*
X14663Y48463*
X14704Y48471*
X14749Y48480*
X14846Y48493*
X14948Y48499*
X14976*
X14996Y48496*
G37*
G36*
X57249Y77749D02*
X56819D01*
Y79371*
X56815Y79368*
X56809Y79362*
X56796Y79352*
X56777Y79336*
X56754Y79316*
X56728Y79297*
X56696Y79274*
X56660Y79248*
X56621Y79223*
X56579Y79197*
X56534Y79167*
X56485Y79142*
X56381Y79093*
X56265Y79048*
Y79436*
X56268*
X56271Y79439*
X56281Y79443*
X56294Y79446*
X56326Y79462*
X56372Y79482*
X56427Y79507*
X56488Y79543*
X56556Y79588*
X56628Y79640*
X56631Y79644*
X56637Y79647*
X56647Y79656*
X56660Y79669*
X56696Y79702*
X56734Y79744*
X56780Y79796*
X56825Y79861*
X56867Y79929*
X56900Y80003*
X57249*
Y77749*
G37*
G36*
X57422Y82249D02*
X57024D01*
Y82485*
X57020Y82479*
X57007Y82463*
X56985Y82437*
X56956Y82408*
X56923Y82375*
X56881Y82340*
X56836Y82307*
X56787Y82278*
X56781Y82275*
X56765Y82268*
X56735Y82259*
X56703Y82246*
X56661Y82233*
X56612Y82223*
X56564Y82217*
X56512Y82213*
X56486*
X56467Y82217*
X56441Y82220*
X56415Y82226*
X56382Y82233*
X56347Y82243*
X56311Y82252*
X56272Y82268*
X56233Y82285*
X56191Y82307*
X56152Y82333*
X56110Y82362*
X56071Y82398*
X56033Y82437*
X56029Y82440*
X56023Y82447*
X56013Y82460*
X56003Y82479*
X55987Y82502*
X55971Y82531*
X55952Y82563*
X55935Y82602*
X55916Y82644*
X55897Y82689*
X55880Y82741*
X55867Y82796*
X55855Y82858*
X55845Y82923*
X55838Y82991*
X55835Y83065*
Y83068*
Y83085*
Y83104*
X55838Y83133*
X55842Y83169*
X55845Y83208*
X55851Y83253*
X55858Y83298*
X55880Y83402*
X55897Y83454*
X55916Y83506*
X55939Y83557*
X55965Y83606*
X55994Y83651*
X56026Y83693*
X56029Y83697*
X56036Y83703*
X56046Y83713*
X56062Y83729*
X56081Y83745*
X56104Y83761*
X56130Y83781*
X56162Y83803*
X56195Y83823*
X56233Y83842*
X56314Y83878*
X56363Y83891*
X56412Y83901*
X56463Y83907*
X56518Y83910*
X56544*
X56564Y83907*
X56586Y83904*
X56616Y83897*
X56645Y83891*
X56680Y83881*
X56716Y83871*
X56755Y83855*
X56794Y83836*
X56833Y83816*
X56875Y83787*
X56914Y83758*
X56952Y83723*
X56991Y83684*
Y84490*
X57422*
Y82249*
G37*
G36*
X48419Y83907D02*
X48451Y83904D01*
X48487Y83901*
X48526Y83897*
X48607Y83884*
X48688Y83865*
X48765Y83836*
X48801Y83820*
X48833Y83800*
X48837*
X48840Y83794*
X48859Y83781*
X48888Y83755*
X48921Y83719*
X48960Y83677*
X48995Y83622*
X49031Y83557*
X49057Y83483*
X48652Y83408*
Y83412*
X48646Y83425*
X48639Y83441*
X48629Y83460*
X48616Y83486*
X48597Y83509*
X48578Y83531*
X48552Y83551*
X48548Y83554*
X48539Y83561*
X48523Y83567*
X48500Y83577*
X48471Y83587*
X48435Y83596*
X48393Y83599*
X48344Y83603*
X48315*
X48286Y83599*
X48251Y83596*
X48208Y83590*
X48170Y83583*
X48134Y83570*
X48102Y83554*
X48098*
X48095Y83548*
X48079Y83531*
X48059Y83502*
X48056Y83486*
X48053Y83467*
Y83463*
Y83460*
X48059Y83441*
X48072Y83415*
X48082Y83402*
X48095Y83389*
X48098Y83386*
X48111Y83382*
X48118Y83376*
X48131Y83373*
X48147Y83366*
X48166Y83357*
X48192Y83350*
X48218Y83340*
X48251Y83331*
X48289Y83321*
X48331Y83308*
X48380Y83295*
X48435Y83282*
X48497Y83266*
X48500*
X48513Y83263*
X48529Y83259*
X48552Y83253*
X48581Y83243*
X48613Y83237*
X48684Y83214*
X48765Y83185*
X48843Y83153*
X48882Y83133*
X48918Y83117*
X48947Y83094*
X48976Y83075*
X48982Y83068*
X48999Y83055*
X49018Y83029*
X49044Y82994*
X49070Y82949*
X49089Y82893*
X49105Y82829*
X49112Y82757*
Y82754*
Y82748*
Y82735*
X49109Y82719*
X49105Y82702*
X49102Y82680*
X49089Y82625*
X49067Y82566*
X49050Y82534*
X49034Y82502*
X49012Y82469*
X48986Y82437*
X48957Y82404*
X48924Y82372*
X48921Y82369*
X48914Y82366*
X48905Y82359*
X48888Y82346*
X48869Y82336*
X48846Y82323*
X48817Y82307*
X48785Y82294*
X48749Y82278*
X48707Y82265*
X48662Y82249*
X48613Y82239*
X48558Y82230*
X48500Y82220*
X48438Y82217*
X48374Y82213*
X48341*
X48319Y82217*
X48289*
X48257Y82220*
X48221Y82223*
X48183Y82230*
X48098Y82246*
X48011Y82268*
X47923Y82301*
X47885Y82323*
X47846Y82346*
X47842Y82349*
X47836Y82353*
X47826Y82359*
X47817Y82372*
X47781Y82401*
X47742Y82443*
X47700Y82495*
X47661Y82557*
X47625Y82631*
X47596Y82712*
X48027Y82777*
Y82770*
X48034Y82757*
X48040Y82735*
X48050Y82706*
X48066Y82673*
X48085Y82644*
X48108Y82612*
X48137Y82586*
X48140Y82583*
X48153Y82576*
X48173Y82566*
X48199Y82557*
X48231Y82544*
X48273Y82534*
X48319Y82528*
X48374Y82524*
X48399*
X48432Y82528*
X48467Y82531*
X48506Y82537*
X48548Y82550*
X48587Y82563*
X48623Y82583*
X48626Y82586*
X48633Y82592*
X48642Y82602*
X48652Y82615*
X48662Y82631*
X48672Y82651*
X48678Y82673*
X48681Y82699*
Y82702*
Y82709*
X48678Y82728*
X48668Y82754*
X48649Y82780*
X48642Y82787*
X48633Y82790*
X48620Y82800*
X48600Y82806*
X48574Y82816*
X48545Y82825*
X48506Y82835*
X48500*
X48484Y82842*
X48458Y82848*
X48422Y82855*
X48380Y82864*
X48335Y82877*
X48283Y82890*
X48228Y82906*
X48115Y82939*
X48059Y82955*
X48008Y82974*
X47959Y82991*
X47914Y83010*
X47875Y83029*
X47846Y83046*
X47842Y83049*
X47836Y83052*
X47830Y83059*
X47817Y83072*
X47784Y83101*
X47752Y83143*
X47716Y83195*
X47684Y83256*
X47671Y83292*
X47664Y83331*
X47658Y83370*
X47655Y83412*
Y83415*
Y83421*
Y83431*
X47658Y83447*
X47661Y83463*
X47664Y83486*
X47674Y83535*
X47693Y83590*
X47726Y83648*
X47742Y83680*
X47765Y83710*
X47791Y83739*
X47820Y83765*
X47823Y83768*
X47826Y83771*
X47836Y83778*
X47852Y83787*
X47868Y83797*
X47891Y83810*
X47917Y83823*
X47946Y83839*
X47982Y83852*
X48021Y83865*
X48063Y83878*
X48108Y83888*
X48160Y83897*
X48215Y83904*
X48273Y83910*
X48393*
X48419Y83907*
G37*
G36*
X64326D02*
X64352D01*
X64381Y83904*
X64414Y83901*
X64449Y83894*
X64524Y83878*
X64602Y83855*
X64679Y83823*
X64751Y83781*
X64754*
X64757Y83774*
X64767Y83768*
X64780Y83758*
X64809Y83729*
X64848Y83687*
X64890Y83632*
X64932Y83567*
X64971Y83489*
X65003Y83399*
X64579Y83321*
Y83327*
X64576Y83340*
X64569Y83363*
X64560Y83392*
X64543Y83421*
X64527Y83454*
X64505Y83483*
X64479Y83509*
X64475Y83512*
X64466Y83518*
X64449Y83528*
X64427Y83541*
X64398Y83554*
X64365Y83564*
X64326Y83570*
X64284Y83574*
X64278*
X64258Y83570*
X64229Y83567*
X64190Y83561*
X64152Y83544*
X64109Y83525*
X64067Y83499*
X64028Y83460*
X64025Y83454*
X64016Y83438*
X63999Y83412*
X63983Y83373*
X63964Y83321*
X63957Y83292*
X63951Y83259*
X63944Y83221*
X63938Y83182*
X63935Y83136*
Y83091*
Y83088*
Y83078*
Y83062*
X63938Y83042*
Y83020*
X63941Y82994*
X63948Y82929*
X63957Y82861*
X63977Y82793*
X63999Y82732*
X64016Y82706*
X64032Y82680*
X64035Y82673*
X64051Y82660*
X64071Y82644*
X64100Y82621*
X64139Y82599*
X64181Y82583*
X64233Y82570*
X64291Y82563*
X64310*
X64333Y82566*
X64362Y82573*
X64394Y82579*
X64427Y82592*
X64459Y82608*
X64492Y82631*
X64495Y82634*
X64505Y82644*
X64518Y82660*
X64537Y82686*
X64556Y82719*
X64573Y82761*
X64592Y82812*
X64605Y82871*
X65026Y82800*
Y82796*
X65023Y82787*
X65019Y82770*
X65013Y82751*
X65003Y82728*
X64994Y82699*
X64968Y82634*
X64935Y82563*
X64890Y82492*
X64835Y82421*
X64802Y82388*
X64770Y82359*
X64767*
X64760Y82353*
X64751Y82346*
X64738Y82336*
X64718Y82327*
X64696Y82314*
X64670Y82301*
X64637Y82288*
X64605Y82272*
X64566Y82259*
X64527Y82246*
X64482Y82236*
X64433Y82226*
X64381Y82220*
X64330Y82217*
X64271Y82213*
X64236*
X64213Y82217*
X64184Y82220*
X64148Y82226*
X64109Y82233*
X64067Y82243*
X64022Y82252*
X63977Y82268*
X63928Y82285*
X63883Y82307*
X63834Y82333*
X63789Y82362*
X63747Y82398*
X63705Y82437*
X63701Y82440*
X63695Y82447*
X63685Y82460*
X63672Y82479*
X63656Y82502*
X63637Y82528*
X63620Y82560*
X63601Y82599*
X63578Y82641*
X63562Y82686*
X63543Y82738*
X63527Y82793*
X63514Y82855*
X63504Y82916*
X63497Y82987*
X63494Y83059*
Y83062*
Y83075*
Y83097*
X63497Y83123*
X63501Y83159*
X63504Y83198*
X63510Y83240*
X63520Y83289*
X63546Y83389*
X63562Y83441*
X63582Y83493*
X63607Y83544*
X63637Y83593*
X63669Y83638*
X63705Y83684*
X63708Y83687*
X63714Y83693*
X63727Y83703*
X63743Y83719*
X63766Y83735*
X63792Y83755*
X63821Y83778*
X63857Y83797*
X63896Y83820*
X63938Y83839*
X63986Y83859*
X64038Y83875*
X64090Y83891*
X64152Y83901*
X64213Y83907*
X64278Y83910*
X64307*
X64326Y83907*
G37*
G36*
X89499Y29006D02*
X89063Y28840D01*
Y28068*
X89499Y27910*
Y27499*
X87578Y28243*
Y28654*
X89499Y29426*
Y29006*
G37*
G36*
X53254Y83907D02*
X53290Y83904D01*
X53328Y83897*
X53371Y83888*
X53416Y83875*
X53461Y83859*
X53468Y83855*
X53481Y83849*
X53503Y83839*
X53529Y83823*
X53558Y83803*
X53588Y83781*
X53617Y83755*
X53643Y83726*
X53646Y83723*
X53652Y83713*
X53662Y83697*
X53675Y83674*
X53691Y83648*
X53704Y83616*
X53717Y83583*
X53727Y83544*
Y83541*
X53730Y83525*
X53737Y83502*
X53740Y83470*
X53746Y83431*
X53749Y83379*
X53753Y83324*
Y83256*
Y82249*
X53322*
Y83075*
Y83078*
Y83088*
Y83101*
Y83117*
Y83140*
Y83162*
X53319Y83217*
X53316Y83272*
X53309Y83331*
X53303Y83379*
X53299Y83399*
X53293Y83415*
Y83418*
X53286Y83428*
X53280Y83441*
X53270Y83460*
X53241Y83499*
X53225Y83518*
X53202Y83535*
X53199Y83538*
X53192Y83541*
X53180Y83548*
X53160Y83557*
X53137Y83567*
X53115Y83574*
X53086Y83577*
X53053Y83580*
X53034*
X53014Y83577*
X52988Y83574*
X52956Y83564*
X52924Y83554*
X52888Y83538*
X52852Y83518*
X52849Y83515*
X52839Y83509*
X52823Y83493*
X52804Y83476*
X52784Y83450*
X52765Y83425*
X52746Y83389*
X52733Y83353*
Y83350*
X52726Y83334*
X52723Y83308*
X52716Y83269*
X52713Y83246*
X52710Y83217*
X52707Y83188*
Y83153*
X52703Y83117*
X52700Y83075*
Y83029*
Y82981*
Y82249*
X52269*
Y83875*
X52668*
Y83635*
X52671Y83638*
X52678Y83648*
X52691Y83661*
X52707Y83677*
X52726Y83700*
X52752Y83723*
X52781Y83748*
X52814Y83774*
X52849Y83797*
X52891Y83823*
X52933Y83846*
X52982Y83868*
X53034Y83884*
X53086Y83897*
X53144Y83907*
X53202Y83910*
X53225*
X53254Y83907*
G37*
G36*
X15243Y50057D02*
X15765D01*
Y49837*
X15243*
Y49310*
X15021*
Y49837*
X14499*
Y50057*
X15021*
Y50579*
X15243*
Y50057*
G37*
G36*
X54264Y89308D02*
X54334Y89304D01*
X54412Y89301*
X54493Y89289*
X54571Y89278*
X54641Y89260*
X54645*
X54652Y89256*
X54664Y89252*
X54678Y89249*
X54723Y89230*
X54775Y89204*
X54834Y89171*
X54901Y89130*
X54964Y89082*
X55027Y89023*
X55030*
X55034Y89015*
X55052Y88993*
X55082Y88956*
X55115Y88908*
X55156Y88849*
X55197Y88778*
X55238Y88697*
X55271Y88608*
Y88604*
X55275Y88597*
X55278Y88582*
X55286Y88564*
X55289Y88541*
X55297Y88512*
X55304Y88478*
X55315Y88441*
X55323Y88401*
X55330Y88353*
X55338Y88304*
X55341Y88249*
X55352Y88134*
X55356Y88004*
Y88001*
Y87990*
Y87975*
Y87953*
X55352Y87923*
Y87893*
X55349Y87856*
X55345Y87816*
X55338Y87730*
X55323Y87642*
X55301Y87549*
X55275Y87460*
Y87456*
X55271Y87449*
X55264Y87434*
X55256Y87412*
X55249Y87390*
X55234Y87364*
X55204Y87297*
X55167Y87227*
X55119Y87149*
X55064Y87075*
X55001Y87005*
X54993Y86997*
X54975Y86982*
X54945Y86960*
X54904Y86930*
X54852Y86897*
X54793Y86864*
X54719Y86830*
X54638Y86801*
X54634*
X54630Y86797*
X54619*
X54608Y86793*
X54567Y86786*
X54515Y86775*
X54452Y86764*
X54375Y86756*
X54282Y86753*
X54182Y86749*
X53212*
Y89312*
X54234*
X54264Y89308*
G37*
G36*
X58104Y86749D02*
X57545D01*
X57323Y87330*
X56293*
X56082Y86749*
X55534*
X56526Y89312*
X57074*
X58104Y86749*
G37*
G36*
X39839Y88645D02*
X39876Y88641D01*
X39917Y88638*
X39961Y88634*
X40054Y88619*
X40147Y88597*
X40235Y88564*
X40276Y88545*
X40313Y88523*
X40317*
X40321Y88515*
X40343Y88501*
X40376Y88471*
X40413Y88430*
X40458Y88382*
X40498Y88319*
X40539Y88245*
X40569Y88160*
X40106Y88075*
Y88078*
X40098Y88093*
X40091Y88112*
X40080Y88134*
X40065Y88164*
X40043Y88190*
X40021Y88216*
X39991Y88238*
X39987Y88241*
X39976Y88249*
X39958Y88256*
X39932Y88267*
X39898Y88278*
X39858Y88290*
X39810Y88293*
X39754Y88297*
X39721*
X39687Y88293*
X39647Y88290*
X39598Y88282*
X39554Y88275*
X39513Y88260*
X39476Y88241*
X39473*
X39469Y88234*
X39450Y88216*
X39428Y88182*
X39424Y88164*
X39421Y88141*
Y88138*
Y88134*
X39428Y88112*
X39443Y88082*
X39454Y88067*
X39469Y88053*
X39473Y88049*
X39487Y88045*
X39495Y88038*
X39510Y88034*
X39528Y88027*
X39550Y88016*
X39580Y88008*
X39610Y87997*
X39647Y87986*
X39691Y87975*
X39739Y87960*
X39795Y87945*
X39858Y87930*
X39928Y87912*
X39932*
X39947Y87908*
X39965Y87904*
X39991Y87897*
X40024Y87886*
X40061Y87879*
X40143Y87853*
X40235Y87819*
X40324Y87782*
X40369Y87760*
X40409Y87741*
X40443Y87716*
X40476Y87693*
X40484Y87686*
X40502Y87671*
X40524Y87642*
X40554Y87601*
X40584Y87549*
X40606Y87486*
X40624Y87412*
X40632Y87330*
Y87327*
Y87319*
Y87304*
X40628Y87286*
X40624Y87267*
X40621Y87242*
X40606Y87179*
X40580Y87112*
X40561Y87075*
X40543Y87038*
X40517Y87001*
X40487Y86964*
X40454Y86927*
X40417Y86890*
X40413Y86886*
X40406Y86882*
X40395Y86875*
X40376Y86860*
X40354Y86849*
X40328Y86834*
X40295Y86816*
X40258Y86801*
X40217Y86782*
X40169Y86768*
X40117Y86749*
X40061Y86738*
X39998Y86727*
X39932Y86716*
X39861Y86712*
X39787Y86708*
X39750*
X39724Y86712*
X39691*
X39654Y86716*
X39613Y86719*
X39569Y86727*
X39473Y86745*
X39373Y86771*
X39273Y86808*
X39228Y86834*
X39184Y86860*
X39180Y86864*
X39173Y86868*
X39161Y86875*
X39150Y86890*
X39110Y86923*
X39065Y86971*
X39017Y87030*
X38973Y87101*
X38932Y87186*
X38899Y87279*
X39391Y87353*
Y87345*
X39398Y87330*
X39406Y87304*
X39417Y87271*
X39436Y87234*
X39458Y87201*
X39484Y87164*
X39517Y87134*
X39521Y87130*
X39536Y87123*
X39558Y87112*
X39587Y87101*
X39624Y87086*
X39673Y87075*
X39724Y87067*
X39787Y87064*
X39817*
X39854Y87067*
X39895Y87071*
X39939Y87079*
X39987Y87093*
X40032Y87108*
X40073Y87130*
X40076Y87134*
X40084Y87142*
X40095Y87153*
X40106Y87167*
X40117Y87186*
X40128Y87208*
X40135Y87234*
X40139Y87264*
Y87267*
Y87275*
X40135Y87297*
X40124Y87327*
X40102Y87356*
X40095Y87364*
X40084Y87367*
X40069Y87379*
X40047Y87386*
X40017Y87397*
X39984Y87408*
X39939Y87419*
X39932*
X39913Y87427*
X39884Y87434*
X39843Y87442*
X39795Y87453*
X39743Y87467*
X39684Y87482*
X39621Y87501*
X39491Y87538*
X39428Y87556*
X39369Y87579*
X39313Y87597*
X39261Y87619*
X39217Y87642*
X39184Y87660*
X39180Y87664*
X39173Y87667*
X39165Y87675*
X39150Y87690*
X39113Y87723*
X39076Y87771*
X39036Y87830*
X38999Y87901*
X38984Y87941*
X38976Y87986*
X38969Y88030*
X38965Y88078*
Y88082*
Y88090*
Y88101*
X38969Y88119*
X38973Y88138*
X38976Y88164*
X38987Y88219*
X39010Y88282*
X39047Y88349*
X39065Y88386*
X39091Y88419*
X39121Y88453*
X39154Y88482*
X39158Y88486*
X39161Y88490*
X39173Y88497*
X39191Y88508*
X39210Y88519*
X39236Y88534*
X39265Y88549*
X39298Y88567*
X39339Y88582*
X39384Y88597*
X39432Y88612*
X39484Y88623*
X39543Y88634*
X39606Y88641*
X39673Y88649*
X39810*
X39839Y88645*
G37*
G36*
X35688Y89308D02*
X35728D01*
X35769Y89304*
X35817*
X35914Y89293*
X36014Y89282*
X36106Y89264*
X36147Y89252*
X36184Y89241*
X36188*
X36191Y89238*
X36214Y89227*
X36247Y89208*
X36291Y89186*
X36340Y89149*
X36388Y89108*
X36436Y89056*
X36480Y88993*
Y88990*
X36484Y88986*
X36491Y88975*
X36499Y88964*
X36517Y88927*
X36540Y88878*
X36558Y88819*
X36577Y88753*
X36591Y88675*
X36595Y88593*
Y88590*
Y88582*
Y88564*
X36591Y88545*
Y88519*
X36588Y88493*
X36573Y88427*
X36554Y88349*
X36525Y88271*
X36480Y88190*
X36454Y88153*
X36425Y88116*
X36421Y88112*
X36417Y88108*
X36406Y88097*
X36391Y88086*
X36377Y88071*
X36354Y88053*
X36328Y88034*
X36299Y88016*
X36265Y87993*
X36225Y87975*
X36184Y87956*
X36140Y87938*
X36088Y87919*
X36036Y87904*
X35980Y87890*
X35917Y87879*
X35921*
X35925Y87875*
X35947Y87860*
X35977Y87841*
X36014Y87816*
X36058Y87782*
X36103Y87749*
X36151Y87708*
X36191Y87664*
X36195Y87660*
X36214Y87642*
X36236Y87612*
X36269Y87567*
X36314Y87512*
X36336Y87475*
X36362Y87438*
X36391Y87397*
X36421Y87353*
X36454Y87301*
X36488Y87249*
X36802Y86749*
X36180*
X35810Y87304*
X35806Y87308*
X35803Y87319*
X35791Y87334*
X35777Y87353*
X35762Y87375*
X35743Y87404*
X35703Y87464*
X35654Y87530*
X35610Y87590*
X35569Y87645*
X35551Y87664*
X35536Y87682*
X35532Y87686*
X35525Y87693*
X35510Y87708*
X35491Y87727*
X35466Y87741*
X35440Y87760*
X35410Y87775*
X35380Y87790*
X35377*
X35366Y87793*
X35347Y87801*
X35317Y87804*
X35280Y87812*
X35236Y87816*
X35184Y87819*
X35017*
Y86749*
X34499*
Y89312*
X35654*
X35688Y89308*
G37*
G36*
X37884Y88645D02*
X37913D01*
X37988Y88638*
X38065Y88630*
X38147Y88615*
X38225Y88593*
X38258Y88582*
X38291Y88567*
X38295*
X38299Y88564*
X38317Y88553*
X38347Y88538*
X38380Y88515*
X38421Y88486*
X38458Y88453*
X38491Y88412*
X38521Y88371*
X38525Y88364*
X38532Y88349*
X38543Y88315*
X38547Y88297*
X38554Y88271*
X38562Y88245*
X38565Y88212*
X38573Y88175*
X38576Y88134*
X38580Y88090*
X38584Y88041*
X38587Y87990*
Y87930*
X38580Y87356*
Y87353*
Y87345*
Y87334*
Y87316*
Y87271*
X38584Y87219*
Y87160*
X38591Y87101*
X38595Y87042*
X38602Y86993*
Y86990*
X38606Y86975*
X38613Y86949*
X38621Y86919*
X38636Y86882*
X38650Y86842*
X38669Y86797*
X38691Y86749*
X38206*
Y86753*
X38202Y86756*
X38199Y86771*
X38191Y86786*
X38184Y86805*
X38176Y86830*
X38169Y86860*
X38158Y86893*
Y86897*
X38154Y86901*
X38150Y86916*
X38143Y86934*
X38139Y86949*
X38132Y86945*
X38117Y86930*
X38091Y86908*
X38058Y86882*
X38017Y86853*
X37973Y86819*
X37921Y86793*
X37869Y86768*
X37862Y86764*
X37843Y86760*
X37813Y86749*
X37776Y86738*
X37732Y86727*
X37680Y86719*
X37621Y86712*
X37562Y86708*
X37536*
X37513Y86712*
X37491*
X37462Y86716*
X37399Y86727*
X37325Y86745*
X37251Y86771*
X37177Y86808*
X37110Y86860*
Y86864*
X37102Y86868*
X37084Y86890*
X37058Y86923*
X37028Y86967*
X36999Y87023*
X36973Y87090*
X36954Y87167*
X36951Y87208*
X36947Y87253*
Y87260*
Y87279*
X36951Y87308*
X36958Y87345*
X36965Y87390*
X36977Y87434*
X36995Y87482*
X37021Y87530*
X37025Y87538*
X37036Y87553*
X37051Y87575*
X37077Y87601*
X37102Y87630*
X37139Y87664*
X37180Y87693*
X37228Y87719*
X37236Y87723*
X37254Y87730*
X37284Y87741*
X37328Y87760*
X37384Y87779*
X37451Y87797*
X37532Y87816*
X37621Y87834*
X37625*
X37636Y87838*
X37654Y87841*
X37676Y87845*
X37706Y87849*
X37739Y87856*
X37813Y87875*
X37891Y87893*
X37973Y87912*
X38043Y87934*
X38076Y87945*
X38102Y87956*
Y88004*
Y88012*
Y88027*
X38099Y88053*
X38095Y88086*
X38084Y88119*
X38073Y88153*
X38054Y88182*
X38028Y88208*
X38025Y88212*
X38013Y88219*
X37995Y88227*
X37969Y88241*
X37932Y88253*
X37888Y88260*
X37832Y88267*
X37765Y88271*
X37743*
X37721Y88267*
X37691Y88264*
X37658Y88256*
X37621Y88249*
X37588Y88234*
X37558Y88216*
X37554Y88212*
X37547Y88204*
X37532Y88193*
X37517Y88175*
X37495Y88149*
X37476Y88116*
X37458Y88078*
X37439Y88034*
X36999Y88116*
Y88119*
X37002Y88127*
X37006Y88141*
X37014Y88160*
X37021Y88182*
X37032Y88208*
X37058Y88267*
X37095Y88330*
X37139Y88397*
X37191Y88460*
X37254Y88515*
X37258*
X37262Y88523*
X37273Y88527*
X37288Y88538*
X37310Y88545*
X37332Y88556*
X37362Y88571*
X37391Y88582*
X37428Y88593*
X37469Y88608*
X37513Y88619*
X37565Y88627*
X37617Y88638*
X37676Y88641*
X37736Y88649*
X37858*
X37884Y88645*
G37*
G36*
X64270Y86749D02*
X63711D01*
X63489Y87330*
X62459*
X62248Y86749*
X61700*
X62692Y89312*
X63240*
X64270Y86749*
G37*
G36*
X81913Y87960D02*
Y87956D01*
Y87941*
Y87916*
Y87886*
Y87849*
X81909Y87804*
Y87756*
Y87708*
X81901Y87601*
X81894Y87490*
X81890Y87442*
X81883Y87393*
X81876Y87349*
X81868Y87308*
Y87304*
X81864Y87301*
Y87290*
X81861Y87279*
X81850Y87242*
X81835Y87197*
X81813Y87145*
X81787Y87093*
X81753Y87038*
X81713Y86986*
X81709Y86979*
X81694Y86964*
X81668Y86942*
X81635Y86912*
X81590Y86879*
X81539Y86845*
X81479Y86808*
X81413Y86779*
X81409*
X81405Y86775*
X81394Y86771*
X81379Y86768*
X81361Y86760*
X81339Y86753*
X81309Y86745*
X81279Y86742*
X81209Y86727*
X81124Y86712*
X81028Y86705*
X80920Y86701*
X80861*
X80828Y86705*
X80794*
X80753Y86708*
X80713Y86712*
X80624Y86719*
X80531Y86734*
X80439Y86756*
X80398Y86768*
X80361Y86782*
X80357*
X80354Y86786*
X80331Y86797*
X80294Y86816*
X80254Y86842*
X80205Y86875*
X80154Y86912*
X80105Y86956*
X80061Y87005*
X80057Y87012*
X80042Y87027*
X80024Y87056*
X80002Y87093*
X79979Y87134*
X79954Y87182*
X79935Y87234*
X79917Y87290*
Y87293*
X79913Y87301*
Y87312*
X79909Y87330*
X79905Y87353*
X79902Y87382*
X79898Y87416*
X79894Y87453*
X79887Y87497*
X79883Y87545*
X79879Y87597*
X79876Y87656*
X79872Y87719*
Y87790*
X79868Y87864*
Y87941*
Y89312*
X80387*
Y87919*
Y87916*
Y87904*
Y87890*
Y87867*
Y87838*
Y87808*
X80391Y87741*
Y87667*
X80394Y87597*
X80398Y87564*
Y87534*
X80402Y87512*
X80405Y87490*
Y87482*
X80413Y87464*
X80424Y87434*
X80439Y87397*
X80457Y87356*
X80487Y87316*
X80520Y87271*
X80561Y87234*
X80568Y87230*
X80583Y87219*
X80613Y87205*
X80650Y87190*
X80702Y87171*
X80761Y87156*
X80828Y87145*
X80905Y87142*
X80942*
X80979Y87145*
X81028Y87153*
X81083Y87164*
X81135Y87179*
X81190Y87201*
X81235Y87230*
X81239Y87234*
X81253Y87245*
X81272Y87264*
X81294Y87290*
X81316Y87323*
X81339Y87360*
X81357Y87401*
X81368Y87449*
Y87456*
X81372Y87475*
X81376Y87508*
X81383Y87553*
Y87582*
X81387Y87616*
Y87653*
X81390Y87690*
Y87734*
X81394Y87782*
Y87834*
Y87890*
Y89312*
X81913*
Y87960*
G37*
G36*
X76084Y89308D02*
X76180D01*
X76284Y89301*
X76387Y89293*
X76432Y89289*
X76476Y89286*
X76513Y89278*
X76543Y89271*
X76546*
X76554Y89267*
X76565Y89264*
X76580Y89260*
X76621Y89241*
X76672Y89219*
X76728Y89186*
X76791Y89141*
X76850Y89086*
X76909Y89019*
Y89015*
X76917Y89012*
X76924Y89001*
X76932Y88986*
X76946Y88964*
X76958Y88941*
X76972Y88915*
X76987Y88886*
X77013Y88812*
X77039Y88730*
X77054Y88630*
X77061Y88523*
Y88519*
Y88512*
Y88501*
Y88482*
X77058Y88464*
Y88438*
X77050Y88386*
X77039Y88323*
X77024Y88253*
X77002Y88186*
X76972Y88123*
X76969Y88116*
X76958Y88097*
X76939Y88067*
X76913Y88030*
X76883Y87993*
X76843Y87949*
X76802Y87908*
X76754Y87871*
X76746Y87867*
X76732Y87856*
X76706Y87841*
X76672Y87823*
X76632Y87801*
X76587Y87782*
X76539Y87764*
X76487Y87749*
X76480*
X76469Y87745*
X76454*
X76435Y87741*
X76409Y87738*
X76384Y87734*
X76350*
X76317Y87730*
X76276Y87727*
X76232Y87723*
X76184Y87719*
X76132*
X76076Y87716*
X75617*
Y86749*
X75099*
Y89312*
X76043*
X76084Y89308*
G37*
G36*
X69214Y86749D02*
X68721D01*
Y89312*
X69214*
Y86749*
G37*
G36*
X51238Y86816D02*
X51119Y86497D01*
X51116Y86490*
X51108Y86471*
X51094Y86442*
X51079Y86405*
X51060Y86364*
X51038Y86323*
X51016Y86286*
X50994Y86249*
X50990Y86245*
X50982Y86234*
X50971Y86219*
X50957Y86197*
X50916Y86153*
X50860Y86108*
X50857Y86105*
X50845Y86101*
X50831Y86090*
X50808Y86079*
X50783Y86068*
X50753Y86053*
X50716Y86038*
X50675Y86027*
X50671*
X50657Y86023*
X50634Y86016*
X50601Y86012*
X50564Y86005*
X50523Y85997*
X50475Y85994*
X50401*
X50371Y85997*
X50338*
X50294Y86001*
X50249Y86008*
X50149Y86027*
X50105Y86412*
X50108*
X50123Y86408*
X50146Y86405*
X50175Y86401*
X50205Y86393*
X50242Y86390*
X50312Y86386*
X50342*
X50371Y86393*
X50408Y86401*
X50449Y86412*
X50490Y86431*
X50531Y86456*
X50564Y86490*
X50568Y86493*
X50579Y86508*
X50594Y86531*
X50612Y86560*
X50631Y86597*
X50653Y86642*
X50671Y86690*
X50690Y86745*
X49986Y88608*
X50508*
X50949Y87286*
X51386Y88608*
X51893*
X51238Y86816*
G37*
G36*
X67536Y88645D02*
X67566D01*
X67640Y88638*
X67718Y88630*
X67799Y88615*
X67877Y88593*
X67910Y88582*
X67944Y88567*
X67947*
X67951Y88564*
X67970Y88553*
X67999Y88538*
X68033Y88515*
X68073Y88486*
X68110Y88453*
X68144Y88412*
X68173Y88371*
X68177Y88364*
X68184Y88349*
X68196Y88315*
X68199Y88297*
X68207Y88271*
X68214Y88245*
X68218Y88212*
X68225Y88175*
X68229Y88134*
X68233Y88090*
X68236Y88041*
X68240Y87990*
Y87930*
X68233Y87356*
Y87353*
Y87345*
Y87334*
Y87316*
Y87271*
X68236Y87219*
Y87160*
X68244Y87101*
X68247Y87042*
X68255Y86993*
Y86990*
X68258Y86975*
X68266Y86949*
X68273Y86919*
X68288Y86882*
X68303Y86842*
X68321Y86797*
X68344Y86749*
X67859*
Y86753*
X67855Y86756*
X67851Y86771*
X67844Y86786*
X67836Y86805*
X67829Y86830*
X67821Y86860*
X67810Y86893*
Y86897*
X67807Y86901*
X67803Y86916*
X67796Y86934*
X67792Y86949*
X67784Y86945*
X67770Y86930*
X67744Y86908*
X67710Y86882*
X67670Y86853*
X67625Y86819*
X67573Y86793*
X67521Y86768*
X67514Y86764*
X67496Y86760*
X67466Y86749*
X67429Y86738*
X67384Y86727*
X67333Y86719*
X67273Y86712*
X67214Y86708*
X67188*
X67166Y86712*
X67144*
X67114Y86716*
X67051Y86727*
X66977Y86745*
X66903Y86771*
X66829Y86808*
X66762Y86860*
Y86864*
X66755Y86868*
X66736Y86890*
X66710Y86923*
X66681Y86967*
X66651Y87023*
X66625Y87090*
X66607Y87167*
X66603Y87208*
X66599Y87253*
Y87260*
Y87279*
X66603Y87308*
X66610Y87345*
X66618Y87390*
X66629Y87434*
X66648Y87482*
X66673Y87530*
X66677Y87538*
X66688Y87553*
X66703Y87575*
X66729Y87601*
X66755Y87630*
X66792Y87664*
X66833Y87693*
X66881Y87719*
X66888Y87723*
X66907Y87730*
X66936Y87741*
X66981Y87760*
X67036Y87779*
X67103Y87797*
X67185Y87816*
X67273Y87834*
X67277*
X67288Y87838*
X67307Y87841*
X67329Y87845*
X67359Y87849*
X67392Y87856*
X67466Y87875*
X67544Y87893*
X67625Y87912*
X67696Y87934*
X67729Y87945*
X67755Y87956*
Y88004*
Y88012*
Y88027*
X67751Y88053*
X67747Y88086*
X67736Y88119*
X67725Y88153*
X67707Y88182*
X67681Y88208*
X67677Y88212*
X67666Y88219*
X67647Y88227*
X67621Y88241*
X67584Y88253*
X67540Y88260*
X67484Y88267*
X67418Y88271*
X67396*
X67373Y88267*
X67344Y88264*
X67310Y88256*
X67273Y88249*
X67240Y88234*
X67210Y88216*
X67207Y88212*
X67199Y88204*
X67185Y88193*
X67170Y88175*
X67147Y88149*
X67129Y88116*
X67110Y88078*
X67092Y88034*
X66651Y88116*
Y88119*
X66655Y88127*
X66659Y88141*
X66666Y88160*
X66673Y88182*
X66685Y88208*
X66710Y88267*
X66748Y88330*
X66792Y88397*
X66844Y88460*
X66907Y88515*
X66910*
X66914Y88523*
X66925Y88527*
X66940Y88538*
X66962Y88545*
X66985Y88556*
X67014Y88571*
X67044Y88582*
X67081Y88593*
X67122Y88608*
X67166Y88619*
X67218Y88627*
X67270Y88638*
X67329Y88641*
X67388Y88649*
X67510*
X67536Y88645*
G37*
G36*
X42143D02*
X42169Y88641D01*
X42202Y88634*
X42239Y88627*
X42276Y88615*
X42320Y88604*
X42361Y88586*
X42409Y88567*
X42454Y88541*
X42502Y88512*
X42546Y88478*
X42591Y88438*
X42635Y88393*
X42639Y88390*
X42646Y88382*
X42657Y88367*
X42672Y88345*
X42687Y88323*
X42706Y88290*
X42728Y88253*
X42750Y88212*
X42769Y88164*
X42791Y88112*
X42809Y88053*
X42828Y87990*
X42839Y87919*
X42850Y87849*
X42857Y87767*
X42861Y87686*
Y87682*
Y87667*
Y87642*
X42857Y87608*
X42854Y87571*
X42850Y87527*
X42843Y87475*
X42831Y87423*
X42806Y87304*
X42787Y87245*
X42765Y87186*
X42739Y87127*
X42706Y87071*
X42672Y87016*
X42631Y86964*
X42628Y86960*
X42620Y86953*
X42609Y86942*
X42591Y86923*
X42569Y86905*
X42543Y86882*
X42513Y86860*
X42480Y86838*
X42439Y86812*
X42398Y86790*
X42306Y86749*
X42254Y86730*
X42198Y86719*
X42143Y86712*
X42083Y86708*
X42057*
X42028Y86712*
X41991Y86716*
X41946Y86723*
X41898Y86734*
X41850Y86749*
X41802Y86768*
X41798Y86771*
X41780Y86779*
X41758Y86797*
X41724Y86819*
X41683Y86845*
X41643Y86882*
X41595Y86927*
X41543Y86979*
Y86038*
X41050*
Y88608*
X41509*
Y88334*
X41513Y88341*
X41524Y88356*
X41546Y88382*
X41572Y88415*
X41606Y88453*
X41650Y88490*
X41695Y88527*
X41750Y88560*
X41758Y88564*
X41776Y88575*
X41809Y88590*
X41850Y88604*
X41898Y88619*
X41957Y88634*
X42020Y88645*
X42087Y88649*
X42117*
X42143Y88645*
G37*
G36*
X46683Y83907D02*
X46712Y83904D01*
X46748Y83897*
X46787Y83891*
X46829Y83881*
X46874Y83868*
X46919Y83852*
X46968Y83833*
X47017Y83807*
X47062Y83781*
X47107Y83748*
X47153Y83710*
X47192Y83667*
X47195Y83664*
X47201Y83658*
X47211Y83642*
X47224Y83622*
X47240Y83596*
X47256Y83567*
X47276Y83528*
X47295Y83486*
X47315Y83438*
X47334Y83382*
X47350Y83324*
X47366Y83256*
X47379Y83185*
X47389Y83107*
X47396Y83026*
Y82936*
X46320*
Y82932*
Y82926*
Y82916*
X46324Y82903*
X46327Y82871*
X46333Y82825*
X46346Y82780*
X46366Y82728*
X46388Y82680*
X46421Y82638*
X46424Y82634*
X46440Y82621*
X46460Y82605*
X46489Y82586*
X46524Y82566*
X46570Y82550*
X46618Y82537*
X46670Y82534*
X46686*
X46706Y82537*
X46728Y82540*
X46754Y82547*
X46783Y82557*
X46813Y82570*
X46839Y82589*
X46842Y82592*
X46851Y82599*
X46864Y82612*
X46877Y82631*
X46897Y82657*
X46913Y82686*
X46929Y82725*
X46945Y82767*
X47373Y82696*
Y82693*
X47370Y82686*
X47363Y82673*
X47357Y82657*
X47347Y82638*
X47337Y82615*
X47308Y82563*
X47272Y82505*
X47227Y82443*
X47172Y82388*
X47111Y82336*
X47107*
X47104Y82330*
X47091Y82327*
X47078Y82317*
X47062Y82307*
X47039Y82298*
X47017Y82288*
X46987Y82275*
X46923Y82252*
X46848Y82233*
X46761Y82220*
X46667Y82213*
X46647*
X46628Y82217*
X46599*
X46563Y82223*
X46521Y82230*
X46476Y82236*
X46430Y82249*
X46379Y82262*
X46327Y82281*
X46275Y82304*
X46223Y82330*
X46171Y82362*
X46123Y82398*
X46081Y82440*
X46039Y82489*
X46035Y82492*
X46032Y82498*
X46026Y82511*
X46013Y82528*
X46003Y82550*
X45990Y82576*
X45974Y82605*
X45961Y82641*
X45945Y82680*
X45932Y82722*
X45916Y82767*
X45906Y82819*
X45896Y82871*
X45886Y82926*
X45883Y82987*
X45880Y83049*
Y83052*
Y83065*
Y83088*
X45883Y83117*
X45886Y83149*
X45890Y83188*
X45896Y83230*
X45906Y83279*
X45932Y83379*
X45948Y83431*
X45967Y83486*
X45993Y83538*
X46022Y83587*
X46055Y83635*
X46090Y83680*
X46094Y83684*
X46100Y83690*
X46113Y83703*
X46129Y83716*
X46149Y83732*
X46175Y83752*
X46204Y83774*
X46236Y83797*
X46272Y83816*
X46314Y83839*
X46356Y83859*
X46405Y83875*
X46453Y83888*
X46508Y83901*
X46563Y83907*
X46622Y83910*
X46657*
X46683Y83907*
G37*
G36*
X68799Y84500D02*
X68828Y84497D01*
X68857Y84493*
X68893Y84490*
X68928Y84484*
X69009Y84464*
X69093Y84435*
X69132Y84416*
X69174Y84393*
X69210Y84367*
X69246Y84338*
X69249Y84335*
X69252Y84331*
X69262Y84322*
X69275Y84309*
X69288Y84292*
X69301Y84273*
X69336Y84224*
X69369Y84163*
X69395Y84095*
X69417Y84014*
X69421Y83969*
X69424Y83923*
Y83920*
Y83917*
Y83897*
X69421Y83868*
X69414Y83829*
X69404Y83787*
X69388Y83742*
X69369Y83693*
X69340Y83645*
X69336Y83638*
X69323Y83625*
X69307Y83603*
X69281Y83577*
X69249Y83544*
X69210Y83515*
X69165Y83486*
X69113Y83460*
X69116*
X69123Y83457*
X69132Y83454*
X69145Y83447*
X69178Y83428*
X69220Y83402*
X69265Y83373*
X69314Y83334*
X69359Y83289*
X69398Y83237*
X69401Y83230*
X69414Y83211*
X69430Y83182*
X69447Y83143*
X69466Y83094*
X69479Y83036*
X69492Y82974*
X69495Y82906*
Y82903*
Y82893*
Y82877*
X69492Y82855*
X69489Y82829*
X69485Y82796*
X69479Y82764*
X69469Y82728*
X69447Y82647*
X69430Y82605*
X69411Y82563*
X69388Y82521*
X69359Y82479*
X69330Y82440*
X69294Y82401*
X69291Y82398*
X69285Y82391*
X69275Y82382*
X69259Y82372*
X69239Y82356*
X69213Y82340*
X69187Y82323*
X69155Y82304*
X69119Y82285*
X69077Y82268*
X69035Y82252*
X68990Y82236*
X68938Y82226*
X68883Y82217*
X68828Y82210*
X68766Y82207*
X68737*
X68715Y82210*
X68689Y82213*
X68660Y82217*
X68627Y82220*
X68588Y82226*
X68507Y82246*
X68423Y82275*
X68381Y82291*
X68339Y82314*
X68297Y82336*
X68258Y82366*
X68255Y82369*
X68248Y82375*
X68235Y82385*
X68219Y82401*
X68203Y82421*
X68183Y82443*
X68161Y82472*
X68138Y82502*
X68115Y82537*
X68093Y82576*
X68073Y82618*
X68057Y82667*
X68041Y82715*
X68028Y82770*
X68022Y82825*
X68018Y82887*
Y82890*
Y82897*
Y82906*
Y82919*
X68022Y82955*
X68028Y82997*
X68041Y83049*
X68054Y83107*
X68077Y83165*
X68106Y83224*
Y83227*
X68109Y83230*
X68122Y83250*
X68145Y83276*
X68177Y83311*
X68216Y83350*
X68264Y83389*
X68323Y83425*
X68391Y83460*
X68388*
X68384Y83463*
X68365Y83473*
X68336Y83489*
X68300Y83509*
X68258Y83538*
X68219Y83570*
X68180Y83609*
X68148Y83651*
X68145Y83658*
X68135Y83674*
X68125Y83697*
X68112Y83732*
X68096Y83771*
X68086Y83820*
X68077Y83868*
X68073Y83923*
Y83927*
Y83933*
Y83946*
X68077Y83965*
X68080Y83985*
X68083Y84011*
X68096Y84069*
X68115Y84134*
X68148Y84205*
X68167Y84237*
X68190Y84273*
X68219Y84305*
X68248Y84338*
X68251Y84341*
X68258Y84344*
X68268Y84354*
X68281Y84364*
X68300Y84377*
X68320Y84390*
X68345Y84406*
X68378Y84422*
X68410Y84435*
X68446Y84451*
X68488Y84464*
X68533Y84477*
X68582Y84487*
X68634Y84497*
X68689Y84500*
X68747Y84503*
X68779*
X68799Y84500*
G37*
G36*
X54867Y83907D02*
X54896Y83904D01*
X54932Y83897*
X54970Y83891*
X55013Y83881*
X55058Y83868*
X55103Y83852*
X55152Y83833*
X55200Y83807*
X55246Y83781*
X55291Y83748*
X55336Y83710*
X55375Y83667*
X55378Y83664*
X55385Y83658*
X55395Y83642*
X55408Y83622*
X55424Y83596*
X55440Y83567*
X55459Y83528*
X55479Y83486*
X55498Y83438*
X55518Y83382*
X55534Y83324*
X55550Y83256*
X55563Y83185*
X55573Y83107*
X55579Y83026*
Y82936*
X54504*
Y82932*
Y82926*
Y82916*
X54507Y82903*
X54511Y82871*
X54517Y82825*
X54530Y82780*
X54549Y82728*
X54572Y82680*
X54604Y82638*
X54608Y82634*
X54624Y82621*
X54643Y82605*
X54672Y82586*
X54708Y82566*
X54753Y82550*
X54802Y82537*
X54854Y82534*
X54870*
X54889Y82537*
X54912Y82540*
X54938Y82547*
X54967Y82557*
X54996Y82570*
X55022Y82589*
X55025Y82592*
X55035Y82599*
X55048Y82612*
X55061Y82631*
X55081Y82657*
X55097Y82686*
X55113Y82725*
X55129Y82767*
X55557Y82696*
Y82693*
X55553Y82686*
X55547Y82673*
X55540Y82657*
X55531Y82638*
X55521Y82615*
X55492Y82563*
X55456Y82505*
X55411Y82443*
X55356Y82388*
X55294Y82336*
X55291*
X55288Y82330*
X55275Y82327*
X55262Y82317*
X55246Y82307*
X55223Y82298*
X55200Y82288*
X55171Y82275*
X55106Y82252*
X55032Y82233*
X54944Y82220*
X54851Y82213*
X54831*
X54812Y82217*
X54783*
X54747Y82223*
X54705Y82230*
X54660Y82236*
X54614Y82249*
X54562Y82262*
X54511Y82281*
X54459Y82304*
X54407Y82330*
X54355Y82362*
X54307Y82398*
X54264Y82440*
X54222Y82489*
X54219Y82492*
X54216Y82498*
X54209Y82511*
X54196Y82528*
X54187Y82550*
X54174Y82576*
X54158Y82605*
X54145Y82641*
X54128Y82680*
X54115Y82722*
X54099Y82767*
X54090Y82819*
X54080Y82871*
X54070Y82926*
X54067Y82987*
X54064Y83049*
Y83052*
Y83065*
Y83088*
X54067Y83117*
X54070Y83149*
X54073Y83188*
X54080Y83230*
X54090Y83279*
X54115Y83379*
X54132Y83431*
X54151Y83486*
X54177Y83538*
X54206Y83587*
X54238Y83635*
X54274Y83680*
X54277Y83684*
X54284Y83690*
X54297Y83703*
X54313Y83716*
X54332Y83732*
X54358Y83752*
X54387Y83774*
X54420Y83797*
X54455Y83816*
X54498Y83839*
X54540Y83859*
X54588Y83875*
X54637Y83888*
X54692Y83901*
X54747Y83907*
X54805Y83910*
X54841*
X54867Y83907*
G37*
G36*
X44669Y84487D02*
X44730Y84484D01*
X44798Y84480*
X44870Y84471*
X44938Y84461*
X44999Y84445*
X45002*
X45009Y84441*
X45018Y84438*
X45031Y84435*
X45070Y84419*
X45116Y84396*
X45167Y84367*
X45226Y84331*
X45281Y84289*
X45336Y84237*
X45339*
X45342Y84231*
X45359Y84212*
X45384Y84179*
X45414Y84137*
X45449Y84085*
X45485Y84024*
X45520Y83952*
X45550Y83875*
Y83871*
X45553Y83865*
X45556Y83852*
X45563Y83836*
X45566Y83816*
X45572Y83791*
X45579Y83761*
X45588Y83729*
X45595Y83693*
X45601Y83651*
X45608Y83609*
X45611Y83561*
X45621Y83460*
X45624Y83347*
Y83344*
Y83334*
Y83321*
Y83302*
X45621Y83276*
Y83250*
X45618Y83217*
X45614Y83182*
X45608Y83107*
X45595Y83029*
X45576Y82949*
X45553Y82871*
Y82868*
X45550Y82861*
X45543Y82848*
X45537Y82829*
X45530Y82809*
X45517Y82787*
X45491Y82728*
X45459Y82667*
X45417Y82599*
X45368Y82534*
X45313Y82472*
X45307Y82466*
X45291Y82453*
X45265Y82434*
X45229Y82408*
X45184Y82379*
X45132Y82349*
X45067Y82320*
X44996Y82294*
X44993*
X44989Y82291*
X44980*
X44970Y82288*
X44934Y82281*
X44889Y82272*
X44834Y82262*
X44766Y82255*
X44685Y82252*
X44597Y82249*
X43749*
Y84490*
X44643*
X44669Y84487*
G37*
G36*
X67526Y83875D02*
X67821D01*
Y83531*
X67526*
Y82874*
Y82871*
Y82864*
Y82855*
Y82842*
Y82809*
Y82770*
X67529Y82732*
Y82693*
Y82664*
X67533Y82651*
Y82644*
X67536Y82638*
X67542Y82625*
X67552Y82608*
X67571Y82589*
X67578Y82586*
X67591Y82579*
X67614Y82573*
X67643Y82570*
X67656*
X67669Y82573*
X67688Y82576*
X67714Y82579*
X67743Y82586*
X67779Y82596*
X67818Y82608*
X67856Y82275*
X67853*
X67850Y82272*
X67830Y82265*
X67798Y82255*
X67756Y82246*
X67707Y82233*
X67649Y82223*
X67584Y82217*
X67516Y82213*
X67497*
X67474Y82217*
X67445Y82220*
X67413Y82223*
X67377Y82230*
X67341Y82239*
X67306Y82252*
X67303Y82255*
X67290Y82259*
X67273Y82268*
X67254Y82278*
X67209Y82311*
X67186Y82330*
X67167Y82353*
X67163Y82356*
X67160Y82366*
X67154Y82379*
X67144Y82398*
X67134Y82421*
X67124Y82450*
X67115Y82482*
X67108Y82518*
Y82521*
X67105Y82534*
Y82553*
X67102Y82586*
X67099Y82628*
Y82680*
X67095Y82709*
Y82744*
Y82780*
Y82822*
Y83531*
X66898*
Y83875*
X67095*
Y84199*
X67526Y84451*
Y83875*
G37*
G36*
X50977Y83907D02*
X51000D01*
X51023Y83901*
X51055Y83897*
X51087Y83888*
X51123Y83878*
X51162Y83862*
X51201Y83846*
X51243Y83823*
X51285Y83797*
X51327Y83768*
X51369Y83729*
X51408Y83690*
X51447Y83642*
Y83875*
X51848*
Y82414*
Y82411*
Y82401*
Y82388*
Y82369*
Y82343*
X51845Y82317*
X51842Y82255*
X51836Y82184*
X51829Y82113*
X51816Y82045*
X51810Y82016*
X51800Y81987*
X51797Y81980*
X51790Y81964*
X51780Y81938*
X51764Y81906*
X51745Y81870*
X51722Y81831*
X51696Y81796*
X51664Y81763*
X51661Y81760*
X51648Y81750*
X51628Y81734*
X51606Y81718*
X51573Y81698*
X51534Y81676*
X51489Y81656*
X51437Y81637*
X51431Y81634*
X51411Y81630*
X51382Y81621*
X51340Y81614*
X51285Y81605*
X51223Y81595*
X51152Y81592*
X51074Y81588*
X51036*
X51006Y81592*
X50974*
X50935Y81595*
X50893Y81601*
X50848Y81608*
X50751Y81624*
X50653Y81650*
X50608Y81666*
X50563Y81686*
X50524Y81705*
X50488Y81731*
X50485Y81734*
X50482Y81737*
X50462Y81757*
X50433Y81786*
X50404Y81828*
X50372Y81880*
X50343Y81941*
X50323Y82013*
X50320Y82051*
X50317Y82090*
Y82094*
Y82107*
Y82123*
X50320Y82142*
X50812Y82084*
Y82081*
X50815Y82071*
X50819Y82055*
X50822Y82038*
X50838Y82000*
X50851Y81980*
X50867Y81967*
X50870Y81964*
X50880Y81961*
X50893Y81951*
X50916Y81945*
X50942Y81935*
X50974Y81925*
X51013Y81922*
X51058Y81919*
X51087*
X51117Y81922*
X51152Y81925*
X51194Y81932*
X51236Y81941*
X51275Y81954*
X51311Y81970*
X51314Y81974*
X51321Y81977*
X51330Y81983*
X51343Y81996*
X51356Y82013*
X51369Y82032*
X51382Y82055*
X51395Y82081*
Y82084*
X51398Y82090*
X51402Y82103*
X51408Y82126*
X51411Y82152*
X51415Y82184*
X51418Y82226*
Y82275*
Y82511*
X51415Y82508*
X51408Y82502*
X51398Y82489*
X51382Y82469*
X51366Y82450*
X51343Y82427*
X51314Y82404*
X51285Y82382*
X51253Y82356*
X51214Y82333*
X51133Y82291*
X51087Y82275*
X51039Y82262*
X50987Y82252*
X50932Y82249*
X50919*
X50900Y82252*
X50877*
X50851Y82259*
X50819Y82265*
X50783Y82272*
X50744Y82285*
X50705Y82298*
X50663Y82317*
X50618Y82340*
X50576Y82366*
X50534Y82398*
X50492Y82434*
X50453Y82476*
X50414Y82524*
Y82528*
X50407Y82534*
X50401Y82547*
X50391Y82563*
X50378Y82586*
X50365Y82612*
X50352Y82641*
X50339Y82676*
X50326Y82712*
X50313Y82754*
X50300Y82800*
X50288Y82848*
X50271Y82952*
X50268Y83010*
X50265Y83068*
Y83072*
Y83088*
Y83107*
X50268Y83136*
X50271Y83169*
X50275Y83208*
X50281Y83253*
X50291Y83298*
X50313Y83402*
X50330Y83454*
X50346Y83506*
X50368Y83554*
X50394Y83606*
X50424Y83651*
X50459Y83693*
X50462Y83697*
X50469Y83703*
X50479Y83713*
X50495Y83729*
X50514Y83745*
X50537Y83761*
X50563Y83781*
X50595Y83803*
X50628Y83823*
X50666Y83842*
X50747Y83878*
X50796Y83891*
X50845Y83901*
X50896Y83907*
X50948Y83910*
X50961*
X50977Y83907*
G37*
G36*
X48349Y88645D02*
X48390Y88638D01*
X48442Y88627*
X48498Y88608*
X48553Y88586*
X48612Y88553*
X48457Y88127*
X48453Y88130*
X48435Y88138*
X48412Y88153*
X48383Y88167*
X48346Y88182*
X48309Y88197*
X48268Y88204*
X48227Y88208*
X48212*
X48190Y88204*
X48168Y88201*
X48142Y88193*
X48112Y88182*
X48083Y88167*
X48053Y88149*
X48049Y88145*
X48042Y88138*
X48027Y88123*
X48012Y88101*
X47994Y88075*
X47975Y88038*
X47957Y87993*
X47942Y87941*
Y87934*
X47938Y87923*
X47935Y87912*
Y87893*
X47931Y87871*
X47927Y87841*
X47924Y87808*
X47920Y87771*
X47916Y87723*
X47912Y87675*
Y87616*
X47909Y87553*
X47905Y87482*
Y87404*
Y87319*
Y86749*
X47412*
Y88608*
X47868*
Y88345*
X47872Y88349*
X47887Y88371*
X47909Y88404*
X47938Y88445*
X47968Y88486*
X48005Y88527*
X48038Y88564*
X48075Y88590*
X48079Y88593*
X48090Y88601*
X48112Y88608*
X48138Y88619*
X48168Y88630*
X48205Y88641*
X48242Y88645*
X48286Y88649*
X48316*
X48349Y88645*
G37*
G36*
X65662D02*
X65703Y88641D01*
X65748Y88634*
X65796Y88623*
X65848Y88608*
X65899Y88590*
X65907Y88586*
X65922Y88578*
X65948Y88567*
X65977Y88549*
X66011Y88527*
X66044Y88501*
X66077Y88471*
X66107Y88438*
X66111Y88434*
X66118Y88423*
X66129Y88404*
X66144Y88378*
X66162Y88349*
X66177Y88312*
X66192Y88275*
X66203Y88230*
Y88227*
X66207Y88208*
X66214Y88182*
X66218Y88145*
X66225Y88101*
X66229Y88041*
X66233Y87978*
Y87901*
Y86749*
X65740*
Y87693*
Y87697*
Y87708*
Y87723*
Y87741*
Y87767*
Y87793*
X65737Y87856*
X65733Y87919*
X65725Y87986*
X65718Y88041*
X65714Y88064*
X65707Y88082*
Y88086*
X65699Y88097*
X65692Y88112*
X65681Y88134*
X65648Y88178*
X65629Y88201*
X65603Y88219*
X65599Y88223*
X65592Y88227*
X65577Y88234*
X65555Y88245*
X65529Y88256*
X65503Y88264*
X65470Y88267*
X65433Y88271*
X65411*
X65388Y88267*
X65359Y88264*
X65322Y88253*
X65285Y88241*
X65244Y88223*
X65203Y88201*
X65200Y88197*
X65188Y88190*
X65170Y88171*
X65148Y88153*
X65125Y88123*
X65103Y88093*
X65081Y88053*
X65066Y88012*
Y88008*
X65059Y87990*
X65055Y87960*
X65048Y87916*
X65044Y87890*
X65040Y87856*
X65037Y87823*
Y87782*
X65033Y87741*
X65029Y87693*
Y87642*
Y87586*
Y86749*
X64537*
Y88608*
X64992*
Y88334*
X64996Y88338*
X65003Y88349*
X65018Y88364*
X65037Y88382*
X65059Y88408*
X65088Y88434*
X65122Y88464*
X65159Y88493*
X65200Y88519*
X65248Y88549*
X65296Y88575*
X65351Y88601*
X65411Y88619*
X65470Y88634*
X65537Y88645*
X65603Y88649*
X65629*
X65662Y88645*
G37*
G36*
X49742D02*
X49783Y88638D01*
X49834Y88627*
X49890Y88608*
X49946Y88586*
X50005Y88553*
X49849Y88127*
X49846Y88130*
X49827Y88138*
X49805Y88153*
X49775Y88167*
X49738Y88182*
X49701Y88197*
X49660Y88204*
X49620Y88208*
X49605*
X49583Y88204*
X49560Y88201*
X49534Y88193*
X49505Y88182*
X49475Y88167*
X49446Y88149*
X49442Y88145*
X49434Y88138*
X49420Y88123*
X49405Y88101*
X49386Y88075*
X49368Y88038*
X49349Y87993*
X49334Y87941*
Y87934*
X49331Y87923*
X49327Y87912*
Y87893*
X49323Y87871*
X49320Y87841*
X49316Y87808*
X49312Y87771*
X49309Y87723*
X49305Y87675*
Y87616*
X49301Y87553*
X49297Y87482*
Y87404*
Y87319*
Y86749*
X48805*
Y88608*
X49260*
Y88345*
X49264Y88349*
X49279Y88371*
X49301Y88404*
X49331Y88445*
X49360Y88486*
X49397Y88527*
X49431Y88564*
X49468Y88590*
X49472Y88593*
X49483Y88601*
X49505Y88608*
X49531Y88619*
X49560Y88630*
X49597Y88641*
X49634Y88645*
X49679Y88649*
X49709*
X49742Y88645*
G37*
G36*
X78457Y89356D02*
X78498Y89352D01*
X78546Y89349*
X78594Y89341*
X78650Y89334*
X78768Y89308*
X78828Y89289*
X78887Y89271*
X78946Y89245*
X79002Y89215*
X79054Y89182*
X79102Y89145*
X79105Y89141*
X79113Y89134*
X79124Y89123*
X79139Y89108*
X79157Y89086*
X79180Y89060*
X79202Y89030*
X79228Y88997*
X79250Y88956*
X79272Y88915*
X79294Y88867*
X79313Y88815*
X79331Y88764*
X79346Y88704*
X79357Y88645*
X79361Y88578*
X78843Y88560*
Y88564*
Y88567*
X78835Y88593*
X78828Y88627*
X78813Y88667*
X78794Y88715*
X78768Y88760*
X78735Y88804*
X78698Y88841*
X78694Y88845*
X78680Y88856*
X78654Y88871*
X78617Y88886*
X78572Y88901*
X78517Y88915*
X78450Y88927*
X78372Y88930*
X78335*
X78294Y88927*
X78246Y88919*
X78191Y88908*
X78132Y88890*
X78076Y88867*
X78024Y88834*
X78020Y88830*
X78013Y88823*
X77998Y88812*
X77983Y88793*
X77969Y88771*
X77954Y88741*
X77946Y88712*
X77943Y88675*
Y88671*
Y88660*
X77946Y88641*
X77954Y88623*
X77961Y88597*
X77972Y88571*
X77991Y88545*
X78017Y88519*
X78020Y88515*
X78039Y88504*
X78050Y88497*
X78069Y88490*
X78087Y88478*
X78113Y88467*
X78143Y88456*
X78176Y88441*
X78217Y88427*
X78257Y88412*
X78309Y88397*
X78365Y88382*
X78424Y88367*
X78491Y88349*
X78494*
X78509Y88345*
X78528Y88341*
X78554Y88334*
X78583Y88327*
X78620Y88315*
X78661Y88304*
X78702Y88293*
X78791Y88264*
X78883Y88234*
X78972Y88201*
X79009Y88182*
X79046Y88164*
X79050*
X79054Y88160*
X79076Y88145*
X79109Y88123*
X79150Y88093*
X79194Y88056*
X79243Y88012*
X79291Y87960*
X79331Y87901*
X79335Y87893*
X79346Y87871*
X79365Y87838*
X79383Y87790*
X79402Y87730*
X79420Y87660*
X79431Y87582*
X79435Y87493*
Y87490*
Y87482*
Y87471*
Y87456*
X79431Y87438*
X79428Y87412*
X79420Y87360*
X79405Y87293*
X79383Y87223*
X79350Y87153*
X79309Y87079*
Y87075*
X79302Y87071*
X79287Y87049*
X79257Y87012*
X79220Y86971*
X79172Y86923*
X79109Y86879*
X79043Y86834*
X78961Y86793*
X78957*
X78950Y86790*
X78939Y86786*
X78920Y86779*
X78898Y86771*
X78872Y86764*
X78843Y86756*
X78809Y86749*
X78768Y86738*
X78728Y86730*
X78631Y86716*
X78524Y86705*
X78406Y86701*
X78357*
X78324Y86705*
X78283Y86708*
X78239Y86712*
X78187Y86719*
X78132Y86730*
X78009Y86756*
X77946Y86775*
X77887Y86793*
X77824Y86819*
X77765Y86849*
X77709Y86882*
X77657Y86923*
X77654Y86927*
X77646Y86934*
X77632Y86945*
X77617Y86964*
X77595Y86990*
X77572Y87019*
X77546Y87053*
X77520Y87090*
X77495Y87134*
X77469Y87182*
X77443Y87238*
X77417Y87297*
X77398Y87360*
X77376Y87430*
X77361Y87504*
X77350Y87582*
X77854Y87630*
Y87627*
X77857Y87619*
Y87604*
X77861Y87590*
X77876Y87545*
X77895Y87490*
X77917Y87427*
X77950Y87364*
X77987Y87308*
X78035Y87256*
X78043Y87253*
X78061Y87238*
X78091Y87219*
X78135Y87197*
X78191Y87175*
X78254Y87156*
X78328Y87142*
X78413Y87138*
X78454*
X78498Y87145*
X78554Y87153*
X78613Y87164*
X78676Y87182*
X78735Y87208*
X78787Y87242*
X78794Y87245*
X78809Y87260*
X78828Y87282*
X78854Y87312*
X78876Y87349*
X78898Y87393*
X78913Y87438*
X78917Y87490*
Y87493*
Y87504*
X78913Y87523*
X78909Y87545*
X78902Y87567*
X78894Y87593*
X78880Y87619*
X78861Y87645*
X78857Y87649*
X78850Y87656*
X78839Y87667*
X78820Y87682*
X78794Y87701*
X78761Y87719*
X78724Y87738*
X78676Y87756*
X78672*
X78657Y87764*
X78631Y87771*
X78613Y87779*
X78591Y87782*
X78565Y87790*
X78535Y87801*
X78502Y87808*
X78465Y87819*
X78420Y87830*
X78372Y87841*
X78320Y87856*
X78261Y87871*
X78257*
X78243Y87875*
X78220Y87882*
X78194Y87890*
X78161Y87901*
X78120Y87912*
X78080Y87927*
X78032Y87941*
X77935Y87978*
X77843Y88023*
X77795Y88045*
X77754Y88071*
X77713Y88097*
X77680Y88123*
X77676Y88127*
X77669Y88134*
X77657Y88145*
X77643Y88160*
X77624Y88182*
X77606Y88208*
X77583Y88234*
X77565Y88267*
X77520Y88345*
X77483Y88434*
X77469Y88482*
X77458Y88530*
X77450Y88586*
X77446Y88641*
Y88645*
Y88649*
Y88660*
Y88675*
X77454Y88712*
X77461Y88760*
X77472Y88815*
X77491Y88878*
X77517Y88945*
X77554Y89008*
Y89012*
X77558Y89015*
X77576Y89038*
X77598Y89067*
X77635Y89104*
X77680Y89145*
X77735Y89189*
X77798Y89230*
X77872Y89267*
X77876*
X77883Y89271*
X77895Y89275*
X77909Y89282*
X77932Y89289*
X77954Y89297*
X77983Y89304*
X78017Y89315*
X78091Y89330*
X78176Y89345*
X78272Y89356*
X78380Y89360*
X78424*
X78457Y89356*
G37*
G36*
X59563D02*
X59604Y89352D01*
X59648Y89345*
X59700Y89338*
X59756Y89327*
X59815Y89312*
X59878Y89293*
X59941Y89271*
X60007Y89241*
X60070Y89212*
X60130Y89175*
X60193Y89130*
X60248Y89082*
X60252*
X60256Y89075*
X60267Y89064*
X60278Y89052*
X60293Y89034*
X60307Y89012*
X60348Y88960*
X60389Y88893*
X60433Y88812*
X60474Y88719*
X60511Y88612*
X60000Y88490*
Y88493*
X59996Y88497*
Y88508*
X59989Y88523*
X59978Y88556*
X59959Y88601*
X59933Y88653*
X59900Y88704*
X59856Y88756*
X59807Y88801*
X59800Y88804*
X59782Y88819*
X59752Y88838*
X59711Y88860*
X59659Y88882*
X59600Y88901*
X59533Y88915*
X59459Y88919*
X59433*
X59411Y88915*
X59389Y88912*
X59359Y88908*
X59296Y88893*
X59222Y88867*
X59145Y88830*
X59104Y88808*
X59067Y88782*
X59030Y88749*
X58996Y88712*
Y88708*
X58989Y88701*
X58982Y88690*
X58971Y88671*
X58956Y88649*
X58941Y88623*
X58926Y88590*
X58911Y88553*
X58893Y88508*
X58878Y88460*
X58863Y88404*
X58848Y88345*
X58837Y88278*
X58830Y88208*
X58826Y88130*
X58822Y88045*
Y88041*
Y88023*
Y87997*
X58826Y87967*
Y87927*
X58834Y87879*
X58837Y87830*
X58845Y87775*
X58867Y87660*
X58896Y87545*
X58915Y87490*
X58941Y87438*
X58967Y87390*
X58996Y87349*
X59000Y87345*
X59004Y87342*
X59015Y87330*
X59030Y87316*
X59067Y87286*
X59119Y87249*
X59182Y87208*
X59259Y87179*
X59348Y87153*
X59396Y87149*
X59448Y87145*
X59467*
X59482Y87149*
X59522Y87153*
X59570Y87160*
X59622Y87179*
X59682Y87201*
X59741Y87230*
X59800Y87275*
X59807Y87282*
X59826Y87301*
X59852Y87330*
X59882Y87375*
X59919Y87434*
X59952Y87504*
X59985Y87590*
X60015Y87690*
X60519Y87534*
Y87530*
X60515Y87516*
X60507Y87493*
X60496Y87464*
X60481Y87430*
X60467Y87390*
X60448Y87345*
X60426Y87297*
X60374Y87197*
X60307Y87093*
X60226Y86993*
X60182Y86949*
X60133Y86908*
X60130Y86905*
X60122Y86901*
X60107Y86890*
X60085Y86875*
X60059Y86860*
X60026Y86845*
X59989Y86827*
X59948Y86808*
X59900Y86786*
X59848Y86768*
X59793Y86753*
X59733Y86738*
X59670Y86723*
X59600Y86712*
X59530Y86708*
X59452Y86705*
X59430*
X59404Y86708*
X59367Y86712*
X59326Y86716*
X59274Y86723*
X59219Y86734*
X59156Y86749*
X59093Y86768*
X59026Y86790*
X58956Y86819*
X58885Y86853*
X58815Y86890*
X58745Y86938*
X58678Y86990*
X58615Y87053*
X58611Y87056*
X58600Y87067*
X58585Y87090*
X58563Y87116*
X58541Y87153*
X58511Y87193*
X58482Y87245*
X58452Y87304*
X58422Y87367*
X58393Y87438*
X58363Y87519*
X58341Y87604*
X58319Y87693*
X58304Y87793*
X58293Y87897*
X58289Y88008*
Y88012*
Y88016*
Y88038*
X58293Y88071*
Y88116*
X58300Y88167*
X58308Y88230*
X58315Y88297*
X58330Y88375*
X58348Y88453*
X58371Y88534*
X58397Y88615*
X58430Y88701*
X58467Y88782*
X58511Y88860*
X58559Y88934*
X58619Y89004*
X58622Y89008*
X58634Y89019*
X58652Y89038*
X58678Y89060*
X58711Y89086*
X58752Y89115*
X58796Y89149*
X58852Y89182*
X58911Y89215*
X58974Y89249*
X59048Y89278*
X59122Y89304*
X59208Y89327*
X59293Y89345*
X59389Y89356*
X59485Y89360*
X59530*
X59563Y89356*
G37*
G36*
X60547Y14685D02*
X60674Y14663D01*
X60781Y14578*
X60802Y14536*
X60823Y14472*
Y14450*
Y14429*
Y14365*
Y14280*
X60802Y14088*
X60760Y13875*
X60696Y13641*
X60611Y13449*
X60568Y13364*
X60504Y13300*
X60419Y13279*
X60334Y13258*
X60291*
X60248Y13300*
X60206Y13343*
X60121Y13407*
X60057Y13513*
X59950Y13662*
X59844Y13854*
X59801*
X59695Y13897*
X59610Y13939*
X59524Y14003*
X59439Y14088*
X59354Y14216*
Y14344*
Y14365*
X59375Y14386*
X59461Y14493*
X59588Y14599*
X59780Y14706*
X59844*
X59972Y14685*
X60121Y14663*
X60270Y14642*
X60504Y14706*
X60525*
X60547Y14685*
G37*
G36*
X56160Y15238D02*
X56181Y15196D01*
X56202Y15132*
Y14898*
Y14876*
X56181Y14855*
X56075Y14749*
X55926Y14621*
X55819Y14599*
X55713Y14578*
X55691*
X55670Y14599*
X55606Y14663*
X55542Y14770*
Y14940*
Y14961*
X55585Y15004*
X55670Y15111*
X55734Y15174*
X55840Y15260*
X56117*
X56160Y15238*
G37*
G36*
X56863Y15366D02*
X56905Y15323D01*
X56926Y15260*
Y15132*
Y15111*
Y15089*
X56905Y14961*
X56820Y14812*
X56777Y14749*
X56692Y14706*
X56415*
X56351Y14727*
X56309Y14812*
X56288Y14855*
X56266Y14940*
Y14961*
X56288Y15004*
X56351Y15153*
X56458Y15302*
X56501Y15366*
X56564Y15387*
X56820*
X56863Y15366*
G37*
G36*
X61079Y15451D02*
X61143Y15366D01*
X61185Y15281*
X61228Y15196*
X61207Y15153*
X61164Y15047*
X61079Y14940*
X60930Y14834*
X60674*
X60611Y14855*
X60547Y14940*
X60525Y14983*
X60504Y15068*
Y15089*
X60525Y15111*
X60589Y15217*
X60717Y15366*
X60887Y15494*
X61015*
X61079Y15451*
G37*
G36*
X60334Y15409D02*
X60376Y15366D01*
X60440Y15260*
Y15068*
Y15047*
X60419Y15025*
X60312Y14919*
X60163Y14812*
X60036Y14791*
X59908Y14770*
X59780Y14940*
Y15004*
Y15025*
Y15068*
X59844Y15217*
X59886Y15302*
X59950Y15366*
X60057Y15409*
X60206Y15430*
X60291*
X60334Y15409*
G37*
G36*
X61590Y14919D02*
X61654Y14834D01*
X61675Y14791*
Y14706*
Y14685*
X61654Y14642*
X61569Y14493*
X61420Y14344*
X61313Y14301*
X61185Y14280*
X61100*
X61036Y14323*
X60973Y14408*
X60951Y14472*
X60930Y14578*
Y14599*
X60951Y14642*
X61036Y14770*
X61185Y14876*
X61292Y14919*
X61420Y14940*
X61505*
X61590Y14919*
G37*
G36*
X56692Y14344D02*
Y13620D01*
Y13599*
Y13556*
X56650Y13428*
X56564Y13279*
X56501Y13194*
X56394Y13130*
X56202*
X56181Y13151*
X56117Y13237*
X56032Y13322*
X55904Y13449*
X55776Y13556*
X55649Y13662*
X55521Y13726*
X55414Y13748*
X55244Y13982*
Y14152*
Y14174*
X55265Y14216*
X55308Y14280*
X55414Y14344*
X55564Y14408*
X55670Y14450*
X55798Y14472*
X55947Y14493*
X56138Y14514*
X56330Y14536*
X56564*
X56692Y14344*
G37*
G36*
X57523Y11235D02*
X57608Y11192D01*
X57672Y11128*
X57714Y11107*
Y11064*
Y11001*
Y10979*
X57693Y10915*
X57672Y10851*
X57650Y10766*
X57587Y10660*
X57523Y10596*
X57416Y10532*
X57288Y10511*
X57246Y10532*
X57182Y10575*
X57097Y10638*
X57075Y10660*
X57054Y10702*
Y10766*
Y10788*
X57075Y10851*
X57097Y10915*
X57118Y11022*
X57182Y11107*
X57246Y11171*
X57352Y11235*
X57480Y11256*
X57501*
X57523Y11235*
G37*
G36*
X57288Y14131D02*
X57374Y14110D01*
X57438Y14046*
X57480Y14024*
Y13982*
Y13918*
Y13897*
X57459Y13833*
X57438Y13769*
X57395Y13684*
X57352Y13577*
X57267Y13513*
X57182Y13449*
X57054Y13428*
X57012Y13449*
X56926Y13492*
X56841Y13556*
X56820Y13577*
X56799Y13620*
Y13684*
Y13705*
X56820Y13748*
X56841Y13833*
X56863Y13918*
X56926Y14003*
X57012Y14088*
X57118Y14131*
X57246Y14152*
X57267*
X57288Y14131*
G37*
G36*
X57352Y14876D02*
X57395Y14834D01*
X57416Y14770*
Y14536*
Y14514*
X57374Y14472*
X57288Y14365*
X57225Y14301*
X57118Y14216*
X56905*
X56863Y14259*
X56820Y14301*
X56799Y14344*
X56777Y14429*
X56756Y14536*
Y14557*
X56777Y14578*
X56820Y14663*
X56905Y14791*
X57054Y14898*
X57310*
X57352Y14876*
G37*
G36*
X61441Y14195D02*
X61526Y14110D01*
X61590Y14003*
X61611Y13918*
X61590Y13875*
X61548Y13769*
X61441Y13662*
X61292Y13556*
X61036*
X60973Y13577*
X60930Y13662*
X60909Y13705*
X60887Y13790*
Y13811*
X60930Y13854*
X61015Y14003*
X61185Y14152*
X61292Y14195*
X61420Y14216*
X61441Y14195*
G37*
G36*
X60440Y18752D02*
X60525Y18709D01*
X60589Y18667*
X60632Y18624*
Y18582*
Y17687*
Y17666*
X60589Y17623*
X60504Y17517*
X60440Y17474*
X60334Y17389*
X60078*
X60057Y17410*
X60014Y17474*
X59929Y17581*
X59844Y17687*
X59716Y17794*
X59610Y17900*
X59482Y17964*
X59354Y17985*
X59184Y18220*
Y18241*
X59205Y18305*
X59248Y18390*
X59333Y18496*
X59482Y18603*
X59588Y18646*
X59695Y18688*
X59844Y18731*
X59993Y18752*
X60185Y18773*
X60419*
X60440Y18752*
G37*
G36*
X63826Y21329D02*
X63933Y21244D01*
X63975Y21180*
X64039Y21073*
Y21052*
X63996Y21009*
X63890Y20860*
X63720Y20711*
X63613Y20669*
X63485Y20647*
X63464Y20690*
X63400Y20775*
X63315Y20882*
X63294Y20967*
Y21009*
X63358Y21095*
X63400Y21158*
X63464Y21222*
X63571Y21286*
X63720Y21371*
X63741*
X63826Y21329*
G37*
G36*
X65125Y20945D02*
X65168Y20882D01*
X65232Y20775*
Y20754*
Y20690*
X65210Y20626*
X65168Y20541*
X65125Y20434*
X65040Y20370*
X64912Y20307*
X64763Y20285*
X64742*
X64699Y20307*
X64657Y20370*
X64571Y20477*
Y20541*
Y20562*
Y20605*
X64635Y20754*
X64678Y20839*
X64742Y20903*
X64848Y20945*
X64997Y20967*
X65083*
X65125Y20945*
G37*
G36*
X64635Y21414D02*
X64699Y21371D01*
X64763Y21265*
Y21244*
Y21201*
X64721Y21073*
X64635Y20924*
X64571Y20839*
X64465Y20775*
X64188*
X64146Y20796*
X64103Y20839*
X64082Y20903*
Y21137*
Y21158*
X64124Y21201*
X64167Y21244*
X64209Y21307*
X64295Y21371*
X64401Y21435*
X64593*
X64635Y21414*
G37*
G36*
X91757Y50674D02*
X91122Y51309D01*
X91757Y51944*
Y50674*
G37*
G36*
X3876Y43689D02*
X3241Y43054D01*
Y44324*
X3876Y43689*
G37*
G36*
X65125Y20200D02*
X65168Y20158D01*
X65232Y20051*
Y19987*
Y19966*
X65210Y19902*
Y19838*
X65168Y19753*
X65125Y19646*
X65040Y19583*
X64955Y19519*
X64827Y19497*
X64784Y19519*
X64699Y19561*
X64614Y19625*
X64593Y19646*
X64571Y19689*
Y19732*
Y19753*
Y19817*
X64593Y19881*
X64635Y19987*
X64699Y20072*
X64784Y20136*
X64891Y20200*
X65061Y20221*
X65083*
X65125Y20200*
G37*
G36*
X61292Y19114D02*
X61356Y19071D01*
X61420Y18965*
Y18944*
Y18901*
X61398Y18837*
X61377Y18752*
X61313Y18667*
X61249Y18560*
X61143Y18475*
X60994Y18411*
X60951Y18433*
X60887Y18475*
X60802Y18518*
X60781Y18560*
X60760Y18582*
Y18837*
Y18859*
X60802Y18901*
X60887Y19008*
X60951Y19071*
X61058Y19135*
X61249*
X61292Y19114*
G37*
G36*
X61356Y18326D02*
X61398Y18284D01*
X61420Y18220*
Y17985*
Y17964*
X61398Y17943*
X61313Y17836*
X61143Y17730*
X61058Y17709*
X60930Y17687*
X60909*
X60887Y17709*
X60823Y17751*
X60760Y17858*
Y18049*
Y18071*
X60802Y18113*
X60887Y18220*
X60951Y18284*
X61058Y18347*
X61313*
X61356Y18326*
G37*
G36*
X60099Y19476D02*
X60121Y19433D01*
X60142Y19370*
Y19263*
Y19242*
Y19199*
X60099Y19050*
X60036Y18965*
X59972Y18901*
X59865Y18859*
X59716Y18837*
X59631*
X59610Y18859*
X59546Y18922*
X59482Y19029*
Y19050*
Y19093*
X59503Y19178*
X59546Y19263*
X59610Y19348*
X59695Y19433*
X59801Y19476*
X59972Y19497*
X60057*
X60099Y19476*
G37*
G36*
X64465Y20413D02*
Y19497D01*
Y19476*
X64422Y19433*
X64380Y19391*
X64337Y19327*
X64252Y19284*
X64146Y19199*
X63975*
X63954Y19221*
X63911Y19284*
X63805Y19391*
X63698Y19497*
X63549Y19625*
X63379Y19753*
X63187Y19881*
X62996Y19987*
Y20051*
Y20072*
X63017Y20136*
X63059Y20221*
X63123Y20328*
X63251Y20413*
X63443Y20498*
X63549Y20541*
X63698Y20562*
X63847Y20583*
X64337*
X64465Y20413*
G37*
G36*
X60738Y19604D02*
X60823Y19540D01*
X60887Y19455*
X60930Y19391*
Y19327*
Y19284*
X60887Y19199*
X60823Y19135*
X60760Y19071*
X60653Y18986*
X60504Y18901*
X60461Y18922*
X60398Y18965*
X60312Y19008*
X60291Y19050*
X60270Y19071*
Y19135*
Y19157*
Y19199*
X60312Y19327*
X60398Y19476*
X60461Y19561*
X60568Y19625*
X60717*
X60738Y19604*
G37*
G36*
X56820Y11150D02*
X56905Y11086D01*
X56969Y10979*
X56990Y10894*
X56969Y10851*
X56926Y10745*
X56820Y10617*
X56692Y10511*
X56415*
X56351Y10553*
X56309Y10617*
X56288Y10681*
X56266Y10766*
Y10788*
X56309Y10830*
X56394Y10979*
X56564Y11128*
X56671Y11171*
X56799Y11192*
X56820Y11150*
G37*
G36*
X50793Y5634D02*
X50879Y5570D01*
X50942Y5464*
X50985Y5400*
Y5315*
Y5293*
X50964Y5229*
X50942Y5144*
X50900Y5038*
X50836Y4931*
X50772Y4846*
X50666Y4782*
X50559Y4761*
X50538*
X50517Y4782*
X50410Y4846*
X50304Y4974*
X50282Y5080*
X50261Y5187*
Y5208*
X50282Y5251*
X50304Y5336*
X50346Y5421*
X50410Y5506*
X50495Y5591*
X50602Y5634*
X50751Y5655*
X50772*
X50793Y5634*
G37*
G36*
X49196Y5528D02*
X49324Y5464D01*
X49430Y5336*
X49452Y5229*
X49473Y5123*
Y5102*
Y5080*
X49430Y4974*
X49388Y4889*
X49324Y4804*
X49239Y4718*
X49111Y4633*
X48962*
X48919Y4654*
X48855Y4740*
X48813Y4782*
X48749Y4867*
Y5187*
Y5208*
X48770Y5229*
X48855Y5336*
X48983Y5442*
X49154Y5549*
X49175*
X49196Y5528*
G37*
G36*
X53583Y6358D02*
X53604Y6316D01*
X53647Y6209*
X53690Y6081*
X53753Y5890*
X53796Y5634*
X53839Y5315*
Y5293*
X53817Y5251*
X53732Y5123*
X53583Y4995*
X53477Y4953*
X53349Y4931*
X53327Y4953*
X53285Y4995*
X53200Y5080*
X53093Y5187*
X52965Y5272*
X52795Y5379*
X52603Y5464*
X52369Y5549*
X52305Y5655*
Y5719*
Y5741*
X52327Y5804*
X52369Y5890*
X52454Y5996*
X52603Y6124*
X52710Y6188*
X52838Y6230*
X52965Y6273*
X53136Y6337*
X53327Y6379*
X53540Y6401*
X53583Y6358*
G37*
G36*
X54456Y6081D02*
X54499Y6017D01*
X54563Y5911*
Y5847*
Y5826*
Y5783*
X54520Y5634*
X54456Y5549*
X54392Y5485*
X54286Y5442*
X54137Y5421*
X54052*
X54030Y5442*
X53966Y5506*
X53902Y5613*
Y5634*
Y5677*
X53945Y5804*
X54030Y5954*
X54094Y6039*
X54201Y6103*
X54414*
X54456Y6081*
G37*
G36*
X50048Y5954D02*
X50133Y5890D01*
X50218Y5762*
X50261Y5698*
Y5613*
Y5591*
Y5549*
X50240Y5485*
X50218Y5400*
X50154Y5315*
X50091Y5229*
X49984Y5144*
X49835Y5059*
X49814*
X49792Y5080*
X49686Y5144*
X49580Y5229*
X49537Y5272*
X49516Y5315*
Y5485*
Y5506*
Y5570*
X49537Y5634*
X49580Y5741*
X49643Y5826*
X49729Y5890*
X49835Y5954*
X50005Y5975*
X50027*
X50048Y5954*
G37*
G36*
X51177Y4782D02*
X51241Y4697D01*
X51304Y4654*
X51347Y4569*
Y4463*
Y4442*
Y4399*
X51304Y4271*
X51219Y4122*
X51155Y4037*
X51049Y3973*
X50793*
X50751Y3994*
X50687Y4058*
X50623Y4165*
Y4271*
Y4292*
X50644Y4356*
X50666Y4442*
X50708Y4548*
X50751Y4633*
X50793Y4718*
X50857Y4782*
X50921Y4804*
X51134*
X51177Y4782*
G37*
G36*
X51640Y78348D02*
X50795D01*
Y78779*
X51640*
Y78348*
G37*
G36*
X15312Y44769D02*
X15076D01*
Y45499*
X15312*
Y44769*
G37*
G36*
X61395Y78348D02*
X60549D01*
Y78779*
X61395*
Y78348*
G37*
G36*
X50112Y4846D02*
X50154Y4804D01*
X50218Y4718*
X50304Y4569*
X50346Y4484*
X50389Y4356*
X50453Y4207*
X50495Y4058*
X50559Y3867*
X50623Y3654*
Y3632*
X50602Y3590*
X50538Y3462*
X50431Y3334*
X50367Y3270*
X50304Y3249*
X50197*
X49409Y3611*
X48962*
X48919Y3632*
X48855Y3717*
X48813Y3760*
X48749Y3845*
Y3973*
Y3994*
X48770Y4058*
X48813Y4143*
X48898Y4271*
X49047Y4399*
X49154Y4484*
X49260Y4548*
X49409Y4633*
X49558Y4718*
X49750Y4782*
X49963Y4867*
X50069*
X50112Y4846*
G37*
G36*
X58755Y80000D02*
X58778D01*
X58804Y79997*
X58862Y79984*
X58927Y79967*
X58998Y79941*
X59069Y79906*
X59102Y79883*
X59134Y79857*
X59137*
X59141Y79851*
X59150Y79841*
X59160Y79831*
X59176Y79815*
X59189Y79799*
X59225Y79754*
X59260Y79692*
X59296Y79621*
X59328Y79540*
X59351Y79443*
X58937Y79397*
Y79404*
X58933Y79417*
X58927Y79439*
X58920Y79469*
X58911Y79498*
X58895Y79530*
X58878Y79559*
X58856Y79585*
X58852Y79588*
X58843Y79595*
X58830Y79605*
X58810Y79618*
X58788Y79627*
X58759Y79637*
X58723Y79644*
X58687Y79647*
X58681*
X58665Y79644*
X58639Y79640*
X58606Y79631*
X58571Y79618*
X58532Y79595*
X58493Y79566*
X58457Y79524*
X58454Y79517*
X58448Y79511*
X58441Y79498*
X58435Y79485*
X58425Y79465*
X58418Y79443*
X58409Y79414*
X58396Y79381*
X58386Y79346*
X58376Y79303*
X58367Y79258*
X58357Y79206*
X58350Y79148*
X58344Y79083*
X58338Y79015*
X58341Y79018*
X58344Y79025*
X58354Y79031*
X58367Y79044*
X58383Y79061*
X58402Y79077*
X58448Y79112*
X58506Y79145*
X58574Y79177*
X58613Y79190*
X58652Y79197*
X58694Y79203*
X58739Y79206*
X58765*
X58784Y79203*
X58807Y79200*
X58833Y79197*
X58865Y79190*
X58898Y79180*
X58969Y79155*
X59008Y79138*
X59047Y79119*
X59086Y79096*
X59124Y79067*
X59163Y79035*
X59199Y78999*
X59202Y78996*
X59209Y78989*
X59218Y78980*
X59228Y78963*
X59244Y78941*
X59260Y78918*
X59277Y78889*
X59296Y78857*
X59316Y78821*
X59332Y78779*
X59348Y78737*
X59364Y78688*
X59374Y78640*
X59384Y78585*
X59390Y78529*
X59393Y78468*
Y78465*
Y78452*
Y78436*
X59390Y78410*
X59387Y78381*
X59384Y78348*
X59377Y78309*
X59367Y78270*
X59345Y78180*
X59328Y78134*
X59306Y78089*
X59283Y78044*
X59257Y77998*
X59225Y77953*
X59189Y77914*
X59186Y77911*
X59180Y77904*
X59170Y77895*
X59154Y77882*
X59134Y77866*
X59108Y77849*
X59082Y77830*
X59050Y77811*
X59014Y77791*
X58975Y77772*
X58933Y77755*
X58885Y77739*
X58836Y77726*
X58784Y77717*
X58729Y77710*
X58671Y77707*
X58655*
X58639Y77710*
X58616*
X58587Y77717*
X58551Y77720*
X58516Y77730*
X58474Y77739*
X58431Y77752*
X58386Y77772*
X58338Y77791*
X58292Y77817*
X58244Y77846*
X58198Y77882*
X58153Y77924*
X58111Y77969*
X58108Y77972*
X58101Y77982*
X58091Y77998*
X58078Y78021*
X58059Y78050*
X58043Y78086*
X58023Y78128*
X58004Y78176*
X57981Y78235*
X57962Y78296*
X57946Y78368*
X57929Y78449*
X57913Y78533*
X57904Y78627*
X57897Y78727*
X57894Y78837*
Y78840*
Y78844*
Y78853*
Y78863*
Y78895*
X57897Y78938*
X57900Y78989*
X57907Y79048*
X57913Y79112*
X57923Y79180*
X57933Y79252*
X57949Y79326*
X57968Y79401*
X57991Y79475*
X58017Y79543*
X58046Y79611*
X58082Y79673*
X58121Y79728*
X58124Y79731*
X58130Y79741*
X58143Y79754*
X58163Y79770*
X58185Y79792*
X58211Y79815*
X58244Y79841*
X58279Y79867*
X58321Y79890*
X58363Y79916*
X58415Y79938*
X58467Y79961*
X58522Y79977*
X58584Y79990*
X58645Y80000*
X58713Y80003*
X58739*
X58755Y80000*
G37*
G36*
X54009Y10319D02*
X54052Y10276D01*
X54073Y10213*
Y10106*
Y10085*
Y10042*
X54030Y9893*
X53966Y9808*
X53902Y9744*
X53796Y9702*
X53647Y9680*
X53583*
X53540Y9702*
X53477Y9787*
X53455Y9829*
X53413Y9914*
Y9936*
Y9978*
X53434Y10042*
X53477Y10106*
X53540Y10170*
X53626Y10255*
X53732Y10298*
X53902Y10340*
X53966*
X54009Y10319*
G37*
G36*
X57949Y9957D02*
X58034Y9914D01*
X58098Y9872*
X58140Y9829*
Y9787*
Y9744*
Y9723*
Y9680*
X58098Y9531*
X58034Y9467*
X57970Y9382*
X57863Y9297*
X57714Y9254*
X57672Y9276*
X57608Y9318*
X57523Y9361*
X57501Y9403*
X57480Y9425*
Y9680*
Y9702*
X57501Y9723*
X57608Y9829*
X57736Y9936*
X57821Y9957*
X57906Y9978*
X57927*
X57949Y9957*
G37*
G36*
X57246Y10383D02*
X57310Y10298D01*
X57352Y10234*
X57416Y10149*
Y10127*
Y10106*
Y9978*
X57395Y9787*
X57352Y9574*
X57288Y9361*
X57182Y9169*
X57054Y9041*
X56969Y9020*
X56863Y8999*
X56799*
X56777Y9020*
X56735Y9105*
X56650Y9212*
X56543Y9339*
X56394Y9467*
X56245Y9616*
X56075Y9744*
X55904Y9851*
Y9914*
Y9936*
Y9978*
X55947Y10106*
X55989Y10170*
X56053Y10255*
X56138Y10340*
X56266Y10404*
X57203*
X57246Y10383*
G37*
G36*
X53391Y10809D02*
X53477Y10766D01*
X53562Y10724*
X53604Y10681*
Y10638*
Y10404*
Y10383*
X53583Y10362*
X53477Y10255*
X53327Y10149*
X53221Y10127*
X53115Y10106*
X53093*
X53051Y10127*
X53008Y10170*
X52923Y10276*
Y10447*
Y10468*
X52944Y10511*
X53051Y10638*
X53178Y10766*
X53264Y10809*
X53349Y10830*
X53370*
X53391Y10809*
G37*
G36*
X58098Y10681D02*
X58140Y10596D01*
X58183Y10532*
X58204Y10447*
X58183Y10404*
X58119Y10298*
X58012Y10170*
X57842Y10042*
X57629*
X57587Y10085*
X57523Y10170*
X57501Y10234*
X57480Y10340*
Y10362*
X57501Y10404*
X57587Y10532*
X57736Y10638*
X57842Y10681*
X57970Y10702*
X58055*
X58098Y10681*
G37*
G36*
X52753Y10617D02*
X52795Y10553D01*
X52859Y10447*
Y10426*
Y10383*
X52838Y10298*
X52795Y10213*
X52731Y10127*
X52646Y10042*
X52540Y10000*
X52369Y9978*
X52348*
X52327Y10000*
X52263Y10042*
X52199Y10149*
Y10213*
Y10234*
Y10276*
X52263Y10426*
X52305Y10511*
X52369Y10575*
X52476Y10617*
X52625Y10638*
X52710*
X52753Y10617*
G37*
G36*
X53157Y6763D02*
Y6741D01*
Y6699*
X53136Y6635*
X53093Y6571*
X53051Y6507*
X52965Y6422*
X52838Y6379*
X52689Y6337*
X52667*
X52625Y6358*
X52582Y6401*
X52497Y6507*
Y6571*
Y6592*
Y6656*
X52518Y6720*
X52561Y6827*
X52625Y6912*
X52710Y6976*
X52816Y7040*
X52987Y7061*
X53157Y6763*
G37*
G36*
X54392Y6699D02*
Y6571D01*
Y6550*
Y6528*
X54371Y6401*
X54286Y6252*
X54222Y6188*
X54137Y6145*
X53924*
X53902Y6166*
X53839Y6230*
X53775Y6337*
Y6401*
Y6422*
Y6465*
X53796Y6550*
X53839Y6635*
X53902Y6720*
X53988Y6805*
X54094Y6848*
X54264Y6869*
X54392Y6699*
G37*
G36*
X53775Y7231D02*
X53817Y7189D01*
X53839Y7125*
Y6805*
X53817Y6763*
X53753Y6699*
X53647Y6592*
X53477Y6507*
X53434Y6528*
X53349Y6571*
X53264Y6635*
X53242Y6656*
X53221Y6699*
Y6805*
Y6827*
Y6869*
X53285Y7040*
X53327Y7103*
X53391Y7189*
X53498Y7231*
X53647Y7253*
X53732*
X53775Y7231*
G37*
G36*
X54137Y9425D02*
Y9190D01*
Y9169*
X54115Y9148*
X54030Y9041*
X53860Y8935*
X53775Y8914*
X53647Y8892*
X53626Y8935*
X53562Y8999*
X53498Y9105*
X53477Y9190*
Y9212*
X53519Y9254*
X53604Y9403*
X53775Y9552*
X53881Y9595*
X54009Y9616*
X54137Y9425*
G37*
G36*
X53093Y9957D02*
X53200Y9893D01*
X53285Y9829*
X53327Y9787*
X53349Y9744*
Y9297*
X53413Y8956*
Y8935*
X53391Y8892*
X53306Y8743*
X53157Y8573*
X53051Y8530*
X52923Y8509*
X52305Y9063*
X52263*
X52178Y9105*
X52028Y9190*
X51965Y9254*
X51901Y9361*
Y9382*
X51922Y9446*
X51965Y9531*
X52028Y9638*
X52156Y9744*
X52327Y9829*
X52582Y9914*
X52753Y9957*
X52923Y9978*
X53072*
X53093Y9957*
G37*
%LNanalogpsu-2*%
%LPC*%
G36*
X67755Y87638D02*
X67751D01*
X67736Y87630*
X67714Y87627*
X67681Y87616*
X67640Y87604*
X67584Y87590*
X67525Y87575*
X67451Y87560*
X67444*
X67433Y87556*
X67418Y87553*
X67384Y87545*
X67340Y87534*
X67296Y87523*
X67251Y87508*
X67214Y87490*
X67185Y87475*
X67181Y87471*
X67170Y87464*
X67155Y87449*
X67140Y87430*
X67122Y87404*
X67107Y87375*
X67096Y87342*
X67092Y87304*
Y87301*
Y87286*
X67096Y87267*
X67103Y87245*
X67110Y87216*
X67122Y87186*
X67140Y87156*
X67166Y87127*
X67170Y87123*
X67181Y87116*
X67196Y87105*
X67222Y87090*
X67247Y87075*
X67281Y87064*
X67322Y87056*
X67362Y87053*
X67384*
X67410Y87056*
X67444Y87064*
X67484Y87075*
X67525Y87090*
X67573Y87108*
X67618Y87138*
X67621Y87142*
X67633Y87149*
X67647Y87164*
X67666Y87182*
X67684Y87208*
X67703Y87234*
X67721Y87267*
X67733Y87301*
Y87304*
X67736Y87312*
X67740Y87330*
X67744Y87353*
X67747Y87386*
X67751Y87427*
X67755Y87479*
Y87538*
Y87638*
G37*
G36*
X38102D02*
X38099D01*
X38084Y87630*
X38062Y87627*
X38028Y87616*
X37988Y87604*
X37932Y87590*
X37873Y87575*
X37799Y87560*
X37791*
X37780Y87556*
X37765Y87553*
X37732Y87545*
X37688Y87534*
X37643Y87523*
X37599Y87508*
X37562Y87490*
X37532Y87475*
X37528Y87471*
X37517Y87464*
X37502Y87449*
X37488Y87430*
X37469Y87404*
X37454Y87375*
X37443Y87342*
X37439Y87304*
Y87301*
Y87286*
X37443Y87267*
X37451Y87245*
X37458Y87216*
X37469Y87186*
X37488Y87156*
X37513Y87127*
X37517Y87123*
X37528Y87116*
X37543Y87105*
X37569Y87090*
X37595Y87075*
X37628Y87064*
X37669Y87056*
X37710Y87053*
X37732*
X37758Y87056*
X37791Y87064*
X37832Y87075*
X37873Y87090*
X37921Y87108*
X37965Y87138*
X37969Y87142*
X37980Y87149*
X37995Y87164*
X38013Y87182*
X38032Y87208*
X38050Y87234*
X38069Y87267*
X38080Y87301*
Y87304*
X38084Y87312*
X38088Y87330*
X38091Y87353*
X38095Y87386*
X38099Y87427*
X38102Y87479*
Y87538*
Y87638*
G37*
G36*
X88738Y28715D02*
X88025Y28446D01*
X88738Y28185*
Y28715*
G37*
G36*
X44497Y84111D02*
X44202D01*
Y82628*
X44601*
X44643Y82631*
X44688*
X44734Y82638*
X44776Y82641*
X44811Y82647*
X44818*
X44831Y82654*
X44850Y82660*
X44876Y82670*
X44905Y82683*
X44934Y82699*
X44963Y82719*
X44993Y82741*
X44996Y82744*
X45006Y82754*
X45018Y82770*
X45035Y82793*
X45051Y82822*
X45074Y82858*
X45090Y82903*
X45109Y82955*
Y82958*
X45112Y82961*
Y82971*
X45116Y82984*
X45122Y82997*
X45125Y83017*
X45135Y83065*
X45142Y83123*
X45151Y83191*
X45155Y83276*
X45158Y83366*
Y83370*
Y83379*
Y83392*
Y83408*
Y83431*
X45155Y83457*
X45151Y83512*
X45145Y83577*
X45138Y83645*
X45125Y83706*
X45109Y83765*
Y83768*
X45106Y83771*
X45099Y83787*
X45090Y83813*
X45077Y83846*
X45057Y83878*
X45035Y83914*
X45009Y83949*
X44980Y83982*
X44976Y83985*
X44967Y83995*
X44947Y84008*
X44925Y84024*
X44892Y84043*
X44857Y84059*
X44818Y84076*
X44772Y84088*
X44769*
X44753Y84092*
X44727Y84095*
X44691Y84101*
X44669*
X44640Y84105*
X44610*
X44578Y84108*
X44539*
X44497Y84111*
G37*
G36*
X59644Y83227D02*
X59174D01*
Y82628*
X59673*
X59721Y82631*
X59773*
X59825Y82634*
X59867Y82638*
X59886*
X59899Y82641*
X59903*
X59916Y82644*
X59935Y82651*
X59958Y82657*
X59984Y82670*
X60013Y82686*
X60039Y82706*
X60065Y82728*
X60068Y82732*
X60074Y82741*
X60084Y82757*
X60097Y82780*
X60110Y82806*
X60120Y82838*
X60126Y82877*
X60129Y82919*
Y82923*
Y82936*
X60126Y82955*
X60123Y82978*
X60116Y83007*
X60107Y83033*
X60094Y83062*
X60078Y83091*
X60074Y83094*
X60068Y83104*
X60058Y83117*
X60042Y83130*
X60022Y83149*
X59997Y83165*
X59967Y83182*
X59935Y83195*
X59932*
X59916Y83201*
X59890Y83204*
X59873Y83208*
X59851Y83211*
X59828Y83214*
X59799Y83217*
X59767Y83221*
X59728*
X59689Y83224*
X59644Y83227*
G37*
G36*
X51058Y83580D02*
X51052D01*
X51032Y83577*
X51003Y83574*
X50968Y83564*
X50929Y83551*
X50883Y83528*
X50841Y83499*
X50802Y83457*
X50799Y83450*
X50786Y83434*
X50773Y83405*
X50754Y83366*
X50738Y83314*
X50721Y83253*
X50709Y83178*
X50705Y83091*
Y83088*
Y83081*
Y83065*
X50709Y83049*
Y83029*
X50712Y83004*
X50718Y82949*
X50728Y82887*
X50747Y82825*
X50770Y82767*
X50802Y82715*
X50806Y82709*
X50822Y82696*
X50841Y82676*
X50870Y82657*
X50906Y82634*
X50948Y82615*
X50997Y82602*
X51049Y82596*
X51055*
X51074Y82599*
X51104Y82602*
X51142Y82612*
X51185Y82625*
X51227Y82647*
X51272Y82676*
X51314Y82719*
X51317Y82725*
X51330Y82741*
X51350Y82770*
X51369Y82809*
X51389Y82861*
X51408Y82923*
X51421Y82997*
X51424Y83081*
Y83085*
Y83091*
Y83104*
Y83123*
X51421Y83143*
X51418Y83169*
X51411Y83224*
X51398Y83285*
X51382Y83347*
X51356Y83405*
X51321Y83457*
X51317Y83463*
X51301Y83476*
X51279Y83496*
X51249Y83518*
X51210Y83541*
X51165Y83561*
X51117Y83574*
X51058Y83580*
G37*
G36*
X56632D02*
X56625D01*
X56606Y83577*
X56577Y83574*
X56544Y83564*
X56502Y83551*
X56460Y83528*
X56418Y83499*
X56376Y83457*
X56373Y83450*
X56360Y83434*
X56344Y83405*
X56327Y83366*
X56308Y83314*
X56292Y83253*
X56279Y83178*
X56276Y83094*
Y83091*
Y83085*
Y83068*
Y83052*
X56279Y83029*
Y83007*
X56285Y82952*
X56292Y82890*
X56305Y82825*
X56324Y82767*
X56334Y82741*
X56347Y82719*
Y82715*
X56353Y82712*
X56366Y82693*
X56389Y82667*
X56421Y82638*
X56463Y82605*
X56512Y82579*
X56570Y82560*
X56603Y82557*
X56635Y82553*
X56641*
X56661Y82557*
X56687Y82560*
X56722Y82570*
X56761Y82583*
X56803Y82605*
X56845Y82634*
X56888Y82676*
X56891Y82683*
X56904Y82699*
X56920Y82728*
X56939Y82770*
X56959Y82822*
X56975Y82887*
X56988Y82965*
X56991Y83052*
Y83055*
Y83065*
Y83078*
Y83097*
X56988Y83120*
X56985Y83149*
X56978Y83208*
X56965Y83276*
X56949Y83340*
X56923Y83405*
X56907Y83431*
X56888Y83457*
X56884Y83463*
X56868Y83476*
X56849Y83496*
X56820Y83518*
X56781Y83541*
X56739Y83561*
X56687Y83574*
X56632Y83580*
G37*
G36*
X68753Y83279D02*
X68728D01*
X68698Y83272*
X68666Y83266*
X68627Y83253*
X68588Y83233*
X68549Y83204*
X68517Y83169*
X68514Y83162*
X68504Y83149*
X68494Y83127*
X68481Y83097*
X68465Y83062*
X68456Y83023*
X68446Y82978*
X68443Y82932*
Y82929*
Y82926*
Y82916*
Y82903*
X68449Y82871*
X68456Y82829*
X68465Y82783*
X68481Y82738*
X68504Y82693*
X68533Y82651*
X68536Y82647*
X68549Y82634*
X68569Y82621*
X68595Y82602*
X68627Y82586*
X68666Y82570*
X68711Y82557*
X68760Y82553*
X68783*
X68805Y82560*
X68838Y82566*
X68873Y82576*
X68909Y82592*
X68945Y82615*
X68980Y82647*
X68983Y82651*
X68993Y82667*
X69009Y82686*
X69025Y82719*
X69042Y82757*
X69058Y82806*
X69068Y82861*
X69071Y82926*
Y82929*
Y82932*
Y82952*
X69068Y82981*
X69061Y83017*
X69048Y83059*
X69032Y83101*
X69009Y83143*
X68980Y83182*
X68977Y83185*
X68964Y83198*
X68945Y83214*
X68919Y83230*
X68886Y83250*
X68847Y83263*
X68802Y83276*
X68753Y83279*
G37*
G36*
X46647Y83580D02*
X46625D01*
X46599Y83574*
X46566Y83567*
X46531Y83554*
X46492Y83538*
X46453Y83512*
X46418Y83476*
X46414Y83473*
X46405Y83457*
X46388Y83434*
X46372Y83402*
X46353Y83363*
X46340Y83314*
X46330Y83259*
X46327Y83198*
X46968*
Y83201*
Y83208*
Y83214*
X46965Y83227*
X46962Y83263*
X46955Y83302*
X46942Y83347*
X46926Y83395*
X46900Y83441*
X46871Y83480*
X46868Y83483*
X46855Y83496*
X46835Y83512*
X46809Y83531*
X46777Y83548*
X46738Y83564*
X46696Y83577*
X46647Y83580*
G37*
G36*
X55135Y79647D02*
X55122D01*
X55105Y79644*
X55089Y79640*
X55067Y79634*
X55044Y79624*
X55018Y79611*
X54995Y79595*
X54992Y79592*
X54986Y79585*
X54976Y79572*
X54963Y79556*
X54947Y79530*
X54934Y79501*
X54918Y79462*
X54905Y79417*
Y79414*
X54901Y79410*
Y79397*
X54898Y79384*
X54895Y79365*
X54892Y79342*
X54888Y79316*
X54885Y79284*
X54879Y79245*
X54876Y79206*
X54872Y79158*
X54869Y79109*
X54866Y79051*
Y78993*
X54863Y78925*
Y78853*
Y78850*
Y78837*
Y78814*
Y78789*
Y78756*
X54866Y78721*
Y78678*
X54869Y78636*
X54872Y78546*
X54879Y78455*
X54882Y78413*
X54888Y78374*
X54895Y78338*
X54901Y78306*
X54905Y78300*
X54908Y78283*
X54918Y78257*
X54927Y78228*
X54944Y78196*
X54960Y78164*
X54979Y78134*
X54999Y78112*
X55002Y78108*
X55008Y78105*
X55021Y78096*
X55037Y78089*
X55057Y78079*
X55080Y78070*
X55105Y78066*
X55135Y78063*
X55148*
X55164Y78066*
X55180Y78070*
X55203Y78076*
X55225Y78083*
X55248Y78096*
X55271Y78112*
X55274Y78115*
X55280Y78121*
X55293Y78134*
X55306Y78154*
X55319Y78176*
X55335Y78209*
X55352Y78244*
X55365Y78290*
Y78293*
X55368Y78296*
Y78309*
X55371Y78322*
X55374Y78342*
X55378Y78364*
X55384Y78390*
X55387Y78423*
X55390Y78458*
X55397Y78500*
X55400Y78546*
X55403Y78597*
X55407Y78653*
Y78714*
X55410Y78782*
Y78853*
Y78857*
Y78870*
Y78892*
Y78918*
Y78950*
X55407Y78986*
Y79028*
X55403Y79070*
X55400Y79161*
X55394Y79248*
X55387Y79291*
X55381Y79333*
X55374Y79368*
X55368Y79397*
Y79401*
X55365Y79404*
X55361Y79420*
X55352Y79446*
X55342Y79478*
X55326Y79511*
X55310Y79543*
X55290Y79572*
X55271Y79595*
X55267Y79598*
X55261Y79605*
X55248Y79611*
X55232Y79621*
X55212Y79631*
X55190Y79640*
X55164Y79644*
X55135Y79647*
G37*
G36*
X58671Y78889D02*
X58652D01*
X58626Y78882*
X58597Y78876*
X58564Y78863*
X58529Y78847*
X58493Y78821*
X58461Y78789*
X58457Y78785*
X58448Y78769*
X58435Y78746*
X58418Y78717*
X58402Y78675*
X58389Y78627*
X58380Y78568*
X58376Y78500*
Y78497*
Y78491*
Y78481*
Y78465*
X58383Y78429*
X58389Y78381*
X58399Y78329*
X58415Y78274*
X58438Y78222*
X58470Y78176*
X58474Y78173*
X58486Y78160*
X58509Y78141*
X58535Y78121*
X58567Y78099*
X58603Y78083*
X58645Y78070*
X58691Y78063*
X58710*
X58733Y78070*
X58762Y78076*
X58791Y78086*
X58827Y78102*
X58859Y78125*
X58891Y78154*
X58895Y78157*
X58904Y78173*
X58917Y78196*
X58933Y78228*
X58946Y78270*
X58959Y78322*
X58969Y78387*
X58972Y78461*
Y78465*
Y78471*
Y78484*
Y78497*
X58969Y78536*
X58963Y78585*
X58950Y78636*
X58937Y78691*
X58914Y78743*
X58885Y78785*
X58882Y78789*
X58869Y78802*
X58852Y78818*
X58827Y78837*
X58794Y78857*
X58759Y78873*
X58716Y78886*
X58671Y78889*
G37*
G36*
X68750Y84163D02*
X68731D01*
X68708Y84160*
X68679Y84153*
X68647Y84144*
X68614Y84131*
X68582Y84114*
X68553Y84088*
X68549Y84085*
X68543Y84076*
X68530Y84059*
X68517Y84037*
X68504Y84008*
X68491Y83975*
X68485Y83936*
X68481Y83891*
Y83884*
Y83868*
X68485Y83846*
X68491Y83816*
X68498Y83784*
X68511Y83752*
X68530Y83719*
X68553Y83690*
X68556Y83687*
X68566Y83680*
X68582Y83667*
X68604Y83655*
X68634Y83642*
X68666Y83629*
X68705Y83622*
X68747Y83619*
X68766*
X68789Y83622*
X68818Y83629*
X68851Y83635*
X68883Y83648*
X68915Y83667*
X68945Y83690*
X68948Y83693*
X68957Y83703*
X68967Y83719*
X68983Y83745*
X68996Y83774*
X69006Y83807*
X69016Y83849*
X69019Y83894*
Y83901*
Y83914*
X69016Y83936*
X69009Y83962*
X69000Y83995*
X68987Y84027*
X68970Y84059*
X68945Y84088*
X68941Y84092*
X68932Y84101*
X68915Y84111*
X68893Y84127*
X68864Y84140*
X68831Y84150*
X68792Y84160*
X68750Y84163*
G37*
G36*
X54831Y83580D02*
X54808D01*
X54783Y83574*
X54750Y83567*
X54715Y83554*
X54676Y83538*
X54637Y83512*
X54601Y83476*
X54598Y83473*
X54588Y83457*
X54572Y83434*
X54556Y83402*
X54536Y83363*
X54523Y83314*
X54514Y83259*
X54511Y83198*
X55152*
Y83201*
Y83208*
Y83214*
X55149Y83227*
X55145Y83263*
X55139Y83302*
X55126Y83347*
X55110Y83395*
X55084Y83441*
X55055Y83480*
X55051Y83483*
X55038Y83496*
X55019Y83512*
X54993Y83531*
X54961Y83548*
X54922Y83564*
X54880Y83577*
X54831Y83580*
G37*
G36*
X59624Y84118D02*
X59174D01*
Y83599*
X59608*
X59663Y83603*
X59763*
X59783Y83606*
X59802*
X59815Y83609*
X59835Y83612*
X59864Y83622*
X59893Y83632*
X59922Y83645*
X59951Y83661*
X59977Y83684*
X59980Y83687*
X59987Y83697*
X60000Y83710*
X60013Y83732*
X60022Y83758*
X60035Y83787*
X60042Y83823*
X60045Y83862*
Y83865*
Y83878*
X60042Y83897*
X60039Y83923*
X60032Y83949*
X60019Y83975*
X60006Y84004*
X59987Y84030*
X59984Y84033*
X59977Y84040*
X59961Y84053*
X59945Y84066*
X59919Y84079*
X59890Y84092*
X59854Y84101*
X59815Y84108*
X59812*
X59799Y84111*
X59763*
X59744Y84114*
X59660*
X59624Y84118*
G37*
G36*
X72706Y88271D02*
X72699D01*
X72677Y88267*
X72643Y88264*
X72602Y88253*
X72558Y88238*
X72506Y88212*
X72458Y88178*
X72414Y88130*
X72410Y88123*
X72395Y88104*
X72380Y88071*
X72358Y88027*
X72340Y87967*
X72321Y87897*
X72306Y87812*
X72302Y87712*
Y87708*
Y87701*
Y87682*
X72306Y87664*
Y87642*
X72310Y87612*
X72317Y87549*
X72328Y87479*
X72351Y87408*
X72377Y87342*
X72414Y87282*
X72417Y87275*
X72436Y87260*
X72458Y87238*
X72491Y87216*
X72532Y87190*
X72580Y87167*
X72636Y87153*
X72695Y87145*
X72702*
X72725Y87149*
X72758Y87153*
X72802Y87164*
X72851Y87179*
X72899Y87205*
X72951Y87238*
X72999Y87286*
X73002Y87293*
X73017Y87312*
X73039Y87345*
X73062Y87390*
X73084Y87449*
X73106Y87519*
X73121Y87604*
X73125Y87701*
Y87704*
Y87712*
Y87727*
Y87749*
X73121Y87771*
X73117Y87801*
X73110Y87864*
X73095Y87934*
X73076Y88004*
X73047Y88071*
X73006Y88130*
X73002Y88138*
X72984Y88153*
X72958Y88175*
X72925Y88201*
X72880Y88227*
X72828Y88249*
X72773Y88264*
X72706Y88271*
G37*
G36*
X54067Y88878D02*
X53730D01*
Y87182*
X54186*
X54234Y87186*
X54286*
X54338Y87193*
X54386Y87197*
X54427Y87205*
X54434*
X54449Y87212*
X54471Y87219*
X54501Y87230*
X54534Y87245*
X54567Y87264*
X54601Y87286*
X54634Y87312*
X54638Y87316*
X54649Y87327*
X54664Y87345*
X54682Y87371*
X54701Y87404*
X54727Y87445*
X54745Y87497*
X54767Y87556*
Y87560*
X54771Y87564*
Y87575*
X54775Y87590*
X54782Y87604*
X54786Y87627*
X54797Y87682*
X54804Y87749*
X54815Y87827*
X54819Y87923*
X54823Y88027*
Y88030*
Y88041*
Y88056*
Y88075*
Y88101*
X54819Y88130*
X54815Y88193*
X54808Y88267*
X54801Y88345*
X54786Y88415*
X54767Y88482*
Y88486*
X54764Y88490*
X54756Y88508*
X54745Y88538*
X54730Y88575*
X54708Y88612*
X54682Y88653*
X54652Y88693*
X54619Y88730*
X54615Y88734*
X54604Y88745*
X54582Y88760*
X54556Y88778*
X54519Y88801*
X54478Y88819*
X54434Y88838*
X54382Y88852*
X54378*
X54360Y88856*
X54330Y88860*
X54290Y88867*
X54264*
X54230Y88871*
X54197*
X54160Y88875*
X54115*
X54067Y88878*
G37*
G36*
X70566Y88249D02*
X70547D01*
X70532Y88245*
X70499Y88241*
X70455Y88230*
X70403Y88212*
X70347Y88186*
X70292Y88149*
X70240Y88101*
X70236Y88093*
X70221Y88075*
X70199Y88038*
X70177Y87993*
X70151Y87934*
X70132Y87860*
X70118Y87775*
X70110Y87679*
Y87675*
Y87667*
Y87653*
X70114Y87634*
Y87608*
X70118Y87582*
X70125Y87523*
X70143Y87453*
X70166Y87382*
X70195Y87312*
X70240Y87253*
X70247Y87245*
X70262Y87230*
X70292Y87208*
X70332Y87182*
X70377Y87153*
X70432Y87130*
X70495Y87116*
X70566Y87108*
X70584*
X70599Y87112*
X70632Y87116*
X70677Y87127*
X70729Y87145*
X70784Y87167*
X70836Y87205*
X70888Y87253*
X70895Y87260*
X70910Y87279*
X70929Y87316*
X70954Y87360*
X70980Y87423*
X70999Y87493*
X71014Y87582*
X71021Y87679*
Y87682*
Y87690*
Y87704*
X71017Y87723*
Y87745*
X71014Y87775*
X71006Y87834*
X70988Y87901*
X70966Y87971*
X70932Y88041*
X70888Y88101*
X70880Y88108*
X70866Y88123*
X70836Y88149*
X70799Y88175*
X70751Y88201*
X70699Y88227*
X70636Y88241*
X70566Y88249*
G37*
G36*
X41950Y88260D02*
X41943D01*
X41920Y88256*
X41887Y88253*
X41846Y88241*
X41798Y88227*
X41746Y88201*
X41698Y88167*
X41650Y88119*
X41646Y88112*
X41632Y88093*
X41613Y88060*
X41595Y88016*
X41572Y87956*
X41554Y87886*
X41539Y87804*
X41535Y87708*
Y87704*
Y87693*
Y87679*
X41539Y87656*
Y87630*
X41543Y87601*
X41550Y87534*
X41565Y87456*
X41587Y87379*
X41617Y87308*
X41635Y87275*
X41658Y87245*
X41665Y87238*
X41680Y87223*
X41706Y87197*
X41743Y87171*
X41783Y87145*
X41835Y87119*
X41895Y87105*
X41957Y87097*
X41965*
X41987Y87101*
X42017Y87105*
X42057Y87116*
X42102Y87130*
X42150Y87156*
X42198Y87190*
X42243Y87234*
X42246Y87242*
X42261Y87260*
X42280Y87293*
X42302Y87342*
X42309Y87371*
X42320Y87404*
X42332Y87442*
X42339Y87482*
X42346Y87527*
X42354Y87575*
X42357Y87627*
Y87682*
Y87686*
Y87697*
Y87712*
Y87730*
X42354Y87756*
X42350Y87782*
X42343Y87845*
X42328Y87916*
X42309Y87990*
X42280Y88056*
X42239Y88116*
X42235Y88123*
X42217Y88138*
X42191Y88160*
X42157Y88190*
X42117Y88216*
X42069Y88238*
X42013Y88253*
X41950Y88260*
G37*
G36*
X44131Y88271D02*
X44124D01*
X44102Y88267*
X44068Y88264*
X44028Y88253*
X43979Y88238*
X43928Y88212*
X43880Y88178*
X43831Y88134*
X43828Y88127*
X43813Y88108*
X43794Y88075*
X43776Y88030*
X43754Y87971*
X43735Y87901*
X43720Y87816*
X43717Y87716*
Y87712*
Y87704*
Y87690*
Y87667*
X43720Y87645*
Y87616*
X43728Y87553*
X43739Y87486*
X43754Y87416*
X43776Y87349*
X43805Y87290*
Y87286*
X43813Y87282*
X43828Y87260*
X43857Y87230*
X43898Y87193*
X43946Y87156*
X44005Y87127*
X44072Y87105*
X44109Y87101*
X44150Y87097*
X44157*
X44176Y87101*
X44209Y87105*
X44246Y87116*
X44291Y87130*
X44335Y87156*
X44383Y87190*
X44428Y87234*
X44431Y87242*
X44446Y87260*
X44465Y87293*
X44487Y87342*
X44509Y87401*
X44528Y87475*
X44535Y87519*
X44542Y87567*
X44546Y87616*
Y87671*
Y87675*
Y87686*
Y87701*
Y87723*
X44542Y87749*
X44539Y87779*
X44531Y87849*
X44516Y87923*
X44498Y88001*
X44468Y88071*
X44450Y88101*
X44428Y88130*
X44424Y88138*
X44405Y88153*
X44383Y88175*
X44346Y88201*
X44305Y88227*
X44254Y88249*
X44198Y88264*
X44131Y88271*
G37*
G36*
X56797Y88715D02*
X56449Y87764D01*
X57156*
X56797Y88715*
G37*
G36*
X35610Y88878D02*
X35017D01*
Y88227*
X35521*
X35595Y88230*
X35673Y88234*
X35751Y88238*
X35784Y88241*
X35814Y88245*
X35843Y88253*
X35862Y88256*
X35866*
X35877Y88264*
X35895Y88271*
X35914Y88282*
X35962Y88315*
X35984Y88338*
X36006Y88364*
X36010Y88367*
X36014Y88378*
X36025Y88393*
X36036Y88415*
X36043Y88445*
X36054Y88478*
X36058Y88515*
X36062Y88556*
Y88564*
Y88578*
X36058Y88601*
X36054Y88630*
X36043Y88664*
X36032Y88697*
X36014Y88734*
X35991Y88764*
X35988Y88767*
X35980Y88778*
X35962Y88790*
X35940Y88808*
X35914Y88827*
X35880Y88841*
X35840Y88856*
X35795Y88867*
X35791*
X35780Y88871*
X35758*
X35725Y88875*
X35643*
X35610Y88878*
G37*
G36*
X66227Y83026D02*
X66224D01*
X66211Y83020*
X66192Y83017*
X66163Y83007*
X66127Y82997*
X66078Y82984*
X66027Y82971*
X65962Y82958*
X65955*
X65946Y82955*
X65933Y82952*
X65904Y82945*
X65865Y82936*
X65826Y82926*
X65787Y82913*
X65755Y82897*
X65729Y82884*
X65725Y82881*
X65716Y82874*
X65703Y82861*
X65690Y82845*
X65674Y82822*
X65661Y82796*
X65651Y82767*
X65648Y82735*
Y82732*
Y82719*
X65651Y82702*
X65657Y82683*
X65664Y82657*
X65674Y82631*
X65690Y82605*
X65713Y82579*
X65716Y82576*
X65725Y82570*
X65738Y82560*
X65761Y82547*
X65784Y82534*
X65813Y82524*
X65849Y82518*
X65884Y82515*
X65904*
X65926Y82518*
X65955Y82524*
X65991Y82534*
X66027Y82547*
X66069Y82563*
X66108Y82589*
X66111Y82592*
X66121Y82599*
X66134Y82612*
X66150Y82628*
X66166Y82651*
X66182Y82673*
X66198Y82702*
X66208Y82732*
Y82735*
X66211Y82741*
X66214Y82757*
X66218Y82777*
X66221Y82806*
X66224Y82842*
X66227Y82887*
Y82939*
Y83026*
G37*
G36*
X76002Y88878D02*
X75617D01*
Y88149*
X75972*
X75998Y88153*
X76065*
X76132Y88156*
X76198Y88164*
X76258Y88175*
X76284Y88178*
X76306Y88186*
X76309Y88190*
X76324Y88193*
X76343Y88204*
X76365Y88216*
X76391Y88234*
X76417Y88256*
X76447Y88282*
X76469Y88312*
X76472Y88315*
X76480Y88327*
X76487Y88345*
X76498Y88371*
X76509Y88401*
X76521Y88434*
X76524Y88471*
X76528Y88512*
Y88519*
Y88534*
X76524Y88560*
X76517Y88593*
X76506Y88630*
X76491Y88671*
X76472Y88708*
X76443Y88745*
X76439Y88749*
X76428Y88760*
X76409Y88775*
X76387Y88793*
X76358Y88815*
X76321Y88834*
X76280Y88849*
X76235Y88860*
X76232*
X76217Y88864*
X76191Y88867*
X76154Y88871*
X76106*
X76072Y88875*
X76039*
X76002Y88878*
G37*
G36*
X62963Y88715D02*
X62615Y87764D01*
X63322*
X62963Y88715*
G37*
G36*
X46176Y88271D02*
X46150D01*
X46120Y88264*
X46083Y88256*
X46042Y88241*
X45998Y88223*
X45953Y88193*
X45913Y88153*
X45909Y88149*
X45898Y88130*
X45879Y88104*
X45861Y88067*
X45839Y88023*
X45824Y87967*
X45813Y87904*
X45809Y87834*
X46542*
Y87838*
Y87845*
Y87853*
X46538Y87867*
X46535Y87908*
X46527Y87953*
X46513Y88004*
X46494Y88060*
X46464Y88112*
X46431Y88156*
X46427Y88160*
X46413Y88175*
X46390Y88193*
X46361Y88216*
X46324Y88234*
X46279Y88253*
X46231Y88267*
X46176Y88271*
G37*
%LNanalogpsu-3*%
%LPD*%
G54D29*
X13499Y43999D02*
Y50999D01*
Y43999D02*
X16999D01*
Y50999*
X13499D02*
X16999D01*
X18499Y51899D02*
X28799D01*
X18499Y43399D02*
X28799D01*
G54D30*
X28799Y43399D02*
Y51899D01*
X18499Y43399D02*
Y51899D01*
X35199Y24199D02*
X77499D01*
Y74899*
X35199D02*
X77499D01*
X35199Y24199D02*
Y74899D01*
G54D31*
X19642Y17991D02*
X19659Y17974D01*
X19642Y17991D02*
Y24039D01*
X31276*
X31259Y24022D02*
X31276Y24039D01*
X31259Y17974D02*
Y24022D01*
X19659Y6839D02*
Y7174D01*
Y6839D02*
X19999Y6499D01*
X30999*
X31259Y6759*
Y7174*
Y17974*
X19659Y7174D02*
Y17974D01*
X31259D01*
X28406D02*
Y19099D01*
X27592Y17974D02*
Y19099D01*
X23326Y17974D02*
Y19099D01*
X22512Y17974D02*
Y19099D01*
X7821Y56523D02*
Y57475D01*
X8177Y56523D02*
Y57475D01*
Y59023D02*
Y59975D01*
X7821Y59023D02*
Y59975D01*
X10999Y74199D02*
X11749D01*
X8249D02*
X8999D01*
X6699Y80799D02*
X8999D01*
X10999D02*
X13299D01*
X6699Y75749D02*
Y80799D01*
X13299Y75749D02*
Y80799D01*
X11749Y74199D02*
X13299Y75749D01*
X6699D02*
X8249Y74199D01*
X18849Y57649D02*
Y58849D01*
Y61149D02*
Y62349D01*
X27149Y61149D02*
Y64149D01*
Y55849D02*
Y58849D01*
X20649Y64149D02*
X27149D01*
X20649Y55849D02*
X27149D01*
X18849Y57649D02*
X20649Y55849D01*
X18849Y62349D02*
X20649Y64149D01*
X23177Y66523D02*
Y67475D01*
X22821Y66523D02*
Y67475D01*
Y27023D02*
Y27975D01*
X23177Y27023D02*
Y27975D01*
X27149Y36149D02*
Y37349D01*
Y32649D02*
Y33849D01*
X18849Y30849D02*
Y33849D01*
Y36149D02*
Y39149D01*
Y30849D02*
X25349D01*
X18849Y39149D02*
X25349D01*
X27149Y37349*
X25349Y30849D02*
X27149Y32649D01*
X10999Y14699D02*
X11749D01*
X8249D02*
X8999D01*
X6699Y21299D02*
X8999D01*
X10999D02*
X13299D01*
X6699Y16249D02*
Y21299D01*
X13299Y16249D02*
Y21299D01*
X11749Y14699D02*
X13299Y16249D01*
X6699D02*
X8249Y14699D01*
X8321Y35023D02*
Y35975D01*
X8677Y35023D02*
Y35975D01*
Y37023D02*
Y37975D01*
X8321Y37023D02*
Y37975D01*
X30839Y77024D02*
X30856Y77007D01*
Y70959D02*
Y77007D01*
X19222Y70959D02*
X30856D01*
X19222D02*
X19239Y70976D01*
Y77024*
X30839Y87824D02*
Y88159D01*
X30499Y88499D02*
X30839Y88159D01*
X19499Y88499D02*
X30499D01*
X19239Y88239D02*
X19499Y88499D01*
X19239Y87824D02*
Y88239D01*
Y77024D02*
Y87824D01*
X30839Y77024D02*
Y87824D01*
X19239Y77024D02*
X30839D01*
X22092Y75899D02*
Y77024D01*
X22906Y75899D02*
Y77024D01*
X27172Y75899D02*
Y77024D01*
X27986Y75899D02*
Y77024D01*
X90817Y40641D02*
Y54357D01*
X83451D02*
X90817D01*
X91757Y50674D02*
Y51944D01*
X91122Y51309D02*
X91757Y51944D01*
X91122Y51309D02*
X91757Y50674D01*
X83451Y40641D02*
X90817D01*
X83451D02*
Y54357D01*
X84213Y50610D02*
Y52007D01*
X83959Y49404D02*
X89039D01*
Y50547*
X89928*
Y52071*
X89039D02*
X89928D01*
X89039D02*
Y53214D01*
X83959D02*
X89039D01*
X83959Y50356D02*
X84213Y50610D01*
X83959Y49404D02*
Y50356D01*
Y52262D02*
X84213Y52007D01*
X83959Y52262D02*
Y53214D01*
X4181Y40641D02*
Y54357D01*
Y40641D02*
X11547D01*
X3241Y43054D02*
Y44324D01*
Y43054D02*
X3876Y43689D01*
X3241Y44324D02*
X3876Y43689D01*
X4181Y54357D02*
X11547D01*
Y40641D02*
Y54357D01*
X10785Y42991D02*
Y44388D01*
X5959Y45594D02*
X11039D01*
X5959Y44451D02*
Y45594D01*
X5070Y44451D02*
X5959D01*
X5070Y42927D02*
Y44451D01*
Y42927D02*
X5959D01*
Y41784D02*
Y42927D01*
Y41784D02*
X11039D01*
X10785Y44388D02*
X11039Y44642D01*
Y45594*
X10785Y42991D02*
X11039Y42736D01*
Y41784D02*
Y42736D01*
G54D32*
X12015Y38269D02*
X11761Y38523D01*
X11253*
X10999Y38269*
Y37253*
X11253Y36999*
X11761*
X12015Y37253*
X13538Y38523D02*
X12523D01*
Y37761*
X13030Y38015*
X13284*
X13538Y37761*
Y37253*
X13284Y36999*
X12776*
X12523Y37253*
X14046Y38269D02*
X14300Y38523D01*
X14808*
X15062Y38269*
Y38015*
X14808Y37761*
X15062Y37507*
Y37253*
X14808Y36999*
X14300*
X14046Y37253*
Y37507*
X14300Y37761*
X14046Y38015*
Y38269*
X14300Y37761D02*
X14808D01*
X12015Y35769D02*
X11761Y36023D01*
X11253*
X10999Y35769*
Y34753*
X11253Y34499*
X11761*
X12015Y34753*
X13538Y36023D02*
X12523D01*
Y35261*
X13030Y35515*
X13284*
X13538Y35261*
Y34753*
X13284Y34499*
X12776*
X12523Y34753*
X14046Y36023D02*
X15062D01*
Y35769*
X14046Y34753*
Y34499*
X4229Y17515D02*
X3975Y17261D01*
Y16753*
X4229Y16499*
X5245*
X5499Y16753*
Y17261*
X5245Y17515*
X3975Y19038D02*
Y18023D01*
X4737*
X4483Y18530*
Y18784*
X4737Y19038*
X5245*
X5499Y18784*
Y18276*
X5245Y18023*
X3975Y20562D02*
X4229Y20054D01*
X4737Y19546*
X5245*
X5499Y19800*
Y20308*
X5245Y20562*
X4991*
X4737Y20308*
Y19546*
X31015Y35269D02*
X30761Y35523D01*
X30253*
X29999Y35269*
Y34253*
X30253Y33999*
X30761*
X31015Y34253*
X32538Y35523D02*
X31523D01*
Y34761*
X32030Y35015*
X32284*
X32538Y34761*
Y34253*
X32284Y33999*
X31776*
X31523Y34253*
X34062Y35523D02*
X33046D01*
Y34761*
X33554Y35015*
X33808*
X34062Y34761*
Y34253*
X33808Y33999*
X33300*
X33046Y34253*
X26515Y28269D02*
X26261Y28523D01*
X25753*
X25499Y28269*
Y27253*
X25753Y26999*
X26261*
X26515Y27253*
X28038Y28523D02*
X27023D01*
Y27761*
X27530Y28015*
X27784*
X28038Y27761*
Y27253*
X27784Y26999*
X27276*
X27023Y27253*
X29308Y26999D02*
Y28523D01*
X28546Y27761*
X29562*
X27015Y67269D02*
X26761Y67523D01*
X26253*
X25999Y67269*
Y66253*
X26253Y65999*
X26761*
X27015Y66253*
X28538Y67523D02*
X27523D01*
Y66761*
X28030Y67015*
X28284*
X28538Y66761*
Y66253*
X28284Y65999*
X27776*
X27523Y66253*
X29046Y67269D02*
X29300Y67523D01*
X29808*
X30062Y67269*
Y67015*
X29808Y66761*
X29554*
X29808*
X30062Y66507*
Y66253*
X29808Y65999*
X29300*
X29046Y66253*
X31015Y59769D02*
X30761Y60023D01*
X30253*
X29999Y59769*
Y58753*
X30253Y58499*
X30761*
X31015Y58753*
X32538Y60023D02*
X31523D01*
Y59261*
X32030Y59515*
X32284*
X32538Y59261*
Y58753*
X32284Y58499*
X31776*
X31523Y58753*
X34062Y58499D02*
X33046D01*
X34062Y59515*
Y59769*
X33808Y60023*
X33300*
X33046Y59769*
X4229Y78015D02*
X3975Y77761D01*
Y77253*
X4229Y76999*
X5245*
X5499Y77253*
Y77761*
X5245Y78015*
X4229Y78523D02*
X3975Y78776D01*
Y79284*
X4229Y79538*
X4483*
X4737Y79284*
Y79030*
Y79284*
X4991Y79538*
X5245*
X5499Y79284*
Y78776*
X5245Y78523*
X5499Y80046D02*
Y80554D01*
Y80300*
X3975*
X4229Y80046*
X11515Y60269D02*
X11261Y60523D01*
X10753*
X10499Y60269*
Y59253*
X10753Y58999*
X11261*
X11515Y59253*
X13038Y58999D02*
X12023D01*
X13038Y60015*
Y60269*
X12784Y60523*
X12276*
X12023Y60269*
X13546Y59253D02*
X13800Y58999D01*
X14308*
X14562Y59253*
Y60269*
X14308Y60523*
X13800*
X13546Y60269*
Y60015*
X13800Y59761*
X14562*
X11515Y57269D02*
X11261Y57523D01*
X10753*
X10499Y57269*
Y56253*
X10753Y55999*
X11261*
X11515Y56253*
X13038Y55999D02*
X12023D01*
X13038Y57015*
Y57269*
X12784Y57523*
X12276*
X12023Y57269*
X13546D02*
X13800Y57523D01*
X14308*
X14562Y57269*
Y57015*
X14308Y56761*
X14562Y56507*
Y56253*
X14308Y55999*
X13800*
X13546Y56253*
Y56507*
X13800Y56761*
X13546Y57015*
Y57269*
X13800Y56761D02*
X14308D01*
X32499Y14523D02*
Y13253D01*
X32753Y12999*
X33261*
X33515Y13253*
Y14523*
X34023Y14269D02*
X34276Y14523D01*
X34784*
X35038Y14269*
Y14015*
X34784Y13761*
X35038Y13507*
Y13253*
X34784Y12999*
X34276*
X34023Y13253*
Y13507*
X34276Y13761*
X34023Y14015*
Y14269*
X34276Y13761D02*
X34784D01*
X15499Y87773D02*
Y86503D01*
X15753Y86249*
X16261*
X16515Y86503*
Y87773*
X17023D02*
X18038D01*
Y87519*
X17023Y86503*
Y86249*
X80749Y72523D02*
X81765D01*
X81257*
Y70999*
X83288D02*
X82273D01*
X83288Y72015*
Y72269*
X83034Y72523*
X82526*
X82273Y72269*
X30499Y46975D02*
Y48499D01*
X31261*
X31515Y48245*
Y47229*
X31261Y46975*
X30499*
X32023Y47229D02*
X32276Y46975D01*
X32784*
X33038Y47229*
Y47483*
X32784Y47737*
X32530*
X32784*
X33038Y47991*
Y48245*
X32784Y48499*
X32276*
X32023Y48245*
M02*